<svg version="1.1" viewBox="0.0 0.0 600.0 371.0" fill="none" stroke="none" stroke-linecap="square" stroke-miterlimit="10" width="600" height="371" xmlns:xlink="http://www.w3.org/1999/xlink" xmlns="http://www.w3.org/2000/svg"><path fill="#ffffff" d="M0 0L600.0 0L600.0 371.0L0 371.0L0 0Z" fill-rule="nonzero"/><path stroke="#333333" stroke-width="1.0" stroke-linecap="butt" d="M45.5 300.5L581.5 300.5" fill-rule="nonzero"/><path stroke="#cccccc" stroke-width="1.0" stroke-linecap="butt" d="M45.5 293.5L581.5 293.5" fill-rule="nonzero"/><path stroke="#cccccc" stroke-width="1.0" stroke-linecap="butt" d="M45.5 286.5L581.5 286.5" fill-rule="nonzero"/><path stroke="#cccccc" stroke-width="1.0" stroke-linecap="butt" d="M45.5 279.5L581.5 279.5" fill-rule="nonzero"/><path stroke="#cccccc" stroke-width="1.0" stroke-linecap="butt" d="M45.5 272.5L581.5 272.5" fill-rule="nonzero"/><path stroke="#cccccc" stroke-width="1.0" stroke-linecap="butt" d="M45.5 264.5L581.5 264.5" fill-rule="nonzero"/><path stroke="#cccccc" stroke-width="1.0" stroke-linecap="butt" d="M45.5 257.5L581.5 257.5" fill-rule="nonzero"/><path stroke="#cccccc" stroke-width="1.0" stroke-linecap="butt" d="M45.5 250.5L581.5 250.5" fill-rule="nonzero"/><path stroke="#cccccc" stroke-width="1.0" stroke-linecap="butt" d="M45.5 243.5L581.5 243.5" fill-rule="nonzero"/><path stroke="#cccccc" stroke-width="1.0" stroke-linecap="butt" d="M45.5 236.5L581.5 236.5" fill-rule="nonzero"/><path stroke="#cccccc" stroke-width="1.0" stroke-linecap="butt" d="M45.5 229.5L581.5 229.5" fill-rule="nonzero"/><path stroke="#cccccc" stroke-width="1.0" stroke-linecap="butt" d="M45.5 222.5L581.5 222.5" fill-rule="nonzero"/><path stroke="#cccccc" stroke-width="1.0" stroke-linecap="butt" d="M45.5 215.5L581.5 215.5" fill-rule="nonzero"/><path stroke="#cccccc" stroke-width="1.0" stroke-linecap="butt" d="M45.5 208.5L581.5 208.5" fill-rule="nonzero"/><path stroke="#cccccc" stroke-width="1.0" stroke-linecap="butt" d="M45.5 201.5L581.5 201.5" fill-rule="nonzero"/><path stroke="#cccccc" stroke-width="1.0" stroke-linecap="butt" d="M45.5 193.5L581.5 193.5" fill-rule="nonzero"/><path stroke="#cccccc" stroke-width="1.0" stroke-linecap="butt" d="M45.5 186.5L581.5 186.5" fill-rule="nonzero"/><path stroke="#cccccc" stroke-width="1.0" stroke-linecap="butt" d="M45.5 179.5L581.5 179.5" fill-rule="nonzero"/><path stroke="#cccccc" stroke-width="1.0" stroke-linecap="butt" d="M45.5 172.5L581.5 172.5" fill-rule="nonzero"/><path stroke="#cccccc" stroke-width="1.0" stroke-linecap="butt" d="M45.5 165.5L581.5 165.5" fill-rule="nonzero"/><path stroke="#cccccc" stroke-width="1.0" stroke-linecap="butt" d="M45.5 158.5L581.5 158.5" fill-rule="nonzero"/><path stroke="#cccccc" stroke-width="1.0" stroke-linecap="butt" d="M45.5 151.5L581.5 151.5" fill-rule="nonzero"/><path stroke="#cccccc" stroke-width="1.0" stroke-linecap="butt" d="M45.5 144.5L581.5 144.5" fill-rule="nonzero"/><path stroke="#cccccc" stroke-width="1.0" stroke-linecap="butt" d="M45.5 137.5L581.5 137.5" fill-rule="nonzero"/><path stroke="#cccccc" stroke-width="1.0" stroke-linecap="butt" d="M45.5 130.5L581.5 130.5" fill-rule="nonzero"/><path stroke="#cccccc" stroke-width="1.0" stroke-linecap="butt" d="M45.5 122.5L581.5 122.5" fill-rule="nonzero"/><path stroke="#cccccc" stroke-width="1.0" stroke-linecap="butt" d="M45.5 115.5L581.5 115.5" fill-rule="nonzero"/><path stroke="#cccccc" stroke-width="1.0" stroke-linecap="butt" d="M45.5 108.5L581.5 108.5" fill-rule="nonzero"/><path stroke="#cccccc" stroke-width="1.0" stroke-linecap="butt" d="M45.5 101.5L581.5 101.5" fill-rule="nonzero"/><path stroke="#cccccc" stroke-width="1.0" stroke-linecap="butt" d="M45.5 94.5L581.5 94.5" fill-rule="nonzero"/><path stroke="#cccccc" stroke-width="1.0" stroke-linecap="butt" d="M45.5 87.5L581.5 87.5" fill-rule="nonzero"/><path stroke="#cccccc" stroke-width="1.0" stroke-linecap="butt" d="M45.5 80.5L581.5 80.5" fill-rule="nonzero"/><path stroke="#cccccc" stroke-width="1.0" stroke-linecap="butt" d="M45.5 73.5L581.5 73.5" fill-rule="nonzero"/><path stroke="#cccccc" stroke-width="1.0" stroke-linecap="butt" d="M45.5 66.5L581.5 66.5" fill-rule="nonzero"/><path stroke="#cccccc" stroke-width="1.0" stroke-linecap="butt" d="M45.5 59.5L581.5 59.5" fill-rule="nonzero"/><path stroke="#cccccc" stroke-width="1.0" stroke-linecap="butt" d="M45.5 51.5L581.5 51.5" fill-rule="nonzero"/><path stroke="#e6e6e6" stroke-width="1.0" stroke-linecap="butt" d="M45.5 299.5L581.5 299.5" fill-rule="nonzero"/><path stroke="#e6e6e6" stroke-width="1.0" stroke-linecap="butt" d="M45.5 297.5L581.5 297.5" fill-rule="nonzero"/><path stroke="#e6e6e6" stroke-width="1.0" stroke-linecap="butt" d="M45.5 296.5L581.5 296.5" fill-rule="nonzero"/><path stroke="#e6e6e6" stroke-width="1.0" stroke-linecap="butt" d="M45.5 294.5L581.5 294.5" fill-rule="nonzero"/><path stroke="#e6e6e6" stroke-width="1.0" stroke-linecap="butt" d="M45.5 291.5L581.5 291.5" fill-rule="nonzero"/><path stroke="#e6e6e6" stroke-width="1.0" stroke-linecap="butt" d="M45.5 290.5L581.5 290.5" fill-rule="nonzero"/><path stroke="#e6e6e6" stroke-width="1.0" stroke-linecap="butt" d="M45.5 289.5L581.5 289.5" fill-rule="nonzero"/><path stroke="#e6e6e6" stroke-width="1.0" stroke-linecap="butt" d="M45.5 287.5L581.5 287.5" fill-rule="nonzero"/><path stroke="#e6e6e6" stroke-width="1.0" stroke-linecap="butt" d="M45.5 284.5L581.5 284.5" fill-rule="nonzero"/><path stroke="#e6e6e6" stroke-width="1.0" stroke-linecap="butt" d="M45.5 283.5L581.5 283.5" fill-rule="nonzero"/><path stroke="#e6e6e6" stroke-width="1.0" stroke-linecap="butt" d="M45.5 281.5L581.5 281.5" fill-rule="nonzero"/><path stroke="#e6e6e6" stroke-width="1.0" stroke-linecap="butt" d="M45.5 280.5L581.5 280.5" fill-rule="nonzero"/><path stroke="#e6e6e6" stroke-width="1.0" stroke-linecap="butt" d="M45.5 277.5L581.5 277.5" fill-rule="nonzero"/><path stroke="#e6e6e6" stroke-width="1.0" stroke-linecap="butt" d="M45.5 276.5L581.5 276.5" fill-rule="nonzero"/><path stroke="#e6e6e6" stroke-width="1.0" stroke-linecap="butt" d="M45.5 274.5L581.5 274.5" fill-rule="nonzero"/><path stroke="#e6e6e6" stroke-width="1.0" stroke-linecap="butt" d="M45.5 273.5L581.5 273.5" fill-rule="nonzero"/><path stroke="#e6e6e6" stroke-width="1.0" stroke-linecap="butt" d="M45.5 270.5L581.5 270.5" fill-rule="nonzero"/><path stroke="#e6e6e6" stroke-width="1.0" stroke-linecap="butt" d="M45.5 269.5L581.5 269.5" fill-rule="nonzero"/><path stroke="#e6e6e6" stroke-width="1.0" stroke-linecap="butt" d="M45.5 267.5L581.5 267.5" fill-rule="nonzero"/><path stroke="#e6e6e6" stroke-width="1.0" stroke-linecap="butt" d="M45.5 266.5L581.5 266.5" fill-rule="nonzero"/><path stroke="#e6e6e6" stroke-width="1.0" stroke-linecap="butt" d="M45.5 263.5L581.5 263.5" fill-rule="nonzero"/><path stroke="#e6e6e6" stroke-width="1.0" stroke-linecap="butt" d="M45.5 262.5L581.5 262.5" fill-rule="nonzero"/><path stroke="#e6e6e6" stroke-width="1.0" stroke-linecap="butt" d="M45.5 260.5L581.5 260.5" fill-rule="nonzero"/><path stroke="#e6e6e6" stroke-width="1.0" stroke-linecap="butt" d="M45.5 259.5L581.5 259.5" fill-rule="nonzero"/><path stroke="#e6e6e6" stroke-width="1.0" stroke-linecap="butt" d="M45.5 256.5L581.5 256.5" fill-rule="nonzero"/><path stroke="#e6e6e6" stroke-width="1.0" stroke-linecap="butt" d="M45.5 255.5L581.5 255.5" fill-rule="nonzero"/><path stroke="#e6e6e6" stroke-width="1.0" stroke-linecap="butt" d="M45.5 253.5L581.5 253.5" fill-rule="nonzero"/><path stroke="#e6e6e6" stroke-width="1.0" stroke-linecap="butt" d="M45.5 252.5L581.5 252.5" fill-rule="nonzero"/><path stroke="#e6e6e6" stroke-width="1.0" stroke-linecap="butt" d="M45.5 249.5L581.5 249.5" fill-rule="nonzero"/><path stroke="#e6e6e6" stroke-width="1.0" stroke-linecap="butt" d="M45.5 247.5L581.5 247.5" fill-rule="nonzero"/><path stroke="#e6e6e6" stroke-width="1.0" stroke-linecap="butt" d="M45.5 246.5L581.5 246.5" fill-rule="nonzero"/><path stroke="#e6e6e6" stroke-width="1.0" stroke-linecap="butt" d="M45.5 245.5L581.5 245.5" fill-rule="nonzero"/><path stroke="#e6e6e6" stroke-width="1.0" stroke-linecap="butt" d="M45.5 242.5L581.5 242.5" fill-rule="nonzero"/><path stroke="#e6e6e6" stroke-width="1.0" stroke-linecap="butt" d="M45.5 240.5L581.5 240.5" fill-rule="nonzero"/><path stroke="#e6e6e6" stroke-width="1.0" stroke-linecap="butt" d="M45.5 239.5L581.5 239.5" fill-rule="nonzero"/><path stroke="#e6e6e6" stroke-width="1.0" stroke-linecap="butt" d="M45.5 237.5L581.5 237.5" fill-rule="nonzero"/><path stroke="#e6e6e6" stroke-width="1.0" stroke-linecap="butt" d="M45.5 235.5L581.5 235.5" fill-rule="nonzero"/><path stroke="#e6e6e6" stroke-width="1.0" stroke-linecap="butt" d="M45.5 233.5L581.5 233.5" fill-rule="nonzero"/><path stroke="#e6e6e6" stroke-width="1.0" stroke-linecap="butt" d="M45.5 232.5L581.5 232.5" fill-rule="nonzero"/><path stroke="#e6e6e6" stroke-width="1.0" stroke-linecap="butt" d="M45.5 230.5L581.5 230.5" fill-rule="nonzero"/><path stroke="#e6e6e6" stroke-width="1.0" stroke-linecap="butt" d="M45.5 228.5L581.5 228.5" fill-rule="nonzero"/><path stroke="#e6e6e6" stroke-width="1.0" stroke-linecap="butt" d="M45.5 226.5L581.5 226.5" fill-rule="nonzero"/><path stroke="#e6e6e6" stroke-width="1.0" stroke-linecap="butt" d="M45.5 225.5L581.5 225.5" fill-rule="nonzero"/><path stroke="#e6e6e6" stroke-width="1.0" stroke-linecap="butt" d="M45.5 223.5L581.5 223.5" fill-rule="nonzero"/><path stroke="#e6e6e6" stroke-width="1.0" stroke-linecap="butt" d="M45.5 220.5L581.5 220.5" fill-rule="nonzero"/><path stroke="#e6e6e6" stroke-width="1.0" stroke-linecap="butt" d="M45.5 219.5L581.5 219.5" fill-rule="nonzero"/><path stroke="#e6e6e6" stroke-width="1.0" stroke-linecap="butt" d="M45.5 218.5L581.5 218.5" fill-rule="nonzero"/><path stroke="#e6e6e6" stroke-width="1.0" stroke-linecap="butt" d="M45.5 216.5L581.5 216.5" fill-rule="nonzero"/><path stroke="#e6e6e6" stroke-width="1.0" stroke-linecap="butt" d="M45.5 213.5L581.5 213.5" fill-rule="nonzero"/><path stroke="#e6e6e6" stroke-width="1.0" stroke-linecap="butt" d="M45.5 212.5L581.5 212.5" fill-rule="nonzero"/><path stroke="#e6e6e6" stroke-width="1.0" stroke-linecap="butt" d="M45.5 210.5L581.5 210.5" fill-rule="nonzero"/><path stroke="#e6e6e6" stroke-width="1.0" stroke-linecap="butt" d="M45.5 209.5L581.5 209.5" fill-rule="nonzero"/><path stroke="#e6e6e6" stroke-width="1.0" stroke-linecap="butt" d="M45.5 206.5L581.5 206.5" fill-rule="nonzero"/><path stroke="#e6e6e6" stroke-width="1.0" stroke-linecap="butt" d="M45.5 205.5L581.5 205.5" fill-rule="nonzero"/><path stroke="#e6e6e6" stroke-width="1.0" stroke-linecap="butt" d="M45.5 203.5L581.5 203.5" fill-rule="nonzero"/><path stroke="#e6e6e6" stroke-width="1.0" stroke-linecap="butt" d="M45.5 202.5L581.5 202.5" fill-rule="nonzero"/><path stroke="#e6e6e6" stroke-width="1.0" stroke-linecap="butt" d="M45.5 199.5L581.5 199.5" fill-rule="nonzero"/><path stroke="#e6e6e6" stroke-width="1.0" stroke-linecap="butt" d="M45.5 198.5L581.5 198.5" fill-rule="nonzero"/><path stroke="#e6e6e6" stroke-width="1.0" stroke-linecap="butt" d="M45.5 196.5L581.5 196.5" fill-rule="nonzero"/><path stroke="#e6e6e6" stroke-width="1.0" stroke-linecap="butt" d="M45.5 195.5L581.5 195.5" fill-rule="nonzero"/><path stroke="#e6e6e6" stroke-width="1.0" stroke-linecap="butt" d="M45.5 192.5L581.5 192.5" fill-rule="nonzero"/><path stroke="#e6e6e6" stroke-width="1.0" stroke-linecap="butt" d="M45.5 191.5L581.5 191.5" fill-rule="nonzero"/><path stroke="#e6e6e6" stroke-width="1.0" stroke-linecap="butt" d="M45.5 189.5L581.5 189.5" fill-rule="nonzero"/><path stroke="#e6e6e6" stroke-width="1.0" stroke-linecap="butt" d="M45.5 188.5L581.5 188.5" fill-rule="nonzero"/><path stroke="#e6e6e6" stroke-width="1.0" stroke-linecap="butt" d="M45.5 185.5L581.5 185.5" fill-rule="nonzero"/><path stroke="#e6e6e6" stroke-width="1.0" stroke-linecap="butt" d="M45.5 183.5L581.5 183.5" fill-rule="nonzero"/><path stroke="#e6e6e6" stroke-width="1.0" stroke-linecap="butt" d="M45.5 182.5L581.5 182.5" fill-rule="nonzero"/><path stroke="#e6e6e6" stroke-width="1.0" stroke-linecap="butt" d="M45.5 181.5L581.5 181.5" fill-rule="nonzero"/><path stroke="#e6e6e6" stroke-width="1.0" stroke-linecap="butt" d="M45.5 178.5L581.5 178.5" fill-rule="nonzero"/><path stroke="#e6e6e6" stroke-width="1.0" stroke-linecap="butt" d="M45.5 176.5L581.5 176.5" fill-rule="nonzero"/><path stroke="#e6e6e6" stroke-width="1.0" stroke-linecap="butt" d="M45.5 175.5L581.5 175.5" fill-rule="nonzero"/><path stroke="#e6e6e6" stroke-width="1.0" stroke-linecap="butt" d="M45.5 174.5L581.5 174.5" fill-rule="nonzero"/><path stroke="#e6e6e6" stroke-width="1.0" stroke-linecap="butt" d="M45.5 171.5L581.5 171.5" fill-rule="nonzero"/><path stroke="#e6e6e6" stroke-width="1.0" stroke-linecap="butt" d="M45.5 169.5L581.5 169.5" fill-rule="nonzero"/><path stroke="#e6e6e6" stroke-width="1.0" stroke-linecap="butt" d="M45.5 168.5L581.5 168.5" fill-rule="nonzero"/><path stroke="#e6e6e6" stroke-width="1.0" stroke-linecap="butt" d="M45.5 166.5L581.5 166.5" fill-rule="nonzero"/><path stroke="#e6e6e6" stroke-width="1.0" stroke-linecap="butt" d="M45.5 164.5L581.5 164.5" fill-rule="nonzero"/><path stroke="#e6e6e6" stroke-width="1.0" stroke-linecap="butt" d="M45.5 162.5L581.5 162.5" fill-rule="nonzero"/><path stroke="#e6e6e6" stroke-width="1.0" stroke-linecap="butt" d="M45.5 161.5L581.5 161.5" fill-rule="nonzero"/><path stroke="#e6e6e6" stroke-width="1.0" stroke-linecap="butt" d="M45.5 159.5L581.5 159.5" fill-rule="nonzero"/><path stroke="#e6e6e6" stroke-width="1.0" stroke-linecap="butt" d="M45.5 157.5L581.5 157.5" fill-rule="nonzero"/><path stroke="#e6e6e6" stroke-width="1.0" stroke-linecap="butt" d="M45.5 155.5L581.5 155.5" fill-rule="nonzero"/><path stroke="#e6e6e6" stroke-width="1.0" stroke-linecap="butt" d="M45.5 154.5L581.5 154.5" fill-rule="nonzero"/><path stroke="#e6e6e6" stroke-width="1.0" stroke-linecap="butt" d="M45.5 152.5L581.5 152.5" fill-rule="nonzero"/><path stroke="#e6e6e6" stroke-width="1.0" stroke-linecap="butt" d="M45.5 149.5L581.5 149.5" fill-rule="nonzero"/><path stroke="#e6e6e6" stroke-width="1.0" stroke-linecap="butt" d="M45.5 148.5L581.5 148.5" fill-rule="nonzero"/><path stroke="#e6e6e6" stroke-width="1.0" stroke-linecap="butt" d="M45.5 147.5L581.5 147.5" fill-rule="nonzero"/><path stroke="#e6e6e6" stroke-width="1.0" stroke-linecap="butt" d="M45.5 145.5L581.5 145.5" fill-rule="nonzero"/><path stroke="#e6e6e6" stroke-width="1.0" stroke-linecap="butt" d="M45.5 142.5L581.5 142.5" fill-rule="nonzero"/><path stroke="#e6e6e6" stroke-width="1.0" stroke-linecap="butt" d="M45.5 141.5L581.5 141.5" fill-rule="nonzero"/><path stroke="#e6e6e6" stroke-width="1.0" stroke-linecap="butt" d="M45.5 139.5L581.5 139.5" fill-rule="nonzero"/><path stroke="#e6e6e6" stroke-width="1.0" stroke-linecap="butt" d="M45.5 138.5L581.5 138.5" fill-rule="nonzero"/><path stroke="#e6e6e6" stroke-width="1.0" stroke-linecap="butt" d="M45.5 135.5L581.5 135.5" fill-rule="nonzero"/><path stroke="#e6e6e6" stroke-width="1.0" stroke-linecap="butt" d="M45.5 134.5L581.5 134.5" fill-rule="nonzero"/><path stroke="#e6e6e6" stroke-width="1.0" stroke-linecap="butt" d="M45.5 132.5L581.5 132.5" fill-rule="nonzero"/><path stroke="#e6e6e6" stroke-width="1.0" stroke-linecap="butt" d="M45.5 131.5L581.5 131.5" fill-rule="nonzero"/><path stroke="#e6e6e6" stroke-width="1.0" stroke-linecap="butt" d="M45.5 128.5L581.5 128.5" fill-rule="nonzero"/><path stroke="#e6e6e6" stroke-width="1.0" stroke-linecap="butt" d="M45.5 127.5L581.5 127.5" fill-rule="nonzero"/><path stroke="#e6e6e6" stroke-width="1.0" stroke-linecap="butt" d="M45.5 125.5L581.5 125.5" fill-rule="nonzero"/><path stroke="#e6e6e6" stroke-width="1.0" stroke-linecap="butt" d="M45.5 124.5L581.5 124.5" fill-rule="nonzero"/><path stroke="#e6e6e6" stroke-width="1.0" stroke-linecap="butt" d="M45.5 121.5L581.5 121.5" fill-rule="nonzero"/><path stroke="#e6e6e6" stroke-width="1.0" stroke-linecap="butt" d="M45.5 120.5L581.5 120.5" fill-rule="nonzero"/><path stroke="#e6e6e6" stroke-width="1.0" stroke-linecap="butt" d="M45.5 118.5L581.5 118.5" fill-rule="nonzero"/><path stroke="#e6e6e6" stroke-width="1.0" stroke-linecap="butt" d="M45.5 117.5L581.5 117.5" fill-rule="nonzero"/><path stroke="#e6e6e6" stroke-width="1.0" stroke-linecap="butt" d="M45.5 114.5L581.5 114.5" fill-rule="nonzero"/><path stroke="#e6e6e6" stroke-width="1.0" stroke-linecap="butt" d="M45.5 112.5L581.5 112.5" fill-rule="nonzero"/><path stroke="#e6e6e6" stroke-width="1.0" stroke-linecap="butt" d="M45.5 111.5L581.5 111.5" fill-rule="nonzero"/><path stroke="#e6e6e6" stroke-width="1.0" stroke-linecap="butt" d="M45.5 110.5L581.5 110.5" fill-rule="nonzero"/><path stroke="#e6e6e6" stroke-width="1.0" stroke-linecap="butt" d="M45.5 107.5L581.5 107.5" fill-rule="nonzero"/><path stroke="#e6e6e6" stroke-width="1.0" stroke-linecap="butt" d="M45.5 105.5L581.5 105.5" fill-rule="nonzero"/><path stroke="#e6e6e6" stroke-width="1.0" stroke-linecap="butt" d="M45.5 104.5L581.5 104.5" fill-rule="nonzero"/><path stroke="#e6e6e6" stroke-width="1.0" stroke-linecap="butt" d="M45.5 103.5L581.5 103.5" fill-rule="nonzero"/><path stroke="#e6e6e6" stroke-width="1.0" stroke-linecap="butt" d="M45.5 100.5L581.5 100.5" fill-rule="nonzero"/><path stroke="#e6e6e6" stroke-width="1.0" stroke-linecap="butt" d="M45.5 98.5L581.5 98.5" fill-rule="nonzero"/><path stroke="#e6e6e6" stroke-width="1.0" stroke-linecap="butt" d="M45.5 97.5L581.5 97.5" fill-rule="nonzero"/><path stroke="#e6e6e6" stroke-width="1.0" stroke-linecap="butt" d="M45.5 95.5L581.5 95.5" fill-rule="nonzero"/><path stroke="#e6e6e6" stroke-width="1.0" stroke-linecap="butt" d="M45.5 93.5L581.5 93.5" fill-rule="nonzero"/><path stroke="#e6e6e6" stroke-width="1.0" stroke-linecap="butt" d="M45.5 91.5L581.5 91.5" fill-rule="nonzero"/><path stroke="#e6e6e6" stroke-width="1.0" stroke-linecap="butt" d="M45.5 90.5L581.5 90.5" fill-rule="nonzero"/><path stroke="#e6e6e6" stroke-width="1.0" stroke-linecap="butt" d="M45.5 88.5L581.5 88.5" fill-rule="nonzero"/><path stroke="#e6e6e6" stroke-width="1.0" stroke-linecap="butt" d="M45.5 86.5L581.5 86.5" fill-rule="nonzero"/><path stroke="#e6e6e6" stroke-width="1.0" stroke-linecap="butt" d="M45.5 84.5L581.5 84.5" fill-rule="nonzero"/><path stroke="#e6e6e6" stroke-width="1.0" stroke-linecap="butt" d="M45.5 83.5L581.5 83.5" fill-rule="nonzero"/><path stroke="#e6e6e6" stroke-width="1.0" stroke-linecap="butt" d="M45.5 81.5L581.5 81.5" fill-rule="nonzero"/><path stroke="#e6e6e6" stroke-width="1.0" stroke-linecap="butt" d="M45.5 78.5L581.5 78.5" fill-rule="nonzero"/><path stroke="#e6e6e6" stroke-width="1.0" stroke-linecap="butt" d="M45.5 77.5L581.5 77.5" fill-rule="nonzero"/><path stroke="#e6e6e6" stroke-width="1.0" stroke-linecap="butt" d="M45.5 76.5L581.5 76.5" fill-rule="nonzero"/><path stroke="#e6e6e6" stroke-width="1.0" stroke-linecap="butt" d="M45.5 74.5L581.5 74.5" fill-rule="nonzero"/><path stroke="#e6e6e6" stroke-width="1.0" stroke-linecap="butt" d="M45.5 71.5L581.5 71.5" fill-rule="nonzero"/><path stroke="#e6e6e6" stroke-width="1.0" stroke-linecap="butt" d="M45.5 70.5L581.5 70.5" fill-rule="nonzero"/><path stroke="#e6e6e6" stroke-width="1.0" stroke-linecap="butt" d="M45.5 68.5L581.5 68.5" fill-rule="nonzero"/><path stroke="#e6e6e6" stroke-width="1.0" stroke-linecap="butt" d="M45.5 67.5L581.5 67.5" fill-rule="nonzero"/><path stroke="#e6e6e6" stroke-width="1.0" stroke-linecap="butt" d="M45.5 64.5L581.5 64.5" fill-rule="nonzero"/><path stroke="#e6e6e6" stroke-width="1.0" stroke-linecap="butt" d="M45.5 63.5L581.5 63.5" fill-rule="nonzero"/><path stroke="#e6e6e6" stroke-width="1.0" stroke-linecap="butt" d="M45.5 61.5L581.5 61.5" fill-rule="nonzero"/><path stroke="#e6e6e6" stroke-width="1.0" stroke-linecap="butt" d="M45.5 60.5L581.5 60.5" fill-rule="nonzero"/><path stroke="#e6e6e6" stroke-width="1.0" stroke-linecap="butt" d="M45.5 57.5L581.5 57.5" fill-rule="nonzero"/><path stroke="#e6e6e6" stroke-width="1.0" stroke-linecap="butt" d="M45.5 56.5L581.5 56.5" fill-rule="nonzero"/><path stroke="#e6e6e6" stroke-width="1.0" stroke-linecap="butt" d="M45.5 54.5L581.5 54.5" fill-rule="nonzero"/><path stroke="#e6e6e6" stroke-width="1.0" stroke-linecap="butt" d="M45.5 53.5L581.5 53.5" fill-rule="nonzero"/><clipPath id="id_0"><path d="M45.55 51.916668L581.45 51.916668L581.45 300.45L45.55 300.45L45.55 51.916668Z" clip-rule="nonzero"/></clipPath><path stroke="#000000" stroke-width="2.0" stroke-linecap="butt" stroke-opacity="0.0" clip-path="url(#id_0)" d="M128.0 300.0L90.0 300.0L90.0 298.0C90.0 296.89542 90.89543 296.0 92.0 296.0L126.0 296.0C127.10457 296.0 128.0 296.89542 128.0 298.0Z" fill-rule="nonzero"/><path fill="#9900ff" clip-path="url(#id_0)" d="M128.0 300.0L90.0 300.0L90.0 298.0C90.0 296.89542 90.89543 296.0 92.0 296.0L126.0 296.0C127.10457 296.0 128.0 296.89542 128.0 298.0Z" fill-rule="nonzero"/><path stroke="#000000" stroke-width="2.0" stroke-linecap="butt" stroke-opacity="0.0" clip-path="url(#id_0)" d="M251.0 300.0L213.0 300.0L213.0 299.0C213.0 298.44772 213.44771 298.0 214.0 298.0L250.0 298.0C250.55229 298.0 251.0 298.44772 251.0 299.0Z" fill-rule="nonzero"/><path fill="#9900ff" clip-path="url(#id_0)" d="M251.0 300.0L213.0 300.0L213.0 299.0C213.0 298.44772 213.44771 298.0 214.0 298.0L250.0 298.0C250.55229 298.0 251.0 298.44772 251.0 299.0Z" fill-rule="nonzero"/><path stroke="#000000" stroke-width="2.0" stroke-linecap="butt" stroke-opacity="0.0" clip-path="url(#id_0)" d="M374.0 300.0L336.0 300.0L336.0 299.0C336.0 298.44772 336.44772 298.0 337.0 298.0L373.0 298.0C373.55228 298.0 374.0 298.44772 374.0 299.0Z" fill-rule="nonzero"/><path fill="#9900ff" clip-path="url(#id_0)" d="M374.0 300.0L336.0 300.0L336.0 299.0C336.0 298.44772 336.44772 298.0 337.0 298.0L373.0 298.0C373.55228 298.0 374.0 298.44772 374.0 299.0Z" fill-rule="nonzero"/><path stroke="#000000" stroke-width="2.0" stroke-linecap="butt" stroke-opacity="0.0" clip-path="url(#id_0)" d="M497.0 300.0L459.0 300.0L459.0 298.5C459.0 297.67157 459.67157 297.0 460.5 297.0L495.5 297.0C496.32843 297.0 497.0 297.67157 497.0 298.5Z" fill-rule="nonzero"/><path fill="#9900ff" clip-path="url(#id_0)" d="M497.0 300.0L459.0 300.0L459.0 298.5C459.0 297.67157 459.67157 297.0 460.5 297.0L495.5 297.0C496.32843 297.0 497.0 297.67157 497.0 298.5Z" fill-rule="nonzero"/><path stroke="#000000" stroke-width="2.0" stroke-linecap="butt" stroke-opacity="0.0" clip-path="url(#id_0)" d="M168.0 300.0L130.0 300.0L130.0 290.0C130.0 288.89542 130.89543 288.0 132.0 288.0L166.0 288.0C167.10457 288.0 168.0 288.89542 168.0 290.0Z" fill-rule="nonzero"/><path fill="#ffd966" clip-path="url(#id_0)" d="M168.0 300.0L130.0 300.0L130.0 290.0C130.0 288.89542 130.89543 288.0 132.0 288.0L166.0 288.0C167.10457 288.0 168.0 288.89542 168.0 290.0Z" fill-rule="nonzero"/><path stroke="#000000" stroke-width="2.0" stroke-linecap="butt" stroke-opacity="0.0" clip-path="url(#id_0)" d="M291.0 300.0L253.0 300.0L253.0 298.5C253.0 297.67157 253.67157 297.0 254.5 297.0L289.5 297.0C290.32843 297.0 291.0 297.67157 291.0 298.5Z" fill-rule="nonzero"/><path fill="#ffd966" clip-path="url(#id_0)" d="M291.0 300.0L253.0 300.0L253.0 298.5C253.0 297.67157 253.67157 297.0 254.5 297.0L289.5 297.0C290.32843 297.0 291.0 297.67157 291.0 298.5Z" fill-rule="nonzero"/><path stroke="#000000" stroke-width="2.0" stroke-linecap="butt" stroke-opacity="0.0" clip-path="url(#id_0)" d="M414.0 300.0L376.0 300.0L376.0 286.0C376.0 284.89542 376.89542 284.0 378.0 284.0L412.0 284.0C413.10458 284.0 414.0 284.89542 414.0 286.0Z" fill-rule="nonzero"/><path fill="#ffd966" clip-path="url(#id_0)" d="M414.0 300.0L376.0 300.0L376.0 286.0C376.0 284.89542 376.89542 284.0 378.0 284.0L412.0 284.0C413.10458 284.0 414.0 284.89542 414.0 286.0Z" fill-rule="nonzero"/><path stroke="#000000" stroke-width="2.0" stroke-linecap="butt" stroke-opacity="0.0" clip-path="url(#id_0)" d="M537.0 300.0L499.0 300.0L499.0 58.0C499.0 56.89543 499.89542 56.0 501.0 56.0L535.0 56.0C536.10455 56.0 537.0 56.89543 537.0 58.0Z" fill-rule="nonzero"/><path fill="#ffd966" clip-path="url(#id_0)" d="M537.0 300.0L499.0 300.0L499.0 58.0C499.0 56.89543 499.89542 56.0 501.0 56.0L535.0 56.0C536.10455 56.0 537.0 56.89543 537.0 58.0Z" fill-rule="nonzero"/><path fill="#000000" d="M282.875 349.45L282.875 340.85626L286.10938 340.85626Q287.09375 340.85626 287.6875 341.1219Q288.28125 341.3875 288.60938 341.9344Q288.95312 342.46564 288.95312 343.0594Q288.95312 343.60626 288.65625 344.09064Q288.35938 344.575 287.75 344.8719Q288.53125 345.10626 288.9375 345.66876Q289.35938 346.21564 289.35938 346.96564Q289.35938 347.5594 289.10938 348.09064Q288.85938 348.60626 288.48438 348.8875Q288.10938 349.16876 287.53125 349.3094Q286.96875 349.45 286.15625 349.45L282.875 349.45ZM284.01562 344.46564L285.875 344.46564Q286.625 344.46564 286.95312 344.3719Q287.39062 344.2469 287.60938 343.95Q287.82812 343.6375 287.82812 343.1844Q287.82812 342.7625 287.625 342.4344Q287.42188 342.10626 287.03125 341.9969Q286.65625 341.8719 285.73438 341.8719L284.01562 341.8719L284.01562 344.46564ZM284.01562 348.4344L286.15625 348.4344Q286.70312 348.4344 286.92188 348.3875Q287.32812 348.325 287.57812 348.16876Q287.84375 347.9969 288.01562 347.6844Q288.1875 347.3719 288.1875 346.96564Q288.1875 346.48126 287.9375 346.1219Q287.70312 345.7625 287.26562 345.6219Q286.82812 345.48126 286.0 345.48126L284.01562 345.48126L284.01562 348.4344ZM295.04688 347.45L296.14062 347.575Q295.89062 348.52814 295.1875 349.0594Q294.48438 349.59064 293.40625 349.59064Q292.04688 349.59064 291.23438 348.7469Q290.4375 347.90314 290.4375 346.3875Q290.4375 344.825 291.25 343.96564Q292.0625 343.09064 293.34375 343.09064Q294.59375 343.09064 295.375 343.9344Q296.17188 344.77814 296.17188 346.325Q296.17188 346.41876 296.17188 346.60626L291.53125 346.60626Q291.59375 347.6375 292.10938 348.1844Q292.625 348.71564 293.40625 348.71564Q293.98438 348.71564 294.39062 348.41876Q294.8125 348.10626 295.04688 347.45ZM291.59375 345.7469L295.0625 345.7469Q295.0 344.95 294.67188 344.5594Q294.15625 343.95 293.35938 343.95Q292.625 343.95 292.125 344.4344Q291.64062 344.91876 291.59375 345.7469ZM297.79688 349.45L297.79688 343.23126L298.73438 343.23126L298.73438 344.10626Q299.42188 343.09064 300.71875 343.09064Q301.28125 343.09064 301.75 343.29376Q302.23438 343.4969 302.46875 343.825Q302.70312 344.15314 302.79688 344.59064Q302.84375 344.8875 302.84375 345.6219L302.84375 349.45L301.79688 349.45L301.79688 345.66876Q301.79688 345.0125 301.67188 344.7Q301.54688 344.3875 301.23438 344.2Q300.92188 343.9969 300.5 343.9969Q299.82812 343.9969 299.32812 344.4344Q298.84375 344.85626 298.84375 346.04376L298.84375 349.45L297.79688 349.45ZM308.85938 347.16876L309.89062 347.3094Q309.71875 348.3719 309.01562 348.98126Q308.3125 349.59064 307.29688 349.59064Q306.01562 349.59064 305.23438 348.7625Q304.46875 347.91876 304.46875 346.35626Q304.46875 345.35626 304.79688 344.60626Q305.14062 343.84064 305.8125 343.46564Q306.5 343.09064 307.3125 343.09064Q308.3125 343.09064 308.95312 343.60626Q309.60938 344.10626 309.79688 345.0594L308.76562 345.21564Q308.625 344.59064 308.25 344.27814Q307.875 343.95 307.34375 343.95Q306.54688 343.95 306.04688 344.52814Q305.54688 345.09064 305.54688 346.325Q305.54688 347.59064 306.03125 348.15314Q306.51562 348.71564 307.28125 348.71564Q307.90625 348.71564 308.3125 348.34064Q308.73438 347.96564 308.85938 347.16876ZM310.79688 349.45L310.79688 340.85626L311.84375 340.85626L311.84375 343.9344Q312.57812 343.09064 313.70312 343.09064Q314.40625 343.09064 314.90625 343.3719Q315.42188 343.6375 315.64062 344.1219Q315.85938 344.59064 315.85938 345.5125L315.85938 349.45L314.8125 349.45L314.8125 345.5125Q314.8125 344.71564 314.46875 344.35626Q314.125 343.9969 313.5 343.9969Q313.03125 343.9969 312.60938 344.2469Q312.20312 344.48126 312.01562 344.90314Q311.84375 345.3094 311.84375 346.04376L311.84375 349.45L310.79688 349.45ZM317.79688 349.45L317.79688 343.23126L318.73438 343.23126L318.73438 344.10626Q319.03125 343.6375 319.51562 343.3719Q320.0 343.09064 320.625 343.09064Q321.3125 343.09064 321.75 343.3719Q322.20312 343.65314 322.375 344.16876Q323.125 343.09064 324.29688 343.09064Q325.23438 343.09064 325.71875 343.60626Q326.21875 344.10626 326.21875 345.1844L326.21875 349.45L325.17188 349.45L325.17188 345.52814Q325.17188 344.90314 325.0625 344.6219Q324.96875 344.34064 324.70312 344.16876Q324.4375 343.9969 324.0625 343.9969Q323.40625 343.9969 322.96875 344.4344Q322.54688 344.8719 322.54688 345.84064L322.54688 349.45L321.48438 349.45L321.48438 345.40314Q321.48438 344.7 321.21875 344.35626Q320.96875 343.9969 320.39062 343.9969Q319.9375 343.9969 319.5625 344.23126Q319.1875 344.46564 319.01562 344.91876Q318.84375 345.3719 318.84375 346.21564L318.84375 349.45L317.79688 349.45ZM332.85938 348.6844Q332.26562 349.1844 331.71875 349.3875Q331.1875 349.59064 330.5625 349.59064Q329.53125 349.59064 328.98438 349.09064Q328.4375 348.59064 328.4375 347.8094Q328.4375 347.35626 328.64062 346.98126Q328.84375 346.59064 329.1875 346.3719Q329.53125 346.1375 329.95312 346.02814Q330.25 345.9344 330.89062 345.85626Q332.15625 345.71564 332.76562 345.4969Q332.76562 345.27814 332.76562 345.23126Q332.76562 344.575 332.46875 344.3094Q332.0625 343.96564 331.26562 343.96564Q330.53125 343.96564 330.17188 344.23126Q329.8125 344.48126 329.64062 345.1375L328.60938 344.9969Q328.75 344.34064 329.07812 343.9344Q329.40625 343.52814 330.01562 343.3094Q330.625 343.09064 331.42188 343.09064Q332.21875 343.09064 332.71875 343.27814Q333.21875 343.46564 333.45312 343.7469Q333.6875 344.02814 333.78125 344.46564Q333.82812 344.73126 333.82812 345.4344L333.82812 346.84064Q333.82812 348.3094 333.89062 348.7Q333.96875 349.09064 334.17188 349.45L333.0625 349.45Q332.90625 349.1219 332.85938 348.6844ZM332.76562 346.325Q332.1875 346.5594 331.04688 346.73126Q330.39062 346.825 330.125 346.95Q329.85938 347.0594 329.70312 347.27814Q329.5625 347.4969 329.5625 347.77814Q329.5625 348.2 329.875 348.48126Q330.20312 348.7625 330.8125 348.7625Q331.42188 348.7625 331.89062 348.4969Q332.375 348.23126 332.59375 347.7625Q332.76562 347.40314 332.76562 346.71564L332.76562 346.325ZM335.78125 349.45L335.78125 343.23126L336.73438 343.23126L336.73438 344.16876Q337.09375 343.5125 337.39062 343.3094Q337.70312 343.09064 338.07812 343.09064Q338.60938 343.09064 339.15625 343.41876L338.79688 344.40314Q338.40625 344.16876 338.03125 344.16876Q337.67188 344.16876 337.39062 344.3875Q337.125 344.59064 337.01562 344.96564Q336.82812 345.52814 336.82812 346.1844L336.82812 349.45L335.78125 349.45ZM339.79688 349.45L339.79688 340.85626L340.85938 340.85626L340.85938 345.7625L343.34375 343.23126L344.71875 343.23126L342.32812 345.52814L344.95312 349.45L343.65625 349.45L341.59375 346.2625L340.85938 346.98126L340.85938 349.45L339.79688 349.45Z" fill-rule="nonzero"/><path fill="#000000" d="M33.05 300.21564Q33.05 298.6844 33.3625 297.7625Q33.675 296.825 34.284374 296.325Q34.909374 295.825 35.846874 295.825Q36.534374 295.825 37.05 296.10626Q37.58125 296.3875 37.925 296.91876Q38.26875 297.4344 38.45625 298.1844Q38.64375 298.9344 38.64375 300.21564Q38.64375 301.73126 38.33125 302.65314Q38.034374 303.575 37.409374 304.09064Q36.8 304.59064 35.846874 304.59064Q34.6125 304.59064 33.89375 303.7Q33.05 302.6375 33.05 300.21564ZM34.128124 300.21564Q34.128124 302.325 34.628124 303.02814Q35.128124 303.73126 35.846874 303.73126Q36.58125 303.73126 37.065624 303.02814Q37.565624 302.325 37.565624 300.21564Q37.565624 298.09064 37.065624 297.40314Q36.58125 296.7 35.83125 296.7Q35.1125 296.7 34.675 297.3094Q34.128124 298.09064 34.128124 300.21564Z" fill-rule="nonzero"/><path fill="#000000" d="M30.01875 290.2481L28.971874 290.2481L28.971874 283.52936Q28.58125 283.88873 27.95625 284.26373Q27.346874 284.6231 26.8625 284.79498L26.8625 283.77936Q27.7375 283.35748 28.39375 282.77936Q29.065624 282.1856 29.346874 281.6231L30.01875 281.6231L30.01875 290.2481ZM33.05 286.01373Q33.05 284.48248 33.3625 283.5606Q33.675 282.6231 34.284374 282.1231Q34.909374 281.6231 35.846874 281.6231Q36.534374 281.6231 37.05 281.90436Q37.58125 282.1856 37.925 282.71686Q38.26875 283.23248 38.45625 283.98248Q38.64375 284.73248 38.64375 286.01373Q38.64375 287.52936 38.33125 288.45123Q38.034374 289.3731 37.409374 289.88873Q36.8 290.38873 35.846874 290.38873Q34.6125 290.38873 33.89375 289.4981Q33.05 288.4356 33.05 286.01373ZM34.128124 286.01373Q34.128124 288.1231 34.628124 288.82623Q35.128124 289.52936 35.846874 289.52936Q36.58125 289.52936 37.065624 288.82623Q37.565624 288.1231 37.565624 286.01373Q37.565624 283.88873 37.065624 283.20123Q36.58125 282.4981 35.83125 282.4981Q35.1125 282.4981 34.675 283.10748Q34.128124 283.88873 34.128124 286.01373Z" fill-rule="nonzero"/><path fill="#000000" d="M31.596874 275.03058L31.596874 276.0462L25.909374 276.0462Q25.909374 275.6712 26.034374 275.31183Q26.253124 274.7337 26.721874 274.1712Q27.20625 273.6087 28.1125 272.87433Q29.51875 271.71808 30.003124 271.0462Q30.503124 270.37433 30.503124 269.78058Q30.503124 269.15558 30.05 268.7337Q29.596874 268.2962 28.878124 268.2962Q28.1125 268.2962 27.659374 268.74933Q27.20625 269.20245 27.190624 270.01495L26.1125 269.90558Q26.221874 268.68683 26.940624 268.06183Q27.675 267.4212 28.909374 267.4212Q30.14375 267.4212 30.8625 268.1087Q31.58125 268.7962 31.58125 269.81183Q31.58125 270.32745 31.3625 270.82745Q31.159374 271.31183 30.659374 271.87433Q30.175 272.4212 29.05 273.37433Q28.096874 274.1712 27.815624 274.46808Q27.55 274.74933 27.378124 275.03058L31.596874 275.03058ZM33.05 271.81183Q33.05 270.28058 33.3625 269.3587Q33.675 268.4212 34.284374 267.9212Q34.909374 267.4212 35.846874 267.4212Q36.534374 267.4212 37.05 267.70245Q37.58125 267.9837 37.925 268.51495Q38.26875 269.03058 38.45625 269.78058Q38.64375 270.53058 38.64375 271.81183Q38.64375 273.32745 38.33125 274.24933Q38.034374 275.1712 37.409374 275.68683Q36.8 276.18683 35.846874 276.18683Q34.6125 276.18683 33.89375 275.2962Q33.05 274.2337 33.05 271.81183ZM34.128124 271.81183Q34.128124 273.9212 34.628124 274.62433Q35.128124 275.32745 35.846874 275.32745Q36.58125 275.32745 37.065624 274.62433Q37.565624 273.9212 37.565624 271.81183Q37.565624 269.68683 37.065624 268.99933Q36.58125 268.2962 35.83125 268.2962Q35.1125 268.2962 34.675 268.90558Q34.128124 269.68683 34.128124 271.81183Z" fill-rule="nonzero"/><path fill="#000000" d="M26.05 259.57867L27.1125 259.43805Q27.284374 260.32867 27.721874 260.73492Q28.159374 261.12555 28.784374 261.12555Q29.534374 261.12555 30.05 260.60992Q30.565624 260.0943 30.565624 259.32867Q30.565624 258.60992 30.08125 258.14117Q29.6125 257.6568 28.878124 257.6568Q28.58125 257.6568 28.128124 257.7818L28.253124 256.8443Q28.3625 256.85992 28.425 256.85992Q29.096874 256.85992 29.628124 256.51617Q30.175 256.1568 30.175 255.42242Q30.175 254.8443 29.784374 254.4693Q29.39375 254.07867 28.76875 254.07867Q28.159374 254.07867 27.7375 254.4693Q27.33125 254.85992 27.221874 255.62555L26.159374 255.43805Q26.346874 254.39117 27.034374 253.81305Q27.721874 253.2193 28.7375 253.2193Q29.440624 253.2193 30.034374 253.5318Q30.628124 253.82867 30.940624 254.3443Q31.253124 254.85992 31.253124 255.45367Q31.253124 256.00055 30.95625 256.4693Q30.659374 256.92242 30.08125 257.18805Q30.83125 257.35992 31.253124 257.92242Q31.675 258.4693 31.675 259.31305Q31.675 260.43805 30.846874 261.2193Q30.034374 262.00055 28.784374 262.00055Q27.659374 262.00055 26.909374 261.32867Q26.159374 260.64117 26.05 259.57867ZM33.05 257.60992Q33.05 256.07867 33.3625 255.1568Q33.675 254.2193 34.284374 253.7193Q34.909374 253.2193 35.846874 253.2193Q36.534374 253.2193 37.05 253.50055Q37.58125 253.7818 37.925 254.31305Q38.26875 254.82867 38.45625 255.57867Q38.64375 256.32867 38.64375 257.60992Q38.64375 259.12555 38.33125 260.04742Q38.034374 260.9693 37.409374 261.48492Q36.8 261.98492 35.846874 261.98492Q34.6125 261.98492 33.89375 261.0943Q33.05 260.0318 33.05 257.60992ZM34.128124 257.60992Q34.128124 259.7193 34.628124 260.42242Q35.128124 261.12555 35.846874 261.12555Q36.58125 261.12555 37.065624 260.42242Q37.565624 259.7193 37.565624 257.60992Q37.565624 255.48492 37.065624 254.79742Q36.58125 254.0943 35.83125 254.0943Q35.1125 254.0943 34.675 254.70367Q34.128124 255.48492 34.128124 257.60992Z" fill-rule="nonzero"/><path fill="#000000" d="M29.425 247.64238L29.425 245.57988L25.70625 245.57988L25.70625 244.61113L29.628124 239.04863L30.4875 239.04863L30.4875 244.61113L31.64375 244.61113L31.64375 245.57988L30.4875 245.57988L30.4875 247.64238L29.425 247.64238ZM29.425 244.61113L29.425 240.75175L26.7375 244.61113L29.425 244.61113ZM33.05 243.408Q33.05 241.87675 33.3625 240.95488Q33.675 240.01738 34.284374 239.51738Q34.909374 239.01738 35.846874 239.01738Q36.534374 239.01738 37.05 239.29863Q37.58125 239.57988 37.925 240.11113Q38.26875 240.62675 38.45625 241.37675Q38.64375 242.12675 38.64375 243.408Q38.64375 244.92363 38.33125 245.8455Q38.034374 246.76738 37.409374 247.283Q36.8 247.783 35.846874 247.783Q34.6125 247.783 33.89375 246.89238Q33.05 245.82988 33.05 243.408ZM34.128124 243.408Q34.128124 245.51738 34.628124 246.2205Q35.128124 246.92363 35.846874 246.92363Q36.58125 246.92363 37.065624 246.2205Q37.565624 245.51738 37.565624 243.408Q37.565624 241.283 37.065624 240.5955Q36.58125 239.89238 35.83125 239.89238Q35.1125 239.89238 34.675 240.50175Q34.128124 241.283 34.128124 243.408Z" fill-rule="nonzero"/><path fill="#000000" d="M26.05 231.19048L27.159374 231.09673Q27.284374 231.90923 27.721874 232.31548Q28.175 232.72173 28.815624 232.72173Q29.565624 232.72173 30.096874 232.1436Q30.628124 231.56548 30.628124 230.62798Q30.628124 229.72173 30.1125 229.2061Q29.6125 228.67485 28.784374 228.67485Q28.284374 228.67485 27.8625 228.90923Q27.45625 229.1436 27.221874 229.50298L26.2375 229.37798L27.065624 224.97173L31.346874 224.97173L31.346874 225.97173L27.909374 225.97173L27.45625 228.28423Q28.221874 227.73735 29.065624 227.73735Q30.190624 227.73735 30.95625 228.5186Q31.7375 229.29985 31.7375 230.53423Q31.7375 231.69048 31.065624 232.54985Q30.2375 233.5811 28.815624 233.5811Q27.64375 233.5811 26.89375 232.92485Q26.159374 232.2686 26.05 231.19048ZM33.05 229.2061Q33.05 227.67485 33.3625 226.75298Q33.675 225.81548 34.284374 225.31548Q34.909374 224.81548 35.846874 224.81548Q36.534374 224.81548 37.05 225.09673Q37.58125 225.37798 37.925 225.90923Q38.26875 226.42485 38.45625 227.17485Q38.64375 227.92485 38.64375 229.2061Q38.64375 230.72173 38.33125 231.6436Q38.034374 232.56548 37.409374 233.0811Q36.8 233.5811 35.846874 233.5811Q34.6125 233.5811 33.89375 232.69048Q33.05 231.62798 33.05 229.2061ZM34.128124 229.2061Q34.128124 231.31548 34.628124 232.0186Q35.128124 232.72173 35.846874 232.72173Q36.58125 232.72173 37.065624 232.0186Q37.565624 231.31548 37.565624 229.2061Q37.565624 227.0811 37.065624 226.3936Q36.58125 225.69048 35.83125 225.69048Q35.1125 225.69048 34.675 226.29985Q34.128124 227.0811 34.128124 229.2061Z" fill-rule="nonzero"/><path fill="#000000" d="M31.51875 212.7542L30.471874 212.83232Q30.33125 212.20732 30.08125 211.92607Q29.64375 211.47295 29.01875 211.47295Q28.51875 211.47295 28.128124 211.7542Q27.64375 212.1292 27.346874 212.83232Q27.065624 213.51982 27.05 214.80107Q27.425 214.22295 27.971874 213.9417Q28.534374 213.66045 29.14375 213.66045Q30.190624 213.66045 30.925 214.4417Q31.675 215.22295 31.675 216.4417Q31.675 217.2542 31.315624 217.95732Q30.971874 218.64482 30.3625 219.01982Q29.753124 219.3792 28.9875 219.3792Q27.659374 219.3792 26.83125 218.41045Q26.003124 217.4417 26.003124 215.22295Q26.003124 212.72295 26.925 211.59795Q27.721874 210.61357 29.08125 210.61357Q30.096874 210.61357 30.7375 211.1917Q31.39375 211.7542 31.51875 212.7542ZM27.221874 216.45732Q27.221874 217.0042 27.440624 217.5042Q27.675 217.98857 28.08125 218.2542Q28.503124 218.51982 28.971874 218.51982Q29.628124 218.51982 30.1125 217.98857Q30.596874 217.4417 30.596874 216.51982Q30.596874 215.6292 30.1125 215.11357Q29.64375 214.59795 28.925 214.59795Q28.20625 214.59795 27.70625 215.11357Q27.221874 215.6292 27.221874 216.45732ZM33.05 215.0042Q33.05 213.47295 33.3625 212.55107Q33.675 211.61357 34.284374 211.11357Q34.909374 210.61357 35.846874 210.61357Q36.534374 210.61357 37.05 210.89482Q37.58125 211.17607 37.925 211.70732Q38.26875 212.22295 38.45625 212.97295Q38.64375 213.72295 38.64375 215.0042Q38.64375 216.51982 38.33125 217.4417Q38.034374 218.36357 37.409374 218.8792Q36.8 219.3792 35.846874 219.3792Q34.6125 219.3792 33.89375 218.48857Q33.05 217.42607 33.05 215.0042ZM34.128124 215.0042Q34.128124 217.11357 34.628124 217.8167Q35.128124 218.51982 35.846874 218.51982Q36.58125 218.51982 37.065624 217.8167Q37.565624 217.11357 37.565624 215.0042Q37.565624 212.8792 37.065624 212.1917Q36.58125 211.48857 35.83125 211.48857Q35.1125 211.48857 34.675 212.09795Q34.128124 212.8792 34.128124 215.0042Z" fill-rule="nonzero"/><path fill="#000000" d="M26.1125 197.56792L26.1125 196.55229L31.675 196.55229L31.675 197.38042Q30.8625 198.25542 30.05 199.70854Q29.253124 201.14604 28.815624 202.67729Q28.4875 203.75542 28.409374 205.03667L27.315624 205.03667Q27.33125 204.02104 27.70625 202.58354Q28.096874 201.14604 28.8 199.81792Q29.51875 198.48979 30.33125 197.56792L26.1125 197.56792ZM33.05 200.80229Q33.05 199.27104 33.3625 198.34917Q33.675 197.41167 34.284374 196.91167Q34.909374 196.41167 35.846874 196.41167Q36.534374 196.41167 37.05 196.69292Q37.58125 196.97417 37.925 197.50542Q38.26875 198.02104 38.45625 198.77104Q38.64375 199.52104 38.64375 200.80229Q38.64375 202.31792 38.33125 203.23979Q38.034374 204.16167 37.409374 204.67729Q36.8 205.17729 35.846874 205.17729Q34.6125 205.17729 33.89375 204.28667Q33.05 203.22417 33.05 200.80229ZM34.128124 200.80229Q34.128124 202.91167 34.628124 203.61479Q35.128124 204.31792 35.846874 204.31792Q36.58125 204.31792 37.065624 203.61479Q37.565624 202.91167 37.565624 200.80229Q37.565624 198.67729 37.065624 197.98979Q36.58125 197.28667 35.83125 197.28667Q35.1125 197.28667 34.675 197.89604Q34.128124 198.67729 34.128124 200.80229Z" fill-rule="nonzero"/><path fill="#000000" d="M27.675 186.17851Q27.01875 185.92851 26.690624 185.49101Q26.378124 185.03789 26.378124 184.42851Q26.378124 183.49101 27.05 182.85039Q27.7375 182.20976 28.846874 182.20976Q29.971874 182.20976 30.659374 182.86601Q31.346874 183.52226 31.346874 184.45976Q31.346874 185.05351 31.034374 185.49101Q30.721874 185.92851 30.08125 186.17851Q30.878124 186.42851 31.284374 187.00664Q31.690624 187.58476 31.690624 188.38164Q31.690624 189.47539 30.909374 190.22539Q30.14375 190.97539 28.8625 190.97539Q27.596874 190.97539 26.815624 190.22539Q26.034374 189.47539 26.034374 188.35039Q26.034374 187.50664 26.45625 186.94414Q26.89375 186.38164 27.675 186.17851ZM27.45625 184.38164Q27.45625 184.99101 27.846874 185.38164Q28.253124 185.77226 28.878124 185.77226Q29.4875 185.77226 29.878124 185.39726Q30.26875 185.00664 30.26875 184.44414Q30.26875 183.86601 29.8625 183.47539Q29.45625 183.06914 28.8625 183.06914Q28.253124 183.06914 27.846874 183.45976Q27.45625 183.85039 27.45625 184.38164ZM27.128124 188.35039Q27.128124 188.80351 27.33125 189.22539Q27.55 189.64726 27.971874 189.88164Q28.39375 190.11601 28.878124 190.11601Q29.628124 190.11601 30.1125 189.63164Q30.6125 189.14726 30.6125 188.39726Q30.6125 187.63164 30.1125 187.13164Q29.6125 186.63164 28.846874 186.63164Q28.096874 186.63164 27.6125 187.13164Q27.128124 187.61601 27.128124 188.35039ZM33.05 186.60039Q33.05 185.06914 33.3625 184.14726Q33.675 183.20976 34.284374 182.70976Q34.909374 182.20976 35.846874 182.20976Q36.534374 182.20976 37.05 182.49101Q37.58125 182.77226 37.925 183.30351Q38.26875 183.81914 38.45625 184.56914Q38.64375 185.31914 38.64375 186.60039Q38.64375 188.11601 38.33125 189.03789Q38.034374 189.95976 37.409374 190.47539Q36.8 190.97539 35.846874 190.97539Q34.6125 190.97539 33.89375 190.08476Q33.05 189.02226 33.05 186.60039ZM34.128124 186.60039Q34.128124 188.70976 34.628124 189.41289Q35.128124 190.11601 35.846874 190.11601Q36.58125 190.11601 37.065624 189.41289Q37.565624 188.70976 37.565624 186.60039Q37.565624 184.47539 37.065624 183.78789Q36.58125 183.08476 35.83125 183.08476Q35.1125 183.08476 34.675 183.69414Q34.128124 184.47539 34.128124 186.60039Z" fill-rule="nonzero"/><path fill="#000000" d="M26.20625 174.64848L27.221874 174.55473Q27.346874 175.27348 27.70625 175.60161Q28.08125 175.91411 28.64375 175.91411Q29.128124 175.91411 29.4875 175.69536Q29.8625 175.46098 30.096874 175.10161Q30.33125 174.72661 30.4875 174.10161Q30.64375 173.46098 30.64375 172.80473Q30.64375 172.72661 30.64375 172.58598Q30.33125 173.08598 29.784374 173.41411Q29.2375 173.72661 28.596874 173.72661Q27.51875 173.72661 26.784374 172.96098Q26.05 172.17973 26.05 170.91411Q26.05 169.60161 26.815624 168.80473Q27.596874 168.00786 28.753124 168.00786Q29.58125 168.00786 30.26875 168.46098Q30.971874 168.91411 31.33125 169.75786Q31.690624 170.58598 31.690624 172.16411Q31.690624 173.80473 31.33125 174.78911Q30.9875 175.75786 30.26875 176.27348Q29.565624 176.77348 28.628124 176.77348Q27.6125 176.77348 26.971874 176.22661Q26.33125 175.66411 26.20625 174.64848ZM30.51875 170.85161Q30.51875 169.94536 30.034374 169.41411Q29.565624 168.88286 28.878124 168.88286Q28.175 168.88286 27.64375 169.46098Q27.128124 170.02348 27.128124 170.94536Q27.128124 171.75786 27.628124 172.27348Q28.128124 172.78911 28.846874 172.78911Q29.58125 172.78911 30.05 172.27348Q30.51875 171.75786 30.51875 170.85161ZM33.05 172.39848Q33.05 170.86723 33.3625 169.94536Q33.675 169.00786 34.284374 168.50786Q34.909374 168.00786 35.846874 168.00786Q36.534374 168.00786 37.05 168.28911Q37.58125 168.57036 37.925 169.10161Q38.26875 169.61723 38.45625 170.36723Q38.64375 171.11723 38.64375 172.39848Q38.64375 173.91411 38.33125 174.83598Q38.034374 175.75786 37.409374 176.27348Q36.8 176.77348 35.846874 176.77348Q34.6125 176.77348 33.89375 175.88286Q33.05 174.82036 33.05 172.39848ZM34.128124 172.39848Q34.128124 174.50786 34.628124 175.21098Q35.128124 175.91411 35.846874 175.91411Q36.58125 175.91411 37.065624 175.21098Q37.565624 174.50786 37.565624 172.39848Q37.565624 170.27348 37.065624 169.58598Q36.58125 168.88286 35.83125 168.88286Q35.1125 168.88286 34.675 169.49223Q34.128124 170.27348 34.128124 172.39848Z" fill-rule="nonzero"/><path fill="#000000" d="M23.01875 162.43095L21.971874 162.43095L21.971874 155.7122Q21.58125 156.07158 20.95625 156.44658Q20.346874 156.80595 19.8625 156.97783L19.8625 155.9622Q20.7375 155.54033 21.39375 154.9622Q22.065624 154.36845 22.346874 153.80595L23.01875 153.80595L23.01875 162.43095ZM26.05 158.19658Q26.05 156.66533 26.3625 155.74345Q26.675 154.80595 27.284374 154.30595Q27.909374 153.80595 28.846874 153.80595Q29.534374 153.80595 30.05 154.0872Q30.58125 154.36845 30.925 154.8997Q31.26875 155.41533 31.45625 156.16533Q31.64375 156.91533 31.64375 158.19658Q31.64375 159.7122 31.33125 160.63408Q31.034374 161.55595 30.409374 162.07158Q29.8 162.57158 28.846874 162.57158Q27.6125 162.57158 26.89375 161.68095Q26.05 160.61845 26.05 158.19658ZM27.128124 158.19658Q27.128124 160.30595 27.628124 161.00908Q28.128124 161.7122 28.846874 161.7122Q29.58125 161.7122 30.065624 161.00908Q30.565624 160.30595 30.565624 158.19658Q30.565624 156.07158 30.065624 155.38408Q29.58125 154.68095 28.83125 154.68095Q28.1125 154.68095 27.675 155.29033Q27.128124 156.07158 27.128124 158.19658ZM33.05 158.19658Q33.05 156.66533 33.3625 155.74345Q33.675 154.80595 34.284374 154.30595Q34.909374 153.80595 35.846874 153.80595Q36.534374 153.80595 37.05 154.0872Q37.58125 154.36845 37.925 154.8997Q38.26875 155.41533 38.45625 156.16533Q38.64375 156.91533 38.64375 158.19658Q38.64375 159.7122 38.33125 160.63408Q38.034374 161.55595 37.409374 162.07158Q36.8 162.57158 35.846874 162.57158Q34.6125 162.57158 33.89375 161.68095Q33.05 160.61845 33.05 158.19658ZM34.128124 158.19658Q34.128124 160.30595 34.628124 161.00908Q35.128124 161.7122 35.846874 161.7122Q36.58125 161.7122 37.065624 161.00908Q37.565624 160.30595 37.565624 158.19658Q37.565624 156.07158 37.065624 155.38408Q36.58125 154.68095 35.83125 154.68095Q35.1125 154.68095 34.675 155.29033Q34.128124 156.07158 34.128124 158.19658Z" fill-rule="nonzero"/><path fill="#000000" d="M23.01875 148.22905L21.971874 148.22905L21.971874 141.5103Q21.58125 141.86967 20.95625 142.24467Q20.346874 142.60405 19.8625 142.77592L19.8625 141.7603Q20.7375 141.33842 21.39375 140.7603Q22.065624 140.16655 22.346874 139.60405L23.01875 139.60405L23.01875 148.22905ZM30.01875 148.22905L28.971874 148.22905L28.971874 141.5103Q28.58125 141.86967 27.95625 142.24467Q27.346874 142.60405 26.8625 142.77592L26.8625 141.7603Q27.7375 141.33842 28.39375 140.7603Q29.065624 140.16655 29.346874 139.60405L30.01875 139.60405L30.01875 148.22905ZM33.05 143.99467Q33.05 142.46342 33.3625 141.54155Q33.675 140.60405 34.284374 140.10405Q34.909374 139.60405 35.846874 139.60405Q36.534374 139.60405 37.05 139.8853Q37.58125 140.16655 37.925 140.6978Q38.26875 141.21342 38.45625 141.96342Q38.64375 142.71342 38.64375 143.99467Q38.64375 145.5103 38.33125 146.43217Q38.034374 147.35405 37.409374 147.86967Q36.8 148.36967 35.846874 148.36967Q34.6125 148.36967 33.89375 147.47905Q33.05 146.41655 33.05 143.99467ZM34.128124 143.99467Q34.128124 146.10405 34.628124 146.80717Q35.128124 147.5103 35.846874 147.5103Q36.58125 147.5103 37.065624 146.80717Q37.565624 146.10405 37.565624 143.99467Q37.565624 141.86967 37.065624 141.18217Q36.58125 140.47905 35.83125 140.47905Q35.1125 140.47905 34.675 141.08842Q34.128124 141.86967 34.128124 143.99467Z" fill-rule="nonzero"/><path fill="#000000" d="M23.01875 134.02715L21.971874 134.02715L21.971874 127.308395Q21.58125 127.66777 20.95625 128.04277Q20.346874 128.40215 19.8625 128.57402L19.8625 127.558395Q20.7375 127.13652 21.39375 126.558395Q22.065624 125.964645 22.346874 125.402145L23.01875 125.402145L23.01875 134.02715ZM31.596874 133.01152L31.596874 134.02715L25.909374 134.02715Q25.909374 133.65215 26.034374 133.29277Q26.253124 132.71465 26.721874 132.15215Q27.20625 131.58965 28.1125 130.85527Q29.51875 129.69902 30.003124 129.02715Q30.503124 128.35527 30.503124 127.76152Q30.503124 127.13652 30.05 126.714645Q29.596874 126.277145 28.878124 126.277145Q28.1125 126.277145 27.659374 126.73027Q27.20625 127.183395 27.190624 127.995895L26.1125 127.88652Q26.221874 126.66777 26.940624 126.04277Q27.675 125.402145 28.909374 125.402145Q30.14375 125.402145 30.8625 126.089645Q31.58125 126.777145 31.58125 127.79277Q31.58125 128.3084 31.3625 128.8084Q31.159374 129.29277 30.659374 129.85527Q30.175 130.40215 29.05 131.35527Q28.096874 132.15215 27.815624 132.44902Q27.55 132.73027 27.378124 133.01152L31.596874 133.01152ZM33.05 129.79277Q33.05 128.26152 33.3625 127.339645Q33.675 126.402145 34.284374 125.902145Q34.909374 125.402145 35.846874 125.402145Q36.534374 125.402145 37.05 125.683395Q37.58125 125.964645 37.925 126.495895Q38.26875 127.01152 38.45625 127.76152Q38.64375 128.51152 38.64375 129.79277Q38.64375 131.3084 38.33125 132.23027Q38.034374 133.15215 37.409374 133.66777Q36.8 134.16777 35.846874 134.16777Q34.6125 134.16777 33.89375 133.27715Q33.05 132.21465 33.05 129.79277ZM34.128124 129.79277Q34.128124 131.90215 34.628124 132.60527Q35.128124 133.3084 35.846874 133.3084Q36.58125 133.3084 37.065624 132.60527Q37.565624 131.90215 37.565624 129.79277Q37.565624 127.66777 37.065624 126.98027Q36.58125 126.277145 35.83125 126.277145Q35.1125 126.277145 34.675 126.88652Q34.128124 127.66777 34.128124 129.79277Z" fill-rule="nonzero"/><path fill="#000000" d="M23.01875 119.82524L21.971874 119.82524L21.971874 113.10649Q21.58125 113.465866 20.95625 113.840866Q20.346874 114.20024 19.8625 114.372116L19.8625 113.35649Q20.7375 112.934616 21.39375 112.35649Q22.065624 111.76274 22.346874 111.20024L23.01875 111.20024L23.01875 119.82524ZM26.05 117.559616L27.1125 117.41899Q27.284374 118.309616 27.721874 118.715866Q28.159374 119.10649 28.784374 119.10649Q29.534374 119.10649 30.05 118.590866Q30.565624 118.07524 30.565624 117.309616Q30.565624 116.590866 30.08125 116.122116Q29.6125 115.63774 28.878124 115.63774Q28.58125 115.63774 28.128124 115.76274L28.253124 114.82524Q28.3625 114.840866 28.425 114.840866Q29.096874 114.840866 29.628124 114.497116Q30.175 114.13774 30.175 113.403366Q30.175 112.82524 29.784374 112.45024Q29.39375 112.059616 28.76875 112.059616Q28.159374 112.059616 27.7375 112.45024Q27.33125 112.840866 27.221874 113.60649L26.159374 113.41899Q26.346874 112.372116 27.034374 111.79399Q27.721874 111.20024 28.7375 111.20024Q29.440624 111.20024 30.034374 111.51274Q30.628124 111.809616 30.940624 112.32524Q31.253124 112.840866 31.253124 113.434616Q31.253124 113.98149 30.95625 114.45024Q30.659374 114.903366 30.08125 115.16899Q30.83125 115.340866 31.253124 115.903366Q31.675 116.45024 31.675 117.29399Q31.675 118.41899 30.846874 119.20024Q30.034374 119.98149 28.784374 119.98149Q27.659374 119.98149 26.909374 119.309616Q26.159374 118.622116 26.05 117.559616ZM33.05 115.590866Q33.05 114.059616 33.3625 113.13774Q33.675 112.20024 34.284374 111.70024Q34.909374 111.20024 35.846874 111.20024Q36.534374 111.20024 37.05 111.48149Q37.58125 111.76274 37.925 112.29399Q38.26875 112.809616 38.45625 113.559616Q38.64375 114.309616 38.64375 115.590866Q38.64375 117.10649 38.33125 118.028366Q38.034374 118.95024 37.409374 119.465866Q36.8 119.965866 35.846874 119.965866Q34.6125 119.965866 33.89375 119.07524Q33.05 118.01274 33.05 115.590866ZM34.128124 115.590866Q34.128124 117.70024 34.628124 118.403366Q35.128124 119.10649 35.846874 119.10649Q36.58125 119.10649 37.065624 118.403366Q37.565624 117.70024 37.565624 115.590866Q37.565624 113.465866 37.065624 112.778366Q36.58125 112.07524 35.83125 112.07524Q35.1125 112.07524 34.675 112.684616Q34.128124 113.465866 34.128124 115.590866Z" fill-rule="nonzero"/><path fill="#000000" d="M23.01875 105.62334L21.971874 105.62334L21.971874 98.90459Q21.58125 99.26396 20.95625 99.63896Q20.346874 99.99834 19.8625 100.17021L19.8625 99.15459Q20.7375 98.73271 21.39375 98.15459Q22.065624 97.56084 22.346874 96.99834L23.01875 96.99834L23.01875 105.62334ZM29.425 105.62334L29.425 103.56084L25.70625 103.56084L25.70625 102.59209L29.628124 97.02959L30.4875 97.02959L30.4875 102.59209L31.64375 102.59209L31.64375 103.56084L30.4875 103.56084L30.4875 105.62334L29.425 105.62334ZM29.425 102.59209L29.425 98.73271L26.7375 102.59209L29.425 102.59209ZM33.05 101.38896Q33.05 99.85771 33.3625 98.93584Q33.675 97.99834 34.284374 97.49834Q34.909374 96.99834 35.846874 96.99834Q36.534374 96.99834 37.05 97.27959Q37.58125 97.56084 37.925 98.09209Q38.26875 98.60771 38.45625 99.35771Q38.64375 100.10771 38.64375 101.38896Q38.64375 102.90459 38.33125 103.82646Q38.034374 104.74834 37.409374 105.26396Q36.8 105.76396 35.846874 105.76396Q34.6125 105.76396 33.89375 104.87334Q33.05 103.81084 33.05 101.38896ZM34.128124 101.38896Q34.128124 103.49834 34.628124 104.20146Q35.128124 104.90459 35.846874 104.90459Q36.58125 104.90459 37.065624 104.20146Q37.565624 103.49834 37.565624 101.38896Q37.565624 99.26396 37.065624 98.57646Q36.58125 97.87334 35.83125 97.87334Q35.1125 97.87334 34.675 98.48271Q34.128124 99.26396 34.128124 101.38896Z" fill-rule="nonzero"/><path fill="#000000" d="M23.01875 91.421425L21.971874 91.421425L21.971874 84.702675Q21.58125 85.06205 20.95625 85.43705Q20.346874 85.796425 19.8625 85.9683L19.8625 84.952675Q20.7375 84.5308 21.39375 83.952675Q22.065624 83.358925 22.346874 82.796425L23.01875 82.796425L23.01875 91.421425ZM26.05 89.171425L27.159374 89.077675Q27.284374 89.890175 27.721874 90.296425Q28.175 90.702675 28.815624 90.702675Q29.565624 90.702675 30.096874 90.12455Q30.628124 89.546425 30.628124 88.608925Q30.628124 87.702675 30.1125 87.18705Q29.6125 86.6558 28.784374 86.6558Q28.284374 86.6558 27.8625 86.890175Q27.45625 87.12455 27.221874 87.483925L26.2375 87.358925L27.065624 82.952675L31.346874 82.952675L31.346874 83.952675L27.909374 83.952675L27.45625 86.265175Q28.221874 85.7183 29.065624 85.7183Q30.190624 85.7183 30.95625 86.49955Q31.7375 87.2808 31.7375 88.515175Q31.7375 89.671425 31.065624 90.5308Q30.2375 91.56205 28.815624 91.56205Q27.64375 91.56205 26.89375 90.9058Q26.159374 90.24955 26.05 89.171425ZM33.05 87.18705Q33.05 85.6558 33.3625 84.733925Q33.675 83.796425 34.284374 83.296425Q34.909374 82.796425 35.846874 82.796425Q36.534374 82.796425 37.05 83.077675Q37.58125 83.358925 37.925 83.890175Q38.26875 84.4058 38.45625 85.1558Q38.64375 85.9058 38.64375 87.18705Q38.64375 88.702675 38.33125 89.62455Q38.034374 90.546425 37.409374 91.06205Q36.8 91.56205 35.846874 91.56205Q34.6125 91.56205 33.89375 90.671425Q33.05 89.608925 33.05 87.18705ZM34.128124 87.18705Q34.128124 89.296425 34.628124 89.99955Q35.128124 90.702675 35.846874 90.702675Q36.58125 90.702675 37.065624 89.99955Q37.565624 89.296425 37.565624 87.18705Q37.565624 85.06205 37.065624 84.37455Q36.58125 83.671425 35.83125 83.671425Q35.1125 83.671425 34.675 84.2808Q34.128124 85.06205 34.128124 87.18705Z" fill-rule="nonzero"/><path fill="#000000" d="M23.01875 77.21952L21.971874 77.21952L21.971874 70.50077Q21.58125 70.860146 20.95625 71.235146Q20.346874 71.59452 19.8625 71.766396L19.8625 70.75077Q20.7375 70.328896 21.39375 69.75077Q22.065624 69.15702 22.346874 68.59452L23.01875 68.59452L23.01875 77.21952ZM31.51875 70.735146L30.471874 70.81327Q30.33125 70.18827 30.08125 69.90702Q29.64375 69.453896 29.01875 69.453896Q28.51875 69.453896 28.128124 69.735146Q27.64375 70.110146 27.346874 70.81327Q27.065624 71.50077 27.05 72.78202Q27.425 72.203896 27.971874 71.922646Q28.534374 71.641396 29.14375 71.641396Q30.190624 71.641396 30.925 72.422646Q31.675 73.203896 31.675 74.422646Q31.675 75.235146 31.315624 75.93827Q30.971874 76.62577 30.3625 77.00077Q29.753124 77.360146 28.9875 77.360146Q27.659374 77.360146 26.83125 76.391396Q26.003124 75.422646 26.003124 73.203896Q26.003124 70.703896 26.925 69.578896Q27.721874 68.59452 29.08125 68.59452Q30.096874 68.59452 30.7375 69.172646Q31.39375 69.735146 31.51875 70.735146ZM27.221874 74.43827Q27.221874 74.985146 27.440624 75.485146Q27.675 75.96952 28.08125 76.235146Q28.503124 76.50077 28.971874 76.50077Q29.628124 76.50077 30.1125 75.96952Q30.596874 75.422646 30.596874 74.50077Q30.596874 73.610146 30.1125 73.09452Q29.64375 72.578896 28.925 72.578896Q28.20625 72.578896 27.70625 73.09452Q27.221874 73.610146 27.221874 74.43827ZM33.05 72.985146Q33.05 71.453896 33.3625 70.53202Q33.675 69.59452 34.284374 69.09452Q34.909374 68.59452 35.846874 68.59452Q36.534374 68.59452 37.05 68.87577Q37.58125 69.15702 37.925 69.68827Q38.26875 70.203896 38.45625 70.953896Q38.64375 71.703896 38.64375 72.985146Q38.64375 74.50077 38.33125 75.422646Q38.034374 76.34452 37.409374 76.860146Q36.8 77.360146 35.846874 77.360146Q34.6125 77.360146 33.89375 76.46952Q33.05 75.40702 33.05 72.985146ZM34.128124 72.985146Q34.128124 75.09452 34.628124 75.797646Q35.128124 76.50077 35.846874 76.50077Q36.58125 76.50077 37.065624 75.797646Q37.565624 75.09452 37.565624 72.985146Q37.565624 70.860146 37.065624 70.172646Q36.58125 69.46952 35.83125 69.46952Q35.1125 69.46952 34.675 70.078896Q34.128124 70.860146 34.128124 72.985146Z" fill-rule="nonzero"/><path fill="#000000" d="M23.01875 63.01762L21.971874 63.01762L21.971874 56.29887Q21.58125 56.658245 20.95625 57.033245Q20.346874 57.39262 19.8625 57.564495L19.8625 56.54887Q20.7375 56.126995 21.39375 55.54887Q22.065624 54.95512 22.346874 54.39262L23.01875 54.39262L23.01875 63.01762ZM26.1125 55.54887L26.1125 54.533245L31.675 54.533245L31.675 55.36137Q30.8625 56.23637 30.05 57.689495Q29.253124 59.126995 28.815624 60.658245Q28.4875 61.73637 28.409374 63.01762L27.315624 63.01762Q27.33125 62.001995 27.70625 60.564495Q28.096874 59.126995 28.8 57.79887Q29.51875 56.470745 30.33125 55.54887L26.1125 55.54887ZM33.05 58.783245Q33.05 57.251995 33.3625 56.33012Q33.675 55.39262 34.284374 54.89262Q34.909374 54.39262 35.846874 54.39262Q36.534374 54.39262 37.05 54.67387Q37.58125 54.95512 37.925 55.48637Q38.26875 56.001995 38.45625 56.751995Q38.64375 57.501995 38.64375 58.783245Q38.64375 60.29887 38.33125 61.220745Q38.034374 62.14262 37.409374 62.658245Q36.8 63.158245 35.846874 63.158245Q34.6125 63.158245 33.89375 62.26762Q33.05 61.20512 33.05 58.783245ZM34.128124 58.783245Q34.128124 60.89262 34.628124 61.595745Q35.128124 62.29887 35.846874 62.29887Q36.58125 62.29887 37.065624 61.595745Q37.565624 60.89262 37.565624 58.783245Q37.565624 56.658245 37.065624 55.970745Q36.58125 55.26762 35.83125 55.26762Q35.1125 55.26762 34.675 55.876995Q34.128124 56.658245 34.128124 58.783245Z" fill-rule="nonzero"/><path fill="#000000" d="M110.75377 314.6844L111.81627 314.59064Q111.894394 315.2469 112.175644 315.65314Q112.456894 316.0594 113.03502 316.325Q113.62877 316.575 114.363144 316.575Q115.00377 316.575 115.50377 316.3875Q116.00377 316.1844 116.238144 315.85626Q116.488144 315.5125 116.488144 315.1219Q116.488144 314.71564 116.25377 314.41876Q116.019394 314.10626 115.488144 313.90314Q115.12877 313.7625 113.94127 313.48126Q112.769394 313.2 112.300644 312.95Q111.675644 312.6219 111.37877 312.15314Q111.081894 311.66876 111.081894 311.075Q111.081894 310.4344 111.44127 309.8719Q111.81627 309.29376 112.519394 309.0125Q113.238144 308.71564 114.09752 308.71564Q115.050644 308.71564 115.78502 309.02814Q116.519394 309.325 116.91002 309.9344Q117.300644 310.52814 117.331894 311.27814L116.238144 311.35626Q116.144394 310.54376 115.62877 310.1375Q115.12877 309.71564 114.144394 309.71564Q113.113144 309.71564 112.644394 310.09064Q112.175644 310.46564 112.175644 310.9969Q112.175644 311.46564 112.50377 311.7625Q112.831894 312.0594 114.206894 312.3719Q115.59752 312.6844 116.113144 312.91876Q116.863144 313.27814 117.22252 313.8094Q117.581894 314.325 117.581894 315.02814Q117.581894 315.71564 117.19127 316.325Q116.800644 316.91876 116.06627 317.2625Q115.331894 317.59064 114.41002 317.59064Q113.238144 317.59064 112.44127 317.2625Q111.66002 316.91876 111.206894 316.23126Q110.769394 315.54376 110.75377 314.6844ZM118.19127 317.45L121.488144 308.85626L122.706894 308.85626L126.22252 317.45L124.94127 317.45L123.925644 314.84064L120.34752 314.84064L119.394394 317.45L118.19127 317.45ZM120.675644 313.91876L123.581894 313.91876L122.69127 311.54376Q122.269394 310.46564 122.081894 309.7625Q121.91002 310.59064 121.613144 311.40314L120.675644 313.91876ZM125.25377 317.45L128.5819 312.96564L125.66002 308.85626L127.00377 308.85626L128.56627 311.0594Q129.05064 311.7469 129.25377 312.1219Q129.55064 311.65314 129.94127 311.1375L131.66002 308.85626L132.8944 308.85626L129.87877 312.90314L133.12877 317.45L131.72252 317.45L129.56627 314.3875Q129.37877 314.1219 129.19127 313.8094Q128.91002 314.27814 128.78502 314.45L126.62877 317.45L125.25377 317.45ZM133.12877 317.45L133.12877 308.85626L136.37877 308.85626Q137.22252 308.85626 137.67564 308.9344Q138.31627 309.04376 138.73814 309.34064Q139.17564 309.6375 139.42564 310.16876Q139.69127 310.7 139.69127 311.34064Q139.69127 312.4344 138.98814 313.2Q138.30064 313.95 136.47252 313.95L134.2694 313.95L134.2694 317.45L133.12877 317.45ZM134.2694 312.95L136.48814 312.95Q137.59752 312.95 138.05064 312.54376Q138.5194 312.1219 138.5194 311.3719Q138.5194 310.84064 138.23814 310.46564Q137.97252 310.075 137.53502 309.95Q137.23814 309.8719 136.47252 309.8719L134.2694 309.8719L134.2694 312.95ZM143.55064 317.45L143.55064 313.8094L140.23814 308.85626L141.62877 308.85626L143.31627 311.45Q143.78502 312.16876 144.19127 312.90314Q144.5819 312.23126 145.12877 311.3875L146.80064 308.85626L148.11314 308.85626L144.69127 313.8094L144.69127 317.45L143.55064 317.45Z" fill-rule="nonzero"/><path fill="#000000" d="M233.82417 317.45L233.82417 308.85626L236.79292 308.85626Q237.79292 308.85626 238.32417 308.98126Q239.05855 309.15314 239.57417 309.59064Q240.26167 310.16876 240.5898 311.075Q240.93355 311.96564 240.93355 313.10626Q240.93355 314.09064 240.69917 314.84064Q240.48042 315.59064 240.12105 316.09064Q239.76167 316.59064 239.32417 316.8719Q238.9023 317.15314 238.30855 317.3094Q237.7148 317.45 236.93355 317.45L233.82417 317.45ZM234.9648 316.4344L236.79292 316.4344Q237.6523 316.4344 238.13667 316.27814Q238.62105 316.1219 238.9023 315.825Q239.30855 315.4344 239.5273 314.7469Q239.76167 314.0594 239.76167 313.09064Q239.76167 311.7469 239.30855 311.02814Q238.87105 310.29376 238.24605 310.04376Q237.7773 309.8719 236.7773 309.8719L234.9648 309.8719L234.9648 316.4344ZM241.88667 317.45L245.18355 308.85626L246.4023 308.85626L249.91792 317.45L248.63667 317.45L247.62105 314.84064L244.04292 314.84064L243.0898 317.45L241.88667 317.45ZM244.37105 313.91876L247.2773 313.91876L246.38667 311.54376Q245.9648 310.46564 245.7773 309.7625Q245.60542 310.59064 245.30855 311.40314L244.37105 313.91876ZM248.94917 317.45L252.2773 312.96564L249.35542 308.85626L250.69917 308.85626L252.26167 311.0594Q252.74605 311.7469 252.94917 312.1219Q253.24605 311.65314 253.63667 311.1375L255.35542 308.85626L256.58978 308.85626L253.57417 312.90314L256.82416 317.45L255.41792 317.45L253.26167 314.3875Q253.07417 314.1219 252.88667 313.8094Q252.60542 314.27814 252.48042 314.45L250.32417 317.45L248.94917 317.45ZM256.82416 317.45L256.82416 308.85626L260.07416 308.85626Q260.9179 308.85626 261.37103 308.9344Q262.01166 309.04376 262.43353 309.34064Q262.87103 309.6375 263.12103 310.16876Q263.38666 310.7 263.38666 311.34064Q263.38666 312.4344 262.68353 313.2Q261.99603 313.95 260.1679 313.95L257.96478 313.95L257.96478 317.45L256.82416 317.45ZM257.96478 312.95L260.18353 312.95Q261.2929 312.95 261.74603 312.54376Q262.21478 312.1219 262.21478 311.3719Q262.21478 310.84064 261.93353 310.46564Q261.6679 310.075 261.2304 309.95Q260.93353 309.8719 260.1679 309.8719L257.96478 309.8719L257.96478 312.95ZM267.24603 317.45L267.24603 313.8094L263.93353 308.85626L265.32416 308.85626L267.01166 311.45Q267.4804 312.16876 267.88666 312.90314Q268.27728 312.23126 268.82416 311.3875L270.49603 308.85626L271.80853 308.85626L268.38666 313.8094L268.38666 317.45L267.24603 317.45Z" fill-rule="nonzero"/><path fill="#000000" d="M355.14456 314.6844L356.20706 314.59064Q356.2852 315.2469 356.56644 315.65314Q356.8477 316.0594 357.4258 316.325Q358.01956 316.575 358.75394 316.575Q359.39456 316.575 359.89456 316.3875Q360.39456 316.1844 360.62894 315.85626Q360.87894 315.5125 360.87894 315.1219Q360.87894 314.71564 360.64456 314.41876Q360.4102 314.10626 359.87894 313.90314Q359.51956 313.7625 358.33206 313.48126Q357.1602 313.2 356.69144 312.95Q356.06644 312.6219 355.76956 312.15314Q355.4727 311.66876 355.4727 311.075Q355.4727 310.4344 355.83206 309.8719Q356.20706 309.29376 356.9102 309.0125Q357.62894 308.71564 358.4883 308.71564Q359.44144 308.71564 360.1758 309.02814Q360.9102 309.325 361.3008 309.9344Q361.69144 310.52814 361.7227 311.27814L360.62894 311.35626Q360.5352 310.54376 360.01956 310.1375Q359.51956 309.71564 358.5352 309.71564Q357.50394 309.71564 357.0352 310.09064Q356.56644 310.46564 356.56644 310.9969Q356.56644 311.46564 356.89456 311.7625Q357.2227 312.0594 358.5977 312.3719Q359.9883 312.6844 360.50394 312.91876Q361.25394 313.27814 361.6133 313.8094Q361.9727 314.325 361.9727 315.02814Q361.9727 315.71564 361.58206 316.325Q361.19144 316.91876 360.45706 317.2625Q359.7227 317.59064 358.8008 317.59064Q357.62894 317.59064 356.83206 317.2625Q356.0508 316.91876 355.5977 316.23126Q355.1602 315.54376 355.14456 314.6844ZM367.5508 314.075L367.5508 313.075L371.1758 313.0594L371.1758 316.2469Q370.3477 316.91876 369.45706 317.2625Q368.56644 317.59064 367.62894 317.59064Q366.3633 317.59064 365.31644 317.0594Q364.2852 316.5125 363.75394 315.4969Q363.2383 314.46564 363.2383 313.2Q363.2383 311.9344 363.75394 310.85626Q364.2852 309.7625 365.26956 309.2469Q366.25394 308.71564 367.5352 308.71564Q368.4727 308.71564 369.2227 309.0125Q369.9727 309.3094 370.39456 309.85626Q370.83206 310.3875 371.0508 311.2625L370.0352 311.54376Q369.83206 310.8875 369.5352 310.5125Q369.25394 310.1375 368.7227 309.91876Q368.19144 309.6844 367.5508 309.6844Q366.76956 309.6844 366.19144 309.91876Q365.62894 310.15314 365.26956 310.54376Q364.9258 310.9344 364.7383 311.40314Q364.4102 312.2 364.4102 313.1219Q364.4102 314.27814 364.8008 315.0594Q365.20706 315.825 365.95706 316.2Q366.70706 316.575 367.56644 316.575Q368.3008 316.575 369.00394 316.29376Q369.70706 315.9969 370.06644 315.6844L370.06644 314.075L367.5508 314.075ZM372.5508 317.45L372.5508 308.85626L378.75394 308.85626L378.75394 309.8719L373.69144 309.8719L373.69144 312.4969L378.44144 312.4969L378.44144 313.5125L373.69144 313.5125L373.69144 316.4344L378.95706 316.4344L378.95706 317.45L372.5508 317.45ZM380.4883 317.45L380.4883 308.85626L382.20706 308.85626L384.2383 314.9344Q384.51956 315.79376 384.64456 316.21564Q384.7852 315.7469 385.0977 314.84064L387.1602 308.85626L388.69144 308.85626L388.69144 317.45L387.5977 317.45L387.5977 310.2625L385.0977 317.45L384.06644 317.45L381.58206 310.1375L381.58206 317.45L380.4883 317.45ZM391.9727 317.45L388.64456 308.85626L389.87894 308.85626L392.1133 315.10626Q392.37894 315.85626 392.56644 316.5125Q392.76956 315.8094 393.0352 315.10626L395.3477 308.85626L396.50394 308.85626L393.14456 317.45L391.9727 317.45Z" fill-rule="nonzero"/><path fill="#000000" d="M477.33997 314.6844L478.40247 314.59064Q478.4806 315.2469 478.76184 315.65314Q479.0431 316.0594 479.62122 316.325Q480.21497 316.575 480.94934 316.575Q481.58997 316.575 482.08997 316.3875Q482.58997 316.1844 482.82434 315.85626Q483.07434 315.5125 483.07434 315.1219Q483.07434 314.71564 482.83997 314.41876Q482.6056 314.10626 482.07434 313.90314Q481.71497 313.7625 480.52747 313.48126Q479.3556 313.2 478.88684 312.95Q478.26184 312.6219 477.96497 312.15314Q477.6681 311.66876 477.6681 311.075Q477.6681 310.4344 478.02747 309.8719Q478.40247 309.29376 479.1056 309.0125Q479.82434 308.71564 480.68372 308.71564Q481.63684 308.71564 482.37122 309.02814Q483.1056 309.325 483.49622 309.9344Q483.88684 310.52814 483.9181 311.27814L482.82434 311.35626Q482.7306 310.54376 482.21497 310.1375Q481.71497 309.71564 480.7306 309.71564Q479.69934 309.71564 479.2306 310.09064Q478.76184 310.46564 478.76184 310.9969Q478.76184 311.46564 479.08997 311.7625Q479.4181 312.0594 480.7931 312.3719Q482.18372 312.6844 482.69934 312.91876Q483.44934 313.27814 483.80872 313.8094Q484.1681 314.325 484.1681 315.02814Q484.1681 315.71564 483.77747 316.325Q483.38684 316.91876 482.65247 317.2625Q481.9181 317.59064 480.99622 317.59064Q479.82434 317.59064 479.02747 317.2625Q478.24622 316.91876 477.7931 316.23126Q477.3556 315.54376 477.33997 314.6844ZM489.74622 314.075L489.74622 313.075L493.37122 313.0594L493.37122 316.2469Q492.5431 316.91876 491.65247 317.2625Q490.76184 317.59064 489.82434 317.59064Q488.55872 317.59064 487.51184 317.0594Q486.4806 316.5125 485.94934 315.4969Q485.43372 314.46564 485.43372 313.2Q485.43372 311.9344 485.94934 310.85626Q486.4806 309.7625 487.46497 309.2469Q488.44934 308.71564 489.7306 308.71564Q490.6681 308.71564 491.4181 309.0125Q492.1681 309.3094 492.58997 309.85626Q493.02747 310.3875 493.24622 311.2625L492.2306 311.54376Q492.02747 310.8875 491.7306 310.5125Q491.44934 310.1375 490.9181 309.91876Q490.38684 309.6844 489.74622 309.6844Q488.96497 309.6844 488.38684 309.91876Q487.82434 310.15314 487.46497 310.54376Q487.12122 310.9344 486.93372 311.40314Q486.6056 312.2 486.6056 313.1219Q486.6056 314.27814 486.99622 315.0594Q487.40247 315.825 488.15247 316.2Q488.90247 316.575 489.76184 316.575Q490.49622 316.575 491.19934 316.29376Q491.90247 315.9969 492.26184 315.6844L492.26184 314.075L489.74622 314.075ZM494.74622 317.45L494.74622 308.85626L500.94934 308.85626L500.94934 309.8719L495.88684 309.8719L495.88684 312.4969L500.63684 312.4969L500.63684 313.5125L495.88684 313.5125L495.88684 316.4344L501.15247 316.4344L501.15247 317.45L494.74622 317.45ZM502.68372 317.45L502.68372 308.85626L504.40247 308.85626L506.43372 314.9344Q506.71497 315.79376 506.83997 316.21564Q506.9806 315.7469 507.2931 314.84064L509.3556 308.85626L510.88684 308.85626L510.88684 317.45L509.7931 317.45L509.7931 310.2625L507.2931 317.45L506.26184 317.45L503.77747 310.1375L503.77747 317.45L502.68372 317.45ZM511.68372 317.45L511.68372 308.85626L513.40247 308.85626L515.4337 314.9344Q515.71497 315.79376 515.83997 316.21564Q515.9806 315.7469 516.2931 314.84064L518.3556 308.85626L519.88684 308.85626L519.88684 317.45L518.7931 317.45L518.7931 310.2625L516.2931 317.45L515.26184 317.45L512.77747 310.1375L512.77747 317.45L511.68372 317.45Z" fill-rule="nonzero"/><path fill="#9900ff" d="M245.0 20.55C245.0 19.997715 245.44771 19.55 246.0 19.55L256.0 19.55C256.55228 19.55 257.0 19.997715 257.0 20.55L257.0 30.55C257.0 31.102285 256.55228 31.55 256.0 31.55L246.0 31.55C245.44771 31.55 245.0 31.102285 245.0 30.55Z" fill-rule="nonzero"/><path fill="#1a1a1a" d="M265.875 29.55L265.875 20.95625L269.10938 20.95625Q270.09375 20.95625 270.6875 21.221874Q271.28125 21.4875 271.60938 22.034374Q271.95312 22.565624 271.95312 23.159374Q271.95312 23.70625 271.65625 24.190624Q271.35938 24.675 270.75 24.971874Q271.53125 25.20625 271.9375 25.76875Q272.35938 26.315624 272.35938 27.065624Q272.35938 27.659374 272.10938 28.190624Q271.85938 28.70625 271.48438 28.9875Q271.10938 29.26875 270.53125 29.409374Q269.96875 29.55 269.15625 29.55L265.875 29.55ZM267.01562 24.565624L268.875 24.565624Q269.625 24.565624 269.95312 24.471874Q270.39062 24.346874 270.60938 24.05Q270.82812 23.7375 270.82812 23.284374Q270.82812 22.8625 270.625 22.534374Q270.42188 22.20625 270.03125 22.096874Q269.65625 21.971874 268.73438 21.971874L267.01562 21.971874L267.01562 24.565624ZM267.01562 28.534374L269.15625 28.534374Q269.70312 28.534374 269.92188 28.4875Q270.32812 28.425 270.57812 28.26875Q270.84375 28.096874 271.01562 27.784374Q271.1875 27.471874 271.1875 27.065624Q271.1875 26.58125 270.9375 26.221874Q270.70312 25.8625 270.26562 25.721874Q269.82812 25.58125 269.0 25.58125L267.01562 25.58125L267.01562 28.534374ZM273.875 29.55L273.875 20.95625L275.01562 20.95625L275.01562 28.534374L279.25 28.534374L279.25 29.55L273.875 29.55ZM279.98438 29.55L283.28125 20.95625L284.5 20.95625L288.01562 29.55L286.73438 29.55L285.71875 26.940624L282.14062 26.940624L281.1875 29.55L279.98438 29.55ZM282.46875 26.01875L285.375 26.01875L284.48438 23.64375Q284.0625 22.565624 283.875 21.8625Q283.70312 22.690624 283.40625 23.503124L282.46875 26.01875ZM287.54688 26.784374L288.60938 26.690624Q288.6875 27.346874 288.96875 27.753124Q289.25 28.159374 289.82812 28.425Q290.42188 28.675 291.15625 28.675Q291.79688 28.675 292.29688 28.4875Q292.79688 28.284374 293.03125 27.95625Q293.28125 27.6125 293.28125 27.221874Q293.28125 26.815624 293.04688 26.51875Q292.8125 26.20625 292.28125 26.003124Q291.92188 25.8625 290.73438 25.58125Q289.5625 25.3 289.09375 25.05Q288.46875 24.721874 288.17188 24.253124Q287.875 23.76875 287.875 23.175Q287.875 22.534374 288.23438 21.971874Q288.60938 21.39375 289.3125 21.1125Q290.03125 20.815624 290.89062 20.815624Q291.84375 20.815624 292.57812 21.128124Q293.3125 21.425 293.70312 22.034374Q294.09375 22.628124 294.125 23.378124L293.03125 23.45625Q292.9375 22.64375 292.42188 22.2375Q291.92188 21.815624 290.9375 21.815624Q289.90625 21.815624 289.4375 22.190624Q288.96875 22.565624 288.96875 23.096874Q288.96875 23.565624 289.29688 23.8625Q289.625 24.159374 291.0 24.471874Q292.39062 24.784374 292.90625 25.01875Q293.65625 25.378124 294.01562 25.909374Q294.375 26.425 294.375 27.128124Q294.375 27.815624 293.98438 28.425Q293.59375 29.01875 292.85938 29.3625Q292.125 29.690624 291.20312 29.690624Q290.03125 29.690624 289.23438 29.3625Q288.45312 29.01875 288.0 28.33125Q287.5625 27.64375 287.54688 26.784374Z" fill-rule="nonzero"/><path fill="#ffd966" d="M311.0 20.55C311.0 19.997715 311.44772 19.55 312.0 19.55L322.0 19.55C322.55228 19.55 323.0 19.997715 323.0 20.55L323.0 30.55C323.0 31.102285 322.55228 31.55 322.0 31.55L312.0 31.55C311.44772 31.55 311.0 31.102285 311.0 30.55Z" fill-rule="nonzero"/><path fill="#1a1a1a" d="M331.89062 29.55L331.89062 20.95625L333.60938 20.95625L335.64062 27.034374Q335.92188 27.89375 336.04688 28.315624Q336.1875 27.846874 336.5 26.940624L338.5625 20.95625L340.09375 20.95625L340.09375 29.55L339.0 29.55L339.0 22.3625L336.5 29.55L335.46875 29.55L332.98438 22.2375L332.98438 29.55L331.89062 29.55ZM340.875 29.55L340.875 20.95625L342.01562 20.95625L342.01562 25.221874L346.28125 20.95625L347.82812 20.95625L344.21875 24.440624L347.98438 29.55L346.48438 29.55L343.42188 25.20625L342.01562 26.565624L342.01562 29.55L340.875 29.55ZM348.875 29.55L348.875 20.95625L350.01562 20.95625L350.01562 28.534374L354.25 28.534374L354.25 29.55L348.875 29.55Z" fill-rule="nonzero"/></svg>