<svg version="1.1" viewBox="0.0 0.0 600.0 371.0" fill="none" stroke="none" stroke-linecap="square" stroke-miterlimit="10" width="600" height="371" xmlns:xlink="http://www.w3.org/1999/xlink" xmlns="http://www.w3.org/2000/svg"><path fill="#ffffff" d="M0 0L600.0 0L600.0 371.0L0 371.0L0 0Z" fill-rule="nonzero"/><path stroke="#333333" stroke-width="1.0" stroke-linecap="butt" d="M62.5 332.5L581.5 332.5" fill-rule="nonzero"/><path stroke="#cccccc" stroke-width="1.0" stroke-linecap="butt" d="M62.5 293.5L581.5 293.5" fill-rule="nonzero"/><path stroke="#cccccc" stroke-width="1.0" stroke-linecap="butt" d="M62.5 255.5L581.5 255.5" fill-rule="nonzero"/><path stroke="#cccccc" stroke-width="1.0" stroke-linecap="butt" d="M62.5 216.5L581.5 216.5" fill-rule="nonzero"/><path stroke="#cccccc" stroke-width="1.0" stroke-linecap="butt" d="M62.5 177.5L581.5 177.5" fill-rule="nonzero"/><path stroke="#cccccc" stroke-width="1.0" stroke-linecap="butt" d="M62.5 139.5L581.5 139.5" fill-rule="nonzero"/><path stroke="#cccccc" stroke-width="1.0" stroke-linecap="butt" d="M62.5 100.5L581.5 100.5" fill-rule="nonzero"/><path stroke="#cccccc" stroke-width="1.0" stroke-linecap="butt" d="M62.5 61.5L581.5 61.5" fill-rule="nonzero"/><path stroke="#e6e6e6" stroke-width="1.0" stroke-linecap="butt" d="M62.5 324.5L581.5 324.5" fill-rule="nonzero"/><path stroke="#e6e6e6" stroke-width="1.0" stroke-linecap="butt" d="M62.5 316.5L581.5 316.5" fill-rule="nonzero"/><path stroke="#e6e6e6" stroke-width="1.0" stroke-linecap="butt" d="M62.5 309.5L581.5 309.5" fill-rule="nonzero"/><path stroke="#e6e6e6" stroke-width="1.0" stroke-linecap="butt" d="M62.5 301.5L581.5 301.5" fill-rule="nonzero"/><path stroke="#e6e6e6" stroke-width="1.0" stroke-linecap="butt" d="M62.5 286.5L581.5 286.5" fill-rule="nonzero"/><path stroke="#e6e6e6" stroke-width="1.0" stroke-linecap="butt" d="M62.5 278.5L581.5 278.5" fill-rule="nonzero"/><path stroke="#e6e6e6" stroke-width="1.0" stroke-linecap="butt" d="M62.5 270.5L581.5 270.5" fill-rule="nonzero"/><path stroke="#e6e6e6" stroke-width="1.0" stroke-linecap="butt" d="M62.5 262.5L581.5 262.5" fill-rule="nonzero"/><path stroke="#e6e6e6" stroke-width="1.0" stroke-linecap="butt" d="M62.5 247.5L581.5 247.5" fill-rule="nonzero"/><path stroke="#e6e6e6" stroke-width="1.0" stroke-linecap="butt" d="M62.5 239.5L581.5 239.5" fill-rule="nonzero"/><path stroke="#e6e6e6" stroke-width="1.0" stroke-linecap="butt" d="M62.5 231.5L581.5 231.5" fill-rule="nonzero"/><path stroke="#e6e6e6" stroke-width="1.0" stroke-linecap="butt" d="M62.5 224.5L581.5 224.5" fill-rule="nonzero"/><path stroke="#e6e6e6" stroke-width="1.0" stroke-linecap="butt" d="M62.5 208.5L581.5 208.5" fill-rule="nonzero"/><path stroke="#e6e6e6" stroke-width="1.0" stroke-linecap="butt" d="M62.5 201.5L581.5 201.5" fill-rule="nonzero"/><path stroke="#e6e6e6" stroke-width="1.0" stroke-linecap="butt" d="M62.5 193.5L581.5 193.5" fill-rule="nonzero"/><path stroke="#e6e6e6" stroke-width="1.0" stroke-linecap="butt" d="M62.5 185.5L581.5 185.5" fill-rule="nonzero"/><path stroke="#e6e6e6" stroke-width="1.0" stroke-linecap="butt" d="M62.5 170.5L581.5 170.5" fill-rule="nonzero"/><path stroke="#e6e6e6" stroke-width="1.0" stroke-linecap="butt" d="M62.5 162.5L581.5 162.5" fill-rule="nonzero"/><path stroke="#e6e6e6" stroke-width="1.0" stroke-linecap="butt" d="M62.5 154.5L581.5 154.5" fill-rule="nonzero"/><path stroke="#e6e6e6" stroke-width="1.0" stroke-linecap="butt" d="M62.5 146.5L581.5 146.5" fill-rule="nonzero"/><path stroke="#e6e6e6" stroke-width="1.0" stroke-linecap="butt" d="M62.5 131.5L581.5 131.5" fill-rule="nonzero"/><path stroke="#e6e6e6" stroke-width="1.0" stroke-linecap="butt" d="M62.5 123.5L581.5 123.5" fill-rule="nonzero"/><path stroke="#e6e6e6" stroke-width="1.0" stroke-linecap="butt" d="M62.5 116.5L581.5 116.5" fill-rule="nonzero"/><path stroke="#e6e6e6" stroke-width="1.0" stroke-linecap="butt" d="M62.5 108.5L581.5 108.5" fill-rule="nonzero"/><path stroke="#e6e6e6" stroke-width="1.0" stroke-linecap="butt" d="M62.5 92.5L581.5 92.5" fill-rule="nonzero"/><path stroke="#e6e6e6" stroke-width="1.0" stroke-linecap="butt" d="M62.5 85.5L581.5 85.5" fill-rule="nonzero"/><path stroke="#e6e6e6" stroke-width="1.0" stroke-linecap="butt" d="M62.5 77.5L581.5 77.5" fill-rule="nonzero"/><path stroke="#e6e6e6" stroke-width="1.0" stroke-linecap="butt" d="M62.5 69.5L581.5 69.5" fill-rule="nonzero"/><clipPath id="id_0"><path d="M62.55 61.916668L581.45 61.916668L581.45 332.45L62.55 332.45L62.55 61.916668Z" clip-rule="nonzero"/></clipPath><path stroke="#000000" stroke-width="2.0" stroke-linecap="butt" stroke-opacity="0.0" clip-path="url(#id_0)" d="M182.0 332.0L104.0 332.0L104.0 327.0C104.0 325.89542 104.89543 325.0 106.0 325.0L180.0 325.0C181.10457 325.0 182.0 325.89542 182.0 327.0Z" fill-rule="nonzero"/><path fill="#9900ff" clip-path="url(#id_0)" d="M182.0 332.0L104.0 332.0L104.0 327.0C104.0 325.89542 104.89543 325.0 106.0 325.0L180.0 325.0C181.10457 325.0 182.0 325.89542 182.0 327.0Z" fill-rule="nonzero"/><path stroke="#000000" stroke-width="2.0" stroke-linecap="butt" stroke-opacity="0.0" clip-path="url(#id_0)" d="M301.0 332.0L223.0 332.0L223.0 319.0C223.0 317.89542 223.89543 317.0 225.0 317.0L299.0 317.0C300.10458 317.0 301.0 317.89542 301.0 319.0Z" fill-rule="nonzero"/><path fill="#9900ff" clip-path="url(#id_0)" d="M301.0 332.0L223.0 332.0L223.0 319.0C223.0 317.89542 223.89543 317.0 225.0 317.0L299.0 317.0C300.10458 317.0 301.0 317.89542 301.0 319.0Z" fill-rule="nonzero"/><path stroke="#000000" stroke-width="2.0" stroke-linecap="butt" stroke-opacity="0.0" clip-path="url(#id_0)" d="M421.0 332.0L343.0 332.0L343.0 88.0C343.0 86.89543 343.89542 86.0 345.0 86.0L419.0 86.0C420.10458 86.0 421.0 86.89543 421.0 88.0Z" fill-rule="nonzero"/><path fill="#9900ff" clip-path="url(#id_0)" d="M421.0 332.0L343.0 332.0L343.0 88.0C343.0 86.89543 343.89542 86.0 345.0 86.0L419.0 86.0C420.10458 86.0 421.0 86.89543 421.0 88.0Z" fill-rule="nonzero"/><path stroke="#000000" stroke-width="2.0" stroke-linecap="butt" stroke-opacity="0.0" clip-path="url(#id_0)" d="M540.0 332.0L462.0 332.0L462.0 81.0C462.0 79.89543 462.89542 79.0 464.0 79.0L538.0 79.0C539.10455 79.0 540.0 79.89543 540.0 81.0Z" fill-rule="nonzero"/><path fill="#9900ff" clip-path="url(#id_0)" d="M540.0 332.0L462.0 332.0L462.0 81.0C462.0 79.89543 462.89542 79.0 464.0 79.0L538.0 79.0C539.10455 79.0 540.0 79.89543 540.0 81.0Z" fill-rule="nonzero"/><path fill="#000000" d="M26.05 332.21564Q26.05 330.6844 26.3625 329.7625Q26.675 328.825 27.284374 328.325Q27.909374 327.825 28.846874 327.825Q29.534374 327.825 30.05 328.10626Q30.58125 328.3875 30.925 328.91876Q31.26875 329.4344 31.45625 330.1844Q31.64375 330.9344 31.64375 332.21564Q31.64375 333.73126 31.33125 334.65314Q31.034374 335.575 30.409374 336.09064Q29.8 336.59064 28.846874 336.59064Q27.6125 336.59064 26.89375 335.7Q26.05 334.6375 26.05 332.21564ZM27.128124 332.21564Q27.128124 334.325 27.628124 335.02814Q28.128124 335.73126 28.846874 335.73126Q29.58125 335.73126 30.065624 335.02814Q30.565624 334.325 30.565624 332.21564Q30.565624 330.09064 30.065624 329.40314Q29.58125 328.7 28.83125 328.7Q28.1125 328.7 27.675 329.3094Q27.128124 330.09064 27.128124 332.21564ZM33.64375 336.45L33.64375 335.2469L34.846874 335.2469L34.846874 336.45L33.64375 336.45ZM36.05 332.21564Q36.05 330.6844 36.3625 329.7625Q36.675 328.825 37.284374 328.325Q37.909374 327.825 38.846874 327.825Q39.534374 327.825 40.05 328.10626Q40.58125 328.3875 40.925 328.91876Q41.26875 329.4344 41.45625 330.1844Q41.64375 330.9344 41.64375 332.21564Q41.64375 333.73126 41.33125 334.65314Q41.034374 335.575 40.409374 336.09064Q39.8 336.59064 38.846874 336.59064Q37.6125 336.59064 36.89375 335.7Q36.05 334.6375 36.05 332.21564ZM37.128124 332.21564Q37.128124 334.325 37.628124 335.02814Q38.128124 335.73126 38.846874 335.73126Q39.58125 335.73126 40.065624 335.02814Q40.565624 334.325 40.565624 332.21564Q40.565624 330.09064 40.065624 329.40314Q39.58125 328.7 38.83125 328.7Q38.1125 328.7 37.675 329.3094Q37.128124 330.09064 37.128124 332.21564ZM43.05 332.21564Q43.05 330.6844 43.3625 329.7625Q43.675 328.825 44.284374 328.325Q44.909374 327.825 45.846874 327.825Q46.534374 327.825 47.05 328.10626Q47.58125 328.3875 47.925 328.91876Q48.26875 329.4344 48.45625 330.1844Q48.64375 330.9344 48.64375 332.21564Q48.64375 333.73126 48.33125 334.65314Q48.034374 335.575 47.409374 336.09064Q46.8 336.59064 45.846874 336.59064Q44.6125 336.59064 43.89375 335.7Q43.05 334.6375 43.05 332.21564ZM44.128124 332.21564Q44.128124 334.325 44.628124 335.02814Q45.128124 335.73126 45.846874 335.73126Q46.58125 335.73126 47.065624 335.02814Q47.565624 334.325 47.565624 332.21564Q47.565624 330.09064 47.065624 329.40314Q46.58125 328.7 45.83125 328.7Q45.1125 328.7 44.675 329.3094Q44.128124 330.09064 44.128124 332.21564ZM50.05 332.21564Q50.05 330.6844 50.3625 329.7625Q50.675 328.825 51.284374 328.325Q51.909374 327.825 52.846874 327.825Q53.534374 327.825 54.05 328.10626Q54.58125 328.3875 54.925 328.91876Q55.26875 329.4344 55.45625 330.1844Q55.64375 330.9344 55.64375 332.21564Q55.64375 333.73126 55.33125 334.65314Q55.034374 335.575 54.409374 336.09064Q53.8 336.59064 52.846874 336.59064Q51.6125 336.59064 50.89375 335.7Q50.05 334.6375 50.05 332.21564ZM51.128124 332.21564Q51.128124 334.325 51.628124 335.02814Q52.128124 335.73126 52.846874 335.73126Q53.58125 335.73126 54.065624 335.02814Q54.565624 334.325 54.565624 332.21564Q54.565624 330.09064 54.065624 329.40314Q53.58125 328.7 52.83125 328.7Q52.1125 328.7 51.675 329.3094Q51.128124 330.09064 51.128124 332.21564Z" fill-rule="nonzero"/><path fill="#000000" d="M26.05 295.55237L27.159374 295.45862Q27.284374 296.27112 27.721874 296.67737Q28.175 297.08362 28.815624 297.08362Q29.565624 297.08362 30.096874 296.5055Q30.628124 295.92737 30.628124 294.98987Q30.628124 294.08362 30.1125 293.568Q29.6125 293.03674 28.784374 293.03674Q28.284374 293.03674 27.8625 293.27112Q27.45625 293.5055 27.221874 293.86487L26.2375 293.73987L27.065624 289.33362L31.346874 289.33362L31.346874 290.33362L27.909374 290.33362L27.45625 292.64612Q28.221874 292.09924 29.065624 292.09924Q30.190624 292.09924 30.95625 292.8805Q31.7375 293.66174 31.7375 294.89612Q31.7375 296.05237 31.065624 296.91174Q30.2375 297.943 28.815624 297.943Q27.64375 297.943 26.89375 297.28674Q26.159374 296.6305 26.05 295.55237ZM33.64375 297.80237L33.64375 296.59924L34.846874 296.59924L34.846874 297.80237L33.64375 297.80237ZM36.05 293.568Q36.05 292.03674 36.3625 291.11487Q36.675 290.17737 37.284374 289.67737Q37.909374 289.17737 38.846874 289.17737Q39.534374 289.17737 40.05 289.45862Q40.58125 289.73987 40.925 290.27112Q41.26875 290.78674 41.45625 291.53674Q41.64375 292.28674 41.64375 293.568Q41.64375 295.08362 41.33125 296.0055Q41.034374 296.92737 40.409374 297.443Q39.8 297.943 38.846874 297.943Q37.6125 297.943 36.89375 297.05237Q36.05 295.98987 36.05 293.568ZM37.128124 293.568Q37.128124 295.67737 37.628124 296.3805Q38.128124 297.08362 38.846874 297.08362Q39.58125 297.08362 40.065624 296.3805Q40.565624 295.67737 40.565624 293.568Q40.565624 291.443 40.065624 290.7555Q39.58125 290.05237 38.83125 290.05237Q38.1125 290.05237 37.675 290.66174Q37.128124 291.443 37.128124 293.568ZM43.05 293.568Q43.05 292.03674 43.3625 291.11487Q43.675 290.17737 44.284374 289.67737Q44.909374 289.17737 45.846874 289.17737Q46.534374 289.17737 47.05 289.45862Q47.58125 289.73987 47.925 290.27112Q48.26875 290.78674 48.45625 291.53674Q48.64375 292.28674 48.64375 293.568Q48.64375 295.08362 48.33125 296.0055Q48.034374 296.92737 47.409374 297.443Q46.8 297.943 45.846874 297.943Q44.6125 297.943 43.89375 297.05237Q43.05 295.98987 43.05 293.568ZM44.128124 293.568Q44.128124 295.67737 44.628124 296.3805Q45.128124 297.08362 45.846874 297.08362Q46.58125 297.08362 47.065624 296.3805Q47.565624 295.67737 47.565624 293.568Q47.565624 291.443 47.065624 290.7555Q46.58125 290.05237 45.83125 290.05237Q45.1125 290.05237 44.675 290.66174Q44.128124 291.443 44.128124 293.568ZM50.05 293.568Q50.05 292.03674 50.3625 291.11487Q50.675 290.17737 51.284374 289.67737Q51.909374 289.17737 52.846874 289.17737Q53.534374 289.17737 54.05 289.45862Q54.58125 289.73987 54.925 290.27112Q55.26875 290.78674 55.45625 291.53674Q55.64375 292.28674 55.64375 293.568Q55.64375 295.08362 55.33125 296.0055Q55.034374 296.92737 54.409374 297.443Q53.8 297.943 52.846874 297.943Q51.6125 297.943 50.89375 297.05237Q50.05 295.98987 50.05 293.568ZM51.128124 293.568Q51.128124 295.67737 51.628124 296.3805Q52.128124 297.08362 52.846874 297.08362Q53.58125 297.08362 54.065624 296.3805Q54.565624 295.67737 54.565624 293.568Q54.565624 291.443 54.065624 290.7555Q53.58125 290.05237 52.83125 290.05237Q52.1125 290.05237 51.675 290.66174Q51.128124 291.443 51.128124 293.568Z" fill-rule="nonzero"/><path fill="#000000" d="M23.01875 259.15475L21.971874 259.15475L21.971874 252.436Q21.58125 252.79538 20.95625 253.17038Q20.346874 253.52975 19.8625 253.70163L19.8625 252.686Q20.7375 252.26413 21.39375 251.686Q22.065624 251.09225 22.346874 250.52975L23.01875 250.52975L23.01875 259.15475ZM26.05 254.92038Q26.05 253.38913 26.3625 252.46725Q26.675 251.52975 27.284374 251.02975Q27.909374 250.52975 28.846874 250.52975Q29.534374 250.52975 30.05 250.811Q30.58125 251.09225 30.925 251.6235Q31.26875 252.13913 31.45625 252.88913Q31.64375 253.63913 31.64375 254.92038Q31.64375 256.436 31.33125 257.35788Q31.034374 258.27975 30.409374 258.79538Q29.8 259.29538 28.846874 259.29538Q27.6125 259.29538 26.89375 258.40475Q26.05 257.34225 26.05 254.92038ZM27.128124 254.92038Q27.128124 257.02975 27.628124 257.73288Q28.128124 258.436 28.846874 258.436Q29.58125 258.436 30.065624 257.73288Q30.565624 257.02975 30.565624 254.92038Q30.565624 252.79538 30.065624 252.10788Q29.58125 251.40475 28.83125 251.40475Q28.1125 251.40475 27.675 252.01413Q27.128124 252.79538 27.128124 254.92038ZM33.64375 259.15475L33.64375 257.95163L34.846874 257.95163L34.846874 259.15475L33.64375 259.15475ZM36.05 254.92038Q36.05 253.38913 36.3625 252.46725Q36.675 251.52975 37.284374 251.02975Q37.909374 250.52975 38.846874 250.52975Q39.534374 250.52975 40.05 250.811Q40.58125 251.09225 40.925 251.6235Q41.26875 252.13913 41.45625 252.88913Q41.64375 253.63913 41.64375 254.92038Q41.64375 256.436 41.33125 257.35788Q41.034374 258.27975 40.409374 258.79538Q39.8 259.29538 38.846874 259.29538Q37.6125 259.29538 36.89375 258.40475Q36.05 257.34225 36.05 254.92038ZM37.128124 254.92038Q37.128124 257.02975 37.628124 257.73288Q38.128124 258.436 38.846874 258.436Q39.58125 258.436 40.065624 257.73288Q40.565624 257.02975 40.565624 254.92038Q40.565624 252.79538 40.065624 252.10788Q39.58125 251.40475 38.83125 251.40475Q38.1125 251.40475 37.675 252.01413Q37.128124 252.79538 37.128124 254.92038ZM43.05 254.92038Q43.05 253.38913 43.3625 252.46725Q43.675 251.52975 44.284374 251.02975Q44.909374 250.52975 45.846874 250.52975Q46.534374 250.52975 47.05 250.811Q47.58125 251.09225 47.925 251.6235Q48.26875 252.13913 48.45625 252.88913Q48.64375 253.63913 48.64375 254.92038Q48.64375 256.436 48.33125 257.35788Q48.034374 258.27975 47.409374 258.79538Q46.8 259.29538 45.846874 259.29538Q44.6125 259.29538 43.89375 258.40475Q43.05 257.34225 43.05 254.92038ZM44.128124 254.92038Q44.128124 257.02975 44.628124 257.73288Q45.128124 258.436 45.846874 258.436Q46.58125 258.436 47.065624 257.73288Q47.565624 257.02975 47.565624 254.92038Q47.565624 252.79538 47.065624 252.10788Q46.58125 251.40475 45.83125 251.40475Q45.1125 251.40475 44.675 252.01413Q44.128124 252.79538 44.128124 254.92038ZM50.05 254.92038Q50.05 253.38913 50.3625 252.46725Q50.675 251.52975 51.284374 251.02975Q51.909374 250.52975 52.846874 250.52975Q53.534374 250.52975 54.05 250.811Q54.58125 251.09225 54.925 251.6235Q55.26875 252.13913 55.45625 252.88913Q55.64375 253.63913 55.64375 254.92038Q55.64375 256.436 55.33125 257.35788Q55.034374 258.27975 54.409374 258.79538Q53.8 259.29538 52.846874 259.29538Q51.6125 259.29538 50.89375 258.40475Q50.05 257.34225 50.05 254.92038ZM51.128124 254.92038Q51.128124 257.02975 51.628124 257.73288Q52.128124 258.436 52.846874 258.436Q53.58125 258.436 54.065624 257.73288Q54.565624 257.02975 54.565624 254.92038Q54.565624 252.79538 54.065624 252.10788Q53.58125 251.40475 52.83125 251.40475Q52.1125 251.40475 51.675 252.01413Q51.128124 252.79538 51.128124 254.92038Z" fill-rule="nonzero"/><path fill="#000000" d="M23.01875 220.50714L21.971874 220.50714L21.971874 213.78839Q21.58125 214.14777 20.95625 214.52277Q20.346874 214.88214 19.8625 215.05402L19.8625 214.03839Q20.7375 213.61652 21.39375 213.03839Q22.065624 212.44464 22.346874 211.88214L23.01875 211.88214L23.01875 220.50714ZM26.05 218.25714L27.159374 218.16339Q27.284374 218.97589 27.721874 219.38214Q28.175 219.78839 28.815624 219.78839Q29.565624 219.78839 30.096874 219.21027Q30.628124 218.63214 30.628124 217.69464Q30.628124 216.78839 30.1125 216.27277Q29.6125 215.74152 28.784374 215.74152Q28.284374 215.74152 27.8625 215.97589Q27.45625 216.21027 27.221874 216.56964L26.2375 216.44464L27.065624 212.03839L31.346874 212.03839L31.346874 213.03839L27.909374 213.03839L27.45625 215.35089Q28.221874 214.80402 29.065624 214.80402Q30.190624 214.80402 30.95625 215.58527Q31.7375 216.36652 31.7375 217.60089Q31.7375 218.75714 31.065624 219.61652Q30.2375 220.64777 28.815624 220.64777Q27.64375 220.64777 26.89375 219.99152Q26.159374 219.33527 26.05 218.25714ZM33.64375 220.50714L33.64375 219.30402L34.846874 219.30402L34.846874 220.50714L33.64375 220.50714ZM36.05 216.27277Q36.05 214.74152 36.3625 213.81964Q36.675 212.88214 37.284374 212.38214Q37.909374 211.88214 38.846874 211.88214Q39.534374 211.88214 40.05 212.16339Q40.58125 212.44464 40.925 212.97589Q41.26875 213.49152 41.45625 214.24152Q41.64375 214.99152 41.64375 216.27277Q41.64375 217.78839 41.33125 218.71027Q41.034374 219.63214 40.409374 220.14777Q39.8 220.64777 38.846874 220.64777Q37.6125 220.64777 36.89375 219.75714Q36.05 218.69464 36.05 216.27277ZM37.128124 216.27277Q37.128124 218.38214 37.628124 219.08527Q38.128124 219.78839 38.846874 219.78839Q39.58125 219.78839 40.065624 219.08527Q40.565624 218.38214 40.565624 216.27277Q40.565624 214.14777 40.065624 213.46027Q39.58125 212.75714 38.83125 212.75714Q38.1125 212.75714 37.675 213.36652Q37.128124 214.14777 37.128124 216.27277ZM43.05 216.27277Q43.05 214.74152 43.3625 213.81964Q43.675 212.88214 44.284374 212.38214Q44.909374 211.88214 45.846874 211.88214Q46.534374 211.88214 47.05 212.16339Q47.58125 212.44464 47.925 212.97589Q48.26875 213.49152 48.45625 214.24152Q48.64375 214.99152 48.64375 216.27277Q48.64375 217.78839 48.33125 218.71027Q48.034374 219.63214 47.409374 220.14777Q46.8 220.64777 45.846874 220.64777Q44.6125 220.64777 43.89375 219.75714Q43.05 218.69464 43.05 216.27277ZM44.128124 216.27277Q44.128124 218.38214 44.628124 219.08527Q45.128124 219.78839 45.846874 219.78839Q46.58125 219.78839 47.065624 219.08527Q47.565624 218.38214 47.565624 216.27277Q47.565624 214.14777 47.065624 213.46027Q46.58125 212.75714 45.83125 212.75714Q45.1125 212.75714 44.675 213.36652Q44.128124 214.14777 44.128124 216.27277ZM50.05 216.27277Q50.05 214.74152 50.3625 213.81964Q50.675 212.88214 51.284374 212.38214Q51.909374 211.88214 52.846874 211.88214Q53.534374 211.88214 54.05 212.16339Q54.58125 212.44464 54.925 212.97589Q55.26875 213.49152 55.45625 214.24152Q55.64375 214.99152 55.64375 216.27277Q55.64375 217.78839 55.33125 218.71027Q55.034374 219.63214 54.409374 220.14777Q53.8 220.64777 52.846874 220.64777Q51.6125 220.64777 50.89375 219.75714Q50.05 218.69464 50.05 216.27277ZM51.128124 216.27277Q51.128124 218.38214 51.628124 219.08527Q52.128124 219.78839 52.846874 219.78839Q53.58125 219.78839 54.065624 219.08527Q54.565624 218.38214 54.565624 216.27277Q54.565624 214.14777 54.065624 213.46027Q53.58125 212.75714 52.83125 212.75714Q52.1125 212.75714 51.675 213.36652Q51.128124 214.14777 51.128124 216.27277Z" fill-rule="nonzero"/><path fill="#000000" d="M24.596874 180.8439L24.596874 181.85953L18.909374 181.85953Q18.909374 181.48453 19.034374 181.12515Q19.253124 180.54703 19.721874 179.98453Q20.20625 179.42203 21.1125 178.68765Q22.51875 177.5314 23.003124 176.85953Q23.503124 176.18765 23.503124 175.5939Q23.503124 174.9689 23.05 174.54703Q22.596874 174.10953 21.878124 174.10953Q21.1125 174.10953 20.659374 174.56265Q20.20625 175.01578 20.190624 175.82828L19.1125 175.7189Q19.221874 174.50015 19.940624 173.87515Q20.675 173.23453 21.909374 173.23453Q23.14375 173.23453 23.8625 173.92203Q24.58125 174.60953 24.58125 175.62515Q24.58125 176.14078 24.3625 176.64078Q24.159374 177.12515 23.659374 177.68765Q23.175 178.23453 22.05 179.18765Q21.096874 179.98453 20.815624 180.2814Q20.55 180.56265 20.378124 180.8439L24.596874 180.8439ZM26.05 177.62515Q26.05 176.0939 26.3625 175.17203Q26.675 174.23453 27.284374 173.73453Q27.909374 173.23453 28.846874 173.23453Q29.534374 173.23453 30.05 173.51578Q30.58125 173.79703 30.925 174.32828Q31.26875 174.8439 31.45625 175.5939Q31.64375 176.3439 31.64375 177.62515Q31.64375 179.14078 31.33125 180.06265Q31.034374 180.98453 30.409374 181.50015Q29.8 182.00015 28.846874 182.00015Q27.6125 182.00015 26.89375 181.10953Q26.05 180.04703 26.05 177.62515ZM27.128124 177.62515Q27.128124 179.73453 27.628124 180.43765Q28.128124 181.14078 28.846874 181.14078Q29.58125 181.14078 30.065624 180.43765Q30.565624 179.73453 30.565624 177.62515Q30.565624 175.50015 30.065624 174.81265Q29.58125 174.10953 28.83125 174.10953Q28.1125 174.10953 27.675 174.7189Q27.128124 175.50015 27.128124 177.62515ZM33.64375 181.85953L33.64375 180.6564L34.846874 180.6564L34.846874 181.85953L33.64375 181.85953ZM36.05 177.62515Q36.05 176.0939 36.3625 175.17203Q36.675 174.23453 37.284374 173.73453Q37.909374 173.23453 38.846874 173.23453Q39.534374 173.23453 40.05 173.51578Q40.58125 173.79703 40.925 174.32828Q41.26875 174.8439 41.45625 175.5939Q41.64375 176.3439 41.64375 177.62515Q41.64375 179.14078 41.33125 180.06265Q41.034374 180.98453 40.409374 181.50015Q39.8 182.00015 38.846874 182.00015Q37.6125 182.00015 36.89375 181.10953Q36.05 180.04703 36.05 177.62515ZM37.128124 177.62515Q37.128124 179.73453 37.628124 180.43765Q38.128124 181.14078 38.846874 181.14078Q39.58125 181.14078 40.065624 180.43765Q40.565624 179.73453 40.565624 177.62515Q40.565624 175.50015 40.065624 174.81265Q39.58125 174.10953 38.83125 174.10953Q38.1125 174.10953 37.675 174.7189Q37.128124 175.50015 37.128124 177.62515ZM43.05 177.62515Q43.05 176.0939 43.3625 175.17203Q43.675 174.23453 44.284374 173.73453Q44.909374 173.23453 45.846874 173.23453Q46.534374 173.23453 47.05 173.51578Q47.58125 173.79703 47.925 174.32828Q48.26875 174.8439 48.45625 175.5939Q48.64375 176.3439 48.64375 177.62515Q48.64375 179.14078 48.33125 180.06265Q48.034374 180.98453 47.409374 181.50015Q46.8 182.00015 45.846874 182.00015Q44.6125 182.00015 43.89375 181.10953Q43.05 180.04703 43.05 177.62515ZM44.128124 177.62515Q44.128124 179.73453 44.628124 180.43765Q45.128124 181.14078 45.846874 181.14078Q46.58125 181.14078 47.065624 180.43765Q47.565624 179.73453 47.565624 177.62515Q47.565624 175.50015 47.065624 174.81265Q46.58125 174.10953 45.83125 174.10953Q45.1125 174.10953 44.675 174.7189Q44.128124 175.50015 44.128124 177.62515ZM50.05 177.62515Q50.05 176.0939 50.3625 175.17203Q50.675 174.23453 51.284374 173.73453Q51.909374 173.23453 52.846874 173.23453Q53.534374 173.23453 54.05 173.51578Q54.58125 173.79703 54.925 174.32828Q55.26875 174.8439 55.45625 175.5939Q55.64375 176.3439 55.64375 177.62515Q55.64375 179.14078 55.33125 180.06265Q55.034374 180.98453 54.409374 181.50015Q53.8 182.00015 52.846874 182.00015Q51.6125 182.00015 50.89375 181.10953Q50.05 180.04703 50.05 177.62515ZM51.128124 177.62515Q51.128124 179.73453 51.628124 180.43765Q52.128124 181.14078 52.846874 181.14078Q53.58125 181.14078 54.065624 180.43765Q54.565624 179.73453 54.565624 177.62515Q54.565624 175.50015 54.065624 174.81265Q53.58125 174.10953 52.83125 174.10953Q52.1125 174.10953 51.675 174.7189Q51.128124 175.50015 51.128124 177.62515Z" fill-rule="nonzero"/><path fill="#000000" d="M24.596874 142.19627L24.596874 143.2119L18.909374 143.2119Q18.909374 142.8369 19.034374 142.47752Q19.253124 141.8994 19.721874 141.3369Q20.20625 140.7744 21.1125 140.04002Q22.51875 138.88377 23.003124 138.2119Q23.503124 137.54002 23.503124 136.94627Q23.503124 136.32127 23.05 135.8994Q22.596874 135.4619 21.878124 135.4619Q21.1125 135.4619 20.659374 135.91502Q20.20625 136.36815 20.190624 137.18065L19.1125 137.07127Q19.221874 135.85252 19.940624 135.22752Q20.675 134.5869 21.909374 134.5869Q23.14375 134.5869 23.8625 135.2744Q24.58125 135.9619 24.58125 136.97752Q24.58125 137.49315 24.3625 137.99315Q24.159374 138.47752 23.659374 139.04002Q23.175 139.5869 22.05 140.54002Q21.096874 141.3369 20.815624 141.63377Q20.55 141.91502 20.378124 142.19627L24.596874 142.19627ZM26.05 140.9619L27.159374 140.86815Q27.284374 141.68065 27.721874 142.0869Q28.175 142.49315 28.815624 142.49315Q29.565624 142.49315 30.096874 141.91502Q30.628124 141.3369 30.628124 140.3994Q30.628124 139.49315 30.1125 138.97752Q29.6125 138.44627 28.784374 138.44627Q28.284374 138.44627 27.8625 138.68065Q27.45625 138.91502 27.221874 139.2744L26.2375 139.1494L27.065624 134.74315L31.346874 134.74315L31.346874 135.74315L27.909374 135.74315L27.45625 138.05565Q28.221874 137.50877 29.065624 137.50877Q30.190624 137.50877 30.95625 138.29002Q31.7375 139.07127 31.7375 140.30565Q31.7375 141.4619 31.065624 142.32127Q30.2375 143.35252 28.815624 143.35252Q27.64375 143.35252 26.89375 142.69627Q26.159374 142.04002 26.05 140.9619ZM33.64375 143.2119L33.64375 142.00877L34.846874 142.00877L34.846874 143.2119L33.64375 143.2119ZM36.05 138.97752Q36.05 137.44627 36.3625 136.5244Q36.675 135.5869 37.284374 135.0869Q37.909374 134.5869 38.846874 134.5869Q39.534374 134.5869 40.05 134.86815Q40.58125 135.1494 40.925 135.68065Q41.26875 136.19627 41.45625 136.94627Q41.64375 137.69627 41.64375 138.97752Q41.64375 140.49315 41.33125 141.41502Q41.034374 142.3369 40.409374 142.85252Q39.8 143.35252 38.846874 143.35252Q37.6125 143.35252 36.89375 142.4619Q36.05 141.3994 36.05 138.97752ZM37.128124 138.97752Q37.128124 141.0869 37.628124 141.79002Q38.128124 142.49315 38.846874 142.49315Q39.58125 142.49315 40.065624 141.79002Q40.565624 141.0869 40.565624 138.97752Q40.565624 136.85252 40.065624 136.16502Q39.58125 135.4619 38.83125 135.4619Q38.1125 135.4619 37.675 136.07127Q37.128124 136.85252 37.128124 138.97752ZM43.05 138.97752Q43.05 137.44627 43.3625 136.5244Q43.675 135.5869 44.284374 135.0869Q44.909374 134.5869 45.846874 134.5869Q46.534374 134.5869 47.05 134.86815Q47.58125 135.1494 47.925 135.68065Q48.26875 136.19627 48.45625 136.94627Q48.64375 137.69627 48.64375 138.97752Q48.64375 140.49315 48.33125 141.41502Q48.034374 142.3369 47.409374 142.85252Q46.8 143.35252 45.846874 143.35252Q44.6125 143.35252 43.89375 142.4619Q43.05 141.3994 43.05 138.97752ZM44.128124 138.97752Q44.128124 141.0869 44.628124 141.79002Q45.128124 142.49315 45.846874 142.49315Q46.58125 142.49315 47.065624 141.79002Q47.565624 141.0869 47.565624 138.97752Q47.565624 136.85252 47.065624 136.16502Q46.58125 135.4619 45.83125 135.4619Q45.1125 135.4619 44.675 136.07127Q44.128124 136.85252 44.128124 138.97752ZM50.05 138.97752Q50.05 137.44627 50.3625 136.5244Q50.675 135.5869 51.284374 135.0869Q51.909374 134.5869 52.846874 134.5869Q53.534374 134.5869 54.05 134.86815Q54.58125 135.1494 54.925 135.68065Q55.26875 136.19627 55.45625 136.94627Q55.64375 137.69627 55.64375 138.97752Q55.64375 140.49315 55.33125 141.41502Q55.034374 142.3369 54.409374 142.85252Q53.8 143.35252 52.846874 143.35252Q51.6125 143.35252 50.89375 142.4619Q50.05 141.3994 50.05 138.97752ZM51.128124 138.97752Q51.128124 141.0869 51.628124 141.79002Q52.128124 142.49315 52.846874 142.49315Q53.58125 142.49315 54.065624 141.79002Q54.565624 141.0869 54.565624 138.97752Q54.565624 136.85252 54.065624 136.16502Q53.58125 135.4619 52.83125 135.4619Q52.1125 135.4619 51.675 136.07127Q51.128124 136.85252 51.128124 138.97752Z" fill-rule="nonzero"/><path fill="#000000" d="M19.05 102.29866L20.1125 102.158035Q20.284374 103.04866 20.721874 103.45491Q21.159374 103.845535 21.784374 103.845535Q22.534374 103.845535 23.05 103.32991Q23.565624 102.814285 23.565624 102.04866Q23.565624 101.32991 23.08125 100.86116Q22.6125 100.376785 21.878124 100.376785Q21.58125 100.376785 21.128124 100.501785L21.253124 99.564285Q21.3625 99.57991 21.425 99.57991Q22.096874 99.57991 22.628124 99.23616Q23.175 98.876785 23.175 98.14241Q23.175 97.564285 22.784374 97.189285Q22.39375 96.79866 21.76875 96.79866Q21.159374 96.79866 20.7375 97.189285Q20.33125 97.57991 20.221874 98.345535L19.159374 98.158035Q19.346874 97.11116 20.034374 96.533035Q20.721874 95.939285 21.7375 95.939285Q22.440624 95.939285 23.034374 96.251785Q23.628124 96.54866 23.940624 97.064285Q24.253124 97.57991 24.253124 98.17366Q24.253124 98.720535 23.95625 99.189285Q23.659374 99.64241 23.08125 99.908035Q23.83125 100.07991 24.253124 100.64241Q24.675 101.189285 24.675 102.033035Q24.675 103.158035 23.846874 103.939285Q23.034374 104.720535 21.784374 104.720535Q20.659374 104.720535 19.909374 104.04866Q19.159374 103.36116 19.05 102.29866ZM26.05 100.32991Q26.05 98.79866 26.3625 97.876785Q26.675 96.939285 27.284374 96.439285Q27.909374 95.939285 28.846874 95.939285Q29.534374 95.939285 30.05 96.220535Q30.58125 96.501785 30.925 97.033035Q31.26875 97.54866 31.45625 98.29866Q31.64375 99.04866 31.64375 100.32991Q31.64375 101.845535 31.33125 102.76741Q31.034374 103.689285 30.409374 104.20491Q29.8 104.70491 28.846874 104.70491Q27.6125 104.70491 26.89375 103.814285Q26.05 102.751785 26.05 100.32991ZM27.128124 100.32991Q27.128124 102.439285 27.628124 103.14241Q28.128124 103.845535 28.846874 103.845535Q29.58125 103.845535 30.065624 103.14241Q30.565624 102.439285 30.565624 100.32991Q30.565624 98.20491 30.065624 97.51741Q29.58125 96.814285 28.83125 96.814285Q28.1125 96.814285 27.675 97.42366Q27.128124 98.20491 27.128124 100.32991ZM33.64375 104.564285L33.64375 103.36116L34.846874 103.36116L34.846874 104.564285L33.64375 104.564285ZM36.05 100.32991Q36.05 98.79866 36.3625 97.876785Q36.675 96.939285 37.284374 96.439285Q37.909374 95.939285 38.846874 95.939285Q39.534374 95.939285 40.05 96.220535Q40.58125 96.501785 40.925 97.033035Q41.26875 97.54866 41.45625 98.29866Q41.64375 99.04866 41.64375 100.32991Q41.64375 101.845535 41.33125 102.76741Q41.034374 103.689285 40.409374 104.20491Q39.8 104.70491 38.846874 104.70491Q37.6125 104.70491 36.89375 103.814285Q36.05 102.751785 36.05 100.32991ZM37.128124 100.32991Q37.128124 102.439285 37.628124 103.14241Q38.128124 103.845535 38.846874 103.845535Q39.58125 103.845535 40.065624 103.14241Q40.565624 102.439285 40.565624 100.32991Q40.565624 98.20491 40.065624 97.51741Q39.58125 96.814285 38.83125 96.814285Q38.1125 96.814285 37.675 97.42366Q37.128124 98.20491 37.128124 100.32991ZM43.05 100.32991Q43.05 98.79866 43.3625 97.876785Q43.675 96.939285 44.284374 96.439285Q44.909374 95.939285 45.846874 95.939285Q46.534374 95.939285 47.05 96.220535Q47.58125 96.501785 47.925 97.033035Q48.26875 97.54866 48.45625 98.29866Q48.64375 99.04866 48.64375 100.32991Q48.64375 101.845535 48.33125 102.76741Q48.034374 103.689285 47.409374 104.20491Q46.8 104.70491 45.846874 104.70491Q44.6125 104.70491 43.89375 103.814285Q43.05 102.751785 43.05 100.32991ZM44.128124 100.32991Q44.128124 102.439285 44.628124 103.14241Q45.128124 103.845535 45.846874 103.845535Q46.58125 103.845535 47.065624 103.14241Q47.565624 102.439285 47.565624 100.32991Q47.565624 98.20491 47.065624 97.51741Q46.58125 96.814285 45.83125 96.814285Q45.1125 96.814285 44.675 97.42366Q44.128124 98.20491 44.128124 100.32991ZM50.05 100.32991Q50.05 98.79866 50.3625 97.876785Q50.675 96.939285 51.284374 96.439285Q51.909374 95.939285 52.846874 95.939285Q53.534374 95.939285 54.05 96.220535Q54.58125 96.501785 54.925 97.033035Q55.26875 97.54866 55.45625 98.29866Q55.64375 99.04866 55.64375 100.32991Q55.64375 101.845535 55.33125 102.76741Q55.034374 103.689285 54.409374 104.20491Q53.8 104.70491 52.846874 104.70491Q51.6125 104.70491 50.89375 103.814285Q50.05 102.751785 50.05 100.32991ZM51.128124 100.32991Q51.128124 102.439285 51.628124 103.14241Q52.128124 103.845535 52.846874 103.845535Q53.58125 103.845535 54.065624 103.14241Q54.565624 102.439285 54.565624 100.32991Q54.565624 98.20491 54.065624 97.51741Q53.58125 96.814285 52.83125 96.814285Q52.1125 96.814285 51.675 97.42366Q51.128124 98.20491 51.128124 100.32991Z" fill-rule="nonzero"/><path fill="#000000" d="M19.05 63.65104L20.1125 63.510414Q20.284374 64.40104 20.721874 64.80729Q21.159374 65.197914 21.784374 65.197914Q22.534374 65.197914 23.05 64.68229Q23.565624 64.166664 23.565624 63.40104Q23.565624 62.68229 23.08125 62.21354Q22.6125 61.729164 21.878124 61.729164Q21.58125 61.729164 21.128124 61.854164L21.253124 60.916664Q21.3625 60.93229 21.425 60.93229Q22.096874 60.93229 22.628124 60.58854Q23.175 60.229164 23.175 59.49479Q23.175 58.916664 22.784374 58.541664Q22.39375 58.15104 21.76875 58.15104Q21.159374 58.15104 20.7375 58.541664Q20.33125 58.93229 20.221874 59.697914L19.159374 59.510414Q19.346874 58.46354 20.034374 57.885414Q20.721874 57.291664 21.7375 57.291664Q22.440624 57.291664 23.034374 57.604164Q23.628124 57.90104 23.940624 58.416664Q24.253124 58.93229 24.253124 59.52604Q24.253124 60.072914 23.95625 60.541664Q23.659374 60.99479 23.08125 61.260414Q23.83125 61.43229 24.253124 61.99479Q24.675 62.541664 24.675 63.385414Q24.675 64.510414 23.846874 65.291664Q23.034374 66.072914 21.784374 66.072914Q20.659374 66.072914 19.909374 65.40104Q19.159374 64.71354 19.05 63.65104ZM26.05 63.666664L27.159374 63.572914Q27.284374 64.385414 27.721874 64.791664Q28.175 65.197914 28.815624 65.197914Q29.565624 65.197914 30.096874 64.61979Q30.628124 64.041664 30.628124 63.104164Q30.628124 62.197914 30.1125 61.68229Q29.6125 61.15104 28.784374 61.15104Q28.284374 61.15104 27.8625 61.385414Q27.45625 61.61979 27.221874 61.979164L26.2375 61.854164L27.065624 57.447914L31.346874 57.447914L31.346874 58.447914L27.909374 58.447914L27.45625 60.760414Q28.221874 60.21354 29.065624 60.21354Q30.190624 60.21354 30.95625 60.99479Q31.7375 61.77604 31.7375 63.010414Q31.7375 64.166664 31.065624 65.02604Q30.2375 66.05729 28.815624 66.05729Q27.64375 66.05729 26.89375 65.40104Q26.159374 64.74479 26.05 63.666664ZM33.64375 65.916664L33.64375 64.71354L34.846874 64.71354L34.846874 65.916664L33.64375 65.916664ZM36.05 61.68229Q36.05 60.15104 36.3625 59.229164Q36.675 58.291664 37.284374 57.791664Q37.909374 57.291664 38.846874 57.291664Q39.534374 57.291664 40.05 57.572914Q40.58125 57.854164 40.925 58.385414Q41.26875 58.90104 41.45625 59.65104Q41.64375 60.40104 41.64375 61.68229Q41.64375 63.197914 41.33125 64.11979Q41.034374 65.041664 40.409374 65.55729Q39.8 66.05729 38.846874 66.05729Q37.6125 66.05729 36.89375 65.166664Q36.05 64.104164 36.05 61.68229ZM37.128124 61.68229Q37.128124 63.791664 37.628124 64.49479Q38.128124 65.197914 38.846874 65.197914Q39.58125 65.197914 40.065624 64.49479Q40.565624 63.791664 40.565624 61.68229Q40.565624 59.55729 40.065624 58.86979Q39.58125 58.166664 38.83125 58.166664Q38.1125 58.166664 37.675 58.77604Q37.128124 59.55729 37.128124 61.68229ZM43.05 61.68229Q43.05 60.15104 43.3625 59.229164Q43.675 58.291664 44.284374 57.791664Q44.909374 57.291664 45.846874 57.291664Q46.534374 57.291664 47.05 57.572914Q47.58125 57.854164 47.925 58.385414Q48.26875 58.90104 48.45625 59.65104Q48.64375 60.40104 48.64375 61.68229Q48.64375 63.197914 48.33125 64.11979Q48.034374 65.041664 47.409374 65.55729Q46.8 66.05729 45.846874 66.05729Q44.6125 66.05729 43.89375 65.166664Q43.05 64.104164 43.05 61.68229ZM44.128124 61.68229Q44.128124 63.791664 44.628124 64.49479Q45.128124 65.197914 45.846874 65.197914Q46.58125 65.197914 47.065624 64.49479Q47.565624 63.791664 47.565624 61.68229Q47.565624 59.55729 47.065624 58.86979Q46.58125 58.166664 45.83125 58.166664Q45.1125 58.166664 44.675 58.77604Q44.128124 59.55729 44.128124 61.68229ZM50.05 61.68229Q50.05 60.15104 50.3625 59.229164Q50.675 58.291664 51.284374 57.791664Q51.909374 57.291664 52.846874 57.291664Q53.534374 57.291664 54.05 57.572914Q54.58125 57.854164 54.925 58.385414Q55.26875 58.90104 55.45625 59.65104Q55.64375 60.40104 55.64375 61.68229Q55.64375 63.197914 55.33125 64.11979Q55.034374 65.041664 54.409374 65.55729Q53.8 66.05729 52.846874 66.05729Q51.6125 66.05729 50.89375 65.166664Q50.05 64.104164 50.05 61.68229ZM51.128124 61.68229Q51.128124 63.791664 51.628124 64.49479Q52.128124 65.197914 52.846874 65.197914Q53.58125 65.197914 54.065624 64.49479Q54.565624 63.791664 54.565624 61.68229Q54.565624 59.55729 54.065624 58.86979Q53.58125 58.166664 52.83125 58.166664Q52.1125 58.166664 51.675 58.77604Q51.128124 59.55729 51.128124 61.68229Z" fill-rule="nonzero"/><path fill="#000000" d="M105.11584 346.6844L106.17834 346.59064Q106.25646 347.2469 106.53771 347.65314Q106.81896 348.0594 107.39709 348.325Q107.99084 348.575 108.72521 348.575Q109.36584 348.575 109.86584 348.3875Q110.36584 348.1844 110.60021 347.85626Q110.85021 347.5125 110.85021 347.1219Q110.85021 346.71564 110.61584 346.41876Q110.38146 346.10626 109.85021 345.90314Q109.49084 345.7625 108.30334 345.48126Q107.13146 345.2 106.66271 344.95Q106.03771 344.6219 105.74084 344.15314Q105.44396 343.66876 105.44396 343.075Q105.44396 342.4344 105.80334 341.8719Q106.17834 341.29376 106.88146 341.0125Q107.60021 340.71564 108.45959 340.71564Q109.41271 340.71564 110.14709 341.02814Q110.88146 341.325 111.27209 341.9344Q111.66271 342.52814 111.69396 343.27814L110.60021 343.35626Q110.50646 342.54376 109.99084 342.1375Q109.49084 341.71564 108.50646 341.71564Q107.47521 341.71564 107.00646 342.09064Q106.53771 342.46564 106.53771 342.9969Q106.53771 343.46564 106.86584 343.7625Q107.19396 344.0594 108.56896 344.3719Q109.95959 344.6844 110.47521 344.91876Q111.22521 345.27814 111.58459 345.8094Q111.94396 346.325 111.94396 347.02814Q111.94396 347.71564 111.55334 348.325Q111.16271 348.91876 110.42834 349.2625Q109.69396 349.59064 108.77209 349.59064Q107.60021 349.59064 106.80334 349.2625Q106.02209 348.91876 105.56896 348.23126Q105.13146 347.54376 105.11584 346.6844ZM112.55334 349.45L115.85021 340.85626L117.06896 340.85626L120.58459 349.45L119.30334 349.45L118.28771 346.84064L114.70959 346.84064L113.75646 349.45L112.55334 349.45ZM115.03771 345.91876L117.94396 345.91876L117.05334 343.54376Q116.63146 342.46564 116.44396 341.7625Q116.27209 342.59064 115.97521 343.40314L115.03771 345.91876ZM119.61584 349.45L122.94396 344.96564L120.02209 340.85626L121.36584 340.85626L122.92834 343.0594Q123.41271 343.7469 123.61584 344.1219Q123.91271 343.65314 124.30334 343.1375L126.02209 340.85626L127.25646 340.85626L124.24084 344.90314L127.49084 349.45L126.08459 349.45L123.92834 346.3875Q123.74084 346.1219 123.55334 345.8094Q123.27209 346.27814 123.14709 346.45L120.99084 349.45L119.61584 349.45ZM127.49084 349.45L127.49084 340.85626L130.74084 340.85626Q131.5846 340.85626 132.03772 340.9344Q132.67834 341.04376 133.10022 341.34064Q133.53772 341.6375 133.78772 342.16876Q134.05334 342.7 134.05334 343.34064Q134.05334 344.4344 133.35022 345.2Q132.66272 345.95 130.8346 345.95L128.63147 345.95L128.63147 349.45L127.49084 349.45ZM128.63147 344.95L130.85022 344.95Q131.9596 344.95 132.41272 344.54376Q132.88147 344.1219 132.88147 343.3719Q132.88147 342.84064 132.60022 342.46564Q132.3346 342.075 131.8971 341.95Q131.60022 341.8719 130.8346 341.8719L128.63147 341.8719L128.63147 344.95ZM137.91272 349.45L137.91272 345.8094L134.60022 340.85626L135.99084 340.85626L137.67834 343.45Q138.1471 344.16876 138.55334 344.90314Q138.94397 344.23126 139.49084 343.3875L141.16272 340.85626L142.47522 340.85626L139.05334 345.8094L139.05334 349.45L137.91272 349.45ZM144.94397 346.8719L144.94397 345.8094L148.19397 345.8094L148.19397 346.8719L144.94397 346.8719ZM152.44397 349.45L152.44397 340.85626L155.67834 340.85626Q156.66272 340.85626 157.25647 341.1219Q157.85022 341.3875 158.17834 341.9344Q158.5221 342.46564 158.5221 343.0594Q158.5221 343.60626 158.22522 344.09064Q157.92834 344.575 157.31897 344.8719Q158.10022 345.10626 158.50647 345.66876Q158.92834 346.21564 158.92834 346.96564Q158.92834 347.5594 158.67834 348.09064Q158.42834 348.60626 158.05334 348.8875Q157.67834 349.16876 157.10022 349.3094Q156.53772 349.45 155.72522 349.45L152.44397 349.45ZM153.5846 344.46564L155.44397 344.46564Q156.19397 344.46564 156.5221 344.3719Q156.9596 344.2469 157.17834 343.95Q157.3971 343.6375 157.3971 343.1844Q157.3971 342.7625 157.19397 342.4344Q156.99084 342.10626 156.60022 341.9969Q156.22522 341.8719 155.30334 341.8719L153.5846 341.8719L153.5846 344.46564ZM153.5846 348.4344L155.72522 348.4344Q156.2721 348.4344 156.49084 348.3875Q156.8971 348.325 157.1471 348.16876Q157.41272 347.9969 157.5846 347.6844Q157.75647 347.3719 157.75647 346.96564Q157.75647 346.48126 157.50647 346.1219Q157.2721 345.7625 156.8346 345.6219Q156.3971 345.48126 155.56897 345.48126L153.5846 345.48126L153.5846 348.4344ZM160.44397 349.45L160.44397 340.85626L161.5846 340.85626L161.5846 348.4344L165.81897 348.4344L165.81897 349.45L160.44397 349.45ZM166.55334 349.45L169.85022 340.85626L171.06897 340.85626L174.5846 349.45L173.30334 349.45L172.28772 346.84064L168.7096 346.84064L167.75647 349.45L166.55334 349.45ZM169.03772 345.91876L171.94397 345.91876L171.05334 343.54376Q170.63147 342.46564 170.44397 341.7625Q170.2721 342.59064 169.97522 343.40314L169.03772 345.91876ZM174.11584 346.6844L175.17834 346.59064Q175.25647 347.2469 175.53772 347.65314Q175.81897 348.0594 176.3971 348.325Q176.99084 348.575 177.72522 348.575Q178.36584 348.575 178.86584 348.3875Q179.36584 348.1844 179.60022 347.85626Q179.85022 347.5125 179.85022 347.1219Q179.85022 346.71564 179.61584 346.41876Q179.38147 346.10626 178.85022 345.90314Q178.49084 345.7625 177.30334 345.48126Q176.13147 345.2 175.66272 344.95Q175.03772 344.6219 174.74084 344.15314Q174.44397 343.66876 174.44397 343.075Q174.44397 342.4344 174.80334 341.8719Q175.17834 341.29376 175.88147 341.0125Q176.60022 340.71564 177.4596 340.71564Q178.41272 340.71564 179.1471 341.02814Q179.88147 341.325 180.2721 341.9344Q180.66272 342.52814 180.69397 343.27814L179.60022 343.35626Q179.50647 342.54376 178.99084 342.1375Q178.49084 341.71564 177.50647 341.71564Q176.47522 341.71564 176.00647 342.09064Q175.53772 342.46564 175.53772 342.9969Q175.53772 343.46564 175.86584 343.7625Q176.19397 344.0594 177.56897 344.3719Q178.9596 344.6844 179.47522 344.91876Q180.22522 345.27814 180.5846 345.8094Q180.94397 346.325 180.94397 347.02814Q180.94397 347.71564 180.55334 348.325Q180.16272 348.91876 179.42834 349.2625Q178.69397 349.59064 177.7721 349.59064Q176.60022 349.59064 175.80334 349.2625Q175.0221 348.91876 174.56897 348.23126Q174.13147 347.54376 174.11584 346.6844Z" fill-rule="nonzero"/><path fill="#000000" d="M224.2782 349.45L224.2782 340.85626L227.24695 340.85626Q228.24695 340.85626 228.7782 340.98126Q229.51257 341.15314 230.0282 341.59064Q230.7157 342.16876 231.04382 343.075Q231.38757 343.96564 231.38757 345.10626Q231.38757 346.09064 231.1532 346.84064Q230.93445 347.59064 230.57507 348.09064Q230.2157 348.59064 229.7782 348.8719Q229.35632 349.15314 228.76257 349.3094Q228.16882 349.45 227.38757 349.45L224.2782 349.45ZM225.41882 348.4344L227.24695 348.4344Q228.10632 348.4344 228.5907 348.27814Q229.07507 348.1219 229.35632 347.825Q229.76257 347.4344 229.98132 346.7469Q230.2157 346.0594 230.2157 345.09064Q230.2157 343.7469 229.76257 343.02814Q229.32507 342.29376 228.70007 342.04376Q228.23132 341.8719 227.23132 341.8719L225.41882 341.8719L225.41882 348.4344ZM232.3407 349.45L235.63757 340.85626L236.85632 340.85626L240.37195 349.45L239.0907 349.45L238.07507 346.84064L234.49695 346.84064L233.54382 349.45L232.3407 349.45ZM234.82507 345.91876L237.73132 345.91876L236.8407 343.54376Q236.41882 342.46564 236.23132 341.7625Q236.05945 342.59064 235.76257 343.40314L234.82507 345.91876ZM239.4032 349.45L242.73132 344.96564L239.80945 340.85626L241.1532 340.85626L242.7157 343.0594Q243.20007 343.7469 243.4032 344.1219Q243.70007 343.65314 244.0907 343.1375L245.80945 340.85626L247.04382 340.85626L244.0282 344.90314L247.2782 349.45L245.87195 349.45L243.7157 346.3875Q243.5282 346.1219 243.3407 345.8094Q243.05945 346.27814 242.93445 346.45L240.7782 349.45L239.4032 349.45ZM247.2782 349.45L247.2782 340.85626L250.5282 340.85626Q251.37195 340.85626 251.82507 340.9344Q252.4657 341.04376 252.88757 341.34064Q253.32507 341.6375 253.57507 342.16876Q253.8407 342.7 253.8407 343.34064Q253.8407 344.4344 253.13757 345.2Q252.45007 345.95 250.62195 345.95L248.41882 345.95L248.41882 349.45L247.2782 349.45ZM248.41882 344.95L250.63757 344.95Q251.74695 344.95 252.20007 344.54376Q252.66882 344.1219 252.66882 343.3719Q252.66882 342.84064 252.38757 342.46564Q252.12195 342.075 251.68445 341.95Q251.38757 341.8719 250.62195 341.8719L248.41882 341.8719L248.41882 344.95ZM257.70007 349.45L257.70007 345.8094L254.38757 340.85626L255.7782 340.85626L257.4657 343.45Q257.93445 344.16876 258.3407 344.90314Q258.73132 344.23126 259.2782 343.3875L260.95007 340.85626L262.26257 340.85626L258.8407 345.8094L258.8407 349.45L257.70007 349.45ZM264.73132 346.8719L264.73132 345.8094L267.98132 345.8094L267.98132 346.8719L264.73132 346.8719ZM272.23132 349.45L272.23132 340.85626L275.4657 340.85626Q276.45007 340.85626 277.04382 341.1219Q277.63757 341.3875 277.9657 341.9344Q278.30945 342.46564 278.30945 343.0594Q278.30945 343.60626 278.01257 344.09064Q277.7157 344.575 277.10632 344.8719Q277.88757 345.10626 278.29382 345.66876Q278.7157 346.21564 278.7157 346.96564Q278.7157 347.5594 278.4657 348.09064Q278.2157 348.60626 277.8407 348.8875Q277.4657 349.16876 276.88757 349.3094Q276.32507 349.45 275.51257 349.45L272.23132 349.45ZM273.37195 344.46564L275.23132 344.46564Q275.98132 344.46564 276.30945 344.3719Q276.74695 344.2469 276.9657 343.95Q277.18445 343.6375 277.18445 343.1844Q277.18445 342.7625 276.98132 342.4344Q276.7782 342.10626 276.38757 341.9969Q276.01257 341.8719 275.0907 341.8719L273.37195 341.8719L273.37195 344.46564ZM273.37195 348.4344L275.51257 348.4344Q276.05945 348.4344 276.2782 348.3875Q276.68445 348.325 276.93445 348.16876Q277.20007 347.9969 277.37195 347.6844Q277.54382 347.3719 277.54382 346.96564Q277.54382 346.48126 277.29382 346.1219Q277.05945 345.7625 276.62195 345.6219Q276.18445 345.48126 275.35632 345.48126L273.37195 345.48126L273.37195 348.4344ZM280.23132 349.45L280.23132 340.85626L281.37195 340.85626L281.37195 348.4344L285.60632 348.4344L285.60632 349.45L280.23132 349.45ZM286.3407 349.45L289.63757 340.85626L290.85632 340.85626L294.37195 349.45L293.0907 349.45L292.07507 346.84064L288.49695 346.84064L287.54382 349.45L286.3407 349.45ZM288.82507 345.91876L291.73132 345.91876L290.8407 343.54376Q290.41882 342.46564 290.23132 341.7625Q290.05945 342.59064 289.76257 343.40314L288.82507 345.91876ZM293.9032 346.6844L294.9657 346.59064Q295.04382 347.2469 295.32507 347.65314Q295.60632 348.0594 296.18445 348.325Q296.7782 348.575 297.51257 348.575Q298.1532 348.575 298.6532 348.3875Q299.1532 348.1844 299.38757 347.85626Q299.63757 347.5125 299.63757 347.1219Q299.63757 346.71564 299.4032 346.41876Q299.16882 346.10626 298.63757 345.90314Q298.2782 345.7625 297.0907 345.48126Q295.91882 345.2 295.45007 344.95Q294.82507 344.6219 294.5282 344.15314Q294.23132 343.66876 294.23132 343.075Q294.23132 342.4344 294.5907 341.8719Q294.9657 341.29376 295.66882 341.0125Q296.38757 340.71564 297.24695 340.71564Q298.20007 340.71564 298.93445 341.02814Q299.66882 341.325 300.05945 341.9344Q300.45007 342.52814 300.48132 343.27814L299.38757 343.35626Q299.29382 342.54376 298.7782 342.1375Q298.2782 341.71564 297.29382 341.71564Q296.26257 341.71564 295.79382 342.09064Q295.32507 342.46564 295.32507 342.9969Q295.32507 343.46564 295.6532 343.7625Q295.98132 344.0594 297.35632 344.3719Q298.74695 344.6844 299.26257 344.91876Q300.01257 345.27814 300.37195 345.8094Q300.73132 346.325 300.73132 347.02814Q300.73132 347.71564 300.3407 348.325Q299.95007 348.91876 299.2157 349.2625Q298.48132 349.59064 297.55945 349.59064Q296.38757 349.59064 295.5907 349.2625Q294.80945 348.91876 294.35632 348.23126Q293.91882 347.54376 293.9032 346.6844Z" fill-rule="nonzero"/><path fill="#000000" d="M327.19055 346.6844L328.25305 346.59064Q328.33118 347.2469 328.61243 347.65314Q328.89368 348.0594 329.4718 348.325Q330.06555 348.575 330.79993 348.575Q331.44055 348.575 331.94055 348.3875Q332.44055 348.1844 332.67493 347.85626Q332.92493 347.5125 332.92493 347.1219Q332.92493 346.71564 332.69055 346.41876Q332.45618 346.10626 331.92493 345.90314Q331.56555 345.7625 330.37805 345.48126Q329.20618 345.2 328.73743 344.95Q328.11243 344.6219 327.81555 344.15314Q327.51868 343.66876 327.51868 343.075Q327.51868 342.4344 327.87805 341.8719Q328.25305 341.29376 328.95618 341.0125Q329.67493 340.71564 330.5343 340.71564Q331.48743 340.71564 332.2218 341.02814Q332.95618 341.325 333.3468 341.9344Q333.73743 342.52814 333.76868 343.27814L332.67493 343.35626Q332.58118 342.54376 332.06555 342.1375Q331.56555 341.71564 330.58118 341.71564Q329.54993 341.71564 329.08118 342.09064Q328.61243 342.46564 328.61243 342.9969Q328.61243 343.46564 328.94055 343.7625Q329.26868 344.0594 330.64368 344.3719Q332.0343 344.6844 332.54993 344.91876Q333.29993 345.27814 333.6593 345.8094Q334.01868 346.325 334.01868 347.02814Q334.01868 347.71564 333.62805 348.325Q333.23743 348.91876 332.50305 349.2625Q331.76868 349.59064 330.8468 349.59064Q329.67493 349.59064 328.87805 349.2625Q328.0968 348.91876 327.64368 348.23126Q327.20618 347.54376 327.19055 346.6844ZM334.62805 349.45L337.92493 340.85626L339.14368 340.85626L342.6593 349.45L341.37805 349.45L340.36243 346.84064L336.7843 346.84064L335.83118 349.45L334.62805 349.45ZM337.11243 345.91876L340.01868 345.91876L339.12805 343.54376Q338.70618 342.46564 338.51868 341.7625Q338.3468 342.59064 338.04993 343.40314L337.11243 345.91876ZM341.69055 349.45L345.01868 344.96564L342.0968 340.85626L343.44055 340.85626L345.00305 343.0594Q345.48743 343.7469 345.69055 344.1219Q345.98743 343.65314 346.37805 343.1375L348.0968 340.85626L349.33118 340.85626L346.31555 344.90314L349.56555 349.45L348.1593 349.45L346.00305 346.3875Q345.81555 346.1219 345.62805 345.8094Q345.3468 346.27814 345.2218 346.45L343.06555 349.45L341.69055 349.45ZM349.56555 349.45L349.56555 340.85626L352.81555 340.85626Q353.6593 340.85626 354.11243 340.9344Q354.75305 341.04376 355.17493 341.34064Q355.61243 341.6375 355.86243 342.16876Q356.12805 342.7 356.12805 343.34064Q356.12805 344.4344 355.42493 345.2Q354.73743 345.95 352.9093 345.95L350.70618 345.95L350.70618 349.45L349.56555 349.45ZM350.70618 344.95L352.92493 344.95Q354.0343 344.95 354.48743 344.54376Q354.95618 344.1219 354.95618 343.3719Q354.95618 342.84064 354.67493 342.46564Q354.4093 342.075 353.9718 341.95Q353.67493 341.8719 352.9093 341.8719L350.70618 341.8719L350.70618 344.95ZM359.98743 349.45L359.98743 345.8094L356.67493 340.85626L358.06555 340.85626L359.75305 343.45Q360.2218 344.16876 360.62805 344.90314Q361.01868 344.23126 361.56555 343.3875L363.23743 340.85626L364.54993 340.85626L361.12805 345.8094L361.12805 349.45L359.98743 349.45ZM367.01868 346.8719L367.01868 345.8094L370.26868 345.8094L370.26868 346.8719L367.01868 346.8719ZM374.62805 349.45L374.62805 340.85626L380.42493 340.85626L380.42493 341.8719L375.76868 341.8719L375.76868 344.52814L379.79993 344.52814L379.79993 345.54376L375.76868 345.54376L375.76868 349.45L374.62805 349.45ZM381.2218 345.2625Q381.2218 343.1219 382.36243 341.91876Q383.51868 340.7 385.33118 340.7Q386.5343 340.7 387.48743 341.27814Q388.44055 341.84064 388.94055 342.85626Q389.44055 343.8719 389.44055 345.16876Q389.44055 346.46564 388.9093 347.4969Q388.37805 348.52814 387.4093 349.0594Q386.45618 349.59064 385.33118 349.59064Q384.11243 349.59064 383.1593 349.0125Q382.20618 348.41876 381.70618 347.41876Q381.2218 346.40314 381.2218 345.2625ZM382.39368 345.27814Q382.39368 346.84064 383.2218 347.73126Q384.06555 348.6219 385.33118 348.6219Q386.61243 348.6219 387.44055 347.73126Q388.26868 346.825 388.26868 345.15314Q388.26868 344.10626 387.9093 343.325Q387.56555 342.54376 386.87805 342.1219Q386.19055 341.6844 385.3468 341.6844Q384.14368 341.6844 383.26868 342.5125Q382.39368 343.34064 382.39368 345.27814ZM390.58118 349.45L390.58118 340.85626L394.39368 340.85626Q395.54993 340.85626 396.14368 341.09064Q396.73743 341.325 397.0968 341.91876Q397.45618 342.4969 397.45618 343.2Q397.45618 344.1219 396.86243 344.7469Q396.26868 345.3719 395.0343 345.54376Q395.48743 345.7625 395.7218 345.96564Q396.2218 346.41876 396.6593 347.10626L398.1593 349.45L396.7218 349.45L395.5968 347.66876Q395.0968 346.8875 394.76868 346.48126Q394.45618 346.075 394.19055 345.91876Q393.94055 345.7469 393.67493 345.66876Q393.48743 345.6375 393.04993 345.6375L391.7218 345.6375L391.7218 349.45L390.58118 349.45ZM391.7218 344.65314L394.17493 344.65314Q394.94055 344.65314 395.37805 344.4969Q395.83118 344.325 396.04993 343.98126Q396.2843 343.6219 396.2843 343.2Q396.2843 342.59064 395.83118 342.2Q395.39368 341.8094 394.44055 341.8094L391.7218 341.8094L391.7218 344.65314ZM401.75305 349.45L401.75305 341.8719L398.92493 341.8719L398.92493 340.85626L405.73743 340.85626L405.73743 341.8719L402.89368 341.8719L402.89368 349.45L401.75305 349.45ZM406.61243 349.45L406.61243 340.85626L407.73743 340.85626L407.73743 344.3875L412.20618 344.3875L412.20618 340.85626L413.3468 340.85626L413.3468 349.45L412.20618 349.45L412.20618 345.40314L407.73743 345.40314L407.73743 349.45L406.61243 349.45ZM415.4093 349.45L415.4093 340.85626L416.4718 340.85626L416.4718 349.45L415.4093 349.45ZM420.1593 349.45L417.79993 343.23126L418.9093 343.23126L420.25305 346.95Q420.45618 347.5594 420.64368 348.2Q420.7843 347.71564 421.0343 347.02814L422.42493 343.23126L423.50305 343.23126L421.14368 349.45L420.1593 349.45ZM427.11243 349.45L426.06555 349.45L426.06555 342.73126Q425.67493 343.09064 425.04993 343.46564Q424.44055 343.825 423.95618 343.9969L423.95618 342.98126Q424.83118 342.5594 425.48743 341.98126Q426.1593 341.3875 426.44055 340.825L427.11243 340.825L427.11243 349.45ZM432.64368 348.0594L432.64368 345.7L430.31555 345.7L430.31555 344.71564L432.64368 344.71564L432.64368 342.3875L433.64368 342.3875L433.64368 344.71564L435.98743 344.71564L435.98743 345.7L433.64368 345.7L433.64368 348.0594L432.64368 348.0594Z" fill-rule="nonzero"/><path fill="#000000" d="M446.3529 349.45L446.3529 340.85626L449.32166 340.85626Q450.32166 340.85626 450.8529 340.98126Q451.58728 341.15314 452.1029 341.59064Q452.7904 342.16876 453.11853 343.075Q453.46228 343.96564 453.46228 345.10626Q453.46228 346.09064 453.2279 346.84064Q453.00916 347.59064 452.64978 348.09064Q452.2904 348.59064 451.8529 348.8719Q451.43103 349.15314 450.83728 349.3094Q450.24353 349.45 449.46228 349.45L446.3529 349.45ZM447.49353 348.4344L449.32166 348.4344Q450.18103 348.4344 450.6654 348.27814Q451.14978 348.1219 451.43103 347.825Q451.83728 347.4344 452.05603 346.7469Q452.2904 346.0594 452.2904 345.09064Q452.2904 343.7469 451.83728 343.02814Q451.39978 342.29376 450.77478 342.04376Q450.30603 341.8719 449.30603 341.8719L447.49353 341.8719L447.49353 348.4344ZM454.4154 349.45L457.71228 340.85626L458.93103 340.85626L462.44666 349.45L461.1654 349.45L460.14978 346.84064L456.57166 346.84064L455.61853 349.45L454.4154 349.45ZM456.89978 345.91876L459.80603 345.91876L458.9154 343.54376Q458.49353 342.46564 458.30603 341.7625Q458.13416 342.59064 457.83728 343.40314L456.89978 345.91876ZM461.4779 349.45L464.80603 344.96564L461.88416 340.85626L463.2279 340.85626L464.7904 343.0594Q465.27478 343.7469 465.4779 344.1219Q465.77478 343.65314 466.1654 343.1375L467.88416 340.85626L469.11853 340.85626L466.1029 344.90314L469.3529 349.45L467.94666 349.45L465.7904 346.3875Q465.6029 346.1219 465.4154 345.8094Q465.13416 346.27814 465.00916 346.45L462.8529 349.45L461.4779 349.45ZM469.3529 349.45L469.3529 340.85626L472.6029 340.85626Q473.44666 340.85626 473.89978 340.9344Q474.5404 341.04376 474.96228 341.34064Q475.39978 341.6375 475.64978 342.16876Q475.9154 342.7 475.9154 343.34064Q475.9154 344.4344 475.21228 345.2Q474.52478 345.95 472.69666 345.95L470.49353 345.95L470.49353 349.45L469.3529 349.45ZM470.49353 344.95L472.71228 344.95Q473.82166 344.95 474.27478 344.54376Q474.74353 344.1219 474.74353 343.3719Q474.74353 342.84064 474.46228 342.46564Q474.19666 342.075 473.75916 341.95Q473.46228 341.8719 472.69666 341.8719L470.49353 341.8719L470.49353 344.95ZM479.77478 349.45L479.77478 345.8094L476.46228 340.85626L477.8529 340.85626L479.5404 343.45Q480.00916 344.16876 480.4154 344.90314Q480.80603 344.23126 481.3529 343.3875L483.02478 340.85626L484.33728 340.85626L480.9154 345.8094L480.9154 349.45L479.77478 349.45ZM486.80603 346.8719L486.80603 345.8094L490.05603 345.8094L490.05603 346.8719L486.80603 346.8719ZM494.4154 349.45L494.4154 340.85626L500.21228 340.85626L500.21228 341.8719L495.55603 341.8719L495.55603 344.52814L499.58728 344.52814L499.58728 345.54376L495.55603 345.54376L495.55603 349.45L494.4154 349.45ZM501.00916 345.2625Q501.00916 343.1219 502.14978 341.91876Q503.30603 340.7 505.11853 340.7Q506.32166 340.7 507.27478 341.27814Q508.2279 341.84064 508.7279 342.85626Q509.2279 343.8719 509.2279 345.16876Q509.2279 346.46564 508.69666 347.4969Q508.1654 348.52814 507.19666 349.0594Q506.24353 349.59064 505.11853 349.59064Q503.89978 349.59064 502.94666 349.0125Q501.99353 348.41876 501.49353 347.41876Q501.00916 346.40314 501.00916 345.2625ZM502.18103 345.27814Q502.18103 346.84064 503.00916 347.73126Q503.8529 348.6219 505.11853 348.6219Q506.39978 348.6219 507.2279 347.73126Q508.05603 346.825 508.05603 345.15314Q508.05603 344.10626 507.69666 343.325Q507.3529 342.54376 506.6654 342.1219Q505.9779 341.6844 505.13416 341.6844Q503.93103 341.6844 503.05603 342.5125Q502.18103 343.34064 502.18103 345.27814ZM510.36853 349.45L510.36853 340.85626L514.181 340.85626Q515.3373 340.85626 515.931 341.09064Q516.5248 341.325 516.88416 341.91876Q517.2435 342.4969 517.2435 343.2Q517.2435 344.1219 516.6498 344.7469Q516.056 345.3719 514.82166 345.54376Q515.2748 345.7625 515.50916 345.96564Q516.00916 346.41876 516.44666 347.10626L517.94666 349.45L516.50916 349.45L515.38416 347.66876Q514.88416 346.8875 514.556 346.48126Q514.2435 346.075 513.9779 345.91876Q513.7279 345.7469 513.4623 345.66876Q513.2748 345.6375 512.8373 345.6375L511.50916 345.6375L511.50916 349.45L510.36853 349.45ZM511.50916 344.65314L513.9623 344.65314Q514.7279 344.65314 515.1654 344.4969Q515.6185 344.325 515.8373 343.98126Q516.07166 343.6219 516.07166 343.2Q516.07166 342.59064 515.6185 342.2Q515.181 341.8094 514.2279 341.8094L511.50916 341.8094L511.50916 344.65314ZM521.5404 349.45L521.5404 341.8719L518.7123 341.8719L518.7123 340.85626L525.5248 340.85626L525.5248 341.8719L522.681 341.8719L522.681 349.45L521.5404 349.45ZM526.3998 349.45L526.3998 340.85626L527.5248 340.85626L527.5248 344.3875L531.9935 344.3875L531.9935 340.85626L533.13416 340.85626L533.13416 349.45L531.9935 349.45L531.9935 345.40314L527.5248 345.40314L527.5248 349.45L526.3998 349.45ZM535.19666 349.45L535.19666 340.85626L536.25916 340.85626L536.25916 349.45L535.19666 349.45ZM539.94666 349.45L537.5873 343.23126L538.69666 343.23126L540.0404 346.95Q540.2435 347.5594 540.431 348.2Q540.57166 347.71564 540.82166 347.02814L542.2123 343.23126L543.2904 343.23126L540.931 349.45L539.94666 349.45ZM546.8998 349.45L545.8529 349.45L545.8529 342.73126Q545.4623 343.09064 544.8373 343.46564Q544.2279 343.825 543.7435 343.9969L543.7435 342.98126Q544.6185 342.5594 545.2748 341.98126Q545.94666 341.3875 546.2279 340.825L546.8998 340.825L546.8998 349.45ZM552.431 348.0594L552.431 345.7L550.1029 345.7L550.1029 344.71564L552.431 344.71564L552.431 342.3875L553.431 342.3875L553.431 344.71564L555.7748 344.71564L555.7748 345.7L553.431 345.7L553.431 348.0594L552.431 348.0594Z" fill-rule="nonzero"/><path fill="#9900ff" d="M19.45625 32.95625L21.2375 32.8Q21.3625 33.8625 21.815624 34.55Q22.284374 35.2375 23.253124 35.675Q24.2375 36.096874 25.471874 36.096874Q26.55 36.096874 27.378124 35.784374Q28.20625 35.45625 28.6125 34.89375Q29.01875 34.33125 29.01875 33.659374Q29.01875 32.9875 28.628124 32.4875Q28.2375 31.9875 27.346874 31.64375Q26.76875 31.409374 24.784374 30.940624Q22.815624 30.471874 22.034374 30.05Q21.003124 29.51875 20.503124 28.721874Q20.003124 27.925 20.003124 26.940624Q20.003124 25.846874 20.6125 24.909374Q21.221874 23.971874 22.409374 23.4875Q23.596874 22.9875 25.034374 22.9875Q26.628124 22.9875 27.846874 23.503124Q29.065624 24.01875 29.70625 25.01875Q30.3625 26.003124 30.409374 27.26875L28.596874 27.409374Q28.45625 26.05 27.6125 25.3625Q26.76875 24.659374 25.1125 24.659374Q23.39375 24.659374 22.596874 25.3Q21.815624 25.925 21.815624 26.8Q21.815624 27.58125 22.378124 28.08125Q22.925 28.58125 25.2375 29.096874Q27.55 29.6125 28.409374 30.003124Q29.659374 30.58125 30.253124 31.471874Q30.846874 32.346874 30.846874 33.503124Q30.846874 34.64375 30.190624 35.659374Q29.534374 36.675 28.3 37.2375Q27.08125 37.8 25.55 37.8Q23.6125 37.8 22.3 37.2375Q20.9875 36.659374 20.2375 35.51875Q19.4875 34.378124 19.45625 32.95625ZM31.51875 37.55L37.01875 23.2375L39.065624 23.2375L44.925 37.55L42.76875 37.55L41.096874 33.20625L35.1125 33.20625L33.534374 37.55L31.51875 37.55ZM35.659374 31.675L40.503124 31.675L39.01875 27.70625Q38.33125 25.89375 38.003124 24.7375Q37.721874 26.1125 37.221874 27.471874L35.659374 31.675ZM44.64375 37.55L50.175 30.08125L45.3 23.2375L47.55 23.2375L50.14375 26.909374Q50.95625 28.05 51.3 28.659374Q51.784374 27.878124 52.425 27.034374L55.315624 23.2375L57.378124 23.2375L52.346874 29.9875L57.76875 37.55L55.425 37.55L51.815624 32.440624Q51.51875 32.003124 51.190624 31.4875Q50.70625 32.26875 50.503124 32.565624L46.909374 37.55L44.64375 37.55ZM59.096874 37.55L59.096874 23.2375L64.4875 23.2375Q65.925 23.2375 66.675 23.3625Q67.72188 23.55 68.44063 24.05Q69.15938 24.534374 69.58125 25.425Q70.01875 26.315624 70.01875 27.378124Q70.01875 29.20625 68.84688 30.471874Q67.69063 31.721874 64.65938 31.721874L60.9875 31.721874L60.9875 37.55L59.096874 37.55ZM60.9875 30.034374L64.69063 30.034374Q66.51875 30.034374 67.28438 29.3625Q68.06563 28.675 68.06563 27.425Q68.06563 26.534374 67.6125 25.89375Q67.15938 25.253124 66.425 25.05Q65.94063 24.925 64.64375 24.925L60.9875 24.925L60.9875 30.034374ZM76.12813 37.55L76.12813 31.4875L70.6125 23.2375L72.90938 23.2375L75.7375 27.55Q76.51875 28.753124 77.19063 29.971874Q77.83125 28.846874 78.75313 27.440624L81.53438 23.2375L83.7375 23.2375L78.01875 31.4875L78.01875 37.55L76.12813 37.55ZM90.55 37.8L94.70625 22.9875L96.1125 22.9875L91.97188 37.8L90.55 37.8ZM104.09688 37.55L104.09688 23.2375L109.01875 23.2375Q110.69063 23.2375 111.58125 23.440624Q112.8 23.721874 113.675 24.45625Q114.8 25.425 115.3625 26.909374Q115.925 28.39375 115.925 30.315624Q115.925 31.940624 115.55 33.20625Q115.175 34.45625 114.56563 35.284374Q113.97188 36.1125 113.26875 36.596874Q112.56563 37.065624 111.56563 37.315624Q110.56563 37.55 109.25313 37.55L104.09688 37.55ZM105.9875 35.8625L109.05 35.8625Q110.45625 35.8625 111.25313 35.596874Q112.06563 35.33125 112.55 34.846874Q113.22188 34.175 113.59688 33.05Q113.97188 31.909374 113.97188 30.284374Q113.97188 28.034374 113.2375 26.83125Q112.50313 25.628124 111.44063 25.221874Q110.69063 24.925 109.00313 24.925L105.9875 24.925L105.9875 35.8625ZM116.51875 37.55L122.01875 23.2375L124.06563 23.2375L129.925 37.55L127.76875 37.55L126.09688 33.20625L120.1125 33.20625L118.53438 37.55L116.51875 37.55ZM120.65938 31.675L125.50313 31.675L124.01875 27.70625Q123.33125 25.89375 123.00313 24.7375Q122.72188 26.1125 122.22188 27.471874L120.65938 31.675ZM129.64375 37.55L135.175 30.08125L130.3 23.2375L132.55 23.2375L135.14375 26.909374Q135.95625 28.05 136.3 28.659374Q136.78438 27.878124 137.425 27.034374L140.31563 23.2375L142.37813 23.2375L137.34688 29.9875L142.76875 37.55L140.425 37.55L136.81563 32.440624Q136.51875 32.003124 136.19063 31.4875Q135.70625 32.26875 135.50313 32.565624L131.90938 37.55L129.64375 37.55ZM144.09688 37.55L144.09688 23.2375L149.4875 23.2375Q150.925 23.2375 151.675 23.3625Q152.72188 23.55 153.44063 24.05Q154.15938 24.534374 154.58125 25.425Q155.01875 26.315624 155.01875 27.378124Q155.01875 29.20625 153.84688 30.471874Q152.69063 31.721874 149.65938 31.721874L145.9875 31.721874L145.9875 37.55L144.09688 37.55ZM145.9875 30.034374L149.69063 30.034374Q151.51875 30.034374 152.28438 29.3625Q153.06563 28.675 153.06563 27.425Q153.06563 26.534374 152.6125 25.89375Q152.15938 25.253124 151.425 25.05Q150.94063 24.925 149.64375 24.925L145.9875 24.925L145.9875 30.034374ZM161.12813 37.55L161.12813 31.4875L155.6125 23.2375L157.90938 23.2375L160.7375 27.55Q161.51875 28.753124 162.19063 29.971874Q162.83125 28.846874 163.75313 27.440624L166.53438 23.2375L168.7375 23.2375L163.01875 31.4875L163.01875 37.55L161.12813 37.55Z" fill-rule="nonzero"/></svg>