<svg version="1.1" viewBox="0.0 0.0 600.0 371.0" fill="none" stroke="none" stroke-linecap="square" stroke-miterlimit="10" width="600" height="371" xmlns:xlink="http://www.w3.org/1999/xlink" xmlns="http://www.w3.org/2000/svg"><path fill="#ffffff" d="M0 0L600.0 0L600.0 371.0L0 371.0L0 0Z" fill-rule="nonzero"/><path stroke="#333333" stroke-width="1.0" stroke-linecap="butt" d="M62.5 318.5L581.5 318.5" fill-rule="nonzero"/><path stroke="#cccccc" stroke-width="1.0" stroke-linecap="butt" d="M62.5 254.5L581.5 254.5" fill-rule="nonzero"/><path stroke="#cccccc" stroke-width="1.0" stroke-linecap="butt" d="M62.5 190.5L581.5 190.5" fill-rule="nonzero"/><path stroke="#cccccc" stroke-width="1.0" stroke-linecap="butt" d="M62.5 126.5L581.5 126.5" fill-rule="nonzero"/><path stroke="#cccccc" stroke-width="1.0" stroke-linecap="butt" d="M62.5 61.5L581.5 61.5" fill-rule="nonzero"/><path stroke="#e6e6e6" stroke-width="1.0" stroke-linecap="butt" d="M62.5 305.5L581.5 305.5" fill-rule="nonzero"/><path stroke="#e6e6e6" stroke-width="1.0" stroke-linecap="butt" d="M62.5 292.5L581.5 292.5" fill-rule="nonzero"/><path stroke="#e6e6e6" stroke-width="1.0" stroke-linecap="butt" d="M62.5 279.5L581.5 279.5" fill-rule="nonzero"/><path stroke="#e6e6e6" stroke-width="1.0" stroke-linecap="butt" d="M62.5 267.5L581.5 267.5" fill-rule="nonzero"/><path stroke="#e6e6e6" stroke-width="1.0" stroke-linecap="butt" d="M62.5 241.5L581.5 241.5" fill-rule="nonzero"/><path stroke="#e6e6e6" stroke-width="1.0" stroke-linecap="butt" d="M62.5 228.5L581.5 228.5" fill-rule="nonzero"/><path stroke="#e6e6e6" stroke-width="1.0" stroke-linecap="butt" d="M62.5 215.5L581.5 215.5" fill-rule="nonzero"/><path stroke="#e6e6e6" stroke-width="1.0" stroke-linecap="butt" d="M62.5 203.5L581.5 203.5" fill-rule="nonzero"/><path stroke="#e6e6e6" stroke-width="1.0" stroke-linecap="butt" d="M62.5 177.5L581.5 177.5" fill-rule="nonzero"/><path stroke="#e6e6e6" stroke-width="1.0" stroke-linecap="butt" d="M62.5 164.5L581.5 164.5" fill-rule="nonzero"/><path stroke="#e6e6e6" stroke-width="1.0" stroke-linecap="butt" d="M62.5 151.5L581.5 151.5" fill-rule="nonzero"/><path stroke="#e6e6e6" stroke-width="1.0" stroke-linecap="butt" d="M62.5 138.5L581.5 138.5" fill-rule="nonzero"/><path stroke="#e6e6e6" stroke-width="1.0" stroke-linecap="butt" d="M62.5 113.5L581.5 113.5" fill-rule="nonzero"/><path stroke="#e6e6e6" stroke-width="1.0" stroke-linecap="butt" d="M62.5 100.5L581.5 100.5" fill-rule="nonzero"/><path stroke="#e6e6e6" stroke-width="1.0" stroke-linecap="butt" d="M62.5 87.5L581.5 87.5" fill-rule="nonzero"/><path stroke="#e6e6e6" stroke-width="1.0" stroke-linecap="butt" d="M62.5 74.5L581.5 74.5" fill-rule="nonzero"/><clipPath id="id_0"><path d="M62.55 61.916668L581.45 61.916668L581.45 318.45L62.55 318.45L62.55 61.916668Z" clip-rule="nonzero"/></clipPath><path stroke="#000000" stroke-width="2.0" stroke-linecap="butt" stroke-opacity="0.0" clip-path="url(#id_0)" d="M160.0 318.0L97.0 318.0L97.0 308.0C97.0 306.89542 97.89543 306.0 99.0 306.0L158.0 306.0C159.10457 306.0 160.0 306.89542 160.0 308.0Z" fill-rule="nonzero"/><path fill="#9900ff" clip-path="url(#id_0)" d="M160.0 318.0L97.0 318.0L97.0 308.0C97.0 306.89542 97.89543 306.0 99.0 306.0L158.0 306.0C159.10457 306.0 160.0 306.89542 160.0 308.0Z" fill-rule="nonzero"/><path stroke="#000000" stroke-width="2.0" stroke-linecap="butt" stroke-opacity="0.0" clip-path="url(#id_0)" d="M257.0 318.0L194.0 318.0L194.0 308.0C194.0 306.89542 194.89543 306.0 196.0 306.0L255.0 306.0C256.10458 306.0 257.0 306.89542 257.0 308.0Z" fill-rule="nonzero"/><path fill="#9900ff" clip-path="url(#id_0)" d="M257.0 318.0L194.0 318.0L194.0 308.0C194.0 306.89542 194.89543 306.0 196.0 306.0L255.0 306.0C256.10458 306.0 257.0 306.89542 257.0 308.0Z" fill-rule="nonzero"/><path stroke="#000000" stroke-width="2.0" stroke-linecap="butt" stroke-opacity="0.0" clip-path="url(#id_0)" d="M354.0 318.0L291.0 318.0L291.0 233.0C291.0 231.89543 291.89542 231.0 293.0 231.0L352.0 231.0C353.10458 231.0 354.0 231.89543 354.0 233.0Z" fill-rule="nonzero"/><path fill="#9900ff" clip-path="url(#id_0)" d="M354.0 318.0L291.0 318.0L291.0 233.0C291.0 231.89543 291.89542 231.0 293.0 231.0L352.0 231.0C353.10458 231.0 354.0 231.89543 354.0 233.0Z" fill-rule="nonzero"/><path stroke="#000000" stroke-width="2.0" stroke-linecap="butt" stroke-opacity="0.0" clip-path="url(#id_0)" d="M451.0 318.0L388.0 318.0L388.0 195.0C388.0 193.89543 388.89542 193.0 390.0 193.0L449.0 193.0C450.10458 193.0 451.0 193.89543 451.0 195.0Z" fill-rule="nonzero"/><path fill="#9900ff" clip-path="url(#id_0)" d="M451.0 318.0L388.0 318.0L388.0 195.0C388.0 193.89543 388.89542 193.0 390.0 193.0L449.0 193.0C450.10458 193.0 451.0 193.89543 451.0 195.0Z" fill-rule="nonzero"/><path stroke="#000000" stroke-width="2.0" stroke-linecap="butt" stroke-opacity="0.0" clip-path="url(#id_0)" d="M548.0 318.0L485.0 318.0L485.0 99.0C485.0 97.89543 485.89542 97.0 487.0 97.0L546.0 97.0C547.10455 97.0 548.0 97.89543 548.0 99.0Z" fill-rule="nonzero"/><path fill="#9900ff" clip-path="url(#id_0)" d="M548.0 318.0L485.0 318.0L485.0 99.0C485.0 97.89543 485.89542 97.0 487.0 97.0L546.0 97.0C547.10455 97.0 548.0 97.89543 548.0 99.0Z" fill-rule="nonzero"/><path fill="#000000" d="M26.05 318.21564Q26.05 316.6844 26.3625 315.7625Q26.675 314.825 27.284374 314.325Q27.909374 313.825 28.846874 313.825Q29.534374 313.825 30.05 314.10626Q30.58125 314.3875 30.925 314.91876Q31.26875 315.4344 31.45625 316.1844Q31.64375 316.9344 31.64375 318.21564Q31.64375 319.73126 31.33125 320.65314Q31.034374 321.575 30.409374 322.09064Q29.8 322.59064 28.846874 322.59064Q27.6125 322.59064 26.89375 321.7Q26.05 320.6375 26.05 318.21564ZM27.128124 318.21564Q27.128124 320.325 27.628124 321.02814Q28.128124 321.73126 28.846874 321.73126Q29.58125 321.73126 30.065624 321.02814Q30.565624 320.325 30.565624 318.21564Q30.565624 316.09064 30.065624 315.40314Q29.58125 314.7 28.83125 314.7Q28.1125 314.7 27.675 315.3094Q27.128124 316.09064 27.128124 318.21564ZM33.64375 322.45L33.64375 321.2469L34.846874 321.2469L34.846874 322.45L33.64375 322.45ZM36.05 318.21564Q36.05 316.6844 36.3625 315.7625Q36.675 314.825 37.284374 314.325Q37.909374 313.825 38.846874 313.825Q39.534374 313.825 40.05 314.10626Q40.58125 314.3875 40.925 314.91876Q41.26875 315.4344 41.45625 316.1844Q41.64375 316.9344 41.64375 318.21564Q41.64375 319.73126 41.33125 320.65314Q41.034374 321.575 40.409374 322.09064Q39.8 322.59064 38.846874 322.59064Q37.6125 322.59064 36.89375 321.7Q36.05 320.6375 36.05 318.21564ZM37.128124 318.21564Q37.128124 320.325 37.628124 321.02814Q38.128124 321.73126 38.846874 321.73126Q39.58125 321.73126 40.065624 321.02814Q40.565624 320.325 40.565624 318.21564Q40.565624 316.09064 40.065624 315.40314Q39.58125 314.7 38.83125 314.7Q38.1125 314.7 37.675 315.3094Q37.128124 316.09064 37.128124 318.21564ZM43.05 318.21564Q43.05 316.6844 43.3625 315.7625Q43.675 314.825 44.284374 314.325Q44.909374 313.825 45.846874 313.825Q46.534374 313.825 47.05 314.10626Q47.58125 314.3875 47.925 314.91876Q48.26875 315.4344 48.45625 316.1844Q48.64375 316.9344 48.64375 318.21564Q48.64375 319.73126 48.33125 320.65314Q48.034374 321.575 47.409374 322.09064Q46.8 322.59064 45.846874 322.59064Q44.6125 322.59064 43.89375 321.7Q43.05 320.6375 43.05 318.21564ZM44.128124 318.21564Q44.128124 320.325 44.628124 321.02814Q45.128124 321.73126 45.846874 321.73126Q46.58125 321.73126 47.065624 321.02814Q47.565624 320.325 47.565624 318.21564Q47.565624 316.09064 47.065624 315.40314Q46.58125 314.7 45.83125 314.7Q45.1125 314.7 44.675 315.3094Q44.128124 316.09064 44.128124 318.21564ZM50.05 318.21564Q50.05 316.6844 50.3625 315.7625Q50.675 314.825 51.284374 314.325Q51.909374 313.825 52.846874 313.825Q53.534374 313.825 54.05 314.10626Q54.58125 314.3875 54.925 314.91876Q55.26875 315.4344 55.45625 316.1844Q55.64375 316.9344 55.64375 318.21564Q55.64375 319.73126 55.33125 320.65314Q55.034374 321.575 54.409374 322.09064Q53.8 322.59064 52.846874 322.59064Q51.6125 322.59064 50.89375 321.7Q50.05 320.6375 50.05 318.21564ZM51.128124 318.21564Q51.128124 320.325 51.628124 321.02814Q52.128124 321.73126 52.846874 321.73126Q53.58125 321.73126 54.065624 321.02814Q54.565624 320.325 54.565624 318.21564Q54.565624 316.09064 54.065624 315.40314Q53.58125 314.7 52.83125 314.7Q52.1125 314.7 51.675 315.3094Q51.128124 316.09064 51.128124 318.21564Z" fill-rule="nonzero"/><path fill="#000000" d="M26.05 256.06668L27.159374 255.97293Q27.284374 256.78543 27.721874 257.19168Q28.175 257.59793 28.815624 257.59793Q29.565624 257.59793 30.096874 257.0198Q30.628124 256.44168 30.628124 255.50418Q30.628124 254.59793 30.1125 254.0823Q29.6125 253.55106 28.784374 253.55106Q28.284374 253.55106 27.8625 253.78543Q27.45625 254.0198 27.221874 254.37918L26.2375 254.25418L27.065624 249.84793L31.346874 249.84793L31.346874 250.84793L27.909374 250.84793L27.45625 253.16043Q28.221874 252.61356 29.065624 252.61356Q30.190624 252.61356 30.95625 253.3948Q31.7375 254.17606 31.7375 255.41043Q31.7375 256.56668 31.065624 257.42606Q30.2375 258.4573 28.815624 258.4573Q27.64375 258.4573 26.89375 257.80106Q26.159374 257.1448 26.05 256.06668ZM33.64375 258.31668L33.64375 257.11356L34.846874 257.11356L34.846874 258.31668L33.64375 258.31668ZM36.05 254.0823Q36.05 252.55106 36.3625 251.62918Q36.675 250.69168 37.284374 250.19168Q37.909374 249.69168 38.846874 249.69168Q39.534374 249.69168 40.05 249.97293Q40.58125 250.25418 40.925 250.78543Q41.26875 251.30106 41.45625 252.05106Q41.64375 252.80106 41.64375 254.0823Q41.64375 255.59793 41.33125 256.5198Q41.034374 257.44168 40.409374 257.9573Q39.8 258.4573 38.846874 258.4573Q37.6125 258.4573 36.89375 257.56668Q36.05 256.50418 36.05 254.0823ZM37.128124 254.0823Q37.128124 256.19168 37.628124 256.8948Q38.128124 257.59793 38.846874 257.59793Q39.58125 257.59793 40.065624 256.8948Q40.565624 256.19168 40.565624 254.0823Q40.565624 251.9573 40.065624 251.2698Q39.58125 250.56668 38.83125 250.56668Q38.1125 250.56668 37.675 251.17606Q37.128124 251.9573 37.128124 254.0823ZM43.05 254.0823Q43.05 252.55106 43.3625 251.62918Q43.675 250.69168 44.284374 250.19168Q44.909374 249.69168 45.846874 249.69168Q46.534374 249.69168 47.05 249.97293Q47.58125 250.25418 47.925 250.78543Q48.26875 251.30106 48.45625 252.05106Q48.64375 252.80106 48.64375 254.0823Q48.64375 255.59793 48.33125 256.5198Q48.034374 257.44168 47.409374 257.9573Q46.8 258.4573 45.846874 258.4573Q44.6125 258.4573 43.89375 257.56668Q43.05 256.50418 43.05 254.0823ZM44.128124 254.0823Q44.128124 256.19168 44.628124 256.8948Q45.128124 257.59793 45.846874 257.59793Q46.58125 257.59793 47.065624 256.8948Q47.565624 256.19168 47.565624 254.0823Q47.565624 251.9573 47.065624 251.2698Q46.58125 250.56668 45.83125 250.56668Q45.1125 250.56668 44.675 251.17606Q44.128124 251.9573 44.128124 254.0823ZM50.05 254.0823Q50.05 252.55106 50.3625 251.62918Q50.675 250.69168 51.284374 250.19168Q51.909374 249.69168 52.846874 249.69168Q53.534374 249.69168 54.05 249.97293Q54.58125 250.25418 54.925 250.78543Q55.26875 251.30106 55.45625 252.05106Q55.64375 252.80106 55.64375 254.0823Q55.64375 255.59793 55.33125 256.5198Q55.034374 257.44168 54.409374 257.9573Q53.8 258.4573 52.846874 258.4573Q51.6125 258.4573 50.89375 257.56668Q50.05 256.50418 50.05 254.0823ZM51.128124 254.0823Q51.128124 256.19168 51.628124 256.8948Q52.128124 257.59793 52.846874 257.59793Q53.58125 257.59793 54.065624 256.8948Q54.565624 256.19168 54.565624 254.0823Q54.565624 251.9573 54.065624 251.2698Q53.58125 250.56668 52.83125 250.56668Q52.1125 250.56668 51.675 251.17606Q51.128124 251.9573 51.128124 254.0823Z" fill-rule="nonzero"/><path fill="#000000" d="M23.01875 194.18333L21.971874 194.18333L21.971874 187.46458Q21.58125 187.82396 20.95625 188.19896Q20.346874 188.55833 19.8625 188.73021L19.8625 187.71458Q20.7375 187.29271 21.39375 186.71458Q22.065624 186.12083 22.346874 185.55833L23.01875 185.55833L23.01875 194.18333ZM26.05 189.94896Q26.05 188.41771 26.3625 187.49583Q26.675 186.55833 27.284374 186.05833Q27.909374 185.55833 28.846874 185.55833Q29.534374 185.55833 30.05 185.83958Q30.58125 186.12083 30.925 186.65208Q31.26875 187.16771 31.45625 187.91771Q31.64375 188.66771 31.64375 189.94896Q31.64375 191.46458 31.33125 192.38646Q31.034374 193.30833 30.409374 193.82396Q29.8 194.32396 28.846874 194.32396Q27.6125 194.32396 26.89375 193.43333Q26.05 192.37083 26.05 189.94896ZM27.128124 189.94896Q27.128124 192.05833 27.628124 192.76146Q28.128124 193.46458 28.846874 193.46458Q29.58125 193.46458 30.065624 192.76146Q30.565624 192.05833 30.565624 189.94896Q30.565624 187.82396 30.065624 187.13646Q29.58125 186.43333 28.83125 186.43333Q28.1125 186.43333 27.675 187.04271Q27.128124 187.82396 27.128124 189.94896ZM33.64375 194.18333L33.64375 192.98021L34.846874 192.98021L34.846874 194.18333L33.64375 194.18333ZM36.05 189.94896Q36.05 188.41771 36.3625 187.49583Q36.675 186.55833 37.284374 186.05833Q37.909374 185.55833 38.846874 185.55833Q39.534374 185.55833 40.05 185.83958Q40.58125 186.12083 40.925 186.65208Q41.26875 187.16771 41.45625 187.91771Q41.64375 188.66771 41.64375 189.94896Q41.64375 191.46458 41.33125 192.38646Q41.034374 193.30833 40.409374 193.82396Q39.8 194.32396 38.846874 194.32396Q37.6125 194.32396 36.89375 193.43333Q36.05 192.37083 36.05 189.94896ZM37.128124 189.94896Q37.128124 192.05833 37.628124 192.76146Q38.128124 193.46458 38.846874 193.46458Q39.58125 193.46458 40.065624 192.76146Q40.565624 192.05833 40.565624 189.94896Q40.565624 187.82396 40.065624 187.13646Q39.58125 186.43333 38.83125 186.43333Q38.1125 186.43333 37.675 187.04271Q37.128124 187.82396 37.128124 189.94896ZM43.05 189.94896Q43.05 188.41771 43.3625 187.49583Q43.675 186.55833 44.284374 186.05833Q44.909374 185.55833 45.846874 185.55833Q46.534374 185.55833 47.05 185.83958Q47.58125 186.12083 47.925 186.65208Q48.26875 187.16771 48.45625 187.91771Q48.64375 188.66771 48.64375 189.94896Q48.64375 191.46458 48.33125 192.38646Q48.034374 193.30833 47.409374 193.82396Q46.8 194.32396 45.846874 194.32396Q44.6125 194.32396 43.89375 193.43333Q43.05 192.37083 43.05 189.94896ZM44.128124 189.94896Q44.128124 192.05833 44.628124 192.76146Q45.128124 193.46458 45.846874 193.46458Q46.58125 193.46458 47.065624 192.76146Q47.565624 192.05833 47.565624 189.94896Q47.565624 187.82396 47.065624 187.13646Q46.58125 186.43333 45.83125 186.43333Q45.1125 186.43333 44.675 187.04271Q44.128124 187.82396 44.128124 189.94896ZM50.05 189.94896Q50.05 188.41771 50.3625 187.49583Q50.675 186.55833 51.284374 186.05833Q51.909374 185.55833 52.846874 185.55833Q53.534374 185.55833 54.05 185.83958Q54.58125 186.12083 54.925 186.65208Q55.26875 187.16771 55.45625 187.91771Q55.64375 188.66771 55.64375 189.94896Q55.64375 191.46458 55.33125 192.38646Q55.034374 193.30833 54.409374 193.82396Q53.8 194.32396 52.846874 194.32396Q51.6125 194.32396 50.89375 193.43333Q50.05 192.37083 50.05 189.94896ZM51.128124 189.94896Q51.128124 192.05833 51.628124 192.76146Q52.128124 193.46458 52.846874 193.46458Q53.58125 193.46458 54.065624 192.76146Q54.565624 192.05833 54.565624 189.94896Q54.565624 187.82396 54.065624 187.13646Q53.58125 186.43333 52.83125 186.43333Q52.1125 186.43333 51.675 187.04271Q51.128124 187.82396 51.128124 189.94896Z" fill-rule="nonzero"/><path fill="#000000" d="M23.01875 130.05L21.971874 130.05L21.971874 123.33125Q21.58125 123.69063 20.95625 124.06563Q20.346874 124.425 19.8625 124.59688L19.8625 123.58125Q20.7375 123.15938 21.39375 122.58125Q22.065624 121.9875 22.346874 121.425L23.01875 121.425L23.01875 130.05ZM26.05 127.8L27.159374 127.70625Q27.284374 128.51875 27.721874 128.925Q28.175 129.33125 28.815624 129.33125Q29.565624 129.33125 30.096874 128.75313Q30.628124 128.175 30.628124 127.2375Q30.628124 126.33125 30.1125 125.81563Q29.6125 125.28438 28.784374 125.28438Q28.284374 125.28438 27.8625 125.51875Q27.45625 125.75313 27.221874 126.1125L26.2375 125.9875L27.065624 121.58125L31.346874 121.58125L31.346874 122.58125L27.909374 122.58125L27.45625 124.89375Q28.221874 124.34688 29.065624 124.34688Q30.190624 124.34688 30.95625 125.12813Q31.7375 125.90938 31.7375 127.14375Q31.7375 128.3 31.065624 129.15938Q30.2375 130.19063 28.815624 130.19063Q27.64375 130.19063 26.89375 129.53438Q26.159374 128.87813 26.05 127.8ZM33.64375 130.05L33.64375 128.84688L34.846874 128.84688L34.846874 130.05L33.64375 130.05ZM36.05 125.81563Q36.05 124.28438 36.3625 123.3625Q36.675 122.425 37.284374 121.925Q37.909374 121.425 38.846874 121.425Q39.534374 121.425 40.05 121.70625Q40.58125 121.9875 40.925 122.51875Q41.26875 123.03438 41.45625 123.78438Q41.64375 124.53438 41.64375 125.81563Q41.64375 127.33125 41.33125 128.25313Q41.034374 129.175 40.409374 129.69063Q39.8 130.19063 38.846874 130.19063Q37.6125 130.19063 36.89375 129.3Q36.05 128.2375 36.05 125.81563ZM37.128124 125.81563Q37.128124 127.925 37.628124 128.62813Q38.128124 129.33125 38.846874 129.33125Q39.58125 129.33125 40.065624 128.62813Q40.565624 127.925 40.565624 125.81563Q40.565624 123.69063 40.065624 123.00313Q39.58125 122.3 38.83125 122.3Q38.1125 122.3 37.675 122.90938Q37.128124 123.69063 37.128124 125.81563ZM43.05 125.81563Q43.05 124.28438 43.3625 123.3625Q43.675 122.425 44.284374 121.925Q44.909374 121.425 45.846874 121.425Q46.534374 121.425 47.05 121.70625Q47.58125 121.9875 47.925 122.51875Q48.26875 123.03438 48.45625 123.78438Q48.64375 124.53438 48.64375 125.81563Q48.64375 127.33125 48.33125 128.25313Q48.034374 129.175 47.409374 129.69063Q46.8 130.19063 45.846874 130.19063Q44.6125 130.19063 43.89375 129.3Q43.05 128.2375 43.05 125.81563ZM44.128124 125.81563Q44.128124 127.925 44.628124 128.62813Q45.128124 129.33125 45.846874 129.33125Q46.58125 129.33125 47.065624 128.62813Q47.565624 127.925 47.565624 125.81563Q47.565624 123.69063 47.065624 123.00313Q46.58125 122.3 45.83125 122.3Q45.1125 122.3 44.675 122.90938Q44.128124 123.69063 44.128124 125.81563ZM50.05 125.81563Q50.05 124.28438 50.3625 123.3625Q50.675 122.425 51.284374 121.925Q51.909374 121.425 52.846874 121.425Q53.534374 121.425 54.05 121.70625Q54.58125 121.9875 54.925 122.51875Q55.26875 123.03438 55.45625 123.78438Q55.64375 124.53438 55.64375 125.81563Q55.64375 127.33125 55.33125 128.25313Q55.034374 129.175 54.409374 129.69063Q53.8 130.19063 52.846874 130.19063Q51.6125 130.19063 50.89375 129.3Q50.05 128.2375 50.05 125.81563ZM51.128124 125.81563Q51.128124 127.925 51.628124 128.62813Q52.128124 129.33125 52.846874 129.33125Q53.58125 129.33125 54.065624 128.62813Q54.565624 127.925 54.565624 125.81563Q54.565624 123.69063 54.065624 123.00313Q53.58125 122.3 52.83125 122.3Q52.1125 122.3 51.675 122.90938Q51.128124 123.69063 51.128124 125.81563Z" fill-rule="nonzero"/><path fill="#000000" d="M24.596874 64.90104L24.596874 65.916664L18.909374 65.916664Q18.909374 65.541664 19.034374 65.18229Q19.253124 64.604164 19.721874 64.041664Q20.20625 63.479164 21.1125 62.74479Q22.51875 61.58854 23.003124 60.916664Q23.503124 60.24479 23.503124 59.65104Q23.503124 59.02604 23.05 58.604164Q22.596874 58.166664 21.878124 58.166664Q21.1125 58.166664 20.659374 58.61979Q20.20625 59.072914 20.190624 59.885414L19.1125 59.77604Q19.221874 58.55729 19.940624 57.93229Q20.675 57.291664 21.909374 57.291664Q23.14375 57.291664 23.8625 57.979164Q24.58125 58.666664 24.58125 59.68229Q24.58125 60.197914 24.3625 60.697914Q24.159374 61.18229 23.659374 61.74479Q23.175 62.291664 22.05 63.24479Q21.096874 64.041664 20.815624 64.33854Q20.55 64.61979 20.378124 64.90104L24.596874 64.90104ZM26.05 61.68229Q26.05 60.15104 26.3625 59.229164Q26.675 58.291664 27.284374 57.791664Q27.909374 57.291664 28.846874 57.291664Q29.534374 57.291664 30.05 57.572914Q30.58125 57.854164 30.925 58.385414Q31.26875 58.90104 31.45625 59.65104Q31.64375 60.40104 31.64375 61.68229Q31.64375 63.197914 31.33125 64.11979Q31.034374 65.041664 30.409374 65.55729Q29.8 66.05729 28.846874 66.05729Q27.6125 66.05729 26.89375 65.166664Q26.05 64.104164 26.05 61.68229ZM27.128124 61.68229Q27.128124 63.791664 27.628124 64.49479Q28.128124 65.197914 28.846874 65.197914Q29.58125 65.197914 30.065624 64.49479Q30.565624 63.791664 30.565624 61.68229Q30.565624 59.55729 30.065624 58.86979Q29.58125 58.166664 28.83125 58.166664Q28.1125 58.166664 27.675 58.77604Q27.128124 59.55729 27.128124 61.68229ZM33.64375 65.916664L33.64375 64.71354L34.846874 64.71354L34.846874 65.916664L33.64375 65.916664ZM36.05 61.68229Q36.05 60.15104 36.3625 59.229164Q36.675 58.291664 37.284374 57.791664Q37.909374 57.291664 38.846874 57.291664Q39.534374 57.291664 40.05 57.572914Q40.58125 57.854164 40.925 58.385414Q41.26875 58.90104 41.45625 59.65104Q41.64375 60.40104 41.64375 61.68229Q41.64375 63.197914 41.33125 64.11979Q41.034374 65.041664 40.409374 65.55729Q39.8 66.05729 38.846874 66.05729Q37.6125 66.05729 36.89375 65.166664Q36.05 64.104164 36.05 61.68229ZM37.128124 61.68229Q37.128124 63.791664 37.628124 64.49479Q38.128124 65.197914 38.846874 65.197914Q39.58125 65.197914 40.065624 64.49479Q40.565624 63.791664 40.565624 61.68229Q40.565624 59.55729 40.065624 58.86979Q39.58125 58.166664 38.83125 58.166664Q38.1125 58.166664 37.675 58.77604Q37.128124 59.55729 37.128124 61.68229ZM43.05 61.68229Q43.05 60.15104 43.3625 59.229164Q43.675 58.291664 44.284374 57.791664Q44.909374 57.291664 45.846874 57.291664Q46.534374 57.291664 47.05 57.572914Q47.58125 57.854164 47.925 58.385414Q48.26875 58.90104 48.45625 59.65104Q48.64375 60.40104 48.64375 61.68229Q48.64375 63.197914 48.33125 64.11979Q48.034374 65.041664 47.409374 65.55729Q46.8 66.05729 45.846874 66.05729Q44.6125 66.05729 43.89375 65.166664Q43.05 64.104164 43.05 61.68229ZM44.128124 61.68229Q44.128124 63.791664 44.628124 64.49479Q45.128124 65.197914 45.846874 65.197914Q46.58125 65.197914 47.065624 64.49479Q47.565624 63.791664 47.565624 61.68229Q47.565624 59.55729 47.065624 58.86979Q46.58125 58.166664 45.83125 58.166664Q45.1125 58.166664 44.675 58.77604Q44.128124 59.55729 44.128124 61.68229ZM50.05 61.68229Q50.05 60.15104 50.3625 59.229164Q50.675 58.291664 51.284374 57.791664Q51.909374 57.291664 52.846874 57.291664Q53.534374 57.291664 54.05 57.572914Q54.58125 57.854164 54.925 58.385414Q55.26875 58.90104 55.45625 59.65104Q55.64375 60.40104 55.64375 61.68229Q55.64375 63.197914 55.33125 64.11979Q55.034374 65.041664 54.409374 65.55729Q53.8 66.05729 52.846874 66.05729Q51.6125 66.05729 50.89375 65.166664Q50.05 64.104164 50.05 61.68229ZM51.128124 61.68229Q51.128124 63.791664 51.628124 64.49479Q52.128124 65.197914 52.846874 65.197914Q53.58125 65.197914 54.065624 64.49479Q54.565624 63.791664 54.565624 61.68229Q54.565624 59.55729 54.065624 58.86979Q53.58125 58.166664 52.83125 58.166664Q52.1125 58.166664 51.675 58.77604Q51.128124 59.55729 51.128124 61.68229Z" fill-rule="nonzero"/><path fill="#000000" d="M113.89369 335.45L113.89369 326.85626L117.12807 326.85626Q118.11244 326.85626 118.70619 327.1219Q119.29994 327.3875 119.62807 327.9344Q119.97182 328.46564 119.97182 329.0594Q119.97182 329.60626 119.67494 330.09064Q119.37807 330.575 118.76869 330.8719Q119.54994 331.10626 119.95619 331.66876Q120.37807 332.21564 120.37807 332.96564Q120.37807 333.5594 120.12807 334.09064Q119.87807 334.60626 119.50307 334.8875Q119.12807 335.16876 118.54994 335.3094Q117.98744 335.45 117.17494 335.45L113.89369 335.45ZM115.03432 330.46564L116.89369 330.46564Q117.64369 330.46564 117.97182 330.3719Q118.40932 330.2469 118.62807 329.95Q118.84682 329.6375 118.84682 329.1844Q118.84682 328.7625 118.64369 328.4344Q118.44057 328.10626 118.04994 327.9969Q117.67494 327.8719 116.75307 327.8719L115.03432 327.8719L115.03432 330.46564ZM115.03432 334.4344L117.17494 334.4344Q117.72182 334.4344 117.94057 334.3875Q118.34682 334.325 118.59682 334.16876Q118.86244 333.9969 119.03432 333.6844Q119.20619 333.3719 119.20619 332.96564Q119.20619 332.48126 118.95619 332.1219Q118.72182 331.7625 118.28432 331.6219Q117.84682 331.48126 117.01869 331.48126L115.03432 331.48126L115.03432 334.4344ZM121.89369 335.45L121.89369 326.85626L123.03432 326.85626L123.03432 334.4344L127.26869 334.4344L127.26869 335.45L121.89369 335.45ZM128.00307 335.45L131.29994 326.85626L132.51869 326.85626L136.03432 335.45L134.75307 335.45L133.73744 332.84064L130.15932 332.84064L129.20619 335.45L128.00307 335.45ZM130.48744 331.91876L133.39369 331.91876L132.50307 329.54376Q132.08119 328.46564 131.89369 327.7625Q131.72182 328.59064 131.42494 329.40314L130.48744 331.91876ZM135.56557 332.6844L136.62807 332.59064Q136.70619 333.2469 136.98744 333.65314Q137.26869 334.0594 137.84682 334.325Q138.44057 334.575 139.17494 334.575Q139.81557 334.575 140.31557 334.3875Q140.81557 334.1844 141.04994 333.85626Q141.29994 333.5125 141.29994 333.1219Q141.29994 332.71564 141.06557 332.41876Q140.83119 332.10626 140.29994 331.90314Q139.94057 331.7625 138.75307 331.48126Q137.58119 331.2 137.11244 330.95Q136.48744 330.6219 136.19057 330.15314Q135.89369 329.66876 135.89369 329.075Q135.89369 328.4344 136.25307 327.8719Q136.62807 327.29376 137.33119 327.0125Q138.04994 326.71564 138.90932 326.71564Q139.86244 326.71564 140.59682 327.02814Q141.33119 327.325 141.72182 327.9344Q142.11244 328.52814 142.14369 329.27814L141.04994 329.35626Q140.95619 328.54376 140.44057 328.1375Q139.94057 327.71564 138.95619 327.71564Q137.92494 327.71564 137.45619 328.09064Q136.98744 328.46564 136.98744 328.9969Q136.98744 329.46564 137.31557 329.7625Q137.64369 330.0594 139.01869 330.3719Q140.40932 330.6844 140.92494 330.91876Q141.67494 331.27814 142.03432 331.8094Q142.39369 332.325 142.39369 333.02814Q142.39369 333.71564 142.00307 334.325Q141.61244 334.91876 140.87807 335.2625Q140.14369 335.59064 139.22182 335.59064Q138.04994 335.59064 137.25307 335.2625Q136.47182 334.91876 136.01869 334.23126Q135.58119 333.54376 135.56557 332.6844Z" fill-rule="nonzero"/><path fill="#000000" d="M194.49371 335.45L194.49371 326.85626L200.29059 326.85626L200.29059 327.8719L195.63434 327.8719L195.63434 330.52814L199.66559 330.52814L199.66559 331.54376L195.63434 331.54376L195.63434 335.45L194.49371 335.45ZM201.08746 331.2625Q201.08746 329.1219 202.22809 327.91876Q203.38434 326.7 205.19684 326.7Q206.39996 326.7 207.35309 327.27814Q208.30621 327.84064 208.80621 328.85626Q209.30621 329.8719 209.30621 331.16876Q209.30621 332.46564 208.77496 333.4969Q208.24371 334.52814 207.27496 335.0594Q206.32184 335.59064 205.19684 335.59064Q203.97809 335.59064 203.02496 335.0125Q202.07184 334.41876 201.57184 333.41876Q201.08746 332.40314 201.08746 331.2625ZM202.25934 331.27814Q202.25934 332.84064 203.08746 333.73126Q203.93121 334.6219 205.19684 334.6219Q206.47809 334.6219 207.30621 333.73126Q208.13434 332.825 208.13434 331.15314Q208.13434 330.10626 207.77496 329.325Q207.43121 328.54376 206.74371 328.1219Q206.05621 327.6844 205.21246 327.6844Q204.00934 327.6844 203.13434 328.5125Q202.25934 329.34064 202.25934 331.27814ZM210.44684 335.45L210.44684 326.85626L214.25934 326.85626Q215.41559 326.85626 216.00934 327.09064Q216.60309 327.325 216.96246 327.91876Q217.32184 328.4969 217.32184 329.2Q217.32184 330.1219 216.72809 330.7469Q216.13434 331.3719 214.89996 331.54376Q215.35309 331.7625 215.58746 331.96564Q216.08746 332.41876 216.52496 333.10626L218.02496 335.45L216.58746 335.45L215.46246 333.66876Q214.96246 332.8875 214.63434 332.48126Q214.32184 332.075 214.05621 331.91876Q213.80621 331.7469 213.54059 331.66876Q213.35309 331.6375 212.91559 331.6375L211.58746 331.6375L211.58746 335.45L210.44684 335.45ZM211.58746 330.65314L214.04059 330.65314Q214.80621 330.65314 215.24371 330.4969Q215.69684 330.325 215.91559 329.98126Q216.14996 329.6219 216.14996 329.2Q216.14996 328.59064 215.69684 328.2Q215.25934 327.8094 214.30621 327.8094L211.58746 327.8094L211.58746 330.65314ZM221.61871 335.45L221.61871 327.8719L218.79059 327.8719L218.79059 326.85626L225.60309 326.85626L225.60309 327.8719L222.75934 327.8719L222.75934 335.45L221.61871 335.45ZM226.47809 335.45L226.47809 326.85626L227.60309 326.85626L227.60309 330.3875L232.07184 330.3875L232.07184 326.85626L233.21246 326.85626L233.21246 335.45L232.07184 335.45L232.07184 331.40314L227.60309 331.40314L227.60309 335.45L226.47809 335.45ZM235.27496 335.45L235.27496 326.85626L236.33746 326.85626L236.33746 335.45L235.27496 335.45ZM240.02496 335.45L237.66559 329.23126L238.77496 329.23126L240.11871 332.95Q240.32184 333.5594 240.50934 334.2Q240.64996 333.71564 240.89996 333.02814L242.29059 329.23126L243.36871 329.23126L241.00934 335.45L240.02496 335.45ZM248.55621 334.4344L248.55621 335.45L242.86871 335.45Q242.86871 335.075 242.99371 334.71564Q243.21246 334.1375 243.68121 333.575Q244.16559 333.0125 245.07184 332.27814Q246.47809 331.1219 246.96246 330.45Q247.46246 329.77814 247.46246 329.1844Q247.46246 328.5594 247.00934 328.1375Q246.55621 327.7 245.83746 327.7Q245.07184 327.7 244.61871 328.15314Q244.16559 328.60626 244.14996 329.41876L243.07184 329.3094Q243.18121 328.09064 243.89996 327.46564Q244.63434 326.825 245.86871 326.825Q247.10309 326.825 247.82184 327.5125Q248.54059 328.2 248.54059 329.21564Q248.54059 329.73126 248.32184 330.23126Q248.11871 330.71564 247.61871 331.27814Q247.13434 331.825 246.00934 332.77814Q245.05621 333.575 244.77496 333.8719Q244.50934 334.15314 244.33746 334.4344L248.55621 334.4344ZM252.50934 334.0594L252.50934 331.7L250.18121 331.7L250.18121 330.71564L252.50934 330.71564L252.50934 328.3875L253.50934 328.3875L253.50934 330.71564L255.85309 330.71564L255.85309 331.7L253.50934 331.7L253.50934 334.0594L252.50934 334.0594Z" fill-rule="nonzero"/><path fill="#000000" d="M209.05621 346.6844L210.11871 346.59064Q210.19684 347.2469 210.47809 347.65314Q210.75934 348.0594 211.33746 348.325Q211.93121 348.575 212.66559 348.575Q213.30621 348.575 213.80621 348.3875Q214.30621 348.1844 214.54059 347.85626Q214.79059 347.5125 214.79059 347.1219Q214.79059 346.71564 214.55621 346.41876Q214.32184 346.10626 213.79059 345.90314Q213.43121 345.7625 212.24371 345.48126Q211.07184 345.2 210.60309 344.95Q209.97809 344.6219 209.68121 344.15314Q209.38434 343.66876 209.38434 343.075Q209.38434 342.4344 209.74371 341.8719Q210.11871 341.29376 210.82184 341.0125Q211.54059 340.71564 212.39996 340.71564Q213.35309 340.71564 214.08746 341.02814Q214.82184 341.325 215.21246 341.9344Q215.60309 342.52814 215.63434 343.27814L214.54059 343.35626Q214.44684 342.54376 213.93121 342.1375Q213.43121 341.71564 212.44684 341.71564Q211.41559 341.71564 210.94684 342.09064Q210.47809 342.46564 210.47809 342.9969Q210.47809 343.46564 210.80621 343.7625Q211.13434 344.0594 212.50934 344.3719Q213.89996 344.6844 214.41559 344.91876Q215.16559 345.27814 215.52496 345.8094Q215.88434 346.325 215.88434 347.02814Q215.88434 347.71564 215.49371 348.325Q215.10309 348.91876 214.36871 349.2625Q213.63434 349.59064 212.71246 349.59064Q211.54059 349.59064 210.74371 349.2625Q209.96246 348.91876 209.50934 348.23126Q209.07184 347.54376 209.05621 346.6844ZM217.43121 349.45L217.43121 340.85626L220.39996 340.85626Q221.39996 340.85626 221.93121 340.98126Q222.66559 341.15314 223.18121 341.59064Q223.86871 342.16876 224.19684 343.075Q224.54059 343.96564 224.54059 345.10626Q224.54059 346.09064 224.30621 346.84064Q224.08746 347.59064 223.72809 348.09064Q223.36871 348.59064 222.93121 348.8719Q222.50934 349.15314 221.91559 349.3094Q221.32184 349.45 220.54059 349.45L217.43121 349.45ZM218.57184 348.4344L220.39996 348.4344Q221.25934 348.4344 221.74371 348.27814Q222.22809 348.1219 222.50934 347.825Q222.91559 347.4344 223.13434 346.7469Q223.36871 346.0594 223.36871 345.09064Q223.36871 343.7469 222.91559 343.02814Q222.47809 342.29376 221.85309 342.04376Q221.38434 341.8719 220.38434 341.8719L218.57184 341.8719L218.57184 348.4344ZM226.08746 345.2625Q226.08746 343.1219 227.22809 341.91876Q228.38434 340.7 230.19684 340.7Q231.39996 340.7 232.35309 341.27814Q233.30621 341.84064 233.80621 342.85626Q234.30621 343.8719 234.30621 345.16876Q234.30621 346.46564 233.77496 347.4969Q233.24371 348.52814 232.27496 349.0594Q231.32184 349.59064 230.19684 349.59064Q228.97809 349.59064 228.02496 349.0125Q227.07184 348.41876 226.57184 347.41876Q226.08746 346.40314 226.08746 345.2625ZM227.25934 345.27814Q227.25934 346.84064 228.08746 347.73126Q228.93121 348.6219 230.19684 348.6219Q231.47809 348.6219 232.30621 347.73126Q233.13434 346.825 233.13434 345.15314Q233.13434 344.10626 232.77496 343.325Q232.43121 342.54376 231.74371 342.1219Q231.05621 341.6844 230.21246 341.6844Q229.00934 341.6844 228.13434 342.5125Q227.25934 343.34064 227.25934 345.27814ZM237.61871 349.45L237.61871 341.8719L234.79059 341.8719L234.79059 340.85626L241.60309 340.85626L241.60309 341.8719L238.75934 341.8719L238.75934 349.45L237.61871 349.45Z" fill-rule="nonzero"/><path fill="#000000" d="M291.48438 335.45L291.48438 326.85626L297.28125 326.85626L297.28125 327.8719L292.625 327.8719L292.625 330.52814L296.65625 330.52814L296.65625 331.54376L292.625 331.54376L292.625 335.45L291.48438 335.45ZM298.07812 331.2625Q298.07812 329.1219 299.21875 327.91876Q300.375 326.7 302.1875 326.7Q303.39062 326.7 304.34375 327.27814Q305.29688 327.84064 305.79688 328.85626Q306.29688 329.8719 306.29688 331.16876Q306.29688 332.46564 305.76562 333.4969Q305.23438 334.52814 304.26562 335.0594Q303.3125 335.59064 302.1875 335.59064Q300.96875 335.59064 300.01562 335.0125Q299.0625 334.41876 298.5625 333.41876Q298.07812 332.40314 298.07812 331.2625ZM299.25 331.27814Q299.25 332.84064 300.07812 333.73126Q300.92188 334.6219 302.1875 334.6219Q303.46875 334.6219 304.29688 333.73126Q305.125 332.825 305.125 331.15314Q305.125 330.10626 304.76562 329.325Q304.42188 328.54376 303.73438 328.1219Q303.04688 327.6844 302.20312 327.6844Q301.0 327.6844 300.125 328.5125Q299.25 329.34064 299.25 331.27814ZM307.4375 335.45L307.4375 326.85626L311.25 326.85626Q312.40625 326.85626 313.0 327.09064Q313.59375 327.325 313.95312 327.91876Q314.3125 328.4969 314.3125 329.2Q314.3125 330.1219 313.71875 330.7469Q313.125 331.3719 311.89062 331.54376Q312.34375 331.7625 312.57812 331.96564Q313.07812 332.41876 313.51562 333.10626L315.01562 335.45L313.57812 335.45L312.45312 333.66876Q311.95312 332.8875 311.625 332.48126Q311.3125 332.075 311.04688 331.91876Q310.79688 331.7469 310.53125 331.66876Q310.34375 331.6375 309.90625 331.6375L308.57812 331.6375L308.57812 335.45L307.4375 335.45ZM308.57812 330.65314L311.03125 330.65314Q311.79688 330.65314 312.23438 330.4969Q312.6875 330.325 312.90625 329.98126Q313.14062 329.6219 313.14062 329.2Q313.14062 328.59064 312.6875 328.2Q312.25 327.8094 311.29688 327.8094L308.57812 327.8094L308.57812 330.65314ZM318.60938 335.45L318.60938 327.8719L315.78125 327.8719L315.78125 326.85626L322.59375 326.85626L322.59375 327.8719L319.75 327.8719L319.75 335.45L318.60938 335.45ZM323.46875 335.45L323.46875 326.85626L324.59375 326.85626L324.59375 330.3875L329.0625 330.3875L329.0625 326.85626L330.20312 326.85626L330.20312 335.45L329.0625 335.45L329.0625 331.40314L324.59375 331.40314L324.59375 335.45L323.46875 335.45ZM332.26562 335.45L332.26562 326.85626L333.32812 326.85626L333.32812 335.45L332.26562 335.45ZM337.01562 335.45L334.65625 329.23126L335.76562 329.23126L337.10938 332.95Q337.3125 333.5594 337.5 334.2Q337.64062 333.71564 337.89062 333.02814L339.28125 329.23126L340.35938 329.23126L338.0 335.45L337.01562 335.45ZM345.54688 334.4344L345.54688 335.45L339.85938 335.45Q339.85938 335.075 339.98438 334.71564Q340.20312 334.1375 340.67188 333.575Q341.15625 333.0125 342.0625 332.27814Q343.46875 331.1219 343.95312 330.45Q344.45312 329.77814 344.45312 329.1844Q344.45312 328.5594 344.0 328.1375Q343.54688 327.7 342.82812 327.7Q342.0625 327.7 341.60938 328.15314Q341.15625 328.60626 341.14062 329.41876L340.0625 329.3094Q340.17188 328.09064 340.89062 327.46564Q341.625 326.825 342.85938 326.825Q344.09375 326.825 344.8125 327.5125Q345.53125 328.2 345.53125 329.21564Q345.53125 329.73126 345.3125 330.23126Q345.10938 330.71564 344.60938 331.27814Q344.125 331.825 343.0 332.77814Q342.04688 333.575 341.76562 333.8719Q341.5 334.15314 341.32812 334.4344L345.54688 334.4344ZM349.5 334.0594L349.5 331.7L347.17188 331.7L347.17188 330.71564L349.5 330.71564L349.5 328.3875L350.5 328.3875L350.5 330.71564L352.84375 330.71564L352.84375 331.7L350.5 331.7L350.5 334.0594L349.5 334.0594Z" fill-rule="nonzero"/><path fill="#000000" d="M304.04688 346.6844L305.10938 346.59064Q305.1875 347.2469 305.46875 347.65314Q305.75 348.0594 306.32812 348.325Q306.92188 348.575 307.65625 348.575Q308.29688 348.575 308.79688 348.3875Q309.29688 348.1844 309.53125 347.85626Q309.78125 347.5125 309.78125 347.1219Q309.78125 346.71564 309.54688 346.41876Q309.3125 346.10626 308.78125 345.90314Q308.42188 345.7625 307.23438 345.48126Q306.0625 345.2 305.59375 344.95Q304.96875 344.6219 304.67188 344.15314Q304.375 343.66876 304.375 343.075Q304.375 342.4344 304.73438 341.8719Q305.10938 341.29376 305.8125 341.0125Q306.53125 340.71564 307.39062 340.71564Q308.34375 340.71564 309.07812 341.02814Q309.8125 341.325 310.20312 341.9344Q310.59375 342.52814 310.625 343.27814L309.53125 343.35626Q309.4375 342.54376 308.92188 342.1375Q308.42188 341.71564 307.4375 341.71564Q306.40625 341.71564 305.9375 342.09064Q305.46875 342.46564 305.46875 342.9969Q305.46875 343.46564 305.79688 343.7625Q306.125 344.0594 307.5 344.3719Q308.89062 344.6844 309.40625 344.91876Q310.15625 345.27814 310.51562 345.8094Q310.875 346.325 310.875 347.02814Q310.875 347.71564 310.48438 348.325Q310.09375 348.91876 309.35938 349.2625Q308.625 349.59064 307.70312 349.59064Q306.53125 349.59064 305.73438 349.2625Q304.95312 348.91876 304.5 348.23126Q304.0625 347.54376 304.04688 346.6844ZM311.48438 349.45L314.78125 340.85626L316.0 340.85626L319.51562 349.45L318.23438 349.45L317.21875 346.84064L313.64062 346.84064L312.6875 349.45L311.48438 349.45ZM313.96875 345.91876L316.875 345.91876L315.98438 343.54376Q315.5625 342.46564 315.375 341.7625Q315.20312 342.59064 314.90625 343.40314L313.96875 345.91876ZM318.54688 349.45L321.875 344.96564L318.95312 340.85626L320.29688 340.85626L321.85938 343.0594Q322.34375 343.7469 322.54688 344.1219Q322.84375 343.65314 323.23438 343.1375L324.95312 340.85626L326.1875 340.85626L323.17188 344.90314L326.42188 349.45L325.01562 349.45L322.85938 346.3875Q322.67188 346.1219 322.48438 345.8094Q322.20312 346.27814 322.07812 346.45L319.92188 349.45L318.54688 349.45ZM326.42188 349.45L326.42188 340.85626L329.67188 340.85626Q330.51562 340.85626 330.96875 340.9344Q331.60938 341.04376 332.03125 341.34064Q332.46875 341.6375 332.71875 342.16876Q332.98438 342.7 332.98438 343.34064Q332.98438 344.4344 332.28125 345.2Q331.59375 345.95 329.76562 345.95L327.5625 345.95L327.5625 349.45L326.42188 349.45ZM327.5625 344.95L329.78125 344.95Q330.89062 344.95 331.34375 344.54376Q331.8125 344.1219 331.8125 343.3719Q331.8125 342.84064 331.53125 342.46564Q331.26562 342.075 330.82812 341.95Q330.53125 341.8719 329.76562 341.8719L327.5625 341.8719L327.5625 344.95ZM336.84375 349.45L336.84375 345.8094L333.53125 340.85626L334.92188 340.85626L336.60938 343.45Q337.07812 344.16876 337.48438 344.90314Q337.875 344.23126 338.42188 343.3875L340.09375 340.85626L341.40625 340.85626L337.98438 345.8094L337.98438 349.45L336.84375 349.45Z" fill-rule="nonzero"/><path fill="#000000" d="M388.47504 335.45L388.47504 326.85626L394.2719 326.85626L394.2719 327.8719L389.61566 327.8719L389.61566 330.52814L393.6469 330.52814L393.6469 331.54376L389.61566 331.54376L389.61566 335.45L388.47504 335.45ZM395.0688 331.2625Q395.0688 329.1219 396.2094 327.91876Q397.36566 326.7 399.17816 326.7Q400.3813 326.7 401.3344 327.27814Q402.28754 327.84064 402.78754 328.85626Q403.28754 329.8719 403.28754 331.16876Q403.28754 332.46564 402.7563 333.4969Q402.22504 334.52814 401.2563 335.0594Q400.30316 335.59064 399.17816 335.59064Q397.9594 335.59064 397.0063 335.0125Q396.05316 334.41876 395.55316 333.41876Q395.0688 332.40314 395.0688 331.2625ZM396.24066 331.27814Q396.24066 332.84064 397.0688 333.73126Q397.91254 334.6219 399.17816 334.6219Q400.4594 334.6219 401.28754 333.73126Q402.11566 332.825 402.11566 331.15314Q402.11566 330.10626 401.7563 329.325Q401.41254 328.54376 400.72504 328.1219Q400.03754 327.6844 399.1938 327.6844Q397.99066 327.6844 397.11566 328.5125Q396.24066 329.34064 396.24066 331.27814ZM404.42816 335.45L404.42816 326.85626L408.24066 326.85626Q409.3969 326.85626 409.99066 327.09064Q410.5844 327.325 410.9438 327.91876Q411.30316 328.4969 411.30316 329.2Q411.30316 330.1219 410.7094 330.7469Q410.11566 331.3719 408.8813 331.54376Q409.3344 331.7625 409.5688 331.96564Q410.0688 332.41876 410.5063 333.10626L412.0063 335.45L410.5688 335.45L409.4438 333.66876Q408.9438 332.8875 408.61566 332.48126Q408.30316 332.075 408.03754 331.91876Q407.78754 331.7469 407.5219 331.66876Q407.3344 331.6375 406.8969 331.6375L405.5688 331.6375L405.5688 335.45L404.42816 335.45ZM405.5688 330.65314L408.0219 330.65314Q408.78754 330.65314 409.22504 330.4969Q409.67816 330.325 409.8969 329.98126Q410.1313 329.6219 410.1313 329.2Q410.1313 328.59064 409.67816 328.2Q409.24066 327.8094 408.28754 327.8094L405.5688 327.8094L405.5688 330.65314ZM415.60004 335.45L415.60004 327.8719L412.7719 327.8719L412.7719 326.85626L419.5844 326.85626L419.5844 327.8719L416.74066 327.8719L416.74066 335.45L415.60004 335.45ZM420.4594 335.45L420.4594 326.85626L421.5844 326.85626L421.5844 330.3875L426.05316 330.3875L426.05316 326.85626L427.1938 326.85626L427.1938 335.45L426.05316 335.45L426.05316 331.40314L421.5844 331.40314L421.5844 335.45L420.4594 335.45ZM429.2563 335.45L429.2563 326.85626L430.3188 326.85626L430.3188 335.45L429.2563 335.45ZM434.0063 335.45L431.6469 329.23126L432.7563 329.23126L434.10004 332.95Q434.30316 333.5594 434.49066 334.2Q434.6313 333.71564 434.8813 333.02814L436.2719 329.23126L437.35004 329.23126L434.99066 335.45L434.0063 335.45ZM440.9594 335.45L439.91254 335.45L439.91254 328.73126Q439.5219 329.09064 438.8969 329.46564Q438.28754 329.825 437.80316 329.9969L437.80316 328.98126Q438.67816 328.5594 439.3344 327.98126Q440.0063 327.3875 440.28754 326.825L440.9594 326.825L440.9594 335.45ZM446.49066 334.0594L446.49066 331.7L444.16254 331.7L444.16254 330.71564L446.49066 330.71564L446.49066 328.3875L447.49066 328.3875L447.49066 330.71564L449.8344 330.71564L449.8344 331.7L447.49066 331.7L447.49066 334.0594L446.49066 334.0594Z" fill-rule="nonzero"/><path fill="#000000" d="M403.03754 346.6844L404.10004 346.59064Q404.17816 347.2469 404.4594 347.65314Q404.74066 348.0594 405.3188 348.325Q405.91254 348.575 406.6469 348.575Q407.28754 348.575 407.78754 348.3875Q408.28754 348.1844 408.5219 347.85626Q408.7719 347.5125 408.7719 347.1219Q408.7719 346.71564 408.53754 346.41876Q408.30316 346.10626 407.7719 345.90314Q407.41254 345.7625 406.22504 345.48126Q405.05316 345.2 404.5844 344.95Q403.9594 344.6219 403.66254 344.15314Q403.36566 343.66876 403.36566 343.075Q403.36566 342.4344 403.72504 341.8719Q404.10004 341.29376 404.80316 341.0125Q405.5219 340.71564 406.3813 340.71564Q407.3344 340.71564 408.0688 341.02814Q408.80316 341.325 409.1938 341.9344Q409.5844 342.52814 409.61566 343.27814L408.5219 343.35626Q408.42816 342.54376 407.91254 342.1375Q407.41254 341.71564 406.42816 341.71564Q405.3969 341.71564 404.92816 342.09064Q404.4594 342.46564 404.4594 342.9969Q404.4594 343.46564 404.78754 343.7625Q405.11566 344.0594 406.49066 344.3719Q407.8813 344.6844 408.3969 344.91876Q409.1469 345.27814 409.5063 345.8094Q409.86566 346.325 409.86566 347.02814Q409.86566 347.71564 409.47504 348.325Q409.0844 348.91876 408.35004 349.2625Q407.61566 349.59064 406.6938 349.59064Q405.5219 349.59064 404.72504 349.2625Q403.9438 348.91876 403.49066 348.23126Q403.05316 347.54376 403.03754 346.6844ZM411.41254 349.45L411.41254 340.85626L414.3813 340.85626Q415.3813 340.85626 415.91254 340.98126Q416.6469 341.15314 417.16254 341.59064Q417.85004 342.16876 418.17816 343.075Q418.5219 343.96564 418.5219 345.10626Q418.5219 346.09064 418.28754 346.84064Q418.0688 347.59064 417.7094 348.09064Q417.35004 348.59064 416.91254 348.8719Q416.49066 349.15314 415.8969 349.3094Q415.30316 349.45 414.5219 349.45L411.41254 349.45ZM412.55316 348.4344L414.3813 348.4344Q415.24066 348.4344 415.72504 348.27814Q416.2094 348.1219 416.49066 347.825Q416.8969 347.4344 417.11566 346.7469Q417.35004 346.0594 417.35004 345.09064Q417.35004 343.7469 416.8969 343.02814Q416.4594 342.29376 415.8344 342.04376Q415.36566 341.8719 414.36566 341.8719L412.55316 341.8719L412.55316 348.4344ZM420.0688 345.2625Q420.0688 343.1219 421.2094 341.91876Q422.36566 340.7 424.17816 340.7Q425.3813 340.7 426.3344 341.27814Q427.28754 341.84064 427.78754 342.85626Q428.28754 343.8719 428.28754 345.16876Q428.28754 346.46564 427.7563 347.4969Q427.22504 348.52814 426.2563 349.0594Q425.30316 349.59064 424.17816 349.59064Q422.9594 349.59064 422.0063 349.0125Q421.05316 348.41876 420.55316 347.41876Q420.0688 346.40314 420.0688 345.2625ZM421.24066 345.27814Q421.24066 346.84064 422.0688 347.73126Q422.91254 348.6219 424.17816 348.6219Q425.4594 348.6219 426.28754 347.73126Q427.11566 346.825 427.11566 345.15314Q427.11566 344.10626 426.7563 343.325Q426.41254 342.54376 425.72504 342.1219Q425.03754 341.6844 424.1938 341.6844Q422.99066 341.6844 422.11566 342.5125Q421.24066 343.34064 421.24066 345.27814ZM431.60004 349.45L431.60004 341.8719L428.7719 341.8719L428.7719 340.85626L435.5844 340.85626L435.5844 341.8719L432.74066 341.8719L432.74066 349.45L431.60004 349.45Z" fill-rule="nonzero"/><path fill="#000000" d="M485.4657 335.45L485.4657 326.85626L491.26257 326.85626L491.26257 327.8719L486.60632 327.8719L486.60632 330.52814L490.63757 330.52814L490.63757 331.54376L486.60632 331.54376L486.60632 335.45L485.4657 335.45ZM492.05945 331.2625Q492.05945 329.1219 493.20007 327.91876Q494.35632 326.7 496.16882 326.7Q497.37195 326.7 498.32507 327.27814Q499.2782 327.84064 499.7782 328.85626Q500.2782 329.8719 500.2782 331.16876Q500.2782 332.46564 499.74695 333.4969Q499.2157 334.52814 498.24695 335.0594Q497.29382 335.59064 496.16882 335.59064Q494.95007 335.59064 493.99695 335.0125Q493.04382 334.41876 492.54382 333.41876Q492.05945 332.40314 492.05945 331.2625ZM493.23132 331.27814Q493.23132 332.84064 494.05945 333.73126Q494.9032 334.6219 496.16882 334.6219Q497.45007 334.6219 498.2782 333.73126Q499.10632 332.825 499.10632 331.15314Q499.10632 330.10626 498.74695 329.325Q498.4032 328.54376 497.7157 328.1219Q497.0282 327.6844 496.18445 327.6844Q494.98132 327.6844 494.10632 328.5125Q493.23132 329.34064 493.23132 331.27814ZM501.41882 335.45L501.41882 326.85626L505.23132 326.85626Q506.38757 326.85626 506.98132 327.09064Q507.57507 327.325 507.93445 327.91876Q508.29382 328.4969 508.29382 329.2Q508.29382 330.1219 507.70007 330.7469Q507.10632 331.3719 505.87195 331.54376Q506.32507 331.7625 506.55945 331.96564Q507.05945 332.41876 507.49695 333.10626L508.99695 335.45L507.55945 335.45L506.43445 333.66876Q505.93445 332.8875 505.60632 332.48126Q505.29382 332.075 505.0282 331.91876Q504.7782 331.7469 504.51257 331.66876Q504.32507 331.6375 503.88757 331.6375L502.55945 331.6375L502.55945 335.45L501.41882 335.45ZM502.55945 330.65314L505.01257 330.65314Q505.7782 330.65314 506.2157 330.4969Q506.66882 330.325 506.88757 329.98126Q507.12195 329.6219 507.12195 329.2Q507.12195 328.59064 506.66882 328.2Q506.23132 327.8094 505.2782 327.8094L502.55945 327.8094L502.55945 330.65314ZM512.5907 335.45L512.5907 327.8719L509.76257 327.8719L509.76257 326.85626L516.5751 326.85626L516.5751 327.8719L513.7313 327.8719L513.7313 335.45L512.5907 335.45ZM517.4501 335.45L517.4501 326.85626L518.5751 326.85626L518.5751 330.3875L523.0438 330.3875L523.0438 326.85626L524.18445 326.85626L524.18445 335.45L523.0438 335.45L523.0438 331.40314L518.5751 331.40314L518.5751 335.45L517.4501 335.45ZM526.24695 335.45L526.24695 326.85626L527.30945 326.85626L527.30945 335.45L526.24695 335.45ZM530.99695 335.45L528.6376 329.23126L529.74695 329.23126L531.0907 332.95Q531.2938 333.5594 531.4813 334.2Q531.62195 333.71564 531.87195 333.02814L533.2626 329.23126L534.3407 329.23126L531.9813 335.45L530.99695 335.45ZM537.9501 335.45L536.9032 335.45L536.9032 328.73126Q536.5126 329.09064 535.8876 329.46564Q535.2782 329.825 534.7938 329.9969L534.7938 328.98126Q535.6688 328.5594 536.3251 327.98126Q536.99695 327.3875 537.2782 326.825L537.9501 326.825L537.9501 335.45ZM543.4813 334.0594L543.4813 331.7L541.1532 331.7L541.1532 330.71564L543.4813 330.71564L543.4813 328.3875L544.4813 328.3875L544.4813 330.71564L546.8251 330.71564L546.8251 331.7L544.4813 331.7L544.4813 334.0594L543.4813 334.0594Z" fill-rule="nonzero"/><path fill="#000000" d="M498.0282 346.6844L499.0907 346.59064Q499.16882 347.2469 499.45007 347.65314Q499.73132 348.0594 500.30945 348.325Q500.9032 348.575 501.63757 348.575Q502.2782 348.575 502.7782 348.3875Q503.2782 348.1844 503.51257 347.85626Q503.76257 347.5125 503.76257 347.1219Q503.76257 346.71564 503.5282 346.41876Q503.29382 346.10626 502.76257 345.90314Q502.4032 345.7625 501.2157 345.48126Q500.04382 345.2 499.57507 344.95Q498.95007 344.6219 498.6532 344.15314Q498.35632 343.66876 498.35632 343.075Q498.35632 342.4344 498.7157 341.8719Q499.0907 341.29376 499.79382 341.0125Q500.51257 340.71564 501.37195 340.71564Q502.32507 340.71564 503.05945 341.02814Q503.79382 341.325 504.18445 341.9344Q504.57507 342.52814 504.60632 343.27814L503.51257 343.35626Q503.41882 342.54376 502.9032 342.1375Q502.4032 341.71564 501.41882 341.71564Q500.38757 341.71564 499.91882 342.09064Q499.45007 342.46564 499.45007 342.9969Q499.45007 343.46564 499.7782 343.7625Q500.10632 344.0594 501.48132 344.3719Q502.87195 344.6844 503.38757 344.91876Q504.13757 345.27814 504.49695 345.8094Q504.85632 346.325 504.85632 347.02814Q504.85632 347.71564 504.4657 348.325Q504.07507 348.91876 503.3407 349.2625Q502.60632 349.59064 501.68445 349.59064Q500.51257 349.59064 499.7157 349.2625Q498.93445 348.91876 498.48132 348.23126Q498.04382 347.54376 498.0282 346.6844ZM505.4657 349.45L508.76257 340.85626L509.98132 340.85626L513.49695 349.45L512.2157 349.45L511.20007 346.84064L507.62195 346.84064L506.66882 349.45L505.4657 349.45ZM507.95007 345.91876L510.85632 345.91876L509.9657 343.54376Q509.54382 342.46564 509.35632 341.7625Q509.18445 342.59064 508.88757 343.40314L507.95007 345.91876ZM512.5282 349.45L515.8563 344.96564L512.93445 340.85626L514.2782 340.85626L515.8407 343.0594Q516.3251 343.7469 516.5282 344.1219Q516.8251 343.65314 517.2157 343.1375L518.93445 340.85626L520.1688 340.85626L517.1532 344.90314L520.4032 349.45L518.99695 349.45L516.8407 346.3875Q516.6532 346.1219 516.4657 345.8094Q516.18445 346.27814 516.05945 346.45L513.9032 349.45L512.5282 349.45ZM520.4032 349.45L520.4032 340.85626L523.6532 340.85626Q524.49695 340.85626 524.9501 340.9344Q525.5907 341.04376 526.0126 341.34064Q526.4501 341.6375 526.7001 342.16876Q526.9657 342.7 526.9657 343.34064Q526.9657 344.4344 526.2626 345.2Q525.5751 345.95 523.74695 345.95L521.5438 345.95L521.5438 349.45L520.4032 349.45ZM521.5438 344.95L523.7626 344.95Q524.87195 344.95 525.3251 344.54376Q525.7938 344.1219 525.7938 343.3719Q525.7938 342.84064 525.5126 342.46564Q525.24695 342.075 524.80945 341.95Q524.5126 341.8719 523.74695 341.8719L521.5438 341.8719L521.5438 344.95ZM530.8251 349.45L530.8251 345.8094L527.5126 340.85626L528.9032 340.85626L530.5907 343.45Q531.05945 344.16876 531.4657 344.90314Q531.8563 344.23126 532.4032 343.3875L534.0751 340.85626L535.3876 340.85626L531.9657 345.8094L531.9657 349.45L530.8251 349.45Z" fill-rule="nonzero"/><path fill="#9900ff" d="M19.45625 32.95625L21.2375 32.8Q21.3625 33.8625 21.815624 34.55Q22.284374 35.2375 23.253124 35.675Q24.2375 36.096874 25.471874 36.096874Q26.55 36.096874 27.378124 35.784374Q28.20625 35.45625 28.6125 34.89375Q29.01875 34.33125 29.01875 33.659374Q29.01875 32.9875 28.628124 32.4875Q28.2375 31.9875 27.346874 31.64375Q26.76875 31.409374 24.784374 30.940624Q22.815624 30.471874 22.034374 30.05Q21.003124 29.51875 20.503124 28.721874Q20.003124 27.925 20.003124 26.940624Q20.003124 25.846874 20.6125 24.909374Q21.221874 23.971874 22.409374 23.4875Q23.596874 22.9875 25.034374 22.9875Q26.628124 22.9875 27.846874 23.503124Q29.065624 24.01875 29.70625 25.01875Q30.3625 26.003124 30.409374 27.26875L28.596874 27.409374Q28.45625 26.05 27.6125 25.3625Q26.76875 24.659374 25.1125 24.659374Q23.39375 24.659374 22.596874 25.3Q21.815624 25.925 21.815624 26.8Q21.815624 27.58125 22.378124 28.08125Q22.925 28.58125 25.2375 29.096874Q27.55 29.6125 28.409374 30.003124Q29.659374 30.58125 30.253124 31.471874Q30.846874 32.346874 30.846874 33.503124Q30.846874 34.64375 30.190624 35.659374Q29.534374 36.675 28.3 37.2375Q27.08125 37.8 25.55 37.8Q23.6125 37.8 22.3 37.2375Q20.9875 36.659374 20.2375 35.51875Q19.4875 34.378124 19.45625 32.95625ZM39.8 31.940624L39.8 30.253124L45.8625 30.2375L45.8625 35.55Q44.45625 36.675 42.971874 37.2375Q41.4875 37.8 39.925 37.8Q37.815624 37.8 36.096874 36.89375Q34.378124 35.9875 33.4875 34.284374Q32.6125 32.565624 32.6125 30.45625Q32.6125 28.3625 33.4875 26.565624Q34.3625 24.753124 36.003124 23.878124Q37.64375 22.9875 39.784374 22.9875Q41.33125 22.9875 42.58125 23.4875Q43.846874 23.9875 44.55 24.89375Q45.26875 25.784374 45.64375 27.2375L43.940624 27.70625Q43.6125 26.6125 43.128124 25.9875Q42.659374 25.3625 41.76875 24.9875Q40.878124 24.6125 39.8 24.6125Q38.4875 24.6125 37.534374 25.003124Q36.596874 25.39375 36.01875 26.05Q35.440624 26.690624 35.1125 27.45625Q34.565624 28.784374 34.565624 30.346874Q34.565624 32.253124 35.221874 33.55Q35.89375 34.83125 37.14375 35.45625Q38.409374 36.08125 39.815624 36.08125Q41.05 36.08125 42.221874 35.6125Q43.39375 35.14375 44.003124 34.596874L44.003124 31.940624L39.8 31.940624ZM49.128124 37.55L49.128124 23.2375L59.4875 23.2375L59.4875 24.925L51.034374 24.925L51.034374 29.3L58.940624 29.3L58.940624 30.9875L51.034374 30.9875L51.034374 35.8625L59.815624 35.8625L59.815624 37.55L49.128124 37.55ZM62.034374 37.55L62.034374 23.2375L64.89375 23.2375L68.26875 33.3625Q68.7375 34.784374 68.95625 35.4875Q69.20625 34.70625 69.72188 33.190624L73.14375 23.2375L75.69063 23.2375L75.69063 37.55L73.87813 37.55L73.87813 25.565624L69.70625 37.55L68.00313 37.55L63.8625 25.3625L63.8625 37.55L62.034374 37.55ZM83.19063 37.55L77.64375 23.2375L79.69063 23.2375L83.40938 33.628124Q83.8625 34.878124 84.15938 35.971874Q84.4875 34.8 84.94063 33.628124L88.8 23.2375L90.7375 23.2375L85.12813 37.55L83.19063 37.55Z" fill-rule="nonzero"/></svg>