<svg version="1.1" viewBox="0.0 0.0 600.0 371.0" fill="none" stroke="none" stroke-linecap="square" stroke-miterlimit="10" width="600" height="371" xmlns:xlink="http://www.w3.org/1999/xlink" xmlns="http://www.w3.org/2000/svg"><path fill="#ffffff" d="M0 0L600.0 0L600.0 371.0L0 371.0L0 0Z" fill-rule="nonzero"/><path stroke="#333333" stroke-width="1.0" stroke-linecap="butt" d="M62.5 318.5L581.5 318.5" fill-rule="nonzero"/><path stroke="#cccccc" stroke-width="1.0" stroke-linecap="butt" d="M62.5 275.5L581.5 275.5" fill-rule="nonzero"/><path stroke="#cccccc" stroke-width="1.0" stroke-linecap="butt" d="M62.5 232.5L581.5 232.5" fill-rule="nonzero"/><path stroke="#cccccc" stroke-width="1.0" stroke-linecap="butt" d="M62.5 190.5L581.5 190.5" fill-rule="nonzero"/><path stroke="#cccccc" stroke-width="1.0" stroke-linecap="butt" d="M62.5 147.5L581.5 147.5" fill-rule="nonzero"/><path stroke="#cccccc" stroke-width="1.0" stroke-linecap="butt" d="M62.5 104.5L581.5 104.5" fill-rule="nonzero"/><path stroke="#cccccc" stroke-width="1.0" stroke-linecap="butt" d="M62.5 61.5L581.5 61.5" fill-rule="nonzero"/><path stroke="#e6e6e6" stroke-width="1.0" stroke-linecap="butt" d="M62.5 309.5L581.5 309.5" fill-rule="nonzero"/><path stroke="#e6e6e6" stroke-width="1.0" stroke-linecap="butt" d="M62.5 301.5L581.5 301.5" fill-rule="nonzero"/><path stroke="#e6e6e6" stroke-width="1.0" stroke-linecap="butt" d="M62.5 292.5L581.5 292.5" fill-rule="nonzero"/><path stroke="#e6e6e6" stroke-width="1.0" stroke-linecap="butt" d="M62.5 284.5L581.5 284.5" fill-rule="nonzero"/><path stroke="#e6e6e6" stroke-width="1.0" stroke-linecap="butt" d="M62.5 267.5L581.5 267.5" fill-rule="nonzero"/><path stroke="#e6e6e6" stroke-width="1.0" stroke-linecap="butt" d="M62.5 258.5L581.5 258.5" fill-rule="nonzero"/><path stroke="#e6e6e6" stroke-width="1.0" stroke-linecap="butt" d="M62.5 250.5L581.5 250.5" fill-rule="nonzero"/><path stroke="#e6e6e6" stroke-width="1.0" stroke-linecap="butt" d="M62.5 241.5L581.5 241.5" fill-rule="nonzero"/><path stroke="#e6e6e6" stroke-width="1.0" stroke-linecap="butt" d="M62.5 224.5L581.5 224.5" fill-rule="nonzero"/><path stroke="#e6e6e6" stroke-width="1.0" stroke-linecap="butt" d="M62.5 215.5L581.5 215.5" fill-rule="nonzero"/><path stroke="#e6e6e6" stroke-width="1.0" stroke-linecap="butt" d="M62.5 207.5L581.5 207.5" fill-rule="nonzero"/><path stroke="#e6e6e6" stroke-width="1.0" stroke-linecap="butt" d="M62.5 198.5L581.5 198.5" fill-rule="nonzero"/><path stroke="#e6e6e6" stroke-width="1.0" stroke-linecap="butt" d="M62.5 181.5L581.5 181.5" fill-rule="nonzero"/><path stroke="#e6e6e6" stroke-width="1.0" stroke-linecap="butt" d="M62.5 173.5L581.5 173.5" fill-rule="nonzero"/><path stroke="#e6e6e6" stroke-width="1.0" stroke-linecap="butt" d="M62.5 164.5L581.5 164.5" fill-rule="nonzero"/><path stroke="#e6e6e6" stroke-width="1.0" stroke-linecap="butt" d="M62.5 155.5L581.5 155.5" fill-rule="nonzero"/><path stroke="#e6e6e6" stroke-width="1.0" stroke-linecap="butt" d="M62.5 138.5L581.5 138.5" fill-rule="nonzero"/><path stroke="#e6e6e6" stroke-width="1.0" stroke-linecap="butt" d="M62.5 130.5L581.5 130.5" fill-rule="nonzero"/><path stroke="#e6e6e6" stroke-width="1.0" stroke-linecap="butt" d="M62.5 121.5L581.5 121.5" fill-rule="nonzero"/><path stroke="#e6e6e6" stroke-width="1.0" stroke-linecap="butt" d="M62.5 113.5L581.5 113.5" fill-rule="nonzero"/><path stroke="#e6e6e6" stroke-width="1.0" stroke-linecap="butt" d="M62.5 96.5L581.5 96.5" fill-rule="nonzero"/><path stroke="#e6e6e6" stroke-width="1.0" stroke-linecap="butt" d="M62.5 87.5L581.5 87.5" fill-rule="nonzero"/><path stroke="#e6e6e6" stroke-width="1.0" stroke-linecap="butt" d="M62.5 79.5L581.5 79.5" fill-rule="nonzero"/><path stroke="#e6e6e6" stroke-width="1.0" stroke-linecap="butt" d="M62.5 70.5L581.5 70.5" fill-rule="nonzero"/><clipPath id="id_0"><path d="M62.55 61.916668L581.45 61.916668L581.45 318.45L62.55 318.45L62.55 61.916668Z" clip-rule="nonzero"/></clipPath><path stroke="#000000" stroke-width="2.0" stroke-linecap="butt" stroke-opacity="0.0" clip-path="url(#id_0)" d="M145.0 318.0L92.0 318.0L92.0 312.0C92.0 310.89542 92.89543 310.0 94.0 310.0L143.0 310.0C144.10457 310.0 145.0 310.89542 145.0 312.0Z" fill-rule="nonzero"/><path fill="#9900ff" clip-path="url(#id_0)" d="M145.0 318.0L92.0 318.0L92.0 312.0C92.0 310.89542 92.89543 310.0 94.0 310.0L143.0 310.0C144.10457 310.0 145.0 310.89542 145.0 312.0Z" fill-rule="nonzero"/><path stroke="#000000" stroke-width="2.0" stroke-linecap="butt" stroke-opacity="0.0" clip-path="url(#id_0)" d="M226.0 318.0L173.0 318.0L173.0 300.0C173.0 298.89542 173.89543 298.0 175.0 298.0L224.0 298.0C225.10457 298.0 226.0 298.89542 226.0 300.0Z" fill-rule="nonzero"/><path fill="#9900ff" clip-path="url(#id_0)" d="M226.0 318.0L173.0 318.0L173.0 300.0C173.0 298.89542 173.89543 298.0 175.0 298.0L224.0 298.0C225.10457 298.0 226.0 298.89542 226.0 300.0Z" fill-rule="nonzero"/><path stroke="#000000" stroke-width="2.0" stroke-linecap="butt" stroke-opacity="0.0" clip-path="url(#id_0)" d="M308.0 318.0L255.0 318.0L255.0 299.0C255.0 297.89542 255.89543 297.0 257.0 297.0L306.0 297.0C307.10458 297.0 308.0 297.89542 308.0 299.0Z" fill-rule="nonzero"/><path fill="#9900ff" clip-path="url(#id_0)" d="M308.0 318.0L255.0 318.0L255.0 299.0C255.0 297.89542 255.89543 297.0 257.0 297.0L306.0 297.0C307.10458 297.0 308.0 297.89542 308.0 299.0Z" fill-rule="nonzero"/><path stroke="#000000" stroke-width="2.0" stroke-linecap="butt" stroke-opacity="0.0" clip-path="url(#id_0)" d="M390.0 318.0L337.0 318.0L337.0 294.0C337.0 292.89542 337.89542 292.0 339.0 292.0L388.0 292.0C389.10458 292.0 390.0 292.89542 390.0 294.0Z" fill-rule="nonzero"/><path fill="#9900ff" clip-path="url(#id_0)" d="M390.0 318.0L337.0 318.0L337.0 294.0C337.0 292.89542 337.89542 292.0 339.0 292.0L388.0 292.0C389.10458 292.0 390.0 292.89542 390.0 294.0Z" fill-rule="nonzero"/><path stroke="#000000" stroke-width="2.0" stroke-linecap="butt" stroke-opacity="0.0" clip-path="url(#id_0)" d="M472.0 318.0L419.0 318.0L419.0 117.0C419.0 115.89543 419.89542 115.0 421.0 115.0L470.0 115.0C471.10458 115.0 472.0 115.89543 472.0 117.0Z" fill-rule="nonzero"/><path fill="#9900ff" clip-path="url(#id_0)" d="M472.0 318.0L419.0 318.0L419.0 117.0C419.0 115.89543 419.89542 115.0 421.0 115.0L470.0 115.0C471.10458 115.0 472.0 115.89543 472.0 117.0Z" fill-rule="nonzero"/><path stroke="#000000" stroke-width="2.0" stroke-linecap="butt" stroke-opacity="0.0" clip-path="url(#id_0)" d="M553.0 318.0L500.0 318.0L500.0 82.0C500.0 80.89543 500.89542 80.0 502.0 80.0L551.0 80.0C552.10455 80.0 553.0 80.89543 553.0 82.0Z" fill-rule="nonzero"/><path fill="#9900ff" clip-path="url(#id_0)" d="M553.0 318.0L500.0 318.0L500.0 82.0C500.0 80.89543 500.89542 80.0 502.0 80.0L551.0 80.0C552.10455 80.0 553.0 80.89543 553.0 82.0Z" fill-rule="nonzero"/><path fill="#000000" d="M26.05 318.21564Q26.05 316.6844 26.3625 315.7625Q26.675 314.825 27.284374 314.325Q27.909374 313.825 28.846874 313.825Q29.534374 313.825 30.05 314.10626Q30.58125 314.3875 30.925 314.91876Q31.26875 315.4344 31.45625 316.1844Q31.64375 316.9344 31.64375 318.21564Q31.64375 319.73126 31.33125 320.65314Q31.034374 321.575 30.409374 322.09064Q29.8 322.59064 28.846874 322.59064Q27.6125 322.59064 26.89375 321.7Q26.05 320.6375 26.05 318.21564ZM27.128124 318.21564Q27.128124 320.325 27.628124 321.02814Q28.128124 321.73126 28.846874 321.73126Q29.58125 321.73126 30.065624 321.02814Q30.565624 320.325 30.565624 318.21564Q30.565624 316.09064 30.065624 315.40314Q29.58125 314.7 28.83125 314.7Q28.1125 314.7 27.675 315.3094Q27.128124 316.09064 27.128124 318.21564ZM33.64375 322.45L33.64375 321.2469L34.846874 321.2469L34.846874 322.45L33.64375 322.45ZM36.05 318.21564Q36.05 316.6844 36.3625 315.7625Q36.675 314.825 37.284374 314.325Q37.909374 313.825 38.846874 313.825Q39.534374 313.825 40.05 314.10626Q40.58125 314.3875 40.925 314.91876Q41.26875 315.4344 41.45625 316.1844Q41.64375 316.9344 41.64375 318.21564Q41.64375 319.73126 41.33125 320.65314Q41.034374 321.575 40.409374 322.09064Q39.8 322.59064 38.846874 322.59064Q37.6125 322.59064 36.89375 321.7Q36.05 320.6375 36.05 318.21564ZM37.128124 318.21564Q37.128124 320.325 37.628124 321.02814Q38.128124 321.73126 38.846874 321.73126Q39.58125 321.73126 40.065624 321.02814Q40.565624 320.325 40.565624 318.21564Q40.565624 316.09064 40.065624 315.40314Q39.58125 314.7 38.83125 314.7Q38.1125 314.7 37.675 315.3094Q37.128124 316.09064 37.128124 318.21564ZM43.05 318.21564Q43.05 316.6844 43.3625 315.7625Q43.675 314.825 44.284374 314.325Q44.909374 313.825 45.846874 313.825Q46.534374 313.825 47.05 314.10626Q47.58125 314.3875 47.925 314.91876Q48.26875 315.4344 48.45625 316.1844Q48.64375 316.9344 48.64375 318.21564Q48.64375 319.73126 48.33125 320.65314Q48.034374 321.575 47.409374 322.09064Q46.8 322.59064 45.846874 322.59064Q44.6125 322.59064 43.89375 321.7Q43.05 320.6375 43.05 318.21564ZM44.128124 318.21564Q44.128124 320.325 44.628124 321.02814Q45.128124 321.73126 45.846874 321.73126Q46.58125 321.73126 47.065624 321.02814Q47.565624 320.325 47.565624 318.21564Q47.565624 316.09064 47.065624 315.40314Q46.58125 314.7 45.83125 314.7Q45.1125 314.7 44.675 315.3094Q44.128124 316.09064 44.128124 318.21564ZM50.05 318.21564Q50.05 316.6844 50.3625 315.7625Q50.675 314.825 51.284374 314.325Q51.909374 313.825 52.846874 313.825Q53.534374 313.825 54.05 314.10626Q54.58125 314.3875 54.925 314.91876Q55.26875 315.4344 55.45625 316.1844Q55.64375 316.9344 55.64375 318.21564Q55.64375 319.73126 55.33125 320.65314Q55.034374 321.575 54.409374 322.09064Q53.8 322.59064 52.846874 322.59064Q51.6125 322.59064 50.89375 321.7Q50.05 320.6375 50.05 318.21564ZM51.128124 318.21564Q51.128124 320.325 51.628124 321.02814Q52.128124 321.73126 52.846874 321.73126Q53.58125 321.73126 54.065624 321.02814Q54.565624 320.325 54.565624 318.21564Q54.565624 316.09064 54.065624 315.40314Q53.58125 314.7 52.83125 314.7Q52.1125 314.7 51.675 315.3094Q51.128124 316.09064 51.128124 318.21564Z" fill-rule="nonzero"/><path fill="#000000" d="M26.05 277.44446L27.159374 277.3507Q27.284374 278.1632 27.721874 278.56946Q28.175 278.9757 28.815624 278.9757Q29.565624 278.9757 30.096874 278.39758Q30.628124 277.81946 30.628124 276.88196Q30.628124 275.9757 30.1125 275.46008Q29.6125 274.92883 28.784374 274.92883Q28.284374 274.92883 27.8625 275.1632Q27.45625 275.39758 27.221874 275.75696L26.2375 275.63196L27.065624 271.2257L31.346874 271.2257L31.346874 272.2257L27.909374 272.2257L27.45625 274.5382Q28.221874 273.99133 29.065624 273.99133Q30.190624 273.99133 30.95625 274.77258Q31.7375 275.55383 31.7375 276.7882Q31.7375 277.94446 31.065624 278.80383Q30.2375 279.83508 28.815624 279.83508Q27.64375 279.83508 26.89375 279.17883Q26.159374 278.52258 26.05 277.44446ZM33.64375 279.69446L33.64375 278.49133L34.846874 278.49133L34.846874 279.69446L33.64375 279.69446ZM36.05 275.46008Q36.05 273.92883 36.3625 273.00696Q36.675 272.06946 37.284374 271.56946Q37.909374 271.06946 38.846874 271.06946Q39.534374 271.06946 40.05 271.3507Q40.58125 271.63196 40.925 272.1632Q41.26875 272.67883 41.45625 273.42883Q41.64375 274.17883 41.64375 275.46008Q41.64375 276.9757 41.33125 277.89758Q41.034374 278.81946 40.409374 279.33508Q39.8 279.83508 38.846874 279.83508Q37.6125 279.83508 36.89375 278.94446Q36.05 277.88196 36.05 275.46008ZM37.128124 275.46008Q37.128124 277.56946 37.628124 278.27258Q38.128124 278.9757 38.846874 278.9757Q39.58125 278.9757 40.065624 278.27258Q40.565624 277.56946 40.565624 275.46008Q40.565624 273.33508 40.065624 272.64758Q39.58125 271.94446 38.83125 271.94446Q38.1125 271.94446 37.675 272.55383Q37.128124 273.33508 37.128124 275.46008ZM43.05 275.46008Q43.05 273.92883 43.3625 273.00696Q43.675 272.06946 44.284374 271.56946Q44.909374 271.06946 45.846874 271.06946Q46.534374 271.06946 47.05 271.3507Q47.58125 271.63196 47.925 272.1632Q48.26875 272.67883 48.45625 273.42883Q48.64375 274.17883 48.64375 275.46008Q48.64375 276.9757 48.33125 277.89758Q48.034374 278.81946 47.409374 279.33508Q46.8 279.83508 45.846874 279.83508Q44.6125 279.83508 43.89375 278.94446Q43.05 277.88196 43.05 275.46008ZM44.128124 275.46008Q44.128124 277.56946 44.628124 278.27258Q45.128124 278.9757 45.846874 278.9757Q46.58125 278.9757 47.065624 278.27258Q47.565624 277.56946 47.565624 275.46008Q47.565624 273.33508 47.065624 272.64758Q46.58125 271.94446 45.83125 271.94446Q45.1125 271.94446 44.675 272.55383Q44.128124 273.33508 44.128124 275.46008ZM50.05 275.46008Q50.05 273.92883 50.3625 273.00696Q50.675 272.06946 51.284374 271.56946Q51.909374 271.06946 52.846874 271.06946Q53.534374 271.06946 54.05 271.3507Q54.58125 271.63196 54.925 272.1632Q55.26875 272.67883 55.45625 273.42883Q55.64375 274.17883 55.64375 275.46008Q55.64375 276.9757 55.33125 277.89758Q55.034374 278.81946 54.409374 279.33508Q53.8 279.83508 52.846874 279.83508Q51.6125 279.83508 50.89375 278.94446Q50.05 277.88196 50.05 275.46008ZM51.128124 275.46008Q51.128124 277.56946 51.628124 278.27258Q52.128124 278.9757 52.846874 278.9757Q53.58125 278.9757 54.065624 278.27258Q54.565624 277.56946 54.565624 275.46008Q54.565624 273.33508 54.065624 272.64758Q53.58125 271.94446 52.83125 271.94446Q52.1125 271.94446 51.675 272.55383Q51.128124 273.33508 51.128124 275.46008Z" fill-rule="nonzero"/><path fill="#000000" d="M23.01875 236.93889L21.971874 236.93889L21.971874 230.22014Q21.58125 230.57951 20.95625 230.95451Q20.346874 231.31389 19.8625 231.48576L19.8625 230.47014Q20.7375 230.04826 21.39375 229.47014Q22.065624 228.87639 22.346874 228.31389L23.01875 228.31389L23.01875 236.93889ZM26.05 232.70451Q26.05 231.17326 26.3625 230.25139Q26.675 229.31389 27.284374 228.81389Q27.909374 228.31389 28.846874 228.31389Q29.534374 228.31389 30.05 228.59514Q30.58125 228.87639 30.925 229.40764Q31.26875 229.92326 31.45625 230.67326Q31.64375 231.42326 31.64375 232.70451Q31.64375 234.22014 31.33125 235.14201Q31.034374 236.06389 30.409374 236.57951Q29.8 237.07951 28.846874 237.07951Q27.6125 237.07951 26.89375 236.18889Q26.05 235.12639 26.05 232.70451ZM27.128124 232.70451Q27.128124 234.81389 27.628124 235.51701Q28.128124 236.22014 28.846874 236.22014Q29.58125 236.22014 30.065624 235.51701Q30.565624 234.81389 30.565624 232.70451Q30.565624 230.57951 30.065624 229.89201Q29.58125 229.18889 28.83125 229.18889Q28.1125 229.18889 27.675 229.79826Q27.128124 230.57951 27.128124 232.70451ZM33.64375 236.93889L33.64375 235.73576L34.846874 235.73576L34.846874 236.93889L33.64375 236.93889ZM36.05 232.70451Q36.05 231.17326 36.3625 230.25139Q36.675 229.31389 37.284374 228.81389Q37.909374 228.31389 38.846874 228.31389Q39.534374 228.31389 40.05 228.59514Q40.58125 228.87639 40.925 229.40764Q41.26875 229.92326 41.45625 230.67326Q41.64375 231.42326 41.64375 232.70451Q41.64375 234.22014 41.33125 235.14201Q41.034374 236.06389 40.409374 236.57951Q39.8 237.07951 38.846874 237.07951Q37.6125 237.07951 36.89375 236.18889Q36.05 235.12639 36.05 232.70451ZM37.128124 232.70451Q37.128124 234.81389 37.628124 235.51701Q38.128124 236.22014 38.846874 236.22014Q39.58125 236.22014 40.065624 235.51701Q40.565624 234.81389 40.565624 232.70451Q40.565624 230.57951 40.065624 229.89201Q39.58125 229.18889 38.83125 229.18889Q38.1125 229.18889 37.675 229.79826Q37.128124 230.57951 37.128124 232.70451ZM43.05 232.70451Q43.05 231.17326 43.3625 230.25139Q43.675 229.31389 44.284374 228.81389Q44.909374 228.31389 45.846874 228.31389Q46.534374 228.31389 47.05 228.59514Q47.58125 228.87639 47.925 229.40764Q48.26875 229.92326 48.45625 230.67326Q48.64375 231.42326 48.64375 232.70451Q48.64375 234.22014 48.33125 235.14201Q48.034374 236.06389 47.409374 236.57951Q46.8 237.07951 45.846874 237.07951Q44.6125 237.07951 43.89375 236.18889Q43.05 235.12639 43.05 232.70451ZM44.128124 232.70451Q44.128124 234.81389 44.628124 235.51701Q45.128124 236.22014 45.846874 236.22014Q46.58125 236.22014 47.065624 235.51701Q47.565624 234.81389 47.565624 232.70451Q47.565624 230.57951 47.065624 229.89201Q46.58125 229.18889 45.83125 229.18889Q45.1125 229.18889 44.675 229.79826Q44.128124 230.57951 44.128124 232.70451ZM50.05 232.70451Q50.05 231.17326 50.3625 230.25139Q50.675 229.31389 51.284374 228.81389Q51.909374 228.31389 52.846874 228.31389Q53.534374 228.31389 54.05 228.59514Q54.58125 228.87639 54.925 229.40764Q55.26875 229.92326 55.45625 230.67326Q55.64375 231.42326 55.64375 232.70451Q55.64375 234.22014 55.33125 235.14201Q55.034374 236.06389 54.409374 236.57951Q53.8 237.07951 52.846874 237.07951Q51.6125 237.07951 50.89375 236.18889Q50.05 235.12639 50.05 232.70451ZM51.128124 232.70451Q51.128124 234.81389 51.628124 235.51701Q52.128124 236.22014 52.846874 236.22014Q53.58125 236.22014 54.065624 235.51701Q54.565624 234.81389 54.565624 232.70451Q54.565624 230.57951 54.065624 229.89201Q53.58125 229.18889 52.83125 229.18889Q52.1125 229.18889 51.675 229.79826Q51.128124 230.57951 51.128124 232.70451Z" fill-rule="nonzero"/><path fill="#000000" d="M23.01875 194.18333L21.971874 194.18333L21.971874 187.46458Q21.58125 187.82396 20.95625 188.19896Q20.346874 188.55833 19.8625 188.73021L19.8625 187.71458Q20.7375 187.29271 21.39375 186.71458Q22.065624 186.12083 22.346874 185.55833L23.01875 185.55833L23.01875 194.18333ZM26.05 191.93333L27.159374 191.83958Q27.284374 192.65208 27.721874 193.05833Q28.175 193.46458 28.815624 193.46458Q29.565624 193.46458 30.096874 192.88646Q30.628124 192.30833 30.628124 191.37083Q30.628124 190.46458 30.1125 189.94896Q29.6125 189.41771 28.784374 189.41771Q28.284374 189.41771 27.8625 189.65208Q27.45625 189.88646 27.221874 190.24583L26.2375 190.12083L27.065624 185.71458L31.346874 185.71458L31.346874 186.71458L27.909374 186.71458L27.45625 189.02708Q28.221874 188.48021 29.065624 188.48021Q30.190624 188.48021 30.95625 189.26146Q31.7375 190.04271 31.7375 191.27708Q31.7375 192.43333 31.065624 193.29271Q30.2375 194.32396 28.815624 194.32396Q27.64375 194.32396 26.89375 193.66771Q26.159374 193.01146 26.05 191.93333ZM33.64375 194.18333L33.64375 192.98021L34.846874 192.98021L34.846874 194.18333L33.64375 194.18333ZM36.05 189.94896Q36.05 188.41771 36.3625 187.49583Q36.675 186.55833 37.284374 186.05833Q37.909374 185.55833 38.846874 185.55833Q39.534374 185.55833 40.05 185.83958Q40.58125 186.12083 40.925 186.65208Q41.26875 187.16771 41.45625 187.91771Q41.64375 188.66771 41.64375 189.94896Q41.64375 191.46458 41.33125 192.38646Q41.034374 193.30833 40.409374 193.82396Q39.8 194.32396 38.846874 194.32396Q37.6125 194.32396 36.89375 193.43333Q36.05 192.37083 36.05 189.94896ZM37.128124 189.94896Q37.128124 192.05833 37.628124 192.76146Q38.128124 193.46458 38.846874 193.46458Q39.58125 193.46458 40.065624 192.76146Q40.565624 192.05833 40.565624 189.94896Q40.565624 187.82396 40.065624 187.13646Q39.58125 186.43333 38.83125 186.43333Q38.1125 186.43333 37.675 187.04271Q37.128124 187.82396 37.128124 189.94896ZM43.05 189.94896Q43.05 188.41771 43.3625 187.49583Q43.675 186.55833 44.284374 186.05833Q44.909374 185.55833 45.846874 185.55833Q46.534374 185.55833 47.05 185.83958Q47.58125 186.12083 47.925 186.65208Q48.26875 187.16771 48.45625 187.91771Q48.64375 188.66771 48.64375 189.94896Q48.64375 191.46458 48.33125 192.38646Q48.034374 193.30833 47.409374 193.82396Q46.8 194.32396 45.846874 194.32396Q44.6125 194.32396 43.89375 193.43333Q43.05 192.37083 43.05 189.94896ZM44.128124 189.94896Q44.128124 192.05833 44.628124 192.76146Q45.128124 193.46458 45.846874 193.46458Q46.58125 193.46458 47.065624 192.76146Q47.565624 192.05833 47.565624 189.94896Q47.565624 187.82396 47.065624 187.13646Q46.58125 186.43333 45.83125 186.43333Q45.1125 186.43333 44.675 187.04271Q44.128124 187.82396 44.128124 189.94896ZM50.05 189.94896Q50.05 188.41771 50.3625 187.49583Q50.675 186.55833 51.284374 186.05833Q51.909374 185.55833 52.846874 185.55833Q53.534374 185.55833 54.05 185.83958Q54.58125 186.12083 54.925 186.65208Q55.26875 187.16771 55.45625 187.91771Q55.64375 188.66771 55.64375 189.94896Q55.64375 191.46458 55.33125 192.38646Q55.034374 193.30833 54.409374 193.82396Q53.8 194.32396 52.846874 194.32396Q51.6125 194.32396 50.89375 193.43333Q50.05 192.37083 50.05 189.94896ZM51.128124 189.94896Q51.128124 192.05833 51.628124 192.76146Q52.128124 193.46458 52.846874 193.46458Q53.58125 193.46458 54.065624 192.76146Q54.565624 192.05833 54.565624 189.94896Q54.565624 187.82396 54.065624 187.13646Q53.58125 186.43333 52.83125 186.43333Q52.1125 186.43333 51.675 187.04271Q51.128124 187.82396 51.128124 189.94896Z" fill-rule="nonzero"/><path fill="#000000" d="M24.596874 150.41216L24.596874 151.42778L18.909374 151.42778Q18.909374 151.05278 19.034374 150.6934Q19.253124 150.11528 19.721874 149.55278Q20.20625 148.99028 21.1125 148.2559Q22.51875 147.09966 23.003124 146.42778Q23.503124 145.7559 23.503124 145.16216Q23.503124 144.53716 23.05 144.11528Q22.596874 143.67778 21.878124 143.67778Q21.1125 143.67778 20.659374 144.1309Q20.20625 144.58403 20.190624 145.39653L19.1125 145.28716Q19.221874 144.0684 19.940624 143.4434Q20.675 142.80278 21.909374 142.80278Q23.14375 142.80278 23.8625 143.49028Q24.58125 144.17778 24.58125 145.1934Q24.58125 145.70903 24.3625 146.20903Q24.159374 146.6934 23.659374 147.2559Q23.175 147.80278 22.05 148.7559Q21.096874 149.55278 20.815624 149.84966Q20.55 150.1309 20.378124 150.41216L24.596874 150.41216ZM26.05 147.1934Q26.05 145.66216 26.3625 144.74028Q26.675 143.80278 27.284374 143.30278Q27.909374 142.80278 28.846874 142.80278Q29.534374 142.80278 30.05 143.08403Q30.58125 143.36528 30.925 143.89653Q31.26875 144.41216 31.45625 145.16216Q31.64375 145.91216 31.64375 147.1934Q31.64375 148.70903 31.33125 149.6309Q31.034374 150.55278 30.409374 151.0684Q29.8 151.5684 28.846874 151.5684Q27.6125 151.5684 26.89375 150.67778Q26.05 149.61528 26.05 147.1934ZM27.128124 147.1934Q27.128124 149.30278 27.628124 150.0059Q28.128124 150.70903 28.846874 150.70903Q29.58125 150.70903 30.065624 150.0059Q30.565624 149.30278 30.565624 147.1934Q30.565624 145.0684 30.065624 144.3809Q29.58125 143.67778 28.83125 143.67778Q28.1125 143.67778 27.675 144.28716Q27.128124 145.0684 27.128124 147.1934ZM33.64375 151.42778L33.64375 150.22466L34.846874 150.22466L34.846874 151.42778L33.64375 151.42778ZM36.05 147.1934Q36.05 145.66216 36.3625 144.74028Q36.675 143.80278 37.284374 143.30278Q37.909374 142.80278 38.846874 142.80278Q39.534374 142.80278 40.05 143.08403Q40.58125 143.36528 40.925 143.89653Q41.26875 144.41216 41.45625 145.16216Q41.64375 145.91216 41.64375 147.1934Q41.64375 148.70903 41.33125 149.6309Q41.034374 150.55278 40.409374 151.0684Q39.8 151.5684 38.846874 151.5684Q37.6125 151.5684 36.89375 150.67778Q36.05 149.61528 36.05 147.1934ZM37.128124 147.1934Q37.128124 149.30278 37.628124 150.0059Q38.128124 150.70903 38.846874 150.70903Q39.58125 150.70903 40.065624 150.0059Q40.565624 149.30278 40.565624 147.1934Q40.565624 145.0684 40.065624 144.3809Q39.58125 143.67778 38.83125 143.67778Q38.1125 143.67778 37.675 144.28716Q37.128124 145.0684 37.128124 147.1934ZM43.05 147.1934Q43.05 145.66216 43.3625 144.74028Q43.675 143.80278 44.284374 143.30278Q44.909374 142.80278 45.846874 142.80278Q46.534374 142.80278 47.05 143.08403Q47.58125 143.36528 47.925 143.89653Q48.26875 144.41216 48.45625 145.16216Q48.64375 145.91216 48.64375 147.1934Q48.64375 148.70903 48.33125 149.6309Q48.034374 150.55278 47.409374 151.0684Q46.8 151.5684 45.846874 151.5684Q44.6125 151.5684 43.89375 150.67778Q43.05 149.61528 43.05 147.1934ZM44.128124 147.1934Q44.128124 149.30278 44.628124 150.0059Q45.128124 150.70903 45.846874 150.70903Q46.58125 150.70903 47.065624 150.0059Q47.565624 149.30278 47.565624 147.1934Q47.565624 145.0684 47.065624 144.3809Q46.58125 143.67778 45.83125 143.67778Q45.1125 143.67778 44.675 144.28716Q44.128124 145.0684 44.128124 147.1934ZM50.05 147.1934Q50.05 145.66216 50.3625 144.74028Q50.675 143.80278 51.284374 143.30278Q51.909374 142.80278 52.846874 142.80278Q53.534374 142.80278 54.05 143.08403Q54.58125 143.36528 54.925 143.89653Q55.26875 144.41216 55.45625 145.16216Q55.64375 145.91216 55.64375 147.1934Q55.64375 148.70903 55.33125 149.6309Q55.034374 150.55278 54.409374 151.0684Q53.8 151.5684 52.846874 151.5684Q51.6125 151.5684 50.89375 150.67778Q50.05 149.61528 50.05 147.1934ZM51.128124 147.1934Q51.128124 149.30278 51.628124 150.0059Q52.128124 150.70903 52.846874 150.70903Q53.58125 150.70903 54.065624 150.0059Q54.565624 149.30278 54.565624 147.1934Q54.565624 145.0684 54.065624 144.3809Q53.58125 143.67778 52.83125 143.67778Q52.1125 143.67778 51.675 144.28716Q51.128124 145.0684 51.128124 147.1934Z" fill-rule="nonzero"/><path fill="#000000" d="M24.596874 107.6566L24.596874 108.672226L18.909374 108.672226Q18.909374 108.297226 19.034374 107.93785Q19.253124 107.359726 19.721874 106.797226Q20.20625 106.234726 21.1125 105.50035Q22.51875 104.3441 23.003124 103.672226Q23.503124 103.00035 23.503124 102.4066Q23.503124 101.7816 23.05 101.359726Q22.596874 100.922226 21.878124 100.922226Q21.1125 100.922226 20.659374 101.37535Q20.20625 101.828476 20.190624 102.640976L19.1125 102.5316Q19.221874 101.31285 19.940624 100.68785Q20.675 100.047226 21.909374 100.047226Q23.14375 100.047226 23.8625 100.734726Q24.58125 101.422226 24.58125 102.43785Q24.58125 102.953476 24.3625 103.453476Q24.159374 103.93785 23.659374 104.50035Q23.175 105.047226 22.05 106.00035Q21.096874 106.797226 20.815624 107.0941Q20.55 107.37535 20.378124 107.6566L24.596874 107.6566ZM26.05 106.422226L27.159374 106.328476Q27.284374 107.140976 27.721874 107.547226Q28.175 107.953476 28.815624 107.953476Q29.565624 107.953476 30.096874 107.37535Q30.628124 106.797226 30.628124 105.859726Q30.628124 104.953476 30.1125 104.43785Q29.6125 103.9066 28.784374 103.9066Q28.284374 103.9066 27.8625 104.140976Q27.45625 104.37535 27.221874 104.734726L26.2375 104.609726L27.065624 100.203476L31.346874 100.203476L31.346874 101.203476L27.909374 101.203476L27.45625 103.515976Q28.221874 102.9691 29.065624 102.9691Q30.190624 102.9691 30.95625 103.75035Q31.7375 104.5316 31.7375 105.765976Q31.7375 106.922226 31.065624 107.7816Q30.2375 108.81285 28.815624 108.81285Q27.64375 108.81285 26.89375 108.1566Q26.159374 107.50035 26.05 106.422226ZM33.64375 108.672226L33.64375 107.4691L34.846874 107.4691L34.846874 108.672226L33.64375 108.672226ZM36.05 104.43785Q36.05 102.9066 36.3625 101.984726Q36.675 101.047226 37.284374 100.547226Q37.909374 100.047226 38.846874 100.047226Q39.534374 100.047226 40.05 100.328476Q40.58125 100.609726 40.925 101.140976Q41.26875 101.6566 41.45625 102.4066Q41.64375 103.1566 41.64375 104.43785Q41.64375 105.953476 41.33125 106.87535Q41.034374 107.797226 40.409374 108.31285Q39.8 108.81285 38.846874 108.81285Q37.6125 108.81285 36.89375 107.922226Q36.05 106.859726 36.05 104.43785ZM37.128124 104.43785Q37.128124 106.547226 37.628124 107.25035Q38.128124 107.953476 38.846874 107.953476Q39.58125 107.953476 40.065624 107.25035Q40.565624 106.547226 40.565624 104.43785Q40.565624 102.31285 40.065624 101.62535Q39.58125 100.922226 38.83125 100.922226Q38.1125 100.922226 37.675 101.5316Q37.128124 102.31285 37.128124 104.43785ZM43.05 104.43785Q43.05 102.9066 43.3625 101.984726Q43.675 101.047226 44.284374 100.547226Q44.909374 100.047226 45.846874 100.047226Q46.534374 100.047226 47.05 100.328476Q47.58125 100.609726 47.925 101.140976Q48.26875 101.6566 48.45625 102.4066Q48.64375 103.1566 48.64375 104.43785Q48.64375 105.953476 48.33125 106.87535Q48.034374 107.797226 47.409374 108.31285Q46.8 108.81285 45.846874 108.81285Q44.6125 108.81285 43.89375 107.922226Q43.05 106.859726 43.05 104.43785ZM44.128124 104.43785Q44.128124 106.547226 44.628124 107.25035Q45.128124 107.953476 45.846874 107.953476Q46.58125 107.953476 47.065624 107.25035Q47.565624 106.547226 47.565624 104.43785Q47.565624 102.31285 47.065624 101.62535Q46.58125 100.922226 45.83125 100.922226Q45.1125 100.922226 44.675 101.5316Q44.128124 102.31285 44.128124 104.43785ZM50.05 104.43785Q50.05 102.9066 50.3625 101.984726Q50.675 101.047226 51.284374 100.547226Q51.909374 100.047226 52.846874 100.047226Q53.534374 100.047226 54.05 100.328476Q54.58125 100.609726 54.925 101.140976Q55.26875 101.6566 55.45625 102.4066Q55.64375 103.1566 55.64375 104.43785Q55.64375 105.953476 55.33125 106.87535Q55.034374 107.797226 54.409374 108.31285Q53.8 108.81285 52.846874 108.81285Q51.6125 108.81285 50.89375 107.922226Q50.05 106.859726 50.05 104.43785ZM51.128124 104.43785Q51.128124 106.547226 51.628124 107.25035Q52.128124 107.953476 52.846874 107.953476Q53.58125 107.953476 54.065624 107.25035Q54.565624 106.547226 54.565624 104.43785Q54.565624 102.31285 54.065624 101.62535Q53.58125 100.922226 52.83125 100.922226Q52.1125 100.922226 51.675 101.5316Q51.128124 102.31285 51.128124 104.43785Z" fill-rule="nonzero"/><path fill="#000000" d="M19.05 63.65104L20.1125 63.510414Q20.284374 64.40104 20.721874 64.80729Q21.159374 65.197914 21.784374 65.197914Q22.534374 65.197914 23.05 64.68229Q23.565624 64.166664 23.565624 63.40104Q23.565624 62.68229 23.08125 62.21354Q22.6125 61.729164 21.878124 61.729164Q21.58125 61.729164 21.128124 61.854164L21.253124 60.916664Q21.3625 60.93229 21.425 60.93229Q22.096874 60.93229 22.628124 60.58854Q23.175 60.229164 23.175 59.49479Q23.175 58.916664 22.784374 58.541664Q22.39375 58.15104 21.76875 58.15104Q21.159374 58.15104 20.7375 58.541664Q20.33125 58.93229 20.221874 59.697914L19.159374 59.510414Q19.346874 58.46354 20.034374 57.885414Q20.721874 57.291664 21.7375 57.291664Q22.440624 57.291664 23.034374 57.604164Q23.628124 57.90104 23.940624 58.416664Q24.253124 58.93229 24.253124 59.52604Q24.253124 60.072914 23.95625 60.541664Q23.659374 60.99479 23.08125 61.260414Q23.83125 61.43229 24.253124 61.99479Q24.675 62.541664 24.675 63.385414Q24.675 64.510414 23.846874 65.291664Q23.034374 66.072914 21.784374 66.072914Q20.659374 66.072914 19.909374 65.40104Q19.159374 64.71354 19.05 63.65104ZM26.05 61.68229Q26.05 60.15104 26.3625 59.229164Q26.675 58.291664 27.284374 57.791664Q27.909374 57.291664 28.846874 57.291664Q29.534374 57.291664 30.05 57.572914Q30.58125 57.854164 30.925 58.385414Q31.26875 58.90104 31.45625 59.65104Q31.64375 60.40104 31.64375 61.68229Q31.64375 63.197914 31.33125 64.11979Q31.034374 65.041664 30.409374 65.55729Q29.8 66.05729 28.846874 66.05729Q27.6125 66.05729 26.89375 65.166664Q26.05 64.104164 26.05 61.68229ZM27.128124 61.68229Q27.128124 63.791664 27.628124 64.49479Q28.128124 65.197914 28.846874 65.197914Q29.58125 65.197914 30.065624 64.49479Q30.565624 63.791664 30.565624 61.68229Q30.565624 59.55729 30.065624 58.86979Q29.58125 58.166664 28.83125 58.166664Q28.1125 58.166664 27.675 58.77604Q27.128124 59.55729 27.128124 61.68229ZM33.64375 65.916664L33.64375 64.71354L34.846874 64.71354L34.846874 65.916664L33.64375 65.916664ZM36.05 61.68229Q36.05 60.15104 36.3625 59.229164Q36.675 58.291664 37.284374 57.791664Q37.909374 57.291664 38.846874 57.291664Q39.534374 57.291664 40.05 57.572914Q40.58125 57.854164 40.925 58.385414Q41.26875 58.90104 41.45625 59.65104Q41.64375 60.40104 41.64375 61.68229Q41.64375 63.197914 41.33125 64.11979Q41.034374 65.041664 40.409374 65.55729Q39.8 66.05729 38.846874 66.05729Q37.6125 66.05729 36.89375 65.166664Q36.05 64.104164 36.05 61.68229ZM37.128124 61.68229Q37.128124 63.791664 37.628124 64.49479Q38.128124 65.197914 38.846874 65.197914Q39.58125 65.197914 40.065624 64.49479Q40.565624 63.791664 40.565624 61.68229Q40.565624 59.55729 40.065624 58.86979Q39.58125 58.166664 38.83125 58.166664Q38.1125 58.166664 37.675 58.77604Q37.128124 59.55729 37.128124 61.68229ZM43.05 61.68229Q43.05 60.15104 43.3625 59.229164Q43.675 58.291664 44.284374 57.791664Q44.909374 57.291664 45.846874 57.291664Q46.534374 57.291664 47.05 57.572914Q47.58125 57.854164 47.925 58.385414Q48.26875 58.90104 48.45625 59.65104Q48.64375 60.40104 48.64375 61.68229Q48.64375 63.197914 48.33125 64.11979Q48.034374 65.041664 47.409374 65.55729Q46.8 66.05729 45.846874 66.05729Q44.6125 66.05729 43.89375 65.166664Q43.05 64.104164 43.05 61.68229ZM44.128124 61.68229Q44.128124 63.791664 44.628124 64.49479Q45.128124 65.197914 45.846874 65.197914Q46.58125 65.197914 47.065624 64.49479Q47.565624 63.791664 47.565624 61.68229Q47.565624 59.55729 47.065624 58.86979Q46.58125 58.166664 45.83125 58.166664Q45.1125 58.166664 44.675 58.77604Q44.128124 59.55729 44.128124 61.68229ZM50.05 61.68229Q50.05 60.15104 50.3625 59.229164Q50.675 58.291664 51.284374 57.791664Q51.909374 57.291664 52.846874 57.291664Q53.534374 57.291664 54.05 57.572914Q54.58125 57.854164 54.925 58.385414Q55.26875 58.90104 55.45625 59.65104Q55.64375 60.40104 55.64375 61.68229Q55.64375 63.197914 55.33125 64.11979Q55.034374 65.041664 54.409374 65.55729Q53.8 66.05729 52.846874 66.05729Q51.6125 66.05729 50.89375 65.166664Q50.05 64.104164 50.05 61.68229ZM51.128124 61.68229Q51.128124 63.791664 51.628124 64.49479Q52.128124 65.197914 52.846874 65.197914Q53.58125 65.197914 54.065624 64.49479Q54.565624 63.791664 54.565624 61.68229Q54.565624 59.55729 54.065624 58.86979Q53.58125 58.166664 52.83125 58.166664Q52.1125 58.166664 51.675 58.77604Q51.128124 59.55729 51.128124 61.68229Z" fill-rule="nonzero"/><path fill="#000000" d="M103.583664 335.45L103.583664 326.85626L106.81804 326.85626Q107.802414 326.85626 108.396164 327.1219Q108.989914 327.3875 109.31804 327.9344Q109.66179 328.46564 109.66179 329.0594Q109.66179 329.60626 109.364914 330.09064Q109.06804 330.575 108.458664 330.8719Q109.239914 331.10626 109.646164 331.66876Q110.06804 332.21564 110.06804 332.96564Q110.06804 333.5594 109.81804 334.09064Q109.56804 334.60626 109.19304 334.8875Q108.81804 335.16876 108.239914 335.3094Q107.677414 335.45 106.864914 335.45L103.583664 335.45ZM104.72429 330.46564L106.583664 330.46564Q107.333664 330.46564 107.66179 330.3719Q108.09929 330.2469 108.31804 329.95Q108.53679 329.6375 108.53679 329.1844Q108.53679 328.7625 108.333664 328.4344Q108.13054 328.10626 107.739914 327.9969Q107.364914 327.8719 106.44304 327.8719L104.72429 327.8719L104.72429 330.46564ZM104.72429 334.4344L106.864914 334.4344Q107.41179 334.4344 107.63054 334.3875Q108.03679 334.325 108.28679 334.16876Q108.552414 333.9969 108.72429 333.6844Q108.896164 333.3719 108.896164 332.96564Q108.896164 332.48126 108.646164 332.1219Q108.41179 331.7625 107.97429 331.6219Q107.53679 331.48126 106.708664 331.48126L104.72429 331.48126L104.72429 334.4344ZM111.583664 335.45L111.583664 326.85626L112.72429 326.85626L112.72429 334.4344L116.958664 334.4344L116.958664 335.45L111.583664 335.45ZM117.69304 335.45L120.989914 326.85626L122.208664 326.85626L125.72429 335.45L124.44304 335.45L123.427414 332.84064L119.84929 332.84064L118.896164 335.45L117.69304 335.45ZM120.177414 331.91876L123.083664 331.91876L122.19304 329.54376Q121.771164 328.46564 121.583664 327.7625Q121.41179 328.59064 121.114914 329.40314L120.177414 331.91876ZM125.25554 332.6844L126.31804 332.59064Q126.396164 333.2469 126.677414 333.65314Q126.958664 334.0594 127.53679 334.325Q128.13054 334.575 128.86491 334.575Q129.50554 334.575 130.00554 334.3875Q130.50554 334.1844 130.73991 333.85626Q130.98991 333.5125 130.98991 333.1219Q130.98991 332.71564 130.75554 332.41876Q130.52116 332.10626 129.98991 331.90314Q129.63054 331.7625 128.44304 331.48126Q127.271164 331.2 126.802414 330.95Q126.177414 330.6219 125.88054 330.15314Q125.583664 329.66876 125.583664 329.075Q125.583664 328.4344 125.94304 327.8719Q126.31804 327.29376 127.021164 327.0125Q127.739914 326.71564 128.59929 326.71564Q129.55241 326.71564 130.28679 327.02814Q131.02116 327.325 131.41179 327.9344Q131.80241 328.52814 131.83366 329.27814L130.73991 329.35626Q130.64616 328.54376 130.13054 328.1375Q129.63054 327.71564 128.64616 327.71564Q127.614914 327.71564 127.146164 328.09064Q126.677414 328.46564 126.677414 328.9969Q126.677414 329.46564 127.00554 329.7625Q127.333664 330.0594 128.70866 330.3719Q130.09929 330.6844 130.61491 330.91876Q131.36491 331.27814 131.72429 331.8094Q132.08366 332.325 132.08366 333.02814Q132.08366 333.71564 131.69304 334.325Q131.30241 334.91876 130.56804 335.2625Q129.83366 335.59064 128.91179 335.59064Q127.739914 335.59064 126.94304 335.2625Q126.16179 334.91876 125.708664 334.23126Q125.271164 333.54376 125.25554 332.6844Z" fill-rule="nonzero"/><path fill="#000000" d="M172.40958 335.45L172.40958 326.85626L178.20645 326.85626L178.20645 327.8719L173.5502 327.8719L173.5502 330.52814L177.58145 330.52814L177.58145 331.54376L173.5502 331.54376L173.5502 335.45L172.40958 335.45ZM179.00333 331.2625Q179.00333 329.1219 180.14395 327.91876Q181.3002 326.7 183.1127 326.7Q184.31583 326.7 185.26895 327.27814Q186.22208 327.84064 186.72208 328.85626Q187.22208 329.8719 187.22208 331.16876Q187.22208 332.46564 186.69083 333.4969Q186.15958 334.52814 185.19083 335.0594Q184.2377 335.59064 183.1127 335.59064Q181.89395 335.59064 180.94083 335.0125Q179.9877 334.41876 179.4877 333.41876Q179.00333 332.40314 179.00333 331.2625ZM180.1752 331.27814Q180.1752 332.84064 181.00333 333.73126Q181.84708 334.6219 183.1127 334.6219Q184.39395 334.6219 185.22208 333.73126Q186.0502 332.825 186.0502 331.15314Q186.0502 330.10626 185.69083 329.325Q185.34708 328.54376 184.65958 328.1219Q183.97208 327.6844 183.12833 327.6844Q181.9252 327.6844 181.0502 328.5125Q180.1752 329.34064 180.1752 331.27814ZM188.3627 335.45L188.3627 326.85626L192.1752 326.85626Q193.33145 326.85626 193.9252 327.09064Q194.51895 327.325 194.87833 327.91876Q195.2377 328.4969 195.2377 329.2Q195.2377 330.1219 194.64395 330.7469Q194.0502 331.3719 192.81583 331.54376Q193.26895 331.7625 193.50333 331.96564Q194.00333 332.41876 194.44083 333.10626L195.94083 335.45L194.50333 335.45L193.37833 333.66876Q192.87833 332.8875 192.5502 332.48126Q192.2377 332.075 191.97208 331.91876Q191.72208 331.7469 191.45645 331.66876Q191.26895 331.6375 190.83145 331.6375L189.50333 331.6375L189.50333 335.45L188.3627 335.45ZM189.50333 330.65314L191.95645 330.65314Q192.72208 330.65314 193.15958 330.4969Q193.6127 330.325 193.83145 329.98126Q194.06583 329.6219 194.06583 329.2Q194.06583 328.59064 193.6127 328.2Q193.1752 327.8094 192.22208 327.8094L189.50333 327.8094L189.50333 330.65314ZM199.53458 335.45L199.53458 327.8719L196.70645 327.8719L196.70645 326.85626L203.51895 326.85626L203.51895 327.8719L200.6752 327.8719L200.6752 335.45L199.53458 335.45ZM204.39395 335.45L204.39395 326.85626L205.51895 326.85626L205.51895 330.3875L209.9877 330.3875L209.9877 326.85626L211.12833 326.85626L211.12833 335.45L209.9877 335.45L209.9877 331.40314L205.51895 331.40314L205.51895 335.45L204.39395 335.45ZM213.19083 335.45L213.19083 326.85626L214.25333 326.85626L214.25333 335.45L213.19083 335.45ZM217.94083 335.45L215.58145 329.23126L216.69083 329.23126L218.03458 332.95Q218.2377 333.5594 218.4252 334.2Q218.56583 333.71564 218.81583 333.02814L220.20645 329.23126L221.28458 329.23126L218.9252 335.45L217.94083 335.45ZM220.9252 333.1844L221.9877 333.04376Q222.15958 333.9344 222.59708 334.34064Q223.03458 334.73126 223.65958 334.73126Q224.40958 334.73126 224.9252 334.21564Q225.44083 333.7 225.44083 332.9344Q225.44083 332.21564 224.95645 331.7469Q224.4877 331.2625 223.75333 331.2625Q223.45645 331.2625 223.00333 331.3875L223.12833 330.45Q223.2377 330.46564 223.3002 330.46564Q223.97208 330.46564 224.50333 330.1219Q225.0502 329.7625 225.0502 329.02814Q225.0502 328.45 224.65958 328.075Q224.26895 327.6844 223.64395 327.6844Q223.03458 327.6844 222.6127 328.075Q222.20645 328.46564 222.09708 329.23126L221.03458 329.04376Q221.22208 327.9969 221.90958 327.41876Q222.59708 326.825 223.6127 326.825Q224.31583 326.825 224.90958 327.1375Q225.50333 327.4344 225.81583 327.95Q226.12833 328.46564 226.12833 329.0594Q226.12833 329.60626 225.83145 330.075Q225.53458 330.52814 224.95645 330.79376Q225.70645 330.96564 226.12833 331.52814Q226.5502 332.075 226.5502 332.91876Q226.5502 334.04376 225.72208 334.825Q224.90958 335.60626 223.65958 335.60626Q222.53458 335.60626 221.78458 334.9344Q221.03458 334.2469 220.9252 333.1844Z" fill-rule="nonzero"/><path fill="#000000" d="M250.62611 335.45L250.62611 326.85626L256.42297 326.85626L256.42297 327.8719L251.76674 327.8719L251.76674 330.52814L255.79799 330.52814L255.79799 331.54376L251.76674 331.54376L251.76674 335.45L250.62611 335.45ZM257.21985 331.2625Q257.21985 329.1219 258.36047 327.91876Q259.51672 326.7 261.32922 326.7Q262.53235 326.7 263.48547 327.27814Q264.4386 327.84064 264.9386 328.85626Q265.4386 329.8719 265.4386 331.16876Q265.4386 332.46564 264.90735 333.4969Q264.3761 334.52814 263.40735 335.0594Q262.45422 335.59064 261.32922 335.59064Q260.11047 335.59064 259.15735 335.0125Q258.20422 334.41876 257.70422 333.41876Q257.21985 332.40314 257.21985 331.2625ZM258.39172 331.27814Q258.39172 332.84064 259.21985 333.73126Q260.0636 334.6219 261.32922 334.6219Q262.61047 334.6219 263.4386 333.73126Q264.26672 332.825 264.26672 331.15314Q264.26672 330.10626 263.90735 329.325Q263.5636 328.54376 262.8761 328.1219Q262.1886 327.6844 261.34485 327.6844Q260.14172 327.6844 259.26672 328.5125Q258.39172 329.34064 258.39172 331.27814ZM266.57922 335.45L266.57922 326.85626L270.39172 326.85626Q271.54797 326.85626 272.14172 327.09064Q272.73547 327.325 273.09485 327.91876Q273.45422 328.4969 273.45422 329.2Q273.45422 330.1219 272.86047 330.7469Q272.26672 331.3719 271.03235 331.54376Q271.48547 331.7625 271.71985 331.96564Q272.21985 332.41876 272.65735 333.10626L274.15735 335.45L272.71985 335.45L271.59485 333.66876Q271.09485 332.8875 270.76672 332.48126Q270.45422 332.075 270.1886 331.91876Q269.9386 331.7469 269.67297 331.66876Q269.48547 331.6375 269.04797 331.6375L267.71985 331.6375L267.71985 335.45L266.57922 335.45ZM267.71985 330.65314L270.17297 330.65314Q270.9386 330.65314 271.3761 330.4969Q271.82922 330.325 272.04797 329.98126Q272.28235 329.6219 272.28235 329.2Q272.28235 328.59064 271.82922 328.2Q271.39172 327.8094 270.4386 327.8094L267.71985 327.8094L267.71985 330.65314ZM277.7511 335.45L277.7511 327.8719L274.92297 327.8719L274.92297 326.85626L281.73547 326.85626L281.73547 327.8719L278.89172 327.8719L278.89172 335.45L277.7511 335.45ZM282.61047 335.45L282.61047 326.85626L283.73547 326.85626L283.73547 330.3875L288.20422 330.3875L288.20422 326.85626L289.34485 326.85626L289.34485 335.45L288.20422 335.45L288.20422 331.40314L283.73547 331.40314L283.73547 335.45L282.61047 335.45ZM291.40735 335.45L291.40735 326.85626L292.46985 326.85626L292.46985 335.45L291.40735 335.45ZM296.15735 335.45L293.79797 329.23126L294.90735 329.23126L296.2511 332.95Q296.45422 333.5594 296.64172 334.2Q296.78235 333.71564 297.03235 333.02814L298.42297 329.23126L299.5011 329.23126L297.14172 335.45L296.15735 335.45ZM304.6886 334.4344L304.6886 335.45L299.0011 335.45Q299.0011 335.075 299.1261 334.71564Q299.34485 334.1375 299.8136 333.575Q300.29797 333.0125 301.20422 332.27814Q302.61047 331.1219 303.09485 330.45Q303.59485 329.77814 303.59485 329.1844Q303.59485 328.5594 303.14172 328.1375Q302.6886 327.7 301.96985 327.7Q301.20422 327.7 300.7511 328.15314Q300.29797 328.60626 300.28235 329.41876L299.20422 329.3094Q299.3136 328.09064 300.03235 327.46564Q300.76672 326.825 302.0011 326.825Q303.23547 326.825 303.95422 327.5125Q304.67297 328.2 304.67297 329.21564Q304.67297 329.73126 304.45422 330.23126Q304.2511 330.71564 303.7511 331.27814Q303.26672 331.825 302.14172 332.77814Q301.1886 333.575 300.90735 333.8719Q300.64172 334.15314 300.46985 334.4344L304.6886 334.4344ZM308.64172 334.0594L308.64172 331.7L306.3136 331.7L306.3136 330.71564L308.64172 330.71564L308.64172 328.3875L309.64172 328.3875L309.64172 330.71564L311.98547 330.71564L311.98547 331.7L309.64172 331.7L309.64172 334.0594L308.64172 334.0594Z" fill-rule="nonzero"/><path fill="#000000" d="M265.1886 346.6844L266.2511 346.59064Q266.32922 347.2469 266.61047 347.65314Q266.89172 348.0594 267.46985 348.325Q268.0636 348.575 268.79797 348.575Q269.4386 348.575 269.9386 348.3875Q270.4386 348.1844 270.67297 347.85626Q270.92297 347.5125 270.92297 347.1219Q270.92297 346.71564 270.6886 346.41876Q270.45422 346.10626 269.92297 345.90314Q269.5636 345.7625 268.3761 345.48126Q267.20422 345.2 266.73547 344.95Q266.11047 344.6219 265.8136 344.15314Q265.51672 343.66876 265.51672 343.075Q265.51672 342.4344 265.8761 341.8719Q266.2511 341.29376 266.95422 341.0125Q267.67297 340.71564 268.53235 340.71564Q269.48547 340.71564 270.21985 341.02814Q270.95422 341.325 271.34485 341.9344Q271.73547 342.52814 271.76672 343.27814L270.67297 343.35626Q270.57922 342.54376 270.0636 342.1375Q269.5636 341.71564 268.57922 341.71564Q267.54797 341.71564 267.07922 342.09064Q266.61047 342.46564 266.61047 342.9969Q266.61047 343.46564 266.9386 343.7625Q267.26672 344.0594 268.64172 344.3719Q270.03235 344.6844 270.54797 344.91876Q271.29797 345.27814 271.65735 345.8094Q272.01672 346.325 272.01672 347.02814Q272.01672 347.71564 271.6261 348.325Q271.23547 348.91876 270.5011 349.2625Q269.76672 349.59064 268.84485 349.59064Q267.67297 349.59064 266.8761 349.2625Q266.09485 348.91876 265.64172 348.23126Q265.20422 347.54376 265.1886 346.6844ZM273.5636 349.45L273.5636 340.85626L276.53235 340.85626Q277.53235 340.85626 278.0636 340.98126Q278.79797 341.15314 279.3136 341.59064Q280.0011 342.16876 280.32922 343.075Q280.67297 343.96564 280.67297 345.10626Q280.67297 346.09064 280.4386 346.84064Q280.21985 347.59064 279.86047 348.09064Q279.5011 348.59064 279.0636 348.8719Q278.64172 349.15314 278.04797 349.3094Q277.45422 349.45 276.67297 349.45L273.5636 349.45ZM274.70422 348.4344L276.53235 348.4344Q277.39172 348.4344 277.8761 348.27814Q278.36047 348.1219 278.64172 347.825Q279.04797 347.4344 279.26672 346.7469Q279.5011 346.0594 279.5011 345.09064Q279.5011 343.7469 279.04797 343.02814Q278.61047 342.29376 277.98547 342.04376Q277.51672 341.8719 276.51672 341.8719L274.70422 341.8719L274.70422 348.4344ZM282.21985 345.2625Q282.21985 343.1219 283.36047 341.91876Q284.51672 340.7 286.32922 340.7Q287.53235 340.7 288.48547 341.27814Q289.4386 341.84064 289.9386 342.85626Q290.4386 343.8719 290.4386 345.16876Q290.4386 346.46564 289.90735 347.4969Q289.3761 348.52814 288.40735 349.0594Q287.45422 349.59064 286.32922 349.59064Q285.11047 349.59064 284.15735 349.0125Q283.20422 348.41876 282.70422 347.41876Q282.21985 346.40314 282.21985 345.2625ZM283.39172 345.27814Q283.39172 346.84064 284.21985 347.73126Q285.0636 348.6219 286.32922 348.6219Q287.61047 348.6219 288.4386 347.73126Q289.26672 346.825 289.26672 345.15314Q289.26672 344.10626 288.90735 343.325Q288.5636 342.54376 287.8761 342.1219Q287.1886 341.6844 286.34485 341.6844Q285.14172 341.6844 284.26672 342.5125Q283.39172 343.34064 283.39172 345.27814ZM293.7511 349.45L293.7511 341.8719L290.92297 341.8719L290.92297 340.85626L297.73547 340.85626L297.73547 341.8719L294.89172 341.8719L294.89172 349.45L293.7511 349.45Z" fill-rule="nonzero"/><path fill="#000000" d="M332.34265 335.45L332.34265 326.85626L338.13953 326.85626L338.13953 327.8719L333.48328 327.8719L333.48328 330.52814L337.51453 330.52814L337.51453 331.54376L333.48328 331.54376L333.48328 335.45L332.34265 335.45ZM338.9364 331.2625Q338.9364 329.1219 340.07703 327.91876Q341.23328 326.7 343.04578 326.7Q344.2489 326.7 345.20203 327.27814Q346.15515 327.84064 346.65515 328.85626Q347.15515 329.8719 347.15515 331.16876Q347.15515 332.46564 346.6239 333.4969Q346.09265 334.52814 345.1239 335.0594Q344.17078 335.59064 343.04578 335.59064Q341.82703 335.59064 340.8739 335.0125Q339.92078 334.41876 339.42078 333.41876Q338.9364 332.40314 338.9364 331.2625ZM340.10828 331.27814Q340.10828 332.84064 340.9364 333.73126Q341.78015 334.6219 343.04578 334.6219Q344.32703 334.6219 345.15515 333.73126Q345.98328 332.825 345.98328 331.15314Q345.98328 330.10626 345.6239 329.325Q345.28015 328.54376 344.59265 328.1219Q343.90515 327.6844 343.0614 327.6844Q341.85828 327.6844 340.98328 328.5125Q340.10828 329.34064 340.10828 331.27814ZM348.29578 335.45L348.29578 326.85626L352.10828 326.85626Q353.26453 326.85626 353.85828 327.09064Q354.45203 327.325 354.8114 327.91876Q355.17078 328.4969 355.17078 329.2Q355.17078 330.1219 354.57703 330.7469Q353.98328 331.3719 352.7489 331.54376Q353.20203 331.7625 353.4364 331.96564Q353.9364 332.41876 354.3739 333.10626L355.8739 335.45L354.4364 335.45L353.3114 333.66876Q352.8114 332.8875 352.48328 332.48126Q352.17078 332.075 351.90515 331.91876Q351.65515 331.7469 351.38953 331.66876Q351.20203 331.6375 350.76453 331.6375L349.4364 331.6375L349.4364 335.45L348.29578 335.45ZM349.4364 330.65314L351.88953 330.65314Q352.65515 330.65314 353.09265 330.4969Q353.54578 330.325 353.76453 329.98126Q353.9989 329.6219 353.9989 329.2Q353.9989 328.59064 353.54578 328.2Q353.10828 327.8094 352.15515 327.8094L349.4364 327.8094L349.4364 330.65314ZM359.46765 335.45L359.46765 327.8719L356.63953 327.8719L356.63953 326.85626L363.45203 326.85626L363.45203 327.8719L360.60828 327.8719L360.60828 335.45L359.46765 335.45ZM364.32703 335.45L364.32703 326.85626L365.45203 326.85626L365.45203 330.3875L369.92078 330.3875L369.92078 326.85626L371.0614 326.85626L371.0614 335.45L369.92078 335.45L369.92078 331.40314L365.45203 331.40314L365.45203 335.45L364.32703 335.45ZM373.1239 335.45L373.1239 326.85626L374.1864 326.85626L374.1864 335.45L373.1239 335.45ZM377.8739 335.45L375.51453 329.23126L376.6239 329.23126L377.96765 332.95Q378.17078 333.5594 378.35828 334.2Q378.4989 333.71564 378.7489 333.02814L380.13953 329.23126L381.21765 329.23126L378.85828 335.45L377.8739 335.45ZM386.40515 334.4344L386.40515 335.45L380.71765 335.45Q380.71765 335.075 380.84265 334.71564Q381.0614 334.1375 381.53015 333.575Q382.01453 333.0125 382.92078 332.27814Q384.32703 331.1219 384.8114 330.45Q385.3114 329.77814 385.3114 329.1844Q385.3114 328.5594 384.85828 328.1375Q384.40515 327.7 383.6864 327.7Q382.92078 327.7 382.46765 328.15314Q382.01453 328.60626 381.9989 329.41876L380.92078 329.3094Q381.03015 328.09064 381.7489 327.46564Q382.48328 326.825 383.71765 326.825Q384.95203 326.825 385.67078 327.5125Q386.38953 328.2 386.38953 329.21564Q386.38953 329.73126 386.17078 330.23126Q385.96765 330.71564 385.46765 331.27814Q384.98328 331.825 383.85828 332.77814Q382.90515 333.575 382.6239 333.8719Q382.35828 334.15314 382.1864 334.4344L386.40515 334.4344ZM390.35828 334.0594L390.35828 331.7L388.03015 331.7L388.03015 330.71564L390.35828 330.71564L390.35828 328.3875L391.35828 328.3875L391.35828 330.71564L393.70203 330.71564L393.70203 331.7L391.35828 331.7L391.35828 334.0594L390.35828 334.0594Z" fill-rule="nonzero"/><path fill="#000000" d="M344.90515 346.6844L345.96765 346.59064Q346.04578 347.2469 346.32703 347.65314Q346.60828 348.0594 347.1864 348.325Q347.78015 348.575 348.51453 348.575Q349.15515 348.575 349.65515 348.3875Q350.15515 348.1844 350.38953 347.85626Q350.63953 347.5125 350.63953 347.1219Q350.63953 346.71564 350.40515 346.41876Q350.17078 346.10626 349.63953 345.90314Q349.28015 345.7625 348.09265 345.48126Q346.92078 345.2 346.45203 344.95Q345.82703 344.6219 345.53015 344.15314Q345.23328 343.66876 345.23328 343.075Q345.23328 342.4344 345.59265 341.8719Q345.96765 341.29376 346.67078 341.0125Q347.38953 340.71564 348.2489 340.71564Q349.20203 340.71564 349.9364 341.02814Q350.67078 341.325 351.0614 341.9344Q351.45203 342.52814 351.48328 343.27814L350.38953 343.35626Q350.29578 342.54376 349.78015 342.1375Q349.28015 341.71564 348.29578 341.71564Q347.26453 341.71564 346.79578 342.09064Q346.32703 342.46564 346.32703 342.9969Q346.32703 343.46564 346.65515 343.7625Q346.98328 344.0594 348.35828 344.3719Q349.7489 344.6844 350.26453 344.91876Q351.01453 345.27814 351.3739 345.8094Q351.73328 346.325 351.73328 347.02814Q351.73328 347.71564 351.34265 348.325Q350.95203 348.91876 350.21765 349.2625Q349.48328 349.59064 348.5614 349.59064Q347.38953 349.59064 346.59265 349.2625Q345.8114 348.91876 345.35828 348.23126Q344.92078 347.54376 344.90515 346.6844ZM352.34265 349.45L355.63953 340.85626L356.85828 340.85626L360.3739 349.45L359.09265 349.45L358.07703 346.84064L354.4989 346.84064L353.54578 349.45L352.34265 349.45ZM354.82703 345.91876L357.73328 345.91876L356.84265 343.54376Q356.42078 342.46564 356.23328 341.7625Q356.0614 342.59064 355.76453 343.40314L354.82703 345.91876ZM359.40515 349.45L362.73328 344.96564L359.8114 340.85626L361.15515 340.85626L362.71765 343.0594Q363.20203 343.7469 363.40515 344.1219Q363.70203 343.65314 364.09265 343.1375L365.8114 340.85626L367.04578 340.85626L364.03015 344.90314L367.28015 349.45L365.8739 349.45L363.71765 346.3875Q363.53015 346.1219 363.34265 345.8094Q363.0614 346.27814 362.9364 346.45L360.78015 349.45L359.40515 349.45ZM367.28015 349.45L367.28015 340.85626L370.53015 340.85626Q371.3739 340.85626 371.82703 340.9344Q372.46765 341.04376 372.88953 341.34064Q373.32703 341.6375 373.57703 342.16876Q373.84265 342.7 373.84265 343.34064Q373.84265 344.4344 373.13953 345.2Q372.45203 345.95 370.6239 345.95L368.42078 345.95L368.42078 349.45L367.28015 349.45ZM368.42078 344.95L370.63953 344.95Q371.7489 344.95 372.20203 344.54376Q372.67078 344.1219 372.67078 343.3719Q372.67078 342.84064 372.38953 342.46564Q372.1239 342.075 371.6864 341.95Q371.38953 341.8719 370.6239 341.8719L368.42078 341.8719L368.42078 344.95ZM377.70203 349.45L377.70203 345.8094L374.38953 340.85626L375.78015 340.85626L377.46765 343.45Q377.9364 344.16876 378.34265 344.90314Q378.73328 344.23126 379.28015 343.3875L380.95203 340.85626L382.26453 340.85626L378.84265 345.8094L378.84265 349.45L377.70203 349.45Z" fill-rule="nonzero"/><path fill="#000000" d="M414.05917 335.45L414.05917 326.85626L419.85605 326.85626L419.85605 327.8719L415.1998 327.8719L415.1998 330.52814L419.23105 330.52814L419.23105 331.54376L415.1998 331.54376L415.1998 335.45L414.05917 335.45ZM420.65292 331.2625Q420.65292 329.1219 421.79355 327.91876Q422.9498 326.7 424.7623 326.7Q425.96542 326.7 426.91855 327.27814Q427.87167 327.84064 428.37167 328.85626Q428.87167 329.8719 428.87167 331.16876Q428.87167 332.46564 428.34042 333.4969Q427.80917 334.52814 426.84042 335.0594Q425.8873 335.59064 424.7623 335.59064Q423.54355 335.59064 422.59042 335.0125Q421.6373 334.41876 421.1373 333.41876Q420.65292 332.40314 420.65292 331.2625ZM421.8248 331.27814Q421.8248 332.84064 422.65292 333.73126Q423.49667 334.6219 424.7623 334.6219Q426.04355 334.6219 426.87167 333.73126Q427.6998 332.825 427.6998 331.15314Q427.6998 330.10626 427.34042 329.325Q426.99667 328.54376 426.30917 328.1219Q425.62167 327.6844 424.77792 327.6844Q423.5748 327.6844 422.6998 328.5125Q421.8248 329.34064 421.8248 331.27814ZM430.0123 335.45L430.0123 326.85626L433.8248 326.85626Q434.98105 326.85626 435.5748 327.09064Q436.16855 327.325 436.52792 327.91876Q436.8873 328.4969 436.8873 329.2Q436.8873 330.1219 436.29355 330.7469Q435.6998 331.3719 434.46542 331.54376Q434.91855 331.7625 435.15292 331.96564Q435.65292 332.41876 436.09042 333.10626L437.59042 335.45L436.15292 335.45L435.02792 333.66876Q434.52792 332.8875 434.1998 332.48126Q433.8873 332.075 433.62167 331.91876Q433.37167 331.7469 433.10605 331.66876Q432.91855 331.6375 432.48105 331.6375L431.15292 331.6375L431.15292 335.45L430.0123 335.45ZM431.15292 330.65314L433.60605 330.65314Q434.37167 330.65314 434.80917 330.4969Q435.2623 330.325 435.48105 329.98126Q435.71542 329.6219 435.71542 329.2Q435.71542 328.59064 435.2623 328.2Q434.8248 327.8094 433.87167 327.8094L431.15292 327.8094L431.15292 330.65314ZM441.18417 335.45L441.18417 327.8719L438.35605 327.8719L438.35605 326.85626L445.16855 326.85626L445.16855 327.8719L442.3248 327.8719L442.3248 335.45L441.18417 335.45ZM446.04355 335.45L446.04355 326.85626L447.16855 326.85626L447.16855 330.3875L451.6373 330.3875L451.6373 326.85626L452.77792 326.85626L452.77792 335.45L451.6373 335.45L451.6373 331.40314L447.16855 331.40314L447.16855 335.45L446.04355 335.45ZM454.84042 335.45L454.84042 326.85626L455.90292 326.85626L455.90292 335.45L454.84042 335.45ZM459.59042 335.45L457.23105 329.23126L458.34042 329.23126L459.68417 332.95Q459.8873 333.5594 460.0748 334.2Q460.21542 333.71564 460.46542 333.02814L461.85605 329.23126L462.93417 329.23126L460.5748 335.45L459.59042 335.45ZM466.54355 335.45L465.49667 335.45L465.49667 328.73126Q465.10605 329.09064 464.48105 329.46564Q463.87167 329.825 463.3873 329.9969L463.3873 328.98126Q464.2623 328.5594 464.91855 327.98126Q465.59042 327.3875 465.87167 326.825L466.54355 326.825L466.54355 335.45ZM472.0748 334.0594L472.0748 331.7L469.74667 331.7L469.74667 330.71564L472.0748 330.71564L472.0748 328.3875L473.0748 328.3875L473.0748 330.71564L475.41855 330.71564L475.41855 331.7L473.0748 331.7L473.0748 334.0594L472.0748 334.0594Z" fill-rule="nonzero"/><path fill="#000000" d="M428.62167 346.6844L429.68417 346.59064Q429.7623 347.2469 430.04355 347.65314Q430.3248 348.0594 430.90292 348.325Q431.49667 348.575 432.23105 348.575Q432.87167 348.575 433.37167 348.3875Q433.87167 348.1844 434.10605 347.85626Q434.35605 347.5125 434.35605 347.1219Q434.35605 346.71564 434.12167 346.41876Q433.8873 346.10626 433.35605 345.90314Q432.99667 345.7625 431.80917 345.48126Q430.6373 345.2 430.16855 344.95Q429.54355 344.6219 429.24667 344.15314Q428.9498 343.66876 428.9498 343.075Q428.9498 342.4344 429.30917 341.8719Q429.68417 341.29376 430.3873 341.0125Q431.10605 340.71564 431.96542 340.71564Q432.91855 340.71564 433.65292 341.02814Q434.3873 341.325 434.77792 341.9344Q435.16855 342.52814 435.1998 343.27814L434.10605 343.35626Q434.0123 342.54376 433.49667 342.1375Q432.99667 341.71564 432.0123 341.71564Q430.98105 341.71564 430.5123 342.09064Q430.04355 342.46564 430.04355 342.9969Q430.04355 343.46564 430.37167 343.7625Q430.6998 344.0594 432.0748 344.3719Q433.46542 344.6844 433.98105 344.91876Q434.73105 345.27814 435.09042 345.8094Q435.4498 346.325 435.4498 347.02814Q435.4498 347.71564 435.05917 348.325Q434.66855 348.91876 433.93417 349.2625Q433.1998 349.59064 432.27792 349.59064Q431.10605 349.59064 430.30917 349.2625Q429.52792 348.91876 429.0748 348.23126Q428.6373 347.54376 428.62167 346.6844ZM436.99667 349.45L436.99667 340.85626L439.96542 340.85626Q440.96542 340.85626 441.49667 340.98126Q442.23105 341.15314 442.74667 341.59064Q443.43417 342.16876 443.7623 343.075Q444.10605 343.96564 444.10605 345.10626Q444.10605 346.09064 443.87167 346.84064Q443.65292 347.59064 443.29355 348.09064Q442.93417 348.59064 442.49667 348.8719Q442.0748 349.15314 441.48105 349.3094Q440.8873 349.45 440.10605 349.45L436.99667 349.45ZM438.1373 348.4344L439.96542 348.4344Q440.8248 348.4344 441.30917 348.27814Q441.79355 348.1219 442.0748 347.825Q442.48105 347.4344 442.6998 346.7469Q442.93417 346.0594 442.93417 345.09064Q442.93417 343.7469 442.48105 343.02814Q442.04355 342.29376 441.41855 342.04376Q440.9498 341.8719 439.9498 341.8719L438.1373 341.8719L438.1373 348.4344ZM445.65292 345.2625Q445.65292 343.1219 446.79355 341.91876Q447.9498 340.7 449.7623 340.7Q450.96542 340.7 451.91855 341.27814Q452.87167 341.84064 453.37167 342.85626Q453.87167 343.8719 453.87167 345.16876Q453.87167 346.46564 453.34042 347.4969Q452.80917 348.52814 451.84042 349.0594Q450.8873 349.59064 449.7623 349.59064Q448.54355 349.59064 447.59042 349.0125Q446.6373 348.41876 446.1373 347.41876Q445.65292 346.40314 445.65292 345.2625ZM446.8248 345.27814Q446.8248 346.84064 447.65292 347.73126Q448.49667 348.6219 449.7623 348.6219Q451.04355 348.6219 451.87167 347.73126Q452.6998 346.825 452.6998 345.15314Q452.6998 344.10626 452.34042 343.325Q451.99667 342.54376 451.30917 342.1219Q450.62167 341.6844 449.77792 341.6844Q448.5748 341.6844 447.6998 342.5125Q446.8248 343.34064 446.8248 345.27814ZM457.18417 349.45L457.18417 341.8719L454.35605 341.8719L454.35605 340.85626L461.16855 340.85626L461.16855 341.8719L458.3248 341.8719L458.3248 349.45L457.18417 349.45Z" fill-rule="nonzero"/><path fill="#000000" d="M495.77573 335.45L495.77573 326.85626L501.5726 326.85626L501.5726 327.8719L496.91635 327.8719L496.91635 330.52814L500.9476 330.52814L500.9476 331.54376L496.91635 331.54376L496.91635 335.45L495.77573 335.45ZM502.36948 331.2625Q502.36948 329.1219 503.5101 327.91876Q504.66635 326.7 506.47885 326.7Q507.68198 326.7 508.6351 327.27814Q509.58823 327.84064 510.08823 328.85626Q510.58823 329.8719 510.58823 331.16876Q510.58823 332.46564 510.05698 333.4969Q509.52573 334.52814 508.55698 335.0594Q507.60385 335.59064 506.47885 335.59064Q505.2601 335.59064 504.30698 335.0125Q503.35385 334.41876 502.85385 333.41876Q502.36948 332.40314 502.36948 331.2625ZM503.54135 331.27814Q503.54135 332.84064 504.36948 333.73126Q505.21323 334.6219 506.47885 334.6219Q507.7601 334.6219 508.58823 333.73126Q509.41635 332.825 509.41635 331.15314Q509.41635 330.10626 509.05698 329.325Q508.71323 328.54376 508.02573 328.1219Q507.33823 327.6844 506.49448 327.6844Q505.29135 327.6844 504.41635 328.5125Q503.54135 329.34064 503.54135 331.27814ZM511.72885 335.45L511.72885 326.85626L515.5414 326.85626Q516.69763 326.85626 517.2914 327.09064Q517.88513 327.325 518.2445 327.91876Q518.6039 328.4969 518.6039 329.2Q518.6039 330.1219 518.01013 330.7469Q517.4164 331.3719 516.182 331.54376Q516.63513 331.7625 516.8695 331.96564Q517.3695 332.41876 517.807 333.10626L519.307 335.45L517.8695 335.45L516.7445 333.66876Q516.2445 332.8875 515.9164 332.48126Q515.6039 332.075 515.33826 331.91876Q515.08826 331.7469 514.82263 331.66876Q514.63513 331.6375 514.19763 331.6375L512.8695 331.6375L512.8695 335.45L511.72885 335.45ZM512.8695 330.65314L515.32263 330.65314Q516.08826 330.65314 516.52576 330.4969Q516.9789 330.325 517.19763 329.98126Q517.432 329.6219 517.432 329.2Q517.432 328.59064 516.9789 328.2Q516.5414 327.8094 515.58826 327.8094L512.8695 327.8094L512.8695 330.65314ZM522.90076 335.45L522.90076 327.8719L520.07263 327.8719L520.07263 326.85626L526.88513 326.85626L526.88513 327.8719L524.0414 327.8719L524.0414 335.45L522.90076 335.45ZM527.76013 335.45L527.76013 326.85626L528.88513 326.85626L528.88513 330.3875L533.3539 330.3875L533.3539 326.85626L534.4945 326.85626L534.4945 335.45L533.3539 335.45L533.3539 331.40314L528.88513 331.40314L528.88513 335.45L527.76013 335.45ZM536.557 335.45L536.557 326.85626L537.6195 326.85626L537.6195 335.45L536.557 335.45ZM541.307 335.45L538.94763 329.23126L540.057 329.23126L541.40076 332.95Q541.6039 333.5594 541.7914 334.2Q541.932 333.71564 542.182 333.02814L543.57263 329.23126L544.65076 329.23126L542.2914 335.45L541.307 335.45ZM548.26013 335.45L547.21326 335.45L547.21326 328.73126Q546.82263 329.09064 546.19763 329.46564Q545.58826 329.825 545.1039 329.9969L545.1039 328.98126Q545.9789 328.5594 546.63513 327.98126Q547.307 327.3875 547.58826 326.825L548.26013 326.825L548.26013 335.45ZM553.7914 334.0594L553.7914 331.7L551.46326 331.7L551.46326 330.71564L553.7914 330.71564L553.7914 328.3875L554.7914 328.3875L554.7914 330.71564L557.13513 330.71564L557.13513 331.7L554.7914 331.7L554.7914 334.0594L553.7914 334.0594Z" fill-rule="nonzero"/><path fill="#000000" d="M508.33823 346.6844L509.40073 346.59064Q509.47885 347.2469 509.7601 347.65314Q510.04135 348.0594 510.61948 348.325Q511.21323 348.575 511.9476 348.575Q512.58826 348.575 513.08826 348.3875Q513.58826 348.1844 513.82263 347.85626Q514.07263 347.5125 514.07263 347.1219Q514.07263 346.71564 513.83826 346.41876Q513.6039 346.10626 513.07263 345.90314Q512.71326 345.7625 511.52573 345.48126Q510.35385 345.2 509.8851 344.95Q509.2601 344.6219 508.96323 344.15314Q508.66635 343.66876 508.66635 343.075Q508.66635 342.4344 509.02573 341.8719Q509.40073 341.29376 510.10385 341.0125Q510.8226 340.71564 511.68198 340.71564Q512.63513 340.71564 513.3695 341.02814Q514.1039 341.325 514.4945 341.9344Q514.88513 342.52814 514.9164 343.27814L513.82263 343.35626Q513.7289 342.54376 513.21326 342.1375Q512.71326 341.71564 511.72885 341.71564Q510.6976 341.71564 510.22885 342.09064Q509.7601 342.46564 509.7601 342.9969Q509.7601 343.46564 510.08823 343.7625Q510.41635 344.0594 511.79135 344.3719Q513.182 344.6844 513.69763 344.91876Q514.44763 345.27814 514.807 345.8094Q515.1664 346.325 515.1664 347.02814Q515.1664 347.71564 514.77576 348.325Q514.38513 348.91876 513.65076 349.2625Q512.9164 349.59064 511.99448 349.59064Q510.8226 349.59064 510.02573 349.2625Q509.24448 348.91876 508.79135 348.23126Q508.35385 347.54376 508.33823 346.6844ZM515.77576 349.45L519.07263 340.85626L520.2914 340.85626L523.807 349.45L522.52576 349.45L521.51013 346.84064L517.932 346.84064L516.9789 349.45L515.77576 349.45ZM518.26013 345.91876L521.1664 345.91876L520.27576 343.54376Q519.8539 342.46564 519.6664 341.7625Q519.4945 342.59064 519.19763 343.40314L518.26013 345.91876ZM522.83826 349.45L526.1664 344.96564L523.2445 340.85626L524.58826 340.85626L526.15076 343.0594Q526.63513 343.7469 526.83826 344.1219Q527.13513 343.65314 527.52576 343.1375L529.2445 340.85626L530.4789 340.85626L527.46326 344.90314L530.71326 349.45L529.307 349.45L527.15076 346.3875Q526.96326 346.1219 526.77576 345.8094Q526.4945 346.27814 526.3695 346.45L524.21326 349.45L522.83826 349.45ZM530.71326 349.45L530.71326 340.85626L533.96326 340.85626Q534.807 340.85626 535.26013 340.9344Q535.90076 341.04376 536.32263 341.34064Q536.76013 341.6375 537.01013 342.16876Q537.27576 342.7 537.27576 343.34064Q537.27576 344.4344 536.57263 345.2Q535.88513 345.95 534.057 345.95L531.8539 345.95L531.8539 349.45L530.71326 349.45ZM531.8539 344.95L534.07263 344.95Q535.182 344.95 535.63513 344.54376Q536.1039 344.1219 536.1039 343.3719Q536.1039 342.84064 535.82263 342.46564Q535.557 342.075 535.1195 341.95Q534.82263 341.8719 534.057 341.8719L531.8539 341.8719L531.8539 344.95ZM541.13513 349.45L541.13513 345.8094L537.82263 340.85626L539.21326 340.85626L540.90076 343.45Q541.3695 344.16876 541.77576 344.90314Q542.1664 344.23126 542.71326 343.3875L544.38513 340.85626L545.69763 340.85626L542.27576 345.8094L542.27576 349.45L541.13513 349.45Z" fill-rule="nonzero"/><path fill="#9900ff" d="M19.45625 32.95625L21.2375 32.8Q21.3625 33.8625 21.815624 34.55Q22.284374 35.2375 23.253124 35.675Q24.2375 36.096874 25.471874 36.096874Q26.55 36.096874 27.378124 35.784374Q28.20625 35.45625 28.6125 34.89375Q29.01875 34.33125 29.01875 33.659374Q29.01875 32.9875 28.628124 32.4875Q28.2375 31.9875 27.346874 31.64375Q26.76875 31.409374 24.784374 30.940624Q22.815624 30.471874 22.034374 30.05Q21.003124 29.51875 20.503124 28.721874Q20.003124 27.925 20.003124 26.940624Q20.003124 25.846874 20.6125 24.909374Q21.221874 23.971874 22.409374 23.4875Q23.596874 22.9875 25.034374 22.9875Q26.628124 22.9875 27.846874 23.503124Q29.065624 24.01875 29.70625 25.01875Q30.3625 26.003124 30.409374 27.26875L28.596874 27.409374Q28.45625 26.05 27.6125 25.3625Q26.76875 24.659374 25.1125 24.659374Q23.39375 24.659374 22.596874 25.3Q21.815624 25.925 21.815624 26.8Q21.815624 27.58125 22.378124 28.08125Q22.925 28.58125 25.2375 29.096874Q27.55 29.6125 28.409374 30.003124Q29.659374 30.58125 30.253124 31.471874Q30.846874 32.346874 30.846874 33.503124Q30.846874 34.64375 30.190624 35.659374Q29.534374 36.675 28.3 37.2375Q27.08125 37.8 25.55 37.8Q23.6125 37.8 22.3 37.2375Q20.9875 36.659374 20.2375 35.51875Q19.4875 34.378124 19.45625 32.95625ZM39.8 31.940624L39.8 30.253124L45.8625 30.2375L45.8625 35.55Q44.45625 36.675 42.971874 37.2375Q41.4875 37.8 39.925 37.8Q37.815624 37.8 36.096874 36.89375Q34.378124 35.9875 33.4875 34.284374Q32.6125 32.565624 32.6125 30.45625Q32.6125 28.3625 33.4875 26.565624Q34.3625 24.753124 36.003124 23.878124Q37.64375 22.9875 39.784374 22.9875Q41.33125 22.9875 42.58125 23.4875Q43.846874 23.9875 44.55 24.89375Q45.26875 25.784374 45.64375 27.2375L43.940624 27.70625Q43.6125 26.6125 43.128124 25.9875Q42.659374 25.3625 41.76875 24.9875Q40.878124 24.6125 39.8 24.6125Q38.4875 24.6125 37.534374 25.003124Q36.596874 25.39375 36.01875 26.05Q35.440624 26.690624 35.1125 27.45625Q34.565624 28.784374 34.565624 30.346874Q34.565624 32.253124 35.221874 33.55Q35.89375 34.83125 37.14375 35.45625Q38.409374 36.08125 39.815624 36.08125Q41.05 36.08125 42.221874 35.6125Q43.39375 35.14375 44.003124 34.596874L44.003124 31.940624L39.8 31.940624ZM49.128124 37.55L49.128124 23.2375L59.4875 23.2375L59.4875 24.925L51.034374 24.925L51.034374 29.3L58.940624 29.3L58.940624 30.9875L51.034374 30.9875L51.034374 35.8625L59.815624 35.8625L59.815624 37.55L49.128124 37.55ZM62.034374 37.55L62.034374 23.2375L64.89375 23.2375L68.26875 33.3625Q68.7375 34.784374 68.95625 35.4875Q69.20625 34.70625 69.72188 33.190624L73.14375 23.2375L75.69063 23.2375L75.69063 37.55L73.87813 37.55L73.87813 25.565624L69.70625 37.55L68.00313 37.55L63.8625 25.3625L63.8625 37.55L62.034374 37.55ZM79.03438 37.55L79.03438 23.2375L81.89375 23.2375L85.26875 33.3625Q85.7375 34.784374 85.95625 35.4875Q86.20625 34.70625 86.72188 33.190624L90.14375 23.2375L92.69063 23.2375L92.69063 37.55L90.87813 37.55L90.87813 25.565624L86.70625 37.55L85.00313 37.55L80.8625 25.3625L80.8625 37.55L79.03438 37.55Z" fill-rule="nonzero"/></svg>