<svg version="1.1" viewBox="0.0 0.0 600.0 371.0" fill="none" stroke="none" stroke-linecap="square" stroke-miterlimit="10" width="600" height="371" xmlns:xlink="http://www.w3.org/1999/xlink" xmlns="http://www.w3.org/2000/svg"><path fill="#ffffff" d="M0 0L600.0 0L600.0 371.0L0 371.0L0 0Z" fill-rule="nonzero"/><path stroke="#333333" stroke-width="1.0" stroke-linecap="butt" d="M45.5 300.5L581.5 300.5" fill-rule="nonzero"/><path stroke="#cccccc" stroke-width="1.0" stroke-linecap="butt" d="M45.5 281.5L581.5 281.5" fill-rule="nonzero"/><path stroke="#cccccc" stroke-width="1.0" stroke-linecap="butt" d="M45.5 262.5L581.5 262.5" fill-rule="nonzero"/><path stroke="#cccccc" stroke-width="1.0" stroke-linecap="butt" d="M45.5 243.5L581.5 243.5" fill-rule="nonzero"/><path stroke="#cccccc" stroke-width="1.0" stroke-linecap="butt" d="M45.5 223.5L581.5 223.5" fill-rule="nonzero"/><path stroke="#cccccc" stroke-width="1.0" stroke-linecap="butt" d="M45.5 204.5L581.5 204.5" fill-rule="nonzero"/><path stroke="#cccccc" stroke-width="1.0" stroke-linecap="butt" d="M45.5 185.5L581.5 185.5" fill-rule="nonzero"/><path stroke="#cccccc" stroke-width="1.0" stroke-linecap="butt" d="M45.5 166.5L581.5 166.5" fill-rule="nonzero"/><path stroke="#cccccc" stroke-width="1.0" stroke-linecap="butt" d="M45.5 147.5L581.5 147.5" fill-rule="nonzero"/><path stroke="#cccccc" stroke-width="1.0" stroke-linecap="butt" d="M45.5 128.5L581.5 128.5" fill-rule="nonzero"/><path stroke="#cccccc" stroke-width="1.0" stroke-linecap="butt" d="M45.5 109.5L581.5 109.5" fill-rule="nonzero"/><path stroke="#cccccc" stroke-width="1.0" stroke-linecap="butt" d="M45.5 90.5L581.5 90.5" fill-rule="nonzero"/><path stroke="#cccccc" stroke-width="1.0" stroke-linecap="butt" d="M45.5 71.5L581.5 71.5" fill-rule="nonzero"/><path stroke="#cccccc" stroke-width="1.0" stroke-linecap="butt" d="M45.5 51.5L581.5 51.5" fill-rule="nonzero"/><path stroke="#e6e6e6" stroke-width="1.0" stroke-linecap="butt" d="M45.5 296.5L581.5 296.5" fill-rule="nonzero"/><path stroke="#e6e6e6" stroke-width="1.0" stroke-linecap="butt" d="M45.5 292.5L581.5 292.5" fill-rule="nonzero"/><path stroke="#e6e6e6" stroke-width="1.0" stroke-linecap="butt" d="M45.5 288.5L581.5 288.5" fill-rule="nonzero"/><path stroke="#e6e6e6" stroke-width="1.0" stroke-linecap="butt" d="M45.5 285.5L581.5 285.5" fill-rule="nonzero"/><path stroke="#e6e6e6" stroke-width="1.0" stroke-linecap="butt" d="M45.5 277.5L581.5 277.5" fill-rule="nonzero"/><path stroke="#e6e6e6" stroke-width="1.0" stroke-linecap="butt" d="M45.5 273.5L581.5 273.5" fill-rule="nonzero"/><path stroke="#e6e6e6" stroke-width="1.0" stroke-linecap="butt" d="M45.5 269.5L581.5 269.5" fill-rule="nonzero"/><path stroke="#e6e6e6" stroke-width="1.0" stroke-linecap="butt" d="M45.5 266.5L581.5 266.5" fill-rule="nonzero"/><path stroke="#e6e6e6" stroke-width="1.0" stroke-linecap="butt" d="M45.5 258.5L581.5 258.5" fill-rule="nonzero"/><path stroke="#e6e6e6" stroke-width="1.0" stroke-linecap="butt" d="M45.5 254.5L581.5 254.5" fill-rule="nonzero"/><path stroke="#e6e6e6" stroke-width="1.0" stroke-linecap="butt" d="M45.5 250.5L581.5 250.5" fill-rule="nonzero"/><path stroke="#e6e6e6" stroke-width="1.0" stroke-linecap="butt" d="M45.5 246.5L581.5 246.5" fill-rule="nonzero"/><path stroke="#e6e6e6" stroke-width="1.0" stroke-linecap="butt" d="M45.5 239.5L581.5 239.5" fill-rule="nonzero"/><path stroke="#e6e6e6" stroke-width="1.0" stroke-linecap="butt" d="M45.5 235.5L581.5 235.5" fill-rule="nonzero"/><path stroke="#e6e6e6" stroke-width="1.0" stroke-linecap="butt" d="M45.5 231.5L581.5 231.5" fill-rule="nonzero"/><path stroke="#e6e6e6" stroke-width="1.0" stroke-linecap="butt" d="M45.5 227.5L581.5 227.5" fill-rule="nonzero"/><path stroke="#e6e6e6" stroke-width="1.0" stroke-linecap="butt" d="M45.5 220.5L581.5 220.5" fill-rule="nonzero"/><path stroke="#e6e6e6" stroke-width="1.0" stroke-linecap="butt" d="M45.5 216.5L581.5 216.5" fill-rule="nonzero"/><path stroke="#e6e6e6" stroke-width="1.0" stroke-linecap="butt" d="M45.5 212.5L581.5 212.5" fill-rule="nonzero"/><path stroke="#e6e6e6" stroke-width="1.0" stroke-linecap="butt" d="M45.5 208.5L581.5 208.5" fill-rule="nonzero"/><path stroke="#e6e6e6" stroke-width="1.0" stroke-linecap="butt" d="M45.5 201.5L581.5 201.5" fill-rule="nonzero"/><path stroke="#e6e6e6" stroke-width="1.0" stroke-linecap="butt" d="M45.5 197.5L581.5 197.5" fill-rule="nonzero"/><path stroke="#e6e6e6" stroke-width="1.0" stroke-linecap="butt" d="M45.5 193.5L581.5 193.5" fill-rule="nonzero"/><path stroke="#e6e6e6" stroke-width="1.0" stroke-linecap="butt" d="M45.5 189.5L581.5 189.5" fill-rule="nonzero"/><path stroke="#e6e6e6" stroke-width="1.0" stroke-linecap="butt" d="M45.5 181.5L581.5 181.5" fill-rule="nonzero"/><path stroke="#e6e6e6" stroke-width="1.0" stroke-linecap="butt" d="M45.5 178.5L581.5 178.5" fill-rule="nonzero"/><path stroke="#e6e6e6" stroke-width="1.0" stroke-linecap="butt" d="M45.5 174.5L581.5 174.5" fill-rule="nonzero"/><path stroke="#e6e6e6" stroke-width="1.0" stroke-linecap="butt" d="M45.5 170.5L581.5 170.5" fill-rule="nonzero"/><path stroke="#e6e6e6" stroke-width="1.0" stroke-linecap="butt" d="M45.5 162.5L581.5 162.5" fill-rule="nonzero"/><path stroke="#e6e6e6" stroke-width="1.0" stroke-linecap="butt" d="M45.5 158.5L581.5 158.5" fill-rule="nonzero"/><path stroke="#e6e6e6" stroke-width="1.0" stroke-linecap="butt" d="M45.5 155.5L581.5 155.5" fill-rule="nonzero"/><path stroke="#e6e6e6" stroke-width="1.0" stroke-linecap="butt" d="M45.5 151.5L581.5 151.5" fill-rule="nonzero"/><path stroke="#e6e6e6" stroke-width="1.0" stroke-linecap="butt" d="M45.5 143.5L581.5 143.5" fill-rule="nonzero"/><path stroke="#e6e6e6" stroke-width="1.0" stroke-linecap="butt" d="M45.5 139.5L581.5 139.5" fill-rule="nonzero"/><path stroke="#e6e6e6" stroke-width="1.0" stroke-linecap="butt" d="M45.5 136.5L581.5 136.5" fill-rule="nonzero"/><path stroke="#e6e6e6" stroke-width="1.0" stroke-linecap="butt" d="M45.5 132.5L581.5 132.5" fill-rule="nonzero"/><path stroke="#e6e6e6" stroke-width="1.0" stroke-linecap="butt" d="M45.5 124.5L581.5 124.5" fill-rule="nonzero"/><path stroke="#e6e6e6" stroke-width="1.0" stroke-linecap="butt" d="M45.5 120.5L581.5 120.5" fill-rule="nonzero"/><path stroke="#e6e6e6" stroke-width="1.0" stroke-linecap="butt" d="M45.5 116.5L581.5 116.5" fill-rule="nonzero"/><path stroke="#e6e6e6" stroke-width="1.0" stroke-linecap="butt" d="M45.5 113.5L581.5 113.5" fill-rule="nonzero"/><path stroke="#e6e6e6" stroke-width="1.0" stroke-linecap="butt" d="M45.5 105.5L581.5 105.5" fill-rule="nonzero"/><path stroke="#e6e6e6" stroke-width="1.0" stroke-linecap="butt" d="M45.5 101.5L581.5 101.5" fill-rule="nonzero"/><path stroke="#e6e6e6" stroke-width="1.0" stroke-linecap="butt" d="M45.5 97.5L581.5 97.5" fill-rule="nonzero"/><path stroke="#e6e6e6" stroke-width="1.0" stroke-linecap="butt" d="M45.5 93.5L581.5 93.5" fill-rule="nonzero"/><path stroke="#e6e6e6" stroke-width="1.0" stroke-linecap="butt" d="M45.5 86.5L581.5 86.5" fill-rule="nonzero"/><path stroke="#e6e6e6" stroke-width="1.0" stroke-linecap="butt" d="M45.5 82.5L581.5 82.5" fill-rule="nonzero"/><path stroke="#e6e6e6" stroke-width="1.0" stroke-linecap="butt" d="M45.5 78.5L581.5 78.5" fill-rule="nonzero"/><path stroke="#e6e6e6" stroke-width="1.0" stroke-linecap="butt" d="M45.5 74.5L581.5 74.5" fill-rule="nonzero"/><path stroke="#e6e6e6" stroke-width="1.0" stroke-linecap="butt" d="M45.5 67.5L581.5 67.5" fill-rule="nonzero"/><path stroke="#e6e6e6" stroke-width="1.0" stroke-linecap="butt" d="M45.5 63.5L581.5 63.5" fill-rule="nonzero"/><path stroke="#e6e6e6" stroke-width="1.0" stroke-linecap="butt" d="M45.5 59.5L581.5 59.5" fill-rule="nonzero"/><path stroke="#e6e6e6" stroke-width="1.0" stroke-linecap="butt" d="M45.5 55.5L581.5 55.5" fill-rule="nonzero"/><clipPath id="id_0"><path d="M45.55 51.916668L581.45 51.916668L581.45 300.45L45.55 300.45L45.55 51.916668Z" clip-rule="nonzero"/></clipPath><path stroke="#000000" stroke-width="2.0" stroke-linecap="butt" stroke-opacity="0.0" clip-path="url(#id_0)" d="M128.0 300.0L90.0 300.0L90.0 291.0C90.0 289.89542 90.89543 289.0 92.0 289.0L126.0 289.0C127.10457 289.0 128.0 289.89542 128.0 291.0Z" fill-rule="nonzero"/><path fill="#9900ff" clip-path="url(#id_0)" d="M128.0 300.0L90.0 300.0L90.0 291.0C90.0 289.89542 90.89543 289.0 92.0 289.0L126.0 289.0C127.10457 289.0 128.0 289.89542 128.0 291.0Z" fill-rule="nonzero"/><path stroke="#000000" stroke-width="2.0" stroke-linecap="butt" stroke-opacity="0.0" clip-path="url(#id_0)" d="M251.0 300.0L213.0 300.0L213.0 298.0C213.0 296.89542 213.89543 296.0 215.0 296.0L249.0 296.0C250.10457 296.0 251.0 296.89542 251.0 298.0Z" fill-rule="nonzero"/><path fill="#9900ff" clip-path="url(#id_0)" d="M251.0 300.0L213.0 300.0L213.0 298.0C213.0 296.89542 213.89543 296.0 215.0 296.0L249.0 296.0C250.10457 296.0 251.0 296.89542 251.0 298.0Z" fill-rule="nonzero"/><path stroke="#000000" stroke-width="2.0" stroke-linecap="butt" stroke-opacity="0.0" clip-path="url(#id_0)" d="M374.0 300.0L336.0 300.0L336.0 271.0C336.0 269.89542 336.89542 269.0 338.0 269.0L372.0 269.0C373.10458 269.0 374.0 269.89542 374.0 271.0Z" fill-rule="nonzero"/><path fill="#9900ff" clip-path="url(#id_0)" d="M374.0 300.0L336.0 300.0L336.0 271.0C336.0 269.89542 336.89542 269.0 338.0 269.0L372.0 269.0C373.10458 269.0 374.0 269.89542 374.0 271.0Z" fill-rule="nonzero"/><path stroke="#000000" stroke-width="2.0" stroke-linecap="butt" stroke-opacity="0.0" clip-path="url(#id_0)" d="M497.0 300.0L459.0 300.0L459.0 61.0C459.0 59.89543 459.89542 59.0 461.0 59.0L495.0 59.0C496.10458 59.0 497.0 59.89543 497.0 61.0Z" fill-rule="nonzero"/><path fill="#9900ff" clip-path="url(#id_0)" d="M497.0 300.0L459.0 300.0L459.0 61.0C459.0 59.89543 459.89542 59.0 461.0 59.0L495.0 59.0C496.10458 59.0 497.0 59.89543 497.0 61.0Z" fill-rule="nonzero"/><path stroke="#000000" stroke-width="2.0" stroke-linecap="butt" stroke-opacity="0.0" clip-path="url(#id_0)" d="M168.0 300.0L130.0 300.0L130.0 298.5C130.0 297.67157 130.67157 297.0 131.5 297.0L166.5 297.0C167.32843 297.0 168.0 297.67157 168.0 298.5Z" fill-rule="nonzero"/><path fill="#ffd966" clip-path="url(#id_0)" d="M168.0 300.0L130.0 300.0L130.0 298.5C130.0 297.67157 130.67157 297.0 131.5 297.0L166.5 297.0C167.32843 297.0 168.0 297.67157 168.0 298.5Z" fill-rule="nonzero"/><path stroke="#000000" stroke-width="2.0" stroke-linecap="butt" stroke-opacity="0.0" clip-path="url(#id_0)" d="M291.0 300.0L253.0 300.0L253.0 298.5C253.0 297.67157 253.67157 297.0 254.5 297.0L289.5 297.0C290.32843 297.0 291.0 297.67157 291.0 298.5Z" fill-rule="nonzero"/><path fill="#ffd966" clip-path="url(#id_0)" d="M291.0 300.0L253.0 300.0L253.0 298.5C253.0 297.67157 253.67157 297.0 254.5 297.0L289.5 297.0C290.32843 297.0 291.0 297.67157 291.0 298.5Z" fill-rule="nonzero"/><path stroke="#000000" stroke-width="2.0" stroke-linecap="butt" stroke-opacity="0.0" clip-path="url(#id_0)" d="M414.0 300.0L376.0 300.0L376.0 298.5C376.0 297.67157 376.67157 297.0 377.5 297.0L412.5 297.0C413.32843 297.0 414.0 297.67157 414.0 298.5Z" fill-rule="nonzero"/><path fill="#ffd966" clip-path="url(#id_0)" d="M414.0 300.0L376.0 300.0L376.0 298.5C376.0 297.67157 376.67157 297.0 377.5 297.0L412.5 297.0C413.32843 297.0 414.0 297.67157 414.0 298.5Z" fill-rule="nonzero"/><path stroke="#000000" stroke-width="2.0" stroke-linecap="butt" stroke-opacity="0.0" clip-path="url(#id_0)" d="M537.0 300.0L499.0 300.0L499.0 298.5C499.0 297.67157 499.67157 297.0 500.5 297.0L535.5 297.0C536.3284 297.0 537.0 297.67157 537.0 298.5Z" fill-rule="nonzero"/><path fill="#ffd966" clip-path="url(#id_0)" d="M537.0 300.0L499.0 300.0L499.0 298.5C499.0 297.67157 499.67157 297.0 500.5 297.0L535.5 297.0C536.3284 297.0 537.0 297.67157 537.0 298.5Z" fill-rule="nonzero"/><path fill="#000000" d="M282.875 349.45L282.875 340.85626L286.10938 340.85626Q287.09375 340.85626 287.6875 341.1219Q288.28125 341.3875 288.60938 341.9344Q288.95312 342.46564 288.95312 343.0594Q288.95312 343.60626 288.65625 344.09064Q288.35938 344.575 287.75 344.8719Q288.53125 345.10626 288.9375 345.66876Q289.35938 346.21564 289.35938 346.96564Q289.35938 347.5594 289.10938 348.09064Q288.85938 348.60626 288.48438 348.8875Q288.10938 349.16876 287.53125 349.3094Q286.96875 349.45 286.15625 349.45L282.875 349.45ZM284.01562 344.46564L285.875 344.46564Q286.625 344.46564 286.95312 344.3719Q287.39062 344.2469 287.60938 343.95Q287.82812 343.6375 287.82812 343.1844Q287.82812 342.7625 287.625 342.4344Q287.42188 342.10626 287.03125 341.9969Q286.65625 341.8719 285.73438 341.8719L284.01562 341.8719L284.01562 344.46564ZM284.01562 348.4344L286.15625 348.4344Q286.70312 348.4344 286.92188 348.3875Q287.32812 348.325 287.57812 348.16876Q287.84375 347.9969 288.01562 347.6844Q288.1875 347.3719 288.1875 346.96564Q288.1875 346.48126 287.9375 346.1219Q287.70312 345.7625 287.26562 345.6219Q286.82812 345.48126 286.0 345.48126L284.01562 345.48126L284.01562 348.4344ZM295.04688 347.45L296.14062 347.575Q295.89062 348.52814 295.1875 349.0594Q294.48438 349.59064 293.40625 349.59064Q292.04688 349.59064 291.23438 348.7469Q290.4375 347.90314 290.4375 346.3875Q290.4375 344.825 291.25 343.96564Q292.0625 343.09064 293.34375 343.09064Q294.59375 343.09064 295.375 343.9344Q296.17188 344.77814 296.17188 346.325Q296.17188 346.41876 296.17188 346.60626L291.53125 346.60626Q291.59375 347.6375 292.10938 348.1844Q292.625 348.71564 293.40625 348.71564Q293.98438 348.71564 294.39062 348.41876Q294.8125 348.10626 295.04688 347.45ZM291.59375 345.7469L295.0625 345.7469Q295.0 344.95 294.67188 344.5594Q294.15625 343.95 293.35938 343.95Q292.625 343.95 292.125 344.4344Q291.64062 344.91876 291.59375 345.7469ZM297.79688 349.45L297.79688 343.23126L298.73438 343.23126L298.73438 344.10626Q299.42188 343.09064 300.71875 343.09064Q301.28125 343.09064 301.75 343.29376Q302.23438 343.4969 302.46875 343.825Q302.70312 344.15314 302.79688 344.59064Q302.84375 344.8875 302.84375 345.6219L302.84375 349.45L301.79688 349.45L301.79688 345.66876Q301.79688 345.0125 301.67188 344.7Q301.54688 344.3875 301.23438 344.2Q300.92188 343.9969 300.5 343.9969Q299.82812 343.9969 299.32812 344.4344Q298.84375 344.85626 298.84375 346.04376L298.84375 349.45L297.79688 349.45ZM308.85938 347.16876L309.89062 347.3094Q309.71875 348.3719 309.01562 348.98126Q308.3125 349.59064 307.29688 349.59064Q306.01562 349.59064 305.23438 348.7625Q304.46875 347.91876 304.46875 346.35626Q304.46875 345.35626 304.79688 344.60626Q305.14062 343.84064 305.8125 343.46564Q306.5 343.09064 307.3125 343.09064Q308.3125 343.09064 308.95312 343.60626Q309.60938 344.10626 309.79688 345.0594L308.76562 345.21564Q308.625 344.59064 308.25 344.27814Q307.875 343.95 307.34375 343.95Q306.54688 343.95 306.04688 344.52814Q305.54688 345.09064 305.54688 346.325Q305.54688 347.59064 306.03125 348.15314Q306.51562 348.71564 307.28125 348.71564Q307.90625 348.71564 308.3125 348.34064Q308.73438 347.96564 308.85938 347.16876ZM310.79688 349.45L310.79688 340.85626L311.84375 340.85626L311.84375 343.9344Q312.57812 343.09064 313.70312 343.09064Q314.40625 343.09064 314.90625 343.3719Q315.42188 343.6375 315.64062 344.1219Q315.85938 344.59064 315.85938 345.5125L315.85938 349.45L314.8125 349.45L314.8125 345.5125Q314.8125 344.71564 314.46875 344.35626Q314.125 343.9969 313.5 343.9969Q313.03125 343.9969 312.60938 344.2469Q312.20312 344.48126 312.01562 344.90314Q311.84375 345.3094 311.84375 346.04376L311.84375 349.45L310.79688 349.45ZM317.79688 349.45L317.79688 343.23126L318.73438 343.23126L318.73438 344.10626Q319.03125 343.6375 319.51562 343.3719Q320.0 343.09064 320.625 343.09064Q321.3125 343.09064 321.75 343.3719Q322.20312 343.65314 322.375 344.16876Q323.125 343.09064 324.29688 343.09064Q325.23438 343.09064 325.71875 343.60626Q326.21875 344.10626 326.21875 345.1844L326.21875 349.45L325.17188 349.45L325.17188 345.52814Q325.17188 344.90314 325.0625 344.6219Q324.96875 344.34064 324.70312 344.16876Q324.4375 343.9969 324.0625 343.9969Q323.40625 343.9969 322.96875 344.4344Q322.54688 344.8719 322.54688 345.84064L322.54688 349.45L321.48438 349.45L321.48438 345.40314Q321.48438 344.7 321.21875 344.35626Q320.96875 343.9969 320.39062 343.9969Q319.9375 343.9969 319.5625 344.23126Q319.1875 344.46564 319.01562 344.91876Q318.84375 345.3719 318.84375 346.21564L318.84375 349.45L317.79688 349.45ZM332.85938 348.6844Q332.26562 349.1844 331.71875 349.3875Q331.1875 349.59064 330.5625 349.59064Q329.53125 349.59064 328.98438 349.09064Q328.4375 348.59064 328.4375 347.8094Q328.4375 347.35626 328.64062 346.98126Q328.84375 346.59064 329.1875 346.3719Q329.53125 346.1375 329.95312 346.02814Q330.25 345.9344 330.89062 345.85626Q332.15625 345.71564 332.76562 345.4969Q332.76562 345.27814 332.76562 345.23126Q332.76562 344.575 332.46875 344.3094Q332.0625 343.96564 331.26562 343.96564Q330.53125 343.96564 330.17188 344.23126Q329.8125 344.48126 329.64062 345.1375L328.60938 344.9969Q328.75 344.34064 329.07812 343.9344Q329.40625 343.52814 330.01562 343.3094Q330.625 343.09064 331.42188 343.09064Q332.21875 343.09064 332.71875 343.27814Q333.21875 343.46564 333.45312 343.7469Q333.6875 344.02814 333.78125 344.46564Q333.82812 344.73126 333.82812 345.4344L333.82812 346.84064Q333.82812 348.3094 333.89062 348.7Q333.96875 349.09064 334.17188 349.45L333.0625 349.45Q332.90625 349.1219 332.85938 348.6844ZM332.76562 346.325Q332.1875 346.5594 331.04688 346.73126Q330.39062 346.825 330.125 346.95Q329.85938 347.0594 329.70312 347.27814Q329.5625 347.4969 329.5625 347.77814Q329.5625 348.2 329.875 348.48126Q330.20312 348.7625 330.8125 348.7625Q331.42188 348.7625 331.89062 348.4969Q332.375 348.23126 332.59375 347.7625Q332.76562 347.40314 332.76562 346.71564L332.76562 346.325ZM335.78125 349.45L335.78125 343.23126L336.73438 343.23126L336.73438 344.16876Q337.09375 343.5125 337.39062 343.3094Q337.70312 343.09064 338.07812 343.09064Q338.60938 343.09064 339.15625 343.41876L338.79688 344.40314Q338.40625 344.16876 338.03125 344.16876Q337.67188 344.16876 337.39062 344.3875Q337.125 344.59064 337.01562 344.96564Q336.82812 345.52814 336.82812 346.1844L336.82812 349.45L335.78125 349.45ZM339.79688 349.45L339.79688 340.85626L340.85938 340.85626L340.85938 345.7625L343.34375 343.23126L344.71875 343.23126L342.32812 345.52814L344.95312 349.45L343.65625 349.45L341.59375 346.2625L340.85938 346.98126L340.85938 349.45L339.79688 349.45Z" fill-rule="nonzero"/><path fill="#000000" d="M33.05 300.21564Q33.05 298.6844 33.3625 297.7625Q33.675 296.825 34.284374 296.325Q34.909374 295.825 35.846874 295.825Q36.534374 295.825 37.05 296.10626Q37.58125 296.3875 37.925 296.91876Q38.26875 297.4344 38.45625 298.1844Q38.64375 298.9344 38.64375 300.21564Q38.64375 301.73126 38.33125 302.65314Q38.034374 303.575 37.409374 304.09064Q36.8 304.59064 35.846874 304.59064Q34.6125 304.59064 33.89375 303.7Q33.05 302.6375 33.05 300.21564ZM34.128124 300.21564Q34.128124 302.325 34.628124 303.02814Q35.128124 303.73126 35.846874 303.73126Q36.58125 303.73126 37.065624 303.02814Q37.565624 302.325 37.565624 300.21564Q37.565624 298.09064 37.065624 297.40314Q36.58125 296.7 35.83125 296.7Q35.1125 296.7 34.675 297.3094Q34.128124 298.09064 34.128124 300.21564Z" fill-rule="nonzero"/><path fill="#000000" d="M33.05 283.08206L34.159374 282.9883Q34.284374 283.8008 34.721874 284.20706Q35.175 284.6133 35.815624 284.6133Q36.565624 284.6133 37.096874 284.0352Q37.628124 283.45706 37.628124 282.51956Q37.628124 281.6133 37.1125 281.0977Q36.6125 280.56644 35.784374 280.56644Q35.284374 280.56644 34.8625 280.8008Q34.45625 281.0352 34.221874 281.39456L33.2375 281.26956L34.065624 276.8633L38.346874 276.8633L38.346874 277.8633L34.909374 277.8633L34.45625 280.1758Q35.221874 279.62894 36.065624 279.62894Q37.190624 279.62894 37.95625 280.4102Q38.7375 281.19144 38.7375 282.4258Q38.7375 283.58206 38.065624 284.44144Q37.2375 285.4727 35.815624 285.4727Q34.64375 285.4727 33.89375 284.81644Q33.159374 284.1602 33.05 283.08206Z" fill-rule="nonzero"/><path fill="#000000" d="M30.01875 266.2141L28.971874 266.2141L28.971874 259.49536Q28.58125 259.85474 27.95625 260.22974Q27.346874 260.5891 26.8625 260.761L26.8625 259.74536Q27.7375 259.3235 28.39375 258.74536Q29.065624 258.1516 29.346874 257.5891L30.01875 257.5891L30.01875 266.2141ZM33.05 261.97974Q33.05 260.4485 33.3625 259.5266Q33.675 258.5891 34.284374 258.0891Q34.909374 257.5891 35.846874 257.5891Q36.534374 257.5891 37.05 257.87036Q37.58125 258.1516 37.925 258.68286Q38.26875 259.1985 38.45625 259.9485Q38.64375 260.6985 38.64375 261.97974Q38.64375 263.49536 38.33125 264.41724Q38.034374 265.3391 37.409374 265.85474Q36.8 266.35474 35.846874 266.35474Q34.6125 266.35474 33.89375 265.4641Q33.05 264.4016 33.05 261.97974ZM34.128124 261.97974Q34.128124 264.0891 34.628124 264.79224Q35.128124 265.49536 35.846874 265.49536Q36.58125 265.49536 37.065624 264.79224Q37.565624 264.0891 37.565624 261.97974Q37.565624 259.85474 37.065624 259.16724Q36.58125 258.4641 35.83125 258.4641Q35.1125 258.4641 34.675 259.0735Q34.128124 259.85474 34.128124 261.97974Z" fill-rule="nonzero"/><path fill="#000000" d="M30.01875 247.09616L28.971874 247.09616L28.971874 240.37741Q28.58125 240.73679 27.95625 241.11179Q27.346874 241.47116 26.8625 241.64304L26.8625 240.62741Q27.7375 240.20554 28.39375 239.62741Q29.065624 239.03366 29.346874 238.47116L30.01875 238.47116L30.01875 247.09616ZM33.05 244.84616L34.159374 244.75241Q34.284374 245.56491 34.721874 245.97116Q35.175 246.37741 35.815624 246.37741Q36.565624 246.37741 37.096874 245.79929Q37.628124 245.22116 37.628124 244.28366Q37.628124 243.37741 37.1125 242.86179Q36.6125 242.33054 35.784374 242.33054Q35.284374 242.33054 34.8625 242.56491Q34.45625 242.79929 34.221874 243.15866L33.2375 243.03366L34.065624 238.62741L38.346874 238.62741L38.346874 239.62741L34.909374 239.62741L34.45625 241.93991Q35.221874 241.39304 36.065624 241.39304Q37.190624 241.39304 37.95625 242.17429Q38.7375 242.95554 38.7375 244.18991Q38.7375 245.34616 38.065624 246.20554Q37.2375 247.23679 35.815624 247.23679Q34.64375 247.23679 33.89375 246.58054Q33.159374 245.92429 33.05 244.84616Z" fill-rule="nonzero"/><path fill="#000000" d="M31.596874 226.96259L31.596874 227.97821L25.909374 227.97821Q25.909374 227.60321 26.034374 227.24384Q26.253124 226.66571 26.721874 226.10321Q27.20625 225.54071 28.1125 224.80634Q29.51875 223.65009 30.003124 222.97821Q30.503124 222.30634 30.503124 221.71259Q30.503124 221.08759 30.05 220.66571Q29.596874 220.22821 28.878124 220.22821Q28.1125 220.22821 27.659374 220.68134Q27.20625 221.13446 27.190624 221.94696L26.1125 221.83759Q26.221874 220.61884 26.940624 219.99384Q27.675 219.35321 28.909374 219.35321Q30.14375 219.35321 30.8625 220.04071Q31.58125 220.72821 31.58125 221.74384Q31.58125 222.25946 31.3625 222.75946Q31.159374 223.24384 30.659374 223.80634Q30.175 224.35321 29.05 225.30634Q28.096874 226.10321 27.815624 226.40009Q27.55 226.68134 27.378124 226.96259L31.596874 226.96259ZM33.05 223.74384Q33.05 222.21259 33.3625 221.29071Q33.675 220.35321 34.284374 219.85321Q34.909374 219.35321 35.846874 219.35321Q36.534374 219.35321 37.05 219.63446Q37.58125 219.91571 37.925 220.44696Q38.26875 220.96259 38.45625 221.71259Q38.64375 222.46259 38.64375 223.74384Q38.64375 225.25946 38.33125 226.18134Q38.034374 227.10321 37.409374 227.61884Q36.8 228.11884 35.846874 228.11884Q34.6125 228.11884 33.89375 227.22821Q33.05 226.16571 33.05 223.74384ZM34.128124 223.74384Q34.128124 225.85321 34.628124 226.55634Q35.128124 227.25946 35.846874 227.25946Q36.58125 227.25946 37.065624 226.55634Q37.565624 225.85321 37.565624 223.74384Q37.565624 221.61884 37.065624 220.93134Q36.58125 220.22821 35.83125 220.22821Q35.1125 220.22821 34.675 220.83759Q34.128124 221.61884 34.128124 223.74384Z" fill-rule="nonzero"/><path fill="#000000" d="M31.596874 207.84464L31.596874 208.86026L25.909374 208.86026Q25.909374 208.48526 26.034374 208.12589Q26.253124 207.54776 26.721874 206.98526Q27.20625 206.42276 28.1125 205.68839Q29.51875 204.53214 30.003124 203.86026Q30.503124 203.18839 30.503124 202.59464Q30.503124 201.96964 30.05 201.54776Q29.596874 201.11026 28.878124 201.11026Q28.1125 201.11026 27.659374 201.56339Q27.20625 202.01651 27.190624 202.82901L26.1125 202.71964Q26.221874 201.50089 26.940624 200.87589Q27.675 200.23526 28.909374 200.23526Q30.14375 200.23526 30.8625 200.92276Q31.58125 201.61026 31.58125 202.62589Q31.58125 203.14151 31.3625 203.64151Q31.159374 204.12589 30.659374 204.68839Q30.175 205.23526 29.05 206.18839Q28.096874 206.98526 27.815624 207.28214Q27.55 207.56339 27.378124 207.84464L31.596874 207.84464ZM33.05 206.61026L34.159374 206.51651Q34.284374 207.32901 34.721874 207.73526Q35.175 208.14151 35.815624 208.14151Q36.565624 208.14151 37.096874 207.56339Q37.628124 206.98526 37.628124 206.04776Q37.628124 205.14151 37.1125 204.62589Q36.6125 204.09464 35.784374 204.09464Q35.284374 204.09464 34.8625 204.32901Q34.45625 204.56339 34.221874 204.92276L33.2375 204.79776L34.065624 200.39151L38.346874 200.39151L38.346874 201.39151L34.909374 201.39151L34.45625 203.70401Q35.221874 203.15714 36.065624 203.15714Q37.190624 203.15714 37.95625 203.93839Q38.7375 204.71964 38.7375 205.95401Q38.7375 207.11026 38.065624 207.96964Q37.2375 209.00089 35.815624 209.00089Q34.64375 209.00089 33.89375 208.34464Q33.159374 207.68839 33.05 206.61026Z" fill-rule="nonzero"/><path fill="#000000" d="M26.05 187.47668L27.1125 187.33606Q27.284374 188.22668 27.721874 188.63293Q28.159374 189.02356 28.784374 189.02356Q29.534374 189.02356 30.05 188.50793Q30.565624 187.99231 30.565624 187.22668Q30.565624 186.50793 30.08125 186.03918Q29.6125 185.55481 28.878124 185.55481Q28.58125 185.55481 28.128124 185.67981L28.253124 184.74231Q28.3625 184.75793 28.425 184.75793Q29.096874 184.75793 29.628124 184.41418Q30.175 184.05481 30.175 183.32043Q30.175 182.74231 29.784374 182.36731Q29.39375 181.97668 28.76875 181.97668Q28.159374 181.97668 27.7375 182.36731Q27.33125 182.75793 27.221874 183.52356L26.159374 183.33606Q26.346874 182.28918 27.034374 181.71106Q27.721874 181.11731 28.7375 181.11731Q29.440624 181.11731 30.034374 181.42981Q30.628124 181.72668 30.940624 182.24231Q31.253124 182.75793 31.253124 183.35168Q31.253124 183.89856 30.95625 184.36731Q30.659374 184.82043 30.08125 185.08606Q30.83125 185.25793 31.253124 185.82043Q31.675 186.36731 31.675 187.21106Q31.675 188.33606 30.846874 189.11731Q30.034374 189.89856 28.784374 189.89856Q27.659374 189.89856 26.909374 189.22668Q26.159374 188.53918 26.05 187.47668ZM33.05 185.50793Q33.05 183.97668 33.3625 183.05481Q33.675 182.11731 34.284374 181.61731Q34.909374 181.11731 35.846874 181.11731Q36.534374 181.11731 37.05 181.39856Q37.58125 181.67981 37.925 182.21106Q38.26875 182.72668 38.45625 183.47668Q38.64375 184.22668 38.64375 185.50793Q38.64375 187.02356 38.33125 187.94543Q38.034374 188.86731 37.409374 189.38293Q36.8 189.88293 35.846874 189.88293Q34.6125 189.88293 33.89375 188.99231Q33.05 187.92981 33.05 185.50793ZM34.128124 185.50793Q34.128124 187.61731 34.628124 188.32043Q35.128124 189.02356 35.846874 189.02356Q36.58125 189.02356 37.065624 188.32043Q37.565624 187.61731 37.565624 185.50793Q37.565624 183.38293 37.065624 182.69543Q36.58125 181.99231 35.83125 181.99231Q35.1125 181.99231 34.675 182.60168Q34.128124 183.38293 34.128124 185.50793Z" fill-rule="nonzero"/><path fill="#000000" d="M26.05 168.35873L27.1125 168.21811Q27.284374 169.10873 27.721874 169.51498Q28.159374 169.90561 28.784374 169.90561Q29.534374 169.90561 30.05 169.38998Q30.565624 168.87436 30.565624 168.10873Q30.565624 167.38998 30.08125 166.92123Q29.6125 166.43686 28.878124 166.43686Q28.58125 166.43686 28.128124 166.56186L28.253124 165.62436Q28.3625 165.63998 28.425 165.63998Q29.096874 165.63998 29.628124 165.29623Q30.175 164.93686 30.175 164.20248Q30.175 163.62436 29.784374 163.24936Q29.39375 162.85873 28.76875 162.85873Q28.159374 162.85873 27.7375 163.24936Q27.33125 163.63998 27.221874 164.40561L26.159374 164.21811Q26.346874 163.17123 27.034374 162.59311Q27.721874 161.99936 28.7375 161.99936Q29.440624 161.99936 30.034374 162.31186Q30.628124 162.60873 30.940624 163.12436Q31.253124 163.63998 31.253124 164.23373Q31.253124 164.78061 30.95625 165.24936Q30.659374 165.70248 30.08125 165.96811Q30.83125 166.13998 31.253124 166.70248Q31.675 167.24936 31.675 168.09311Q31.675 169.21811 30.846874 169.99936Q30.034374 170.78061 28.784374 170.78061Q27.659374 170.78061 26.909374 170.10873Q26.159374 169.42123 26.05 168.35873ZM33.05 168.37436L34.159374 168.28061Q34.284374 169.09311 34.721874 169.49936Q35.175 169.90561 35.815624 169.90561Q36.565624 169.90561 37.096874 169.32748Q37.628124 168.74936 37.628124 167.81186Q37.628124 166.90561 37.1125 166.38998Q36.6125 165.85873 35.784374 165.85873Q35.284374 165.85873 34.8625 166.09311Q34.45625 166.32748 34.221874 166.68686L33.2375 166.56186L34.065624 162.15561L38.346874 162.15561L38.346874 163.15561L34.909374 163.15561L34.45625 165.46811Q35.221874 164.92123 36.065624 164.92123Q37.190624 164.92123 37.95625 165.70248Q38.7375 166.48373 38.7375 167.71811Q38.7375 168.87436 38.065624 169.73373Q37.2375 170.76498 35.815624 170.76498Q34.64375 170.76498 33.89375 170.10873Q33.159374 169.45248 33.05 168.37436Z" fill-rule="nonzero"/><path fill="#000000" d="M29.425 151.50641L29.425 149.44391L25.70625 149.44391L25.70625 148.47516L29.628124 142.91266L30.4875 142.91266L30.4875 148.47516L31.64375 148.47516L31.64375 149.44391L30.4875 149.44391L30.4875 151.50641L29.425 151.50641ZM29.425 148.47516L29.425 144.61578L26.7375 148.47516L29.425 148.47516ZM33.05 147.27203Q33.05 145.74078 33.3625 144.81891Q33.675 143.88141 34.284374 143.38141Q34.909374 142.88141 35.846874 142.88141Q36.534374 142.88141 37.05 143.16266Q37.58125 143.44391 37.925 143.97516Q38.26875 144.49078 38.45625 145.24078Q38.64375 145.99078 38.64375 147.27203Q38.64375 148.78766 38.33125 149.70953Q38.034374 150.63141 37.409374 151.14703Q36.8 151.64703 35.846874 151.64703Q34.6125 151.64703 33.89375 150.75641Q33.05 149.69391 33.05 147.27203ZM34.128124 147.27203Q34.128124 149.38141 34.628124 150.08453Q35.128124 150.78766 35.846874 150.78766Q36.58125 150.78766 37.065624 150.08453Q37.565624 149.38141 37.565624 147.27203Q37.565624 145.14703 37.065624 144.45953Q36.58125 143.75641 35.83125 143.75641Q35.1125 143.75641 34.675 144.36578Q34.128124 145.14703 34.128124 147.27203Z" fill-rule="nonzero"/><path fill="#000000" d="M29.425 132.38846L29.425 130.32596L25.70625 130.32596L25.70625 129.35721L29.628124 123.79471L30.4875 123.79471L30.4875 129.35721L31.64375 129.35721L31.64375 130.32596L30.4875 130.32596L30.4875 132.38846L29.425 132.38846ZM29.425 129.35721L29.425 125.49783L26.7375 129.35721L29.425 129.35721ZM33.05 130.13846L34.159374 130.04471Q34.284374 130.85721 34.721874 131.26346Q35.175 131.66971 35.815624 131.66971Q36.565624 131.66971 37.096874 131.09158Q37.628124 130.51346 37.628124 129.57596Q37.628124 128.66971 37.1125 128.15408Q36.6125 127.62283 35.784374 127.62283Q35.284374 127.62283 34.8625 127.85721Q34.45625 128.09158 34.221874 128.45096L33.2375 128.32596L34.065624 123.91971L38.346874 123.91971L38.346874 124.91971L34.909374 124.91971L34.45625 127.23221Q35.221874 126.68533 36.065624 126.68533Q37.190624 126.68533 37.95625 127.46658Q38.7375 128.24783 38.7375 129.48221Q38.7375 130.63846 38.065624 131.49783Q37.2375 132.52908 35.815624 132.52908Q34.64375 132.52908 33.89375 131.87283Q33.159374 131.21658 33.05 130.13846Z" fill-rule="nonzero"/><path fill="#000000" d="M26.05 111.020515L27.159374 110.926765Q27.284374 111.739265 27.721874 112.145515Q28.175 112.551765 28.815624 112.551765Q29.565624 112.551765 30.096874 111.97364Q30.628124 111.395515 30.628124 110.458015Q30.628124 109.551765 30.1125 109.03614Q29.6125 108.50489 28.784374 108.50489Q28.284374 108.50489 27.8625 108.739265Q27.45625 108.97364 27.221874 109.333015L26.2375 109.208015L27.065624 104.801765L31.346874 104.801765L31.346874 105.801765L27.909374 105.801765L27.45625 108.114265Q28.221874 107.56739 29.065624 107.56739Q30.190624 107.56739 30.95625 108.34864Q31.7375 109.12989 31.7375 110.364265Q31.7375 111.520515 31.065624 112.37989Q30.2375 113.41114 28.815624 113.41114Q27.64375 113.41114 26.89375 112.75489Q26.159374 112.09864 26.05 111.020515ZM33.05 109.03614Q33.05 107.50489 33.3625 106.583015Q33.675 105.645515 34.284374 105.145515Q34.909374 104.645515 35.846874 104.645515Q36.534374 104.645515 37.05 104.926765Q37.58125 105.208015 37.925 105.739265Q38.26875 106.25489 38.45625 107.00489Q38.64375 107.75489 38.64375 109.03614Q38.64375 110.551765 38.33125 111.47364Q38.034374 112.395515 37.409374 112.91114Q36.8 113.41114 35.846874 113.41114Q34.6125 113.41114 33.89375 112.520515Q33.05 111.458015 33.05 109.03614ZM34.128124 109.03614Q34.128124 111.145515 34.628124 111.84864Q35.128124 112.551765 35.846874 112.551765Q36.58125 112.551765 37.065624 111.84864Q37.565624 111.145515 37.565624 109.03614Q37.565624 106.91114 37.065624 106.22364Q36.58125 105.520515 35.83125 105.520515Q35.1125 105.520515 34.675 106.12989Q34.128124 106.91114 34.128124 109.03614Z" fill-rule="nonzero"/><path fill="#000000" d="M26.05 91.902565L27.159374 91.808815Q27.284374 92.621315 27.721874 93.027565Q28.175 93.433815 28.815624 93.433815Q29.565624 93.433815 30.096874 92.85569Q30.628124 92.277565 30.628124 91.340065Q30.628124 90.433815 30.1125 89.91819Q29.6125 89.38694 28.784374 89.38694Q28.284374 89.38694 27.8625 89.621315Q27.45625 89.85569 27.221874 90.215065L26.2375 90.090065L27.065624 85.683815L31.346874 85.683815L31.346874 86.683815L27.909374 86.683815L27.45625 88.996315Q28.221874 88.44944 29.065624 88.44944Q30.190624 88.44944 30.95625 89.23069Q31.7375 90.01194 31.7375 91.246315Q31.7375 92.402565 31.065624 93.26194Q30.2375 94.29319 28.815624 94.29319Q27.64375 94.29319 26.89375 93.63694Q26.159374 92.98069 26.05 91.902565ZM33.05 91.902565L34.159374 91.808815Q34.284374 92.621315 34.721874 93.027565Q35.175 93.433815 35.815624 93.433815Q36.565624 93.433815 37.096874 92.85569Q37.628124 92.277565 37.628124 91.340065Q37.628124 90.433815 37.1125 89.91819Q36.6125 89.38694 35.784374 89.38694Q35.284374 89.38694 34.8625 89.621315Q34.45625 89.85569 34.221874 90.215065L33.2375 90.090065L34.065624 85.683815L38.346874 85.683815L38.346874 86.683815L34.909374 86.683815L34.45625 88.996315Q35.221874 88.44944 36.065624 88.44944Q37.190624 88.44944 37.95625 89.23069Q38.7375 90.01194 38.7375 91.246315Q38.7375 92.402565 38.065624 93.26194Q37.2375 94.29319 35.815624 94.29319Q34.64375 94.29319 33.89375 93.63694Q33.159374 92.98069 33.05 91.902565Z" fill-rule="nonzero"/><path fill="#000000" d="M31.51875 68.55024L30.471874 68.628365Q30.33125 68.003365 30.08125 67.722115Q29.64375 67.26899 29.01875 67.26899Q28.51875 67.26899 28.128124 67.55024Q27.64375 67.92524 27.346874 68.628365Q27.065624 69.315865 27.05 70.597115Q27.425 70.01899 27.971874 69.73774Q28.534374 69.45649 29.14375 69.45649Q30.190624 69.45649 30.925 70.23774Q31.675 71.01899 31.675 72.23774Q31.675 73.05024 31.315624 73.753365Q30.971874 74.440865 30.3625 74.815865Q29.753124 75.17524 28.9875 75.17524Q27.659374 75.17524 26.83125 74.20649Q26.003124 73.23774 26.003124 71.01899Q26.003124 68.51899 26.925 67.39399Q27.721874 66.409615 29.08125 66.409615Q30.096874 66.409615 30.7375 66.98774Q31.39375 67.55024 31.51875 68.55024ZM27.221874 72.253365Q27.221874 72.80024 27.440624 73.30024Q27.675 73.784615 28.08125 74.05024Q28.503124 74.315865 28.971874 74.315865Q29.628124 74.315865 30.1125 73.784615Q30.596874 73.23774 30.596874 72.315865Q30.596874 71.42524 30.1125 70.909615Q29.64375 70.39399 28.925 70.39399Q28.20625 70.39399 27.70625 70.909615Q27.221874 71.42524 27.221874 72.253365ZM33.05 70.80024Q33.05 69.26899 33.3625 68.347115Q33.675 67.409615 34.284374 66.909615Q34.909374 66.409615 35.846874 66.409615Q36.534374 66.409615 37.05 66.690865Q37.58125 66.972115 37.925 67.503365Q38.26875 68.01899 38.45625 68.76899Q38.64375 69.51899 38.64375 70.80024Q38.64375 72.315865 38.33125 73.23774Q38.034374 74.159615 37.409374 74.67524Q36.8 75.17524 35.846874 75.17524Q34.6125 75.17524 33.89375 74.284615Q33.05 73.222115 33.05 70.80024ZM34.128124 70.80024Q34.128124 72.909615 34.628124 73.61274Q35.128124 74.315865 35.846874 74.315865Q36.58125 74.315865 37.065624 73.61274Q37.565624 72.909615 37.565624 70.80024Q37.565624 68.67524 37.065624 67.98774Q36.58125 67.284615 35.83125 67.284615Q35.1125 67.284615 34.675 67.89399Q34.128124 68.67524 34.128124 70.80024Z" fill-rule="nonzero"/><path fill="#000000" d="M31.51875 49.432293L30.471874 49.510418Q30.33125 48.885418 30.08125 48.604168Q29.64375 48.151043 29.01875 48.151043Q28.51875 48.151043 28.128124 48.432293Q27.64375 48.807293 27.346874 49.510418Q27.065624 50.197918 27.05 51.479168Q27.425 50.901043 27.971874 50.619793Q28.534374 50.338543 29.14375 50.338543Q30.190624 50.338543 30.925 51.119793Q31.675 51.901043 31.675 53.119793Q31.675 53.932293 31.315624 54.635418Q30.971874 55.322918 30.3625 55.697918Q29.753124 56.057293 28.9875 56.057293Q27.659374 56.057293 26.83125 55.088543Q26.003124 54.119793 26.003124 51.901043Q26.003124 49.401043 26.925 48.276043Q27.721874 47.291668 29.08125 47.291668Q30.096874 47.291668 30.7375 47.869793Q31.39375 48.432293 31.51875 49.432293ZM27.221874 53.135418Q27.221874 53.682293 27.440624 54.182293Q27.675 54.666668 28.08125 54.932293Q28.503124 55.197918 28.971874 55.197918Q29.628124 55.197918 30.1125 54.666668Q30.596874 54.119793 30.596874 53.197918Q30.596874 52.307293 30.1125 51.791668Q29.64375 51.276043 28.925 51.276043Q28.20625 51.276043 27.70625 51.791668Q27.221874 52.307293 27.221874 53.135418ZM33.05 53.666668L34.159374 53.572918Q34.284374 54.385418 34.721874 54.791668Q35.175 55.197918 35.815624 55.197918Q36.565624 55.197918 37.096874 54.619793Q37.628124 54.041668 37.628124 53.104168Q37.628124 52.197918 37.1125 51.682293Q36.6125 51.151043 35.784374 51.151043Q35.284374 51.151043 34.8625 51.385418Q34.45625 51.619793 34.221874 51.979168L33.2375 51.854168L34.065624 47.447918L38.346874 47.447918L38.346874 48.447918L34.909374 48.447918L34.45625 50.760418Q35.221874 50.213543 36.065624 50.213543Q37.190624 50.213543 37.95625 50.994793Q38.7375 51.776043 38.7375 53.010418Q38.7375 54.166668 38.065624 55.026043Q37.2375 56.057293 35.815624 56.057293Q34.64375 56.057293 33.89375 55.401043Q33.159374 54.744793 33.05 53.666668Z" fill-rule="nonzero"/><path fill="#000000" d="M110.75377 314.6844L111.81627 314.59064Q111.894394 315.2469 112.175644 315.65314Q112.456894 316.0594 113.03502 316.325Q113.62877 316.575 114.363144 316.575Q115.00377 316.575 115.50377 316.3875Q116.00377 316.1844 116.238144 315.85626Q116.488144 315.5125 116.488144 315.1219Q116.488144 314.71564 116.25377 314.41876Q116.019394 314.10626 115.488144 313.90314Q115.12877 313.7625 113.94127 313.48126Q112.769394 313.2 112.300644 312.95Q111.675644 312.6219 111.37877 312.15314Q111.081894 311.66876 111.081894 311.075Q111.081894 310.4344 111.44127 309.8719Q111.81627 309.29376 112.519394 309.0125Q113.238144 308.71564 114.09752 308.71564Q115.050644 308.71564 115.78502 309.02814Q116.519394 309.325 116.91002 309.9344Q117.300644 310.52814 117.331894 311.27814L116.238144 311.35626Q116.144394 310.54376 115.62877 310.1375Q115.12877 309.71564 114.144394 309.71564Q113.113144 309.71564 112.644394 310.09064Q112.175644 310.46564 112.175644 310.9969Q112.175644 311.46564 112.50377 311.7625Q112.831894 312.0594 114.206894 312.3719Q115.59752 312.6844 116.113144 312.91876Q116.863144 313.27814 117.22252 313.8094Q117.581894 314.325 117.581894 315.02814Q117.581894 315.71564 117.19127 316.325Q116.800644 316.91876 116.06627 317.2625Q115.331894 317.59064 114.41002 317.59064Q113.238144 317.59064 112.44127 317.2625Q111.66002 316.91876 111.206894 316.23126Q110.769394 315.54376 110.75377 314.6844ZM118.19127 317.45L121.488144 308.85626L122.706894 308.85626L126.22252 317.45L124.94127 317.45L123.925644 314.84064L120.34752 314.84064L119.394394 317.45L118.19127 317.45ZM120.675644 313.91876L123.581894 313.91876L122.69127 311.54376Q122.269394 310.46564 122.081894 309.7625Q121.91002 310.59064 121.613144 311.40314L120.675644 313.91876ZM125.25377 317.45L128.5819 312.96564L125.66002 308.85626L127.00377 308.85626L128.56627 311.0594Q129.05064 311.7469 129.25377 312.1219Q129.55064 311.65314 129.94127 311.1375L131.66002 308.85626L132.8944 308.85626L129.87877 312.90314L133.12877 317.45L131.72252 317.45L129.56627 314.3875Q129.37877 314.1219 129.19127 313.8094Q128.91002 314.27814 128.78502 314.45L126.62877 317.45L125.25377 317.45ZM133.12877 317.45L133.12877 308.85626L136.37877 308.85626Q137.22252 308.85626 137.67564 308.9344Q138.31627 309.04376 138.73814 309.34064Q139.17564 309.6375 139.42564 310.16876Q139.69127 310.7 139.69127 311.34064Q139.69127 312.4344 138.98814 313.2Q138.30064 313.95 136.47252 313.95L134.2694 313.95L134.2694 317.45L133.12877 317.45ZM134.2694 312.95L136.48814 312.95Q137.59752 312.95 138.05064 312.54376Q138.5194 312.1219 138.5194 311.3719Q138.5194 310.84064 138.23814 310.46564Q137.97252 310.075 137.53502 309.95Q137.23814 309.8719 136.47252 309.8719L134.2694 309.8719L134.2694 312.95ZM143.55064 317.45L143.55064 313.8094L140.23814 308.85626L141.62877 308.85626L143.31627 311.45Q143.78502 312.16876 144.19127 312.90314Q144.5819 312.23126 145.12877 311.3875L146.80064 308.85626L148.11314 308.85626L144.69127 313.8094L144.69127 317.45L143.55064 317.45Z" fill-rule="nonzero"/><path fill="#000000" d="M233.82417 317.45L233.82417 308.85626L236.79292 308.85626Q237.79292 308.85626 238.32417 308.98126Q239.05855 309.15314 239.57417 309.59064Q240.26167 310.16876 240.5898 311.075Q240.93355 311.96564 240.93355 313.10626Q240.93355 314.09064 240.69917 314.84064Q240.48042 315.59064 240.12105 316.09064Q239.76167 316.59064 239.32417 316.8719Q238.9023 317.15314 238.30855 317.3094Q237.7148 317.45 236.93355 317.45L233.82417 317.45ZM234.9648 316.4344L236.79292 316.4344Q237.6523 316.4344 238.13667 316.27814Q238.62105 316.1219 238.9023 315.825Q239.30855 315.4344 239.5273 314.7469Q239.76167 314.0594 239.76167 313.09064Q239.76167 311.7469 239.30855 311.02814Q238.87105 310.29376 238.24605 310.04376Q237.7773 309.8719 236.7773 309.8719L234.9648 309.8719L234.9648 316.4344ZM241.88667 317.45L245.18355 308.85626L246.4023 308.85626L249.91792 317.45L248.63667 317.45L247.62105 314.84064L244.04292 314.84064L243.0898 317.45L241.88667 317.45ZM244.37105 313.91876L247.2773 313.91876L246.38667 311.54376Q245.9648 310.46564 245.7773 309.7625Q245.60542 310.59064 245.30855 311.40314L244.37105 313.91876ZM248.94917 317.45L252.2773 312.96564L249.35542 308.85626L250.69917 308.85626L252.26167 311.0594Q252.74605 311.7469 252.94917 312.1219Q253.24605 311.65314 253.63667 311.1375L255.35542 308.85626L256.58978 308.85626L253.57417 312.90314L256.82416 317.45L255.41792 317.45L253.26167 314.3875Q253.07417 314.1219 252.88667 313.8094Q252.60542 314.27814 252.48042 314.45L250.32417 317.45L248.94917 317.45ZM256.82416 317.45L256.82416 308.85626L260.07416 308.85626Q260.9179 308.85626 261.37103 308.9344Q262.01166 309.04376 262.43353 309.34064Q262.87103 309.6375 263.12103 310.16876Q263.38666 310.7 263.38666 311.34064Q263.38666 312.4344 262.68353 313.2Q261.99603 313.95 260.1679 313.95L257.96478 313.95L257.96478 317.45L256.82416 317.45ZM257.96478 312.95L260.18353 312.95Q261.2929 312.95 261.74603 312.54376Q262.21478 312.1219 262.21478 311.3719Q262.21478 310.84064 261.93353 310.46564Q261.6679 310.075 261.2304 309.95Q260.93353 309.8719 260.1679 309.8719L257.96478 309.8719L257.96478 312.95ZM267.24603 317.45L267.24603 313.8094L263.93353 308.85626L265.32416 308.85626L267.01166 311.45Q267.4804 312.16876 267.88666 312.90314Q268.27728 312.23126 268.82416 311.3875L270.49603 308.85626L271.80853 308.85626L268.38666 313.8094L268.38666 317.45L267.24603 317.45Z" fill-rule="nonzero"/><path fill="#000000" d="M355.14456 314.6844L356.20706 314.59064Q356.2852 315.2469 356.56644 315.65314Q356.8477 316.0594 357.4258 316.325Q358.01956 316.575 358.75394 316.575Q359.39456 316.575 359.89456 316.3875Q360.39456 316.1844 360.62894 315.85626Q360.87894 315.5125 360.87894 315.1219Q360.87894 314.71564 360.64456 314.41876Q360.4102 314.10626 359.87894 313.90314Q359.51956 313.7625 358.33206 313.48126Q357.1602 313.2 356.69144 312.95Q356.06644 312.6219 355.76956 312.15314Q355.4727 311.66876 355.4727 311.075Q355.4727 310.4344 355.83206 309.8719Q356.20706 309.29376 356.9102 309.0125Q357.62894 308.71564 358.4883 308.71564Q359.44144 308.71564 360.1758 309.02814Q360.9102 309.325 361.3008 309.9344Q361.69144 310.52814 361.7227 311.27814L360.62894 311.35626Q360.5352 310.54376 360.01956 310.1375Q359.51956 309.71564 358.5352 309.71564Q357.50394 309.71564 357.0352 310.09064Q356.56644 310.46564 356.56644 310.9969Q356.56644 311.46564 356.89456 311.7625Q357.2227 312.0594 358.5977 312.3719Q359.9883 312.6844 360.50394 312.91876Q361.25394 313.27814 361.6133 313.8094Q361.9727 314.325 361.9727 315.02814Q361.9727 315.71564 361.58206 316.325Q361.19144 316.91876 360.45706 317.2625Q359.7227 317.59064 358.8008 317.59064Q357.62894 317.59064 356.83206 317.2625Q356.0508 316.91876 355.5977 316.23126Q355.1602 315.54376 355.14456 314.6844ZM367.5508 314.075L367.5508 313.075L371.1758 313.0594L371.1758 316.2469Q370.3477 316.91876 369.45706 317.2625Q368.56644 317.59064 367.62894 317.59064Q366.3633 317.59064 365.31644 317.0594Q364.2852 316.5125 363.75394 315.4969Q363.2383 314.46564 363.2383 313.2Q363.2383 311.9344 363.75394 310.85626Q364.2852 309.7625 365.26956 309.2469Q366.25394 308.71564 367.5352 308.71564Q368.4727 308.71564 369.2227 309.0125Q369.9727 309.3094 370.39456 309.85626Q370.83206 310.3875 371.0508 311.2625L370.0352 311.54376Q369.83206 310.8875 369.5352 310.5125Q369.25394 310.1375 368.7227 309.91876Q368.19144 309.6844 367.5508 309.6844Q366.76956 309.6844 366.19144 309.91876Q365.62894 310.15314 365.26956 310.54376Q364.9258 310.9344 364.7383 311.40314Q364.4102 312.2 364.4102 313.1219Q364.4102 314.27814 364.8008 315.0594Q365.20706 315.825 365.95706 316.2Q366.70706 316.575 367.56644 316.575Q368.3008 316.575 369.00394 316.29376Q369.70706 315.9969 370.06644 315.6844L370.06644 314.075L367.5508 314.075ZM372.5508 317.45L372.5508 308.85626L378.75394 308.85626L378.75394 309.8719L373.69144 309.8719L373.69144 312.4969L378.44144 312.4969L378.44144 313.5125L373.69144 313.5125L373.69144 316.4344L378.95706 316.4344L378.95706 317.45L372.5508 317.45ZM380.4883 317.45L380.4883 308.85626L382.20706 308.85626L384.2383 314.9344Q384.51956 315.79376 384.64456 316.21564Q384.7852 315.7469 385.0977 314.84064L387.1602 308.85626L388.69144 308.85626L388.69144 317.45L387.5977 317.45L387.5977 310.2625L385.0977 317.45L384.06644 317.45L381.58206 310.1375L381.58206 317.45L380.4883 317.45ZM391.9727 317.45L388.64456 308.85626L389.87894 308.85626L392.1133 315.10626Q392.37894 315.85626 392.56644 316.5125Q392.76956 315.8094 393.0352 315.10626L395.3477 308.85626L396.50394 308.85626L393.14456 317.45L391.9727 317.45Z" fill-rule="nonzero"/><path fill="#000000" d="M477.33997 314.6844L478.40247 314.59064Q478.4806 315.2469 478.76184 315.65314Q479.0431 316.0594 479.62122 316.325Q480.21497 316.575 480.94934 316.575Q481.58997 316.575 482.08997 316.3875Q482.58997 316.1844 482.82434 315.85626Q483.07434 315.5125 483.07434 315.1219Q483.07434 314.71564 482.83997 314.41876Q482.6056 314.10626 482.07434 313.90314Q481.71497 313.7625 480.52747 313.48126Q479.3556 313.2 478.88684 312.95Q478.26184 312.6219 477.96497 312.15314Q477.6681 311.66876 477.6681 311.075Q477.6681 310.4344 478.02747 309.8719Q478.40247 309.29376 479.1056 309.0125Q479.82434 308.71564 480.68372 308.71564Q481.63684 308.71564 482.37122 309.02814Q483.1056 309.325 483.49622 309.9344Q483.88684 310.52814 483.9181 311.27814L482.82434 311.35626Q482.7306 310.54376 482.21497 310.1375Q481.71497 309.71564 480.7306 309.71564Q479.69934 309.71564 479.2306 310.09064Q478.76184 310.46564 478.76184 310.9969Q478.76184 311.46564 479.08997 311.7625Q479.4181 312.0594 480.7931 312.3719Q482.18372 312.6844 482.69934 312.91876Q483.44934 313.27814 483.80872 313.8094Q484.1681 314.325 484.1681 315.02814Q484.1681 315.71564 483.77747 316.325Q483.38684 316.91876 482.65247 317.2625Q481.9181 317.59064 480.99622 317.59064Q479.82434 317.59064 479.02747 317.2625Q478.24622 316.91876 477.7931 316.23126Q477.3556 315.54376 477.33997 314.6844ZM489.74622 314.075L489.74622 313.075L493.37122 313.0594L493.37122 316.2469Q492.5431 316.91876 491.65247 317.2625Q490.76184 317.59064 489.82434 317.59064Q488.55872 317.59064 487.51184 317.0594Q486.4806 316.5125 485.94934 315.4969Q485.43372 314.46564 485.43372 313.2Q485.43372 311.9344 485.94934 310.85626Q486.4806 309.7625 487.46497 309.2469Q488.44934 308.71564 489.7306 308.71564Q490.6681 308.71564 491.4181 309.0125Q492.1681 309.3094 492.58997 309.85626Q493.02747 310.3875 493.24622 311.2625L492.2306 311.54376Q492.02747 310.8875 491.7306 310.5125Q491.44934 310.1375 490.9181 309.91876Q490.38684 309.6844 489.74622 309.6844Q488.96497 309.6844 488.38684 309.91876Q487.82434 310.15314 487.46497 310.54376Q487.12122 310.9344 486.93372 311.40314Q486.6056 312.2 486.6056 313.1219Q486.6056 314.27814 486.99622 315.0594Q487.40247 315.825 488.15247 316.2Q488.90247 316.575 489.76184 316.575Q490.49622 316.575 491.19934 316.29376Q491.90247 315.9969 492.26184 315.6844L492.26184 314.075L489.74622 314.075ZM494.74622 317.45L494.74622 308.85626L500.94934 308.85626L500.94934 309.8719L495.88684 309.8719L495.88684 312.4969L500.63684 312.4969L500.63684 313.5125L495.88684 313.5125L495.88684 316.4344L501.15247 316.4344L501.15247 317.45L494.74622 317.45ZM502.68372 317.45L502.68372 308.85626L504.40247 308.85626L506.43372 314.9344Q506.71497 315.79376 506.83997 316.21564Q506.9806 315.7469 507.2931 314.84064L509.3556 308.85626L510.88684 308.85626L510.88684 317.45L509.7931 317.45L509.7931 310.2625L507.2931 317.45L506.26184 317.45L503.77747 310.1375L503.77747 317.45L502.68372 317.45ZM511.68372 317.45L511.68372 308.85626L513.40247 308.85626L515.4337 314.9344Q515.71497 315.79376 515.83997 316.21564Q515.9806 315.7469 516.2931 314.84064L518.3556 308.85626L519.88684 308.85626L519.88684 317.45L518.7931 317.45L518.7931 310.2625L516.2931 317.45L515.26184 317.45L512.77747 310.1375L512.77747 317.45L511.68372 317.45Z" fill-rule="nonzero"/><path fill="#9900ff" d="M245.0 20.55C245.0 19.997715 245.44771 19.55 246.0 19.55L256.0 19.55C256.55228 19.55 257.0 19.997715 257.0 20.55L257.0 30.55C257.0 31.102285 256.55228 31.55 256.0 31.55L246.0 31.55C245.44771 31.55 245.0 31.102285 245.0 30.55Z" fill-rule="nonzero"/><path fill="#1a1a1a" d="M265.875 29.55L265.875 20.95625L269.10938 20.95625Q270.09375 20.95625 270.6875 21.221874Q271.28125 21.4875 271.60938 22.034374Q271.95312 22.565624 271.95312 23.159374Q271.95312 23.70625 271.65625 24.190624Q271.35938 24.675 270.75 24.971874Q271.53125 25.20625 271.9375 25.76875Q272.35938 26.315624 272.35938 27.065624Q272.35938 27.659374 272.10938 28.190624Q271.85938 28.70625 271.48438 28.9875Q271.10938 29.26875 270.53125 29.409374Q269.96875 29.55 269.15625 29.55L265.875 29.55ZM267.01562 24.565624L268.875 24.565624Q269.625 24.565624 269.95312 24.471874Q270.39062 24.346874 270.60938 24.05Q270.82812 23.7375 270.82812 23.284374Q270.82812 22.8625 270.625 22.534374Q270.42188 22.20625 270.03125 22.096874Q269.65625 21.971874 268.73438 21.971874L267.01562 21.971874L267.01562 24.565624ZM267.01562 28.534374L269.15625 28.534374Q269.70312 28.534374 269.92188 28.4875Q270.32812 28.425 270.57812 28.26875Q270.84375 28.096874 271.01562 27.784374Q271.1875 27.471874 271.1875 27.065624Q271.1875 26.58125 270.9375 26.221874Q270.70312 25.8625 270.26562 25.721874Q269.82812 25.58125 269.0 25.58125L267.01562 25.58125L267.01562 28.534374ZM273.875 29.55L273.875 20.95625L275.01562 20.95625L275.01562 28.534374L279.25 28.534374L279.25 29.55L273.875 29.55ZM279.98438 29.55L283.28125 20.95625L284.5 20.95625L288.01562 29.55L286.73438 29.55L285.71875 26.940624L282.14062 26.940624L281.1875 29.55L279.98438 29.55ZM282.46875 26.01875L285.375 26.01875L284.48438 23.64375Q284.0625 22.565624 283.875 21.8625Q283.70312 22.690624 283.40625 23.503124L282.46875 26.01875ZM287.54688 26.784374L288.60938 26.690624Q288.6875 27.346874 288.96875 27.753124Q289.25 28.159374 289.82812 28.425Q290.42188 28.675 291.15625 28.675Q291.79688 28.675 292.29688 28.4875Q292.79688 28.284374 293.03125 27.95625Q293.28125 27.6125 293.28125 27.221874Q293.28125 26.815624 293.04688 26.51875Q292.8125 26.20625 292.28125 26.003124Q291.92188 25.8625 290.73438 25.58125Q289.5625 25.3 289.09375 25.05Q288.46875 24.721874 288.17188 24.253124Q287.875 23.76875 287.875 23.175Q287.875 22.534374 288.23438 21.971874Q288.60938 21.39375 289.3125 21.1125Q290.03125 20.815624 290.89062 20.815624Q291.84375 20.815624 292.57812 21.128124Q293.3125 21.425 293.70312 22.034374Q294.09375 22.628124 294.125 23.378124L293.03125 23.45625Q292.9375 22.64375 292.42188 22.2375Q291.92188 21.815624 290.9375 21.815624Q289.90625 21.815624 289.4375 22.190624Q288.96875 22.565624 288.96875 23.096874Q288.96875 23.565624 289.29688 23.8625Q289.625 24.159374 291.0 24.471874Q292.39062 24.784374 292.90625 25.01875Q293.65625 25.378124 294.01562 25.909374Q294.375 26.425 294.375 27.128124Q294.375 27.815624 293.98438 28.425Q293.59375 29.01875 292.85938 29.3625Q292.125 29.690624 291.20312 29.690624Q290.03125 29.690624 289.23438 29.3625Q288.45312 29.01875 288.0 28.33125Q287.5625 27.64375 287.54688 26.784374Z" fill-rule="nonzero"/><path fill="#ffd966" d="M311.0 20.55C311.0 19.997715 311.44772 19.55 312.0 19.55L322.0 19.55C322.55228 19.55 323.0 19.997715 323.0 20.55L323.0 30.55C323.0 31.102285 322.55228 31.55 322.0 31.55L312.0 31.55C311.44772 31.55 311.0 31.102285 311.0 30.55Z" fill-rule="nonzero"/><path fill="#1a1a1a" d="M331.89062 29.55L331.89062 20.95625L333.60938 20.95625L335.64062 27.034374Q335.92188 27.89375 336.04688 28.315624Q336.1875 27.846874 336.5 26.940624L338.5625 20.95625L340.09375 20.95625L340.09375 29.55L339.0 29.55L339.0 22.3625L336.5 29.55L335.46875 29.55L332.98438 22.2375L332.98438 29.55L331.89062 29.55ZM340.875 29.55L340.875 20.95625L342.01562 20.95625L342.01562 25.221874L346.28125 20.95625L347.82812 20.95625L344.21875 24.440624L347.98438 29.55L346.48438 29.55L343.42188 25.20625L342.01562 26.565624L342.01562 29.55L340.875 29.55ZM348.875 29.55L348.875 20.95625L350.01562 20.95625L350.01562 28.534374L354.25 28.534374L354.25 29.55L348.875 29.55Z" fill-rule="nonzero"/></svg>