<svg version="1.1" viewBox="0.0 0.0 600.0 371.0" fill="none" stroke="none" stroke-linecap="square" stroke-miterlimit="10" width="600" height="371" xmlns:xlink="http://www.w3.org/1999/xlink" xmlns="http://www.w3.org/2000/svg"><path fill="#ffffff" d="M0 0L600.0 0L600.0 371.0L0 371.0L0 0Z" fill-rule="nonzero"/><path stroke="#333333" stroke-width="1.0" stroke-linecap="butt" d="M45.5 300.5L581.5 300.5" fill-rule="nonzero"/><path stroke="#cccccc" stroke-width="1.0" stroke-linecap="butt" d="M45.5 176.5L581.5 176.5" fill-rule="nonzero"/><path stroke="#cccccc" stroke-width="1.0" stroke-linecap="butt" d="M45.5 51.5L581.5 51.5" fill-rule="nonzero"/><path stroke="#e6e6e6" stroke-width="1.0" stroke-linecap="butt" d="M45.5 275.5L581.5 275.5" fill-rule="nonzero"/><path stroke="#e6e6e6" stroke-width="1.0" stroke-linecap="butt" d="M45.5 250.5L581.5 250.5" fill-rule="nonzero"/><path stroke="#e6e6e6" stroke-width="1.0" stroke-linecap="butt" d="M45.5 225.5L581.5 225.5" fill-rule="nonzero"/><path stroke="#e6e6e6" stroke-width="1.0" stroke-linecap="butt" d="M45.5 201.5L581.5 201.5" fill-rule="nonzero"/><path stroke="#e6e6e6" stroke-width="1.0" stroke-linecap="butt" d="M45.5 151.5L581.5 151.5" fill-rule="nonzero"/><path stroke="#e6e6e6" stroke-width="1.0" stroke-linecap="butt" d="M45.5 126.5L581.5 126.5" fill-rule="nonzero"/><path stroke="#e6e6e6" stroke-width="1.0" stroke-linecap="butt" d="M45.5 101.5L581.5 101.5" fill-rule="nonzero"/><path stroke="#e6e6e6" stroke-width="1.0" stroke-linecap="butt" d="M45.5 76.5L581.5 76.5" fill-rule="nonzero"/><clipPath id="id_0"><path d="M45.55 51.916668L581.45 51.916668L581.45 300.45L45.55 300.45L45.55 51.916668Z" clip-rule="nonzero"/></clipPath><path stroke="#000000" stroke-width="2.0" stroke-linecap="butt" stroke-opacity="0.0" clip-path="url(#id_0)" d="M153.0 300.0L103.0 300.0L103.0 231.0C103.0 229.89543 103.89543 229.0 105.0 229.0L151.0 229.0C152.10457 229.0 153.0 229.89543 153.0 231.0Z" fill-rule="nonzero"/><path fill="#9900ff" clip-path="url(#id_0)" d="M153.0 300.0L103.0 300.0L103.0 231.0C103.0 229.89543 103.89543 229.0 105.0 229.0L151.0 229.0C152.10457 229.0 153.0 229.89543 153.0 231.0Z" fill-rule="nonzero"/><path stroke="#000000" stroke-width="2.0" stroke-linecap="butt" stroke-opacity="0.0" clip-path="url(#id_0)" d="M313.0 300.0L263.0 300.0L263.0 271.0C263.0 269.89542 263.89542 269.0 265.0 269.0L311.0 269.0C312.10458 269.0 313.0 269.89542 313.0 271.0Z" fill-rule="nonzero"/><path fill="#9900ff" clip-path="url(#id_0)" d="M313.0 300.0L263.0 300.0L263.0 271.0C263.0 269.89542 263.89542 269.0 265.0 269.0L311.0 269.0C312.10458 269.0 313.0 269.89542 313.0 271.0Z" fill-rule="nonzero"/><path stroke="#000000" stroke-width="2.0" stroke-linecap="butt" stroke-opacity="0.0" clip-path="url(#id_0)" d="M472.0 300.0L422.0 300.0L422.0 96.0C422.0 94.89543 422.89542 94.0 424.0 94.0L470.0 94.0C471.10458 94.0 472.0 94.89543 472.0 96.0Z" fill-rule="nonzero"/><path fill="#9900ff" clip-path="url(#id_0)" d="M472.0 300.0L422.0 300.0L422.0 96.0C422.0 94.89543 422.89542 94.0 424.0 94.0L470.0 94.0C471.10458 94.0 472.0 94.89543 472.0 96.0Z" fill-rule="nonzero"/><path stroke="#000000" stroke-width="2.0" stroke-linecap="butt" stroke-opacity="0.0" clip-path="url(#id_0)" d="M205.0 300.0L155.0 300.0L155.0 278.0C155.0 276.89542 155.89543 276.0 157.0 276.0L203.0 276.0C204.10457 276.0 205.0 276.89542 205.0 278.0Z" fill-rule="nonzero"/><path fill="#ffd966" clip-path="url(#id_0)" d="M205.0 300.0L155.0 300.0L155.0 278.0C155.0 276.89542 155.89543 276.0 157.0 276.0L203.0 276.0C204.10457 276.0 205.0 276.89542 205.0 278.0Z" fill-rule="nonzero"/><path stroke="#000000" stroke-width="2.0" stroke-linecap="butt" stroke-opacity="0.0" clip-path="url(#id_0)" d="M365.0 300.0L315.0 300.0L315.0 278.0C315.0 276.89542 315.89542 276.0 317.0 276.0L363.0 276.0C364.10458 276.0 365.0 276.89542 365.0 278.0Z" fill-rule="nonzero"/><path fill="#ffd966" clip-path="url(#id_0)" d="M365.0 300.0L315.0 300.0L315.0 278.0C315.0 276.89542 315.89542 276.0 317.0 276.0L363.0 276.0C364.10458 276.0 365.0 276.89542 365.0 278.0Z" fill-rule="nonzero"/><path stroke="#000000" stroke-width="2.0" stroke-linecap="butt" stroke-opacity="0.0" clip-path="url(#id_0)" d="M524.0 300.0L474.0 300.0L474.0 278.0C474.0 276.89542 474.89542 276.0 476.0 276.0L522.0 276.0C523.10455 276.0 524.0 276.89542 524.0 278.0Z" fill-rule="nonzero"/><path fill="#ffd966" clip-path="url(#id_0)" d="M524.0 300.0L474.0 300.0L474.0 278.0C474.0 276.89542 474.89542 276.0 476.0 276.0L522.0 276.0C523.10455 276.0 524.0 276.89542 524.0 278.0Z" fill-rule="nonzero"/><path fill="#000000" d="M282.875 349.45L282.875 340.85626L286.10938 340.85626Q287.09375 340.85626 287.6875 341.1219Q288.28125 341.3875 288.60938 341.9344Q288.95312 342.46564 288.95312 343.0594Q288.95312 343.60626 288.65625 344.09064Q288.35938 344.575 287.75 344.8719Q288.53125 345.10626 288.9375 345.66876Q289.35938 346.21564 289.35938 346.96564Q289.35938 347.5594 289.10938 348.09064Q288.85938 348.60626 288.48438 348.8875Q288.10938 349.16876 287.53125 349.3094Q286.96875 349.45 286.15625 349.45L282.875 349.45ZM284.01562 344.46564L285.875 344.46564Q286.625 344.46564 286.95312 344.3719Q287.39062 344.2469 287.60938 343.95Q287.82812 343.6375 287.82812 343.1844Q287.82812 342.7625 287.625 342.4344Q287.42188 342.10626 287.03125 341.9969Q286.65625 341.8719 285.73438 341.8719L284.01562 341.8719L284.01562 344.46564ZM284.01562 348.4344L286.15625 348.4344Q286.70312 348.4344 286.92188 348.3875Q287.32812 348.325 287.57812 348.16876Q287.84375 347.9969 288.01562 347.6844Q288.1875 347.3719 288.1875 346.96564Q288.1875 346.48126 287.9375 346.1219Q287.70312 345.7625 287.26562 345.6219Q286.82812 345.48126 286.0 345.48126L284.01562 345.48126L284.01562 348.4344ZM295.04688 347.45L296.14062 347.575Q295.89062 348.52814 295.1875 349.0594Q294.48438 349.59064 293.40625 349.59064Q292.04688 349.59064 291.23438 348.7469Q290.4375 347.90314 290.4375 346.3875Q290.4375 344.825 291.25 343.96564Q292.0625 343.09064 293.34375 343.09064Q294.59375 343.09064 295.375 343.9344Q296.17188 344.77814 296.17188 346.325Q296.17188 346.41876 296.17188 346.60626L291.53125 346.60626Q291.59375 347.6375 292.10938 348.1844Q292.625 348.71564 293.40625 348.71564Q293.98438 348.71564 294.39062 348.41876Q294.8125 348.10626 295.04688 347.45ZM291.59375 345.7469L295.0625 345.7469Q295.0 344.95 294.67188 344.5594Q294.15625 343.95 293.35938 343.95Q292.625 343.95 292.125 344.4344Q291.64062 344.91876 291.59375 345.7469ZM297.79688 349.45L297.79688 343.23126L298.73438 343.23126L298.73438 344.10626Q299.42188 343.09064 300.71875 343.09064Q301.28125 343.09064 301.75 343.29376Q302.23438 343.4969 302.46875 343.825Q302.70312 344.15314 302.79688 344.59064Q302.84375 344.8875 302.84375 345.6219L302.84375 349.45L301.79688 349.45L301.79688 345.66876Q301.79688 345.0125 301.67188 344.7Q301.54688 344.3875 301.23438 344.2Q300.92188 343.9969 300.5 343.9969Q299.82812 343.9969 299.32812 344.4344Q298.84375 344.85626 298.84375 346.04376L298.84375 349.45L297.79688 349.45ZM308.85938 347.16876L309.89062 347.3094Q309.71875 348.3719 309.01562 348.98126Q308.3125 349.59064 307.29688 349.59064Q306.01562 349.59064 305.23438 348.7625Q304.46875 347.91876 304.46875 346.35626Q304.46875 345.35626 304.79688 344.60626Q305.14062 343.84064 305.8125 343.46564Q306.5 343.09064 307.3125 343.09064Q308.3125 343.09064 308.95312 343.60626Q309.60938 344.10626 309.79688 345.0594L308.76562 345.21564Q308.625 344.59064 308.25 344.27814Q307.875 343.95 307.34375 343.95Q306.54688 343.95 306.04688 344.52814Q305.54688 345.09064 305.54688 346.325Q305.54688 347.59064 306.03125 348.15314Q306.51562 348.71564 307.28125 348.71564Q307.90625 348.71564 308.3125 348.34064Q308.73438 347.96564 308.85938 347.16876ZM310.79688 349.45L310.79688 340.85626L311.84375 340.85626L311.84375 343.9344Q312.57812 343.09064 313.70312 343.09064Q314.40625 343.09064 314.90625 343.3719Q315.42188 343.6375 315.64062 344.1219Q315.85938 344.59064 315.85938 345.5125L315.85938 349.45L314.8125 349.45L314.8125 345.5125Q314.8125 344.71564 314.46875 344.35626Q314.125 343.9969 313.5 343.9969Q313.03125 343.9969 312.60938 344.2469Q312.20312 344.48126 312.01562 344.90314Q311.84375 345.3094 311.84375 346.04376L311.84375 349.45L310.79688 349.45ZM317.79688 349.45L317.79688 343.23126L318.73438 343.23126L318.73438 344.10626Q319.03125 343.6375 319.51562 343.3719Q320.0 343.09064 320.625 343.09064Q321.3125 343.09064 321.75 343.3719Q322.20312 343.65314 322.375 344.16876Q323.125 343.09064 324.29688 343.09064Q325.23438 343.09064 325.71875 343.60626Q326.21875 344.10626 326.21875 345.1844L326.21875 349.45L325.17188 349.45L325.17188 345.52814Q325.17188 344.90314 325.0625 344.6219Q324.96875 344.34064 324.70312 344.16876Q324.4375 343.9969 324.0625 343.9969Q323.40625 343.9969 322.96875 344.4344Q322.54688 344.8719 322.54688 345.84064L322.54688 349.45L321.48438 349.45L321.48438 345.40314Q321.48438 344.7 321.21875 344.35626Q320.96875 343.9969 320.39062 343.9969Q319.9375 343.9969 319.5625 344.23126Q319.1875 344.46564 319.01562 344.91876Q318.84375 345.3719 318.84375 346.21564L318.84375 349.45L317.79688 349.45ZM332.85938 348.6844Q332.26562 349.1844 331.71875 349.3875Q331.1875 349.59064 330.5625 349.59064Q329.53125 349.59064 328.98438 349.09064Q328.4375 348.59064 328.4375 347.8094Q328.4375 347.35626 328.64062 346.98126Q328.84375 346.59064 329.1875 346.3719Q329.53125 346.1375 329.95312 346.02814Q330.25 345.9344 330.89062 345.85626Q332.15625 345.71564 332.76562 345.4969Q332.76562 345.27814 332.76562 345.23126Q332.76562 344.575 332.46875 344.3094Q332.0625 343.96564 331.26562 343.96564Q330.53125 343.96564 330.17188 344.23126Q329.8125 344.48126 329.64062 345.1375L328.60938 344.9969Q328.75 344.34064 329.07812 343.9344Q329.40625 343.52814 330.01562 343.3094Q330.625 343.09064 331.42188 343.09064Q332.21875 343.09064 332.71875 343.27814Q333.21875 343.46564 333.45312 343.7469Q333.6875 344.02814 333.78125 344.46564Q333.82812 344.73126 333.82812 345.4344L333.82812 346.84064Q333.82812 348.3094 333.89062 348.7Q333.96875 349.09064 334.17188 349.45L333.0625 349.45Q332.90625 349.1219 332.85938 348.6844ZM332.76562 346.325Q332.1875 346.5594 331.04688 346.73126Q330.39062 346.825 330.125 346.95Q329.85938 347.0594 329.70312 347.27814Q329.5625 347.4969 329.5625 347.77814Q329.5625 348.2 329.875 348.48126Q330.20312 348.7625 330.8125 348.7625Q331.42188 348.7625 331.89062 348.4969Q332.375 348.23126 332.59375 347.7625Q332.76562 347.40314 332.76562 346.71564L332.76562 346.325ZM335.78125 349.45L335.78125 343.23126L336.73438 343.23126L336.73438 344.16876Q337.09375 343.5125 337.39062 343.3094Q337.70312 343.09064 338.07812 343.09064Q338.60938 343.09064 339.15625 343.41876L338.79688 344.40314Q338.40625 344.16876 338.03125 344.16876Q337.67188 344.16876 337.39062 344.3875Q337.125 344.59064 337.01562 344.96564Q336.82812 345.52814 336.82812 346.1844L336.82812 349.45L335.78125 349.45ZM339.79688 349.45L339.79688 340.85626L340.85938 340.85626L340.85938 345.7625L343.34375 343.23126L344.71875 343.23126L342.32812 345.52814L344.95312 349.45L343.65625 349.45L341.59375 346.2625L340.85938 346.98126L340.85938 349.45L339.79688 349.45Z" fill-rule="nonzero"/><path fill="#000000" d="M33.05 300.21564Q33.05 298.6844 33.3625 297.7625Q33.675 296.825 34.284374 296.325Q34.909374 295.825 35.846874 295.825Q36.534374 295.825 37.05 296.10626Q37.58125 296.3875 37.925 296.91876Q38.26875 297.4344 38.45625 298.1844Q38.64375 298.9344 38.64375 300.21564Q38.64375 301.73126 38.33125 302.65314Q38.034374 303.575 37.409374 304.09064Q36.8 304.59064 35.846874 304.59064Q34.6125 304.59064 33.89375 303.7Q33.05 302.6375 33.05 300.21564ZM34.128124 300.21564Q34.128124 302.325 34.628124 303.02814Q35.128124 303.73126 35.846874 303.73126Q36.58125 303.73126 37.065624 303.02814Q37.565624 302.325 37.565624 300.21564Q37.565624 298.09064 37.065624 297.40314Q36.58125 296.7 35.83125 296.7Q35.1125 296.7 34.675 297.3094Q34.128124 298.09064 34.128124 300.21564Z" fill-rule="nonzero"/><path fill="#000000" d="M33.05 177.93333L34.159374 177.83958Q34.284374 178.65208 34.721874 179.05833Q35.175 179.46458 35.815624 179.46458Q36.565624 179.46458 37.096874 178.88646Q37.628124 178.30833 37.628124 177.37083Q37.628124 176.46458 37.1125 175.94896Q36.6125 175.41771 35.784374 175.41771Q35.284374 175.41771 34.8625 175.65208Q34.45625 175.88646 34.221874 176.24583L33.2375 176.12083L34.065624 171.71458L38.346874 171.71458L38.346874 172.71458L34.909374 172.71458L34.45625 175.02708Q35.221874 174.48021 36.065624 174.48021Q37.190624 174.48021 37.95625 175.26146Q38.7375 176.04271 38.7375 177.27708Q38.7375 178.43333 38.065624 179.29271Q37.2375 180.32396 35.815624 180.32396Q34.64375 180.32396 33.89375 179.66771Q33.159374 179.01146 33.05 177.93333Z" fill-rule="nonzero"/><path fill="#000000" d="M30.01875 55.916668L28.971874 55.916668L28.971874 49.197918Q28.58125 49.557293 27.95625 49.932293Q27.346874 50.291668 26.8625 50.463543L26.8625 49.447918Q27.7375 49.026043 28.39375 48.447918Q29.065624 47.854168 29.346874 47.291668L30.01875 47.291668L30.01875 55.916668ZM33.05 51.682293Q33.05 50.151043 33.3625 49.229168Q33.675 48.291668 34.284374 47.791668Q34.909374 47.291668 35.846874 47.291668Q36.534374 47.291668 37.05 47.572918Q37.58125 47.854168 37.925 48.385418Q38.26875 48.901043 38.45625 49.651043Q38.64375 50.401043 38.64375 51.682293Q38.64375 53.197918 38.33125 54.119793Q38.034374 55.041668 37.409374 55.557293Q36.8 56.057293 35.846874 56.057293Q34.6125 56.057293 33.89375 55.166668Q33.05 54.104168 33.05 51.682293ZM34.128124 51.682293Q34.128124 53.791668 34.628124 54.494793Q35.128124 55.197918 35.846874 55.197918Q36.58125 55.197918 37.065624 54.494793Q37.565624 53.791668 37.565624 51.682293Q37.565624 49.557293 37.065624 48.869793Q36.58125 48.166668 35.83125 48.166668Q35.1125 48.166668 34.675 48.776043Q34.128124 49.557293 34.128124 51.682293Z" fill-rule="nonzero"/><path fill="#000000" d="M135.57672 314.6844L136.63922 314.59064Q136.71735 315.2469 136.9986 315.65314Q137.27985 316.0594 137.85797 316.325Q138.45172 316.575 139.1861 316.575Q139.82672 316.575 140.32672 316.3875Q140.82672 316.1844 141.0611 315.85626Q141.3111 315.5125 141.3111 315.1219Q141.3111 314.71564 141.07672 314.41876Q140.84235 314.10626 140.3111 313.90314Q139.95172 313.7625 138.76422 313.48126Q137.59235 313.2 137.1236 312.95Q136.4986 312.6219 136.20172 312.15314Q135.90485 311.66876 135.90485 311.075Q135.90485 310.4344 136.26422 309.8719Q136.63922 309.29376 137.34235 309.0125Q138.0611 308.71564 138.92047 308.71564Q139.8736 308.71564 140.60797 309.02814Q141.34235 309.325 141.73297 309.9344Q142.1236 310.52814 142.15485 311.27814L141.0611 311.35626Q140.96735 310.54376 140.45172 310.1375Q139.95172 309.71564 138.96735 309.71564Q137.9361 309.71564 137.46735 310.09064Q136.9986 310.46564 136.9986 310.9969Q136.9986 311.46564 137.32672 311.7625Q137.65485 312.0594 139.02985 312.3719Q140.42047 312.6844 140.9361 312.91876Q141.6861 313.27814 142.04547 313.8094Q142.40485 314.325 142.40485 315.02814Q142.40485 315.71564 142.01422 316.325Q141.6236 316.91876 140.88922 317.2625Q140.15485 317.59064 139.23297 317.59064Q138.0611 317.59064 137.26422 317.2625Q136.48297 316.91876 136.02985 316.23126Q135.59235 315.54376 135.57672 314.6844ZM143.01422 317.45L146.3111 308.85626L147.52985 308.85626L151.04547 317.45L149.76422 317.45L148.7486 314.84064L145.17047 314.84064L144.21735 317.45L143.01422 317.45ZM145.4986 313.91876L148.40485 313.91876L147.51422 311.54376Q147.09235 310.46564 146.90485 309.7625Q146.73297 310.59064 146.4361 311.40314L145.4986 313.91876ZM150.07672 317.45L153.40485 312.96564L150.48297 308.85626L151.82672 308.85626L153.38922 311.0594Q153.8736 311.7469 154.07672 312.1219Q154.3736 311.65314 154.76422 311.1375L156.48297 308.85626L157.71735 308.85626L154.70172 312.90314L157.95172 317.45L156.54547 317.45L154.38922 314.3875Q154.20172 314.1219 154.01422 313.8094Q153.73297 314.27814 153.60797 314.45L151.45172 317.45L150.07672 317.45ZM157.95172 317.45L157.95172 308.85626L161.20172 308.85626Q162.04547 308.85626 162.4986 308.9344Q163.13922 309.04376 163.5611 309.34064Q163.9986 309.6375 164.2486 310.16876Q164.51422 310.7 164.51422 311.34064Q164.51422 312.4344 163.8111 313.2Q163.1236 313.95 161.29547 313.95L159.09235 313.95L159.09235 317.45L157.95172 317.45ZM159.09235 312.95L161.3111 312.95Q162.42047 312.95 162.8736 312.54376Q163.34235 312.1219 163.34235 311.3719Q163.34235 310.84064 163.0611 310.46564Q162.79547 310.075 162.35797 309.95Q162.0611 309.8719 161.29547 309.8719L159.09235 309.8719L159.09235 312.95ZM168.3736 317.45L168.3736 313.8094L165.0611 308.85626L166.45172 308.85626L168.13922 311.45Q168.60797 312.16876 169.01422 312.90314Q169.40485 312.23126 169.95172 311.3875L171.6236 308.85626L172.9361 308.85626L169.51422 313.8094L169.51422 317.45L168.3736 317.45Z" fill-rule="nonzero"/><path fill="#000000" d="M295.42188 317.45L295.42188 308.85626L298.39062 308.85626Q299.39062 308.85626 299.92188 308.98126Q300.65625 309.15314 301.17188 309.59064Q301.85938 310.16876 302.1875 311.075Q302.53125 311.96564 302.53125 313.10626Q302.53125 314.09064 302.29688 314.84064Q302.07812 315.59064 301.71875 316.09064Q301.35938 316.59064 300.92188 316.8719Q300.5 317.15314 299.90625 317.3094Q299.3125 317.45 298.53125 317.45L295.42188 317.45ZM296.5625 316.4344L298.39062 316.4344Q299.25 316.4344 299.73438 316.27814Q300.21875 316.1219 300.5 315.825Q300.90625 315.4344 301.125 314.7469Q301.35938 314.0594 301.35938 313.09064Q301.35938 311.7469 300.90625 311.02814Q300.46875 310.29376 299.84375 310.04376Q299.375 309.8719 298.375 309.8719L296.5625 309.8719L296.5625 316.4344ZM303.48438 317.45L306.78125 308.85626L308.0 308.85626L311.51562 317.45L310.23438 317.45L309.21875 314.84064L305.64062 314.84064L304.6875 317.45L303.48438 317.45ZM305.96875 313.91876L308.875 313.91876L307.98438 311.54376Q307.5625 310.46564 307.375 309.7625Q307.20312 310.59064 306.90625 311.40314L305.96875 313.91876ZM310.54688 317.45L313.875 312.96564L310.95312 308.85626L312.29688 308.85626L313.85938 311.0594Q314.34375 311.7469 314.54688 312.1219Q314.84375 311.65314 315.23438 311.1375L316.95312 308.85626L318.1875 308.85626L315.17188 312.90314L318.42188 317.45L317.01562 317.45L314.85938 314.3875Q314.67188 314.1219 314.48438 313.8094Q314.20312 314.27814 314.07812 314.45L311.92188 317.45L310.54688 317.45ZM318.42188 317.45L318.42188 308.85626L321.67188 308.85626Q322.51562 308.85626 322.96875 308.9344Q323.60938 309.04376 324.03125 309.34064Q324.46875 309.6375 324.71875 310.16876Q324.98438 310.7 324.98438 311.34064Q324.98438 312.4344 324.28125 313.2Q323.59375 313.95 321.76562 313.95L319.5625 313.95L319.5625 317.45L318.42188 317.45ZM319.5625 312.95L321.78125 312.95Q322.89062 312.95 323.34375 312.54376Q323.8125 312.1219 323.8125 311.3719Q323.8125 310.84064 323.53125 310.46564Q323.26562 310.075 322.82812 309.95Q322.53125 309.8719 321.76562 309.8719L319.5625 309.8719L319.5625 312.95ZM328.84375 317.45L328.84375 313.8094L325.53125 308.85626L326.92188 308.85626L328.60938 311.45Q329.07812 312.16876 329.48438 312.90314Q329.875 312.23126 330.42188 311.3875L332.09375 308.85626L333.40625 308.85626L329.98438 313.8094L329.98438 317.45L328.84375 317.45Z" fill-rule="nonzero"/><path fill="#000000" d="M453.51703 314.6844L454.57953 314.59064Q454.65765 315.2469 454.9389 315.65314Q455.22015 316.0594 455.79828 316.325Q456.39203 316.575 457.1264 316.575Q457.76703 316.575 458.26703 316.3875Q458.76703 316.1844 459.0014 315.85626Q459.2514 315.5125 459.2514 315.1219Q459.2514 314.71564 459.01703 314.41876Q458.78265 314.10626 458.2514 313.90314Q457.89203 313.7625 456.70453 313.48126Q455.53265 313.2 455.0639 312.95Q454.4389 312.6219 454.14203 312.15314Q453.84515 311.66876 453.84515 311.075Q453.84515 310.4344 454.20453 309.8719Q454.57953 309.29376 455.28265 309.0125Q456.0014 308.71564 456.86078 308.71564Q457.8139 308.71564 458.54828 309.02814Q459.28265 309.325 459.67328 309.9344Q460.0639 310.52814 460.09515 311.27814L459.0014 311.35626Q458.90765 310.54376 458.39203 310.1375Q457.89203 309.71564 456.90765 309.71564Q455.8764 309.71564 455.40765 310.09064Q454.9389 310.46564 454.9389 310.9969Q454.9389 311.46564 455.26703 311.7625Q455.59515 312.0594 456.97015 312.3719Q458.36078 312.6844 458.8764 312.91876Q459.6264 313.27814 459.98578 313.8094Q460.34515 314.325 460.34515 315.02814Q460.34515 315.71564 459.95453 316.325Q459.5639 316.91876 458.82953 317.2625Q458.09515 317.59064 457.17328 317.59064Q456.0014 317.59064 455.20453 317.2625Q454.42328 316.91876 453.97015 316.23126Q453.53265 315.54376 453.51703 314.6844ZM465.92328 314.075L465.92328 313.075L469.54828 313.0594L469.54828 316.2469Q468.72015 316.91876 467.82953 317.2625Q466.9389 317.59064 466.0014 317.59064Q464.73578 317.59064 463.6889 317.0594Q462.65765 316.5125 462.1264 315.4969Q461.61078 314.46564 461.61078 313.2Q461.61078 311.9344 462.1264 310.85626Q462.65765 309.7625 463.64203 309.2469Q464.6264 308.71564 465.90765 308.71564Q466.84515 308.71564 467.59515 309.0125Q468.34515 309.3094 468.76703 309.85626Q469.20453 310.3875 469.42328 311.2625L468.40765 311.54376Q468.20453 310.8875 467.90765 310.5125Q467.6264 310.1375 467.09515 309.91876Q466.5639 309.6844 465.92328 309.6844Q465.14203 309.6844 464.5639 309.91876Q464.0014 310.15314 463.64203 310.54376Q463.29828 310.9344 463.11078 311.40314Q462.78265 312.2 462.78265 313.1219Q462.78265 314.27814 463.17328 315.0594Q463.57953 315.825 464.32953 316.2Q465.07953 316.575 465.9389 316.575Q466.67328 316.575 467.3764 316.29376Q468.07953 315.9969 468.4389 315.6844L468.4389 314.075L465.92328 314.075ZM470.92328 317.45L470.92328 308.85626L477.1264 308.85626L477.1264 309.8719L472.0639 309.8719L472.0639 312.4969L476.8139 312.4969L476.8139 313.5125L472.0639 313.5125L472.0639 316.4344L477.32953 316.4344L477.32953 317.45L470.92328 317.45ZM478.86078 317.45L478.86078 308.85626L480.57953 308.85626L482.61078 314.9344Q482.89203 315.79376 483.01703 316.21564Q483.15765 315.7469 483.47015 314.84064L485.53265 308.85626L487.0639 308.85626L487.0639 317.45L485.97015 317.45L485.97015 310.2625L483.47015 317.45L482.4389 317.45L479.95453 310.1375L479.95453 317.45L478.86078 317.45ZM490.34515 317.45L487.01703 308.85626L488.2514 308.85626L490.48578 315.10626Q490.7514 315.85626 490.9389 316.5125Q491.14203 315.8094 491.40765 315.10626L493.72015 308.85626L494.8764 308.85626L491.51703 317.45L490.34515 317.45Z" fill-rule="nonzero"/><path fill="#9900ff" d="M245.0 20.55C245.0 19.997715 245.44771 19.55 246.0 19.55L256.0 19.55C256.55228 19.55 257.0 19.997715 257.0 20.55L257.0 30.55C257.0 31.102285 256.55228 31.55 256.0 31.55L246.0 31.55C245.44771 31.55 245.0 31.102285 245.0 30.55Z" fill-rule="nonzero"/><path fill="#1a1a1a" d="M265.875 29.55L265.875 20.95625L269.10938 20.95625Q270.09375 20.95625 270.6875 21.221874Q271.28125 21.4875 271.60938 22.034374Q271.95312 22.565624 271.95312 23.159374Q271.95312 23.70625 271.65625 24.190624Q271.35938 24.675 270.75 24.971874Q271.53125 25.20625 271.9375 25.76875Q272.35938 26.315624 272.35938 27.065624Q272.35938 27.659374 272.10938 28.190624Q271.85938 28.70625 271.48438 28.9875Q271.10938 29.26875 270.53125 29.409374Q269.96875 29.55 269.15625 29.55L265.875 29.55ZM267.01562 24.565624L268.875 24.565624Q269.625 24.565624 269.95312 24.471874Q270.39062 24.346874 270.60938 24.05Q270.82812 23.7375 270.82812 23.284374Q270.82812 22.8625 270.625 22.534374Q270.42188 22.20625 270.03125 22.096874Q269.65625 21.971874 268.73438 21.971874L267.01562 21.971874L267.01562 24.565624ZM267.01562 28.534374L269.15625 28.534374Q269.70312 28.534374 269.92188 28.4875Q270.32812 28.425 270.57812 28.26875Q270.84375 28.096874 271.01562 27.784374Q271.1875 27.471874 271.1875 27.065624Q271.1875 26.58125 270.9375 26.221874Q270.70312 25.8625 270.26562 25.721874Q269.82812 25.58125 269.0 25.58125L267.01562 25.58125L267.01562 28.534374ZM273.875 29.55L273.875 20.95625L275.01562 20.95625L275.01562 28.534374L279.25 28.534374L279.25 29.55L273.875 29.55ZM279.98438 29.55L283.28125 20.95625L284.5 20.95625L288.01562 29.55L286.73438 29.55L285.71875 26.940624L282.14062 26.940624L281.1875 29.55L279.98438 29.55ZM282.46875 26.01875L285.375 26.01875L284.48438 23.64375Q284.0625 22.565624 283.875 21.8625Q283.70312 22.690624 283.40625 23.503124L282.46875 26.01875ZM287.54688 26.784374L288.60938 26.690624Q288.6875 27.346874 288.96875 27.753124Q289.25 28.159374 289.82812 28.425Q290.42188 28.675 291.15625 28.675Q291.79688 28.675 292.29688 28.4875Q292.79688 28.284374 293.03125 27.95625Q293.28125 27.6125 293.28125 27.221874Q293.28125 26.815624 293.04688 26.51875Q292.8125 26.20625 292.28125 26.003124Q291.92188 25.8625 290.73438 25.58125Q289.5625 25.3 289.09375 25.05Q288.46875 24.721874 288.17188 24.253124Q287.875 23.76875 287.875 23.175Q287.875 22.534374 288.23438 21.971874Q288.60938 21.39375 289.3125 21.1125Q290.03125 20.815624 290.89062 20.815624Q291.84375 20.815624 292.57812 21.128124Q293.3125 21.425 293.70312 22.034374Q294.09375 22.628124 294.125 23.378124L293.03125 23.45625Q292.9375 22.64375 292.42188 22.2375Q291.92188 21.815624 290.9375 21.815624Q289.90625 21.815624 289.4375 22.190624Q288.96875 22.565624 288.96875 23.096874Q288.96875 23.565624 289.29688 23.8625Q289.625 24.159374 291.0 24.471874Q292.39062 24.784374 292.90625 25.01875Q293.65625 25.378124 294.01562 25.909374Q294.375 26.425 294.375 27.128124Q294.375 27.815624 293.98438 28.425Q293.59375 29.01875 292.85938 29.3625Q292.125 29.690624 291.20312 29.690624Q290.03125 29.690624 289.23438 29.3625Q288.45312 29.01875 288.0 28.33125Q287.5625 27.64375 287.54688 26.784374Z" fill-rule="nonzero"/><path fill="#ffd966" d="M311.0 20.55C311.0 19.997715 311.44772 19.55 312.0 19.55L322.0 19.55C322.55228 19.55 323.0 19.997715 323.0 20.55L323.0 30.55C323.0 31.102285 322.55228 31.55 322.0 31.55L312.0 31.55C311.44772 31.55 311.0 31.102285 311.0 30.55Z" fill-rule="nonzero"/><path fill="#1a1a1a" d="M331.89062 29.55L331.89062 20.95625L333.60938 20.95625L335.64062 27.034374Q335.92188 27.89375 336.04688 28.315624Q336.1875 27.846874 336.5 26.940624L338.5625 20.95625L340.09375 20.95625L340.09375 29.55L339.0 29.55L339.0 22.3625L336.5 29.55L335.46875 29.55L332.98438 22.2375L332.98438 29.55L331.89062 29.55ZM340.875 29.55L340.875 20.95625L342.01562 20.95625L342.01562 25.221874L346.28125 20.95625L347.82812 20.95625L344.21875 24.440624L347.98438 29.55L346.48438 29.55L343.42188 25.20625L342.01562 26.565624L342.01562 29.55L340.875 29.55ZM348.875 29.55L348.875 20.95625L350.01562 20.95625L350.01562 28.534374L354.25 28.534374L354.25 29.55L348.875 29.55Z" fill-rule="nonzero"/></svg>