<?xml version="1.0" encoding="utf-8"?>
<!DOCTYPE svg PUBLIC "-//W3C//DTD SVG 1.1//EN" "http://www.w3.org/Graphics/SVG/1.1/DTD/svg11.dtd" [
	<!ENTITY ns_svg "http://www.w3.org/2000/svg">
	<!ENTITY ns_xlink "http://www.w3.org/1999/xlink">
]>
<svg  version="1.1" id="Layer_1" xmlns="&ns_svg;" xmlns:xlink="&ns_xlink;" width="400" height="400" viewBox="0 0 400 400"
	 overflow="visible" enable-background="new 0 0 400 400" xml:space="preserve">
<rect fill="#FFFFFF" width="400" height="400"/>
<path fill="#00FFFF" d="M330.248,144.0928c33.5879,19.5713,58.0996,53.8916,63.6465,95.4014
	c9.5371,71.3516-40.5762,136.9219-111.9277,146.459c-29.8262,3.9863-58.6504-2.4551-82.7891-16.5098"/>
<path fill="#FF00FF" d="M199.1758,369.4395c-14.2422,8.166-30.2764,13.7578-47.5547,16.0684
	C80.2705,395.0449,14.6992,344.9316,5.1641,273.584c-7.1514-53.5098,19.2471-103.7764,62.9951-129.585
	c0.4561-0.2695,0.915-0.5361,1.375-0.7998"/>
<path fill="#FFFF00" d="M69.5352,143.2061c0.1367-64.1943,47.6924-120.0107,113.0908-128.751
	C253.9746,4.918,319.5449,55.0312,329.082,126.3809c0.7969,5.9512,1.1777,11.8643,1.166,17.7061"/>
<path fill="#00FF00" d="M198.5078,144.4434c14.5801-8.6035,31.0938-14.4893,48.9316-16.874
	c29.8379-3.9893,58.666,2.457,82.8086,16.5234v-0.0059c-0.1016,47.2324-25.875,89.9287-65.5312,112.6768"/>
<path fill="#FF0000" d="M134.3467,256.3145c-33.583-19.5684-58.0996-53.8926-63.6494-95.4014
	c-0.7939-5.9521-1.1719-11.8652-1.1621-17.707l-0.001-0.0068c14.2422-8.1689,30.2764-13.7646,47.5547-16.0742
	c29.8359-3.9873,58.6592,2.4541,82.8018,16.5156"/>
<path fill="#0000FF" d="M264.709,256.7598c-0.0957,47.2363-25.8672,89.9316-65.5332,112.6797l0.002,0.0039
	c-33.5928-19.5684-58.1172-53.8965-63.667-95.4141c-0.7959-5.9551-1.1738-11.8672-1.1641-17.7109"/>
<path fill="#000000" d="M264.7168,256.7637c-14.248,8.168-30.2793,13.7656-47.5586,16.0762
	c-29.8379,3.9844-58.6689-2.4551-82.8115-16.5254v0.0039c0.1006-46.6816,25.2783-88.9365,64.1611-111.875l1.3828-0.8027
	c33.5898,19.5703,58.1113,53.8945,63.6602,95.4082c0.793,5.9551,1.1738,11.8672,1.1582,17.7109L264.7168,256.7637z"/>
<g>
	<g>
		<path d="M197.5391,93.0293V76.5029l-12.7539-23.832h10.4785l4.0713,9.7002c1.2578,2.9346,2.1562,5.0898,3.1143,7.7246h0.1191
			c0.8984-2.5146,1.8574-4.8496,3.0547-7.7246l4.0723-9.7002h10.2383l-13.293,23.5322v16.8262H197.5391z"/>
	</g>
	<g>
		<path d="M97.1006,302.8906c-0.1797-4.8516-0.3594-10.6602-0.3594-16.5879h-0.1191c-1.3164,5.1504-2.9941,10.8984-4.5508,15.6289
			l-4.9102,15.748h-7.125l-4.3115-15.5684c-1.3174-4.791-2.6348-10.4785-3.6523-15.8086h-0.1201
			c-0.1797,5.4492-0.4189,11.6777-0.6582,16.7051l-0.7783,15.3301h-8.4434l2.5752-40.3574h12.1543l3.9531,13.5312
			c1.3164,4.6113,2.5137,9.6406,3.4121,14.3711h0.2402c1.0781-4.6699,2.4551-9.9395,3.832-14.4902l4.252-13.4121h11.9746
			l2.1562,40.3574h-8.8613L97.1006,302.8906z"/>
	</g>
	<g>
		<path d="M344.6445,306.5059c-1.6172,0.7793-5.4492,1.7363-10.3008,1.7363c-13.9492,0-21.1367-8.7422-21.1367-20.2969
			c0-13.7734,9.8203-21.3789,22.0352-21.3789c4.7305,0,8.3242,0.959,9.9414,1.7969l-1.918,7.1855
			c-1.7969-0.7793-4.3711-1.498-7.6641-1.498c-7.1836,0-12.8125,4.3711-12.8125,13.4141c0,8.084,4.7891,13.1719,12.875,13.1719
			c2.8125,0,5.8047-0.5371,7.6641-1.3164L344.6445,306.5059z"/>
	</g>
</g>
</svg>
